<svg width="478" height="197" viewBox="0 0 478 197" fill="none" xmlns="http://www.w3.org/2000/svg">
<path d="M178.086 23.0127C189.84 10.906 205.83 3.2367 222.512 1.00737C242.768 -1.86197 264.475 1.23137 281.883 12.442C300.518 24.3034 312.742 44.442 317.99 65.594C318.278 67.4714 319.377 69.626 317.937 71.3007C306.907 87.5247 295.409 103.471 284.635 119.845C284.23 133.317 284.593 146.821 284.465 160.293C290.875 160.421 297.275 159.813 303.697 159.887C300.123 159.759 296.55 159.855 292.987 160.015C292.987 147.322 292.966 134.618 292.987 121.925C292.678 119.333 294.673 117.466 295.952 115.471C321.595 78.4047 347.195 41.2954 372.827 4.20737C394.598 4.15403 416.368 4.14337 438.139 4.0687C415.238 38.6394 392.219 73.1247 369.275 107.663C368.614 108.709 367.995 109.775 367.387 110.853C375.643 110.991 383.899 110.842 392.155 110.981C392.443 101.359 392.176 91.7274 392.304 82.106C412.24 82.1807 432.187 82.1274 452.134 82.138C452.219 91.7274 452.102 101.327 452.187 110.917C460.518 110.863 468.859 111.098 477.19 110.767C477.265 127.279 477.137 143.791 477.243 160.293C468.891 160.25 460.529 160.325 452.177 160.261C452.155 170.981 452.145 181.711 452.177 192.431C431.579 192.357 410.982 192.474 390.385 192.378C390.449 181.669 390.47 170.959 390.374 160.25C362.128 160.325 333.883 160.282 305.638 160.271C300.016 168.613 293.307 176.378 284.891 182.01C270.171 193.039 251.302 197.231 233.169 196.623C217.478 196.143 201.552 191.866 188.774 182.511C179.515 176.282 171.814 167.823 166.139 158.255C153.232 137.381 150.171 111.983 151.643 87.898C152.891 64.1967 161.062 40.0474 178.086 23.0127ZM231.697 51.4287C227.771 52.6447 224.475 55.418 222.384 58.9274C217.68 66.6394 216.358 75.8127 215.526 84.6554C214.705 96.2287 214.726 107.93 216.39 119.429C217.723 127.29 219.686 135.674 225.446 141.562C231.088 147.173 240.987 147.365 246.929 142.106C251.249 138.106 253.574 132.463 255.035 126.863C257.819 115.898 258.086 104.495 257.894 93.2527C257.563 83.5887 256.784 73.7327 253.371 64.602C251.611 60.0367 248.987 55.482 244.646 52.954C240.816 50.5967 235.974 50.2447 231.697 51.4287Z" fill="#3355FF"/>
<path d="M80.7966 4.20733C102.535 4.154 124.274 4.10067 146.013 4.122C122.578 39.802 98.6312 75.1513 75.2072 110.842C83.5272 110.927 91.8579 110.927 100.189 110.885C100.327 101.317 100.327 91.738 100.178 82.17C114.61 82.0847 129.042 82.2127 143.463 82.106C141.383 107.685 143.485 135.002 157.149 157.381C158.375 159.706 160.263 161.925 160.135 164.709C160.199 173.957 160.146 183.194 160.135 192.442C139.559 192.389 118.983 192.421 98.4072 192.431C98.3752 181.679 98.5032 170.938 98.3326 160.197C65.7992 160.431 33.2766 160.261 0.753906 160.282C1.18057 146.639 0.284576 132.815 1.34058 119.279C27.7512 80.89 54.2793 42.5433 80.7966 4.20733Z" fill="#3355FF"/>
</svg>
