<svg width="173" height="48" viewBox="0 0 173 48" fill="none" xmlns="http://www.w3.org/2000/svg">
<path d="M46.583 4.08606V14.5045H49.719C51.383 14.5045 52.663 13.9932 53.687 13.0345C54.711 12.0757 55.159 10.7974 55.159 9.26334C55.159 7.72933 54.647 6.45099 53.687 5.49223C52.727 4.53348 51.383 4.08606 49.719 4.08606H46.583ZM49.719 5.62007C50.871 5.62007 51.831 5.93966 52.471 6.64274C53.175 7.28191 53.495 8.17675 53.495 9.32726C53.495 10.4139 53.175 11.3087 52.471 12.0118C51.767 12.7149 50.871 13.0345 49.719 13.0345H48.183V5.62007H49.719Z" fill="#010202"/>
<path d="M60.4709 6.57886C59.3829 6.57886 58.4229 6.96236 57.6549 7.72937C56.8869 8.49637 56.5029 9.45513 56.5029 10.6056C56.5029 11.7561 56.8869 12.7149 57.6549 13.4819C58.4229 14.2489 59.3189 14.6324 60.4709 14.6963C61.5589 14.6963 62.5189 14.3128 63.2869 13.5458C64.0549 12.7788 64.4389 11.8201 64.4389 10.6696C64.4389 9.51905 64.0549 8.56029 63.2869 7.79328C62.4549 6.96236 61.5589 6.57886 60.4709 6.57886ZM60.4709 8.11287C61.1109 8.11287 61.6869 8.36854 62.1349 8.87988C62.5829 9.3273 62.7749 9.96646 62.7749 10.6696C62.7749 11.3726 62.5189 12.0118 62.1349 12.4592C61.6869 12.9067 61.1109 13.1623 60.4709 13.1623C59.8309 13.1623 59.2549 12.9067 58.8069 12.4592C58.3589 11.9479 58.1669 11.3726 58.1669 10.6696C58.1669 9.96646 58.3589 9.3273 58.8069 8.87988C59.2549 8.36854 59.8309 8.11287 60.4709 8.11287Z" fill="#010202"/>
<path d="M73.8466 11.7561L71.5427 6.57886H70.9666L68.7266 11.8201L66.7427 6.77061H65.0146L68.3427 14.6963H68.9187L71.2866 9.51905L73.6546 14.6963H74.2306L77.4946 6.77061H75.7666L73.8466 11.7561Z" fill="#010202"/>
<path d="M82.6153 6.57886C81.7193 6.57886 80.9513 6.89844 80.3753 7.53761V6.77061H78.9033V14.5046H80.5033V9.90255C80.5033 8.81596 81.2073 8.11287 82.2313 8.11287C83.1913 8.11287 83.8313 8.81596 83.8313 9.90255V14.5046H85.4313V9.64688C85.4313 7.79328 84.3433 6.57886 82.6153 6.57886Z" fill="#010202"/>
<path d="M87.6074 2.67993V14.5046H89.2074V2.67993H87.6074Z" fill="#010202"/>
<path d="M94.967 6.57886C93.879 6.57886 92.919 6.96236 92.151 7.72937C91.383 8.49637 90.999 9.45513 90.999 10.6056C90.999 11.7561 91.383 12.7149 92.151 13.4819C92.919 14.2489 93.815 14.6324 94.967 14.6963C96.055 14.6963 97.015 14.3128 97.783 13.5458C98.551 12.7788 98.935 11.8201 98.935 10.6696C98.935 9.51905 98.551 8.56029 97.783 7.79328C97.015 6.96236 96.055 6.57886 94.967 6.57886ZM95.031 8.11287C95.671 8.11287 96.247 8.36854 96.695 8.87988C97.143 9.3273 97.335 9.96646 97.335 10.6696C97.335 11.3726 97.079 12.0118 96.695 12.4592C96.247 12.9067 95.671 13.1623 95.031 13.1623C94.391 13.1623 93.815 12.9067 93.367 12.4592C92.919 11.9479 92.727 11.3726 92.727 10.6696C92.727 9.96646 92.919 9.3273 93.367 8.87988C93.751 8.36854 94.327 8.11287 95.031 8.11287Z" fill="#010202"/>
<path d="M103.671 6.57886C102.327 6.57886 101.303 7.15412 100.535 8.24071L101.431 9.19946C102.071 8.43246 102.775 8.04895 103.479 8.04895C104.503 8.04895 105.079 8.62421 105.079 9.7108V10.2221H102.967C101.303 10.2221 100.215 11.117 100.215 12.4592C100.215 13.8015 101.239 14.6963 102.839 14.6963C103.863 14.6963 104.631 14.3767 105.207 13.6737V14.5685H106.679V9.90255C106.679 7.72937 105.463 6.57886 103.671 6.57886ZM103.159 13.418C102.391 13.418 101.879 13.0345 101.879 12.3953C101.879 11.7561 102.327 11.4366 103.223 11.4366H105.143V11.5644C105.079 12.651 104.247 13.418 103.159 13.418Z" fill="#010202"/>
<path d="M114.551 7.72946C113.975 6.96245 113.143 6.57895 112.055 6.57895C111.031 6.57895 110.135 6.96245 109.431 7.72946C108.727 8.49646 108.407 9.45522 108.407 10.6057C108.407 11.7562 108.727 12.715 109.431 13.482C110.135 14.249 110.967 14.6325 112.055 14.6325C113.207 14.6325 114.103 14.1851 114.679 13.3542V14.4408H116.151V2.61609H114.551V7.72946ZM112.375 13.1624C111.735 13.1624 111.159 12.9067 110.711 12.4593C110.263 12.0119 110.071 11.3727 110.071 10.6057C110.071 9.83872 110.263 9.26347 110.711 8.81605C111.159 8.36863 111.671 8.11296 112.375 8.11296C112.951 8.11296 113.527 8.30471 113.975 8.75213C114.423 9.19955 114.615 9.83872 114.615 10.6057C114.615 12.3315 113.591 13.1624 112.375 13.1624Z" fill="#010202"/>
<path d="M126.198 6.57886C125.11 6.57886 124.15 6.96236 123.382 7.72937C122.614 8.49637 122.23 9.45513 122.23 10.6056C122.23 11.7561 122.614 12.7149 123.382 13.4819C124.15 14.2489 125.046 14.6324 126.198 14.6963C127.286 14.6963 128.246 14.3128 129.014 13.5458C129.782 12.7788 130.166 11.8201 130.166 10.6696C130.166 9.51905 129.782 8.56029 129.014 7.79328C128.182 6.96236 127.286 6.57886 126.198 6.57886ZM126.198 8.11287C126.838 8.11287 127.414 8.36854 127.862 8.87988C128.31 9.3273 128.502 9.96646 128.502 10.6696C128.502 11.3726 128.246 12.0118 127.862 12.4592C127.414 12.9067 126.838 13.1623 126.198 13.1623C125.558 13.1623 124.982 12.9067 124.534 12.4592C124.086 11.9479 123.894 11.3726 123.894 10.6696C123.894 9.96646 124.086 9.3273 124.534 8.87988C124.982 8.36854 125.558 8.11287 126.198 8.11287Z" fill="#010202"/>
<path d="M135.671 6.57886C134.775 6.57886 134.007 6.89844 133.431 7.53761V6.77061H131.959V14.5046H133.559V9.90255C133.559 8.81596 134.263 8.11287 135.287 8.11287C136.247 8.11287 136.887 8.81596 136.887 9.90255V14.5046H138.487V9.64688C138.487 7.79328 137.463 6.57886 135.671 6.57886Z" fill="#010202"/>
<path d="M148.407 13.1624C147.447 13.1624 146.935 12.8428 146.935 11.8201V8.17686H149.175V6.77069H146.935V4.72534H145.335V6.77069H144.119V8.17686H145.335V11.948C145.335 13.7377 146.359 14.6325 148.087 14.6325C148.471 14.6325 148.919 14.5686 149.431 14.4407V13.0346C148.919 13.1624 148.599 13.1624 148.407 13.1624Z" fill="#010202"/>
<path d="M154.743 6.57887C153.847 6.57887 153.143 6.89846 152.567 7.53763V2.67993H150.967V14.5046H152.567V9.90257C152.567 8.81598 153.271 8.11288 154.295 8.11288C155.255 8.11288 155.895 8.81598 155.895 9.90257V14.5046H157.495V9.6469C157.495 7.85722 156.471 6.57887 154.743 6.57887Z" fill="#010202"/>
<path d="M166.584 10.1582C166.584 9.13555 166.264 8.30462 165.624 7.60154C164.984 6.89845 164.152 6.57886 163.192 6.57886C162.104 6.57886 161.208 6.96236 160.44 7.79328C159.672 8.56029 159.352 9.51905 159.352 10.6696C159.352 11.8201 159.736 12.7788 160.504 13.5458C161.272 14.3128 162.232 14.6963 163.384 14.6963C164.536 14.6963 165.496 14.3128 166.328 13.418L165.56 12.2675C164.92 12.9067 164.152 13.1623 163.384 13.1623C162.104 13.1623 161.144 12.3953 160.952 11.117H166.52C166.52 10.7974 166.584 10.4778 166.584 10.1582ZM163.064 7.98504C164.152 7.98504 164.984 8.75204 164.984 9.90255H160.952C161.144 8.75204 161.976 7.98504 163.064 7.98504Z" fill="#010202"/>
<path d="M63.4145 42.3085L55.0945 22.4303H54.0704L45.8145 42.3085H49.0145L50.3585 39.0487H58.8064L60.1504 42.3085H63.4145ZM51.4465 36.3642L54.5825 28.2468L57.6545 36.3642H51.4465Z" fill="#010202"/>
<path d="M73.2708 27.4159C71.2228 27.4159 69.4308 28.3107 68.4068 29.8447V27.7994H65.5908V47.6776H68.5988V40.5828C69.6868 41.989 71.2868 42.6282 73.2708 42.6282C75.2548 42.6282 76.9188 41.9251 78.1988 40.455C79.4788 38.9849 80.1188 37.1952 80.1188 35.022C80.1188 32.8488 79.4788 31.0592 78.1988 29.5891C76.9188 28.119 75.2548 27.4159 73.2708 27.4159ZM72.7588 39.7519C71.6068 39.7519 70.5828 39.3684 69.7508 38.5375C68.9188 37.7065 68.5348 36.556 68.5348 34.9581C68.5348 31.8262 70.4548 30.2282 72.7588 30.2282C73.9748 30.2282 74.9988 30.6757 75.8308 31.5705C76.6628 32.4653 77.0468 33.6158 77.0468 35.022C77.0468 36.4282 76.6628 37.5148 75.8308 38.4096C74.9988 39.3045 73.9748 39.7519 72.7588 39.7519Z" fill="#010202"/>
<path d="M90.6155 27.4159C88.5675 27.4159 86.7755 28.3107 85.7515 29.8447V27.7994H82.9355V47.6776H85.9436V40.5828C87.0316 41.989 88.6315 42.6282 90.6155 42.6282C92.5995 42.6282 94.2636 41.9251 95.5436 40.455C96.8236 38.9849 97.4636 37.1952 97.4636 35.022C97.4636 32.8488 96.8236 31.0592 95.5436 29.5891C94.2636 28.119 92.5995 27.4159 90.6155 27.4159ZM90.1675 39.7519C89.0155 39.7519 87.9916 39.3684 87.1596 38.5375C86.3276 37.7065 85.9436 36.556 85.9436 34.9581C85.9436 31.8262 87.8635 30.2282 90.1675 30.2282C91.3835 30.2282 92.4076 30.6757 93.2396 31.5705C94.0716 32.4653 94.4555 33.6158 94.4555 35.022C94.4555 36.4282 94.0716 37.5148 93.2396 38.4096C92.3436 39.3045 91.3835 39.7519 90.1675 39.7519Z" fill="#010202"/>
<path d="M113.655 22.4303C111.991 22.4303 110.583 22.9416 109.431 23.9004C108.279 24.8591 107.703 26.1375 107.703 27.7354C107.703 30.2282 109.303 31.8261 112.055 33.1684L114.103 34.191C116.087 35.1498 116.855 35.7251 116.855 37.1312C116.855 38.7931 115.575 39.8797 113.591 39.8797C111.671 39.8797 110.071 38.857 108.663 36.7477L106.551 38.4096C108.023 41.0302 110.583 42.6281 113.655 42.6281C115.447 42.6281 116.983 42.1168 118.135 41.0941C119.351 40.0714 119.927 38.6652 119.927 37.0034C119.927 34.4467 118.455 32.9127 115.447 31.4426L113.335 30.4199C111.415 29.4612 110.711 28.9498 110.711 27.6076C110.711 26.0736 111.991 25.2426 113.527 25.2426C115.127 25.2426 116.471 26.0736 117.495 27.6076L119.607 25.9457C118.519 23.8365 116.279 22.4303 113.655 22.4303Z" fill="#010202"/>
<path d="M129.399 39.8157C127.607 39.8157 126.647 39.1766 126.647 37.323V30.4199H130.807V27.7354H126.647V23.9004H123.639V27.7354H121.335V30.4199H123.639V37.5147C123.639 40.9023 125.559 42.5642 128.759 42.5642C129.463 42.5642 130.295 42.4363 131.255 42.2446V39.624C130.423 39.7518 129.847 39.8157 129.399 39.8157Z" fill="#010202"/>
<path d="M139.895 27.4159C137.847 27.4159 136.055 28.1829 134.647 29.5891C133.239 31.0592 132.535 32.8488 132.535 34.9581C132.535 37.0674 133.239 38.921 134.647 40.3271C136.055 41.7972 137.783 42.5003 139.895 42.5642C141.943 42.5642 143.671 41.7972 145.143 40.3911C146.615 38.921 147.319 37.1313 147.319 34.9581C147.319 32.8488 146.551 30.9952 145.143 29.5891C143.735 28.1829 141.943 27.4159 139.895 27.4159ZM139.959 30.2922C141.175 30.2922 142.199 30.7396 143.031 31.6983C143.863 32.5932 144.311 33.6798 144.311 35.0859C144.311 36.4282 143.863 37.5148 143.031 38.4736C142.199 39.3684 141.175 39.8158 139.959 39.8158C138.679 39.8158 137.655 39.3684 136.887 38.4736C136.055 37.5787 135.671 36.4282 135.671 35.0859C135.671 33.7437 136.055 32.5932 136.887 31.6983C137.655 30.7396 138.679 30.2922 139.959 30.2922Z" fill="#010202"/>
<path d="M157.047 27.6077C155.319 27.6077 153.975 28.3108 152.951 29.653V27.7355H150.135V42.2447H153.143V34.5107C153.143 31.954 154.871 30.4839 157.239 30.4839H158.135V27.7355C157.879 27.6716 157.495 27.6077 157.047 27.6077Z" fill="#010202"/>
<path d="M172.855 34.0632C172.855 32.1457 172.215 30.5478 170.999 29.2694C169.783 27.9911 168.247 27.3519 166.391 27.3519C164.343 27.3519 162.615 28.1189 161.271 29.589C159.863 31.0591 159.223 32.8488 159.223 34.9581C159.223 37.1313 159.927 38.9209 161.335 40.391C162.743 41.8611 164.535 42.5642 166.711 42.5642C168.823 42.5642 170.679 41.7972 172.279 40.1993L170.871 38.09C169.591 39.2405 168.247 39.8158 166.775 39.8158C164.343 39.8158 162.615 38.4096 162.231 35.9807H172.663C172.727 35.3416 172.855 34.7024 172.855 34.0632ZM166.263 30.0364C168.311 30.0364 169.847 31.4426 169.847 33.6158H162.231C162.679 31.4426 164.279 30.0364 166.263 30.0364Z" fill="#010202"/>
<path d="M31.9269 24.1561C31.8629 18.5953 36.7909 15.9108 36.9829 15.7829C34.2309 12.0118 29.8789 11.5005 28.4069 11.4366C24.8229 11.0531 21.3029 13.4819 19.4469 13.4819C17.5909 13.4819 14.7109 11.5005 11.7029 11.5644C7.79891 11.6283 4.08691 13.7376 2.10291 17.0613C-2.05709 23.7726 1.01491 33.6797 5.04691 39.1127C7.03091 41.7972 9.33491 44.7374 12.4069 44.6735C15.4149 44.5456 16.5029 42.8838 20.0869 42.8838C23.6709 42.8838 24.6949 44.6735 27.8309 44.6096C31.0309 44.5456 33.0789 41.925 34.9989 39.2405C37.3029 36.1725 38.1989 33.1684 38.2629 33.0406C38.1349 32.9767 31.9909 30.8035 31.9269 24.1561ZM26.0389 7.92114C27.6389 6.06754 28.7269 3.51086 28.4069 0.890259C26.1029 0.954176 23.1589 2.36035 21.4949 4.21395C20.0229 5.81187 18.6789 8.49639 19.0629 10.9892C21.6869 11.1809 24.3749 9.71082 26.0389 7.92114Z" fill="#010202"/>
</svg>
