<svg width="73" height="20" viewBox="0 0 73 20" fill="none" xmlns="http://www.w3.org/2000/svg">
<path d="M19.9812 1.7583V6.11434H21.2924C21.9881 6.11434 22.5233 5.90055 22.9514 5.49969C23.3796 5.09882 23.5669 4.56434 23.5669 3.92296C23.5669 3.28158 23.3528 2.74709 22.9514 2.34623C22.5501 1.94537 21.9881 1.7583 21.2924 1.7583H19.9812ZM21.2924 2.39968C21.774 2.39968 22.1754 2.5333 22.443 2.82727C22.7374 3.09451 22.8712 3.46865 22.8712 3.94968C22.8712 4.40399 22.7374 4.77813 22.443 5.0721C22.1487 5.36606 21.774 5.49969 21.2924 5.49969H20.6502V2.39968H21.2924Z" fill="white"/>
<path d="M25.788 2.80054C25.3331 2.80054 24.9317 2.96088 24.6106 3.28157C24.2895 3.60226 24.1289 4.00313 24.1289 4.48416C24.1289 4.9652 24.2895 5.36606 24.6106 5.68675C24.9317 6.00744 25.3063 6.16778 25.788 6.19451C26.2429 6.19451 26.6442 6.03416 26.9653 5.71347C27.2864 5.39278 27.447 4.99192 27.447 4.51089C27.447 4.02985 27.2864 3.62899 26.9653 3.3083C26.6175 2.96088 26.2429 2.80054 25.788 2.80054ZM25.788 3.44192C26.0555 3.44192 26.2964 3.54882 26.4837 3.76261C26.671 3.94968 26.7513 4.21692 26.7513 4.51089C26.7513 4.80485 26.6442 5.07209 26.4837 5.25916C26.2964 5.44623 26.0555 5.55313 25.788 5.55313C25.5204 5.55313 25.2795 5.44623 25.0922 5.25916C24.9049 5.04537 24.8246 4.80485 24.8246 4.51089C24.8246 4.21692 24.9049 3.94968 25.0922 3.76261C25.2795 3.54882 25.5204 3.44192 25.788 3.44192Z" fill="white"/>
<path d="M31.3805 4.9652L30.4171 2.80054H30.1763L29.2398 4.99192L28.4102 2.88071H27.6877L29.0792 6.19451H29.32L30.3101 4.02985L31.3002 6.19451H31.541L32.9057 2.88071H32.1832L31.3805 4.9652Z" fill="white"/>
<path d="M35.0464 2.80054C34.6718 2.80054 34.3507 2.93416 34.1098 3.2014V2.88071H33.4944V6.11434H34.1634V4.1902C34.1634 3.73588 34.4577 3.44192 34.8858 3.44192C35.2872 3.44192 35.5548 3.73588 35.5548 4.1902V6.11434H36.2238V4.0833C36.2238 3.3083 35.7689 2.80054 35.0464 2.80054Z" fill="white"/>
<path d="M37.1335 1.17041V6.11438H37.8025V1.17041H37.1335Z" fill="white"/>
<path d="M40.2108 2.80054C39.7559 2.80054 39.3545 2.96088 39.0334 3.28157C38.7123 3.60226 38.5518 4.00313 38.5518 4.48416C38.5518 4.9652 38.7123 5.36606 39.0334 5.68675C39.3545 6.00744 39.7291 6.16778 40.2108 6.19451C40.6657 6.19451 41.0671 6.03416 41.3882 5.71347C41.7093 5.39278 41.8699 4.99192 41.8699 4.51088C41.8699 4.02985 41.7093 3.62899 41.3882 3.3083C41.0671 2.96088 40.6657 2.80054 40.2108 2.80054ZM40.2376 3.44192C40.5051 3.44192 40.746 3.54882 40.9333 3.76261C41.1206 3.94968 41.2009 4.21692 41.2009 4.51088C41.2009 4.80485 41.0938 5.07209 40.9333 5.25916C40.746 5.44623 40.5051 5.55313 40.2376 5.55313C39.97 5.55313 39.7291 5.44623 39.5418 5.25916C39.3545 5.04537 39.2742 4.80485 39.2742 4.51088C39.2742 4.21692 39.3545 3.94968 39.5418 3.76261C39.7024 3.54882 39.9432 3.44192 40.2376 3.44192Z" fill="white"/>
<path d="M43.85 2.80054C43.2881 2.80054 42.8599 3.04106 42.5388 3.49537L42.9134 3.89623C43.181 3.57554 43.4754 3.41519 43.7697 3.41519C44.1979 3.41519 44.4387 3.65571 44.4387 4.11002V4.32382H43.5557C42.8599 4.32382 42.405 4.69796 42.405 5.25916C42.405 5.82037 42.8332 6.19451 43.5021 6.19451C43.9303 6.19451 44.2514 6.06089 44.4922 5.76692V6.14106H45.1077V4.1902C45.1077 3.28157 44.5993 2.80054 43.85 2.80054ZM43.6359 5.66003C43.3148 5.66003 43.1008 5.49968 43.1008 5.23244C43.1008 4.9652 43.2881 4.83158 43.6627 4.83158H44.4655V4.88502C44.4387 5.33933 44.0908 5.66003 43.6359 5.66003Z" fill="white"/>
<path d="M48.3992 3.28149C48.1583 2.9608 47.8105 2.80045 47.3556 2.80045C46.9274 2.80045 46.5528 2.9608 46.2585 3.28149C45.9641 3.60218 45.8303 4.00304 45.8303 4.48408C45.8303 4.96511 45.9641 5.36598 46.2585 5.68667C46.5528 6.00736 46.9007 6.1677 47.3556 6.1677C47.8372 6.1677 48.2119 5.98063 48.4527 5.63322V6.08753H49.0681V1.14355H48.3992V3.28149ZM47.4894 5.55304C47.2218 5.55304 46.981 5.44615 46.7936 5.25908C46.6063 5.07201 46.5261 4.80477 46.5261 4.48408C46.5261 4.16339 46.6063 3.92287 46.7936 3.7358C46.981 3.54873 47.195 3.44183 47.4894 3.44183C47.7302 3.44183 47.971 3.52201 48.1583 3.70908C48.3457 3.89614 48.4259 4.16339 48.4259 4.48408C48.4259 5.20563 47.9978 5.55304 47.4894 5.55304Z" fill="white"/>
<path d="M53.2692 2.80054C52.8143 2.80054 52.4129 2.96088 52.0918 3.28157C51.7707 3.60226 51.6101 4.00313 51.6101 4.48416C51.6101 4.9652 51.7707 5.36606 52.0918 5.68675C52.4129 6.00744 52.7875 6.16778 53.2692 6.19451C53.7241 6.19451 54.1254 6.03416 54.4465 5.71347C54.7677 5.39278 54.9282 4.99192 54.9282 4.51088C54.9282 4.02985 54.7677 3.62899 54.4465 3.3083C54.0987 2.96088 53.7241 2.80054 53.2692 2.80054ZM53.2692 3.44192C53.5367 3.44192 53.7776 3.54882 53.9649 3.76261C54.1522 3.94968 54.2325 4.21692 54.2325 4.51088C54.2325 4.80485 54.1254 5.07209 53.9649 5.25916C53.7776 5.44623 53.5367 5.55313 53.2692 5.55313C53.0016 5.55313 52.7607 5.44623 52.5734 5.25916C52.3861 5.04537 52.3058 4.80485 52.3058 4.51088C52.3058 4.21692 52.3861 3.94968 52.5734 3.76261C52.7607 3.54882 53.0016 3.44192 53.2692 3.44192Z" fill="white"/>
<path d="M57.2295 2.80054C56.8549 2.80054 56.5338 2.93416 56.2929 3.2014V2.88071H55.6775V6.11434H56.3465V4.1902C56.3465 3.73588 56.6408 3.44192 57.0689 3.44192C57.4703 3.44192 57.7379 3.73588 57.7379 4.1902V6.11434H58.4069V4.0833C58.4069 3.3083 57.9787 2.80054 57.2295 2.80054Z" fill="white"/>
<path d="M62.5546 5.55323C62.1532 5.55323 61.9391 5.41961 61.9391 4.99202V3.46874H62.8757V2.88081H61.9391V2.02563H61.2701V2.88081H60.7617V3.46874H61.2701V5.04547C61.2701 5.79374 61.6983 6.16788 62.4208 6.16788C62.5813 6.16788 62.7686 6.14116 62.9827 6.08771V5.49978C62.7686 5.55323 62.6348 5.55323 62.5546 5.55323Z" fill="white"/>
<path d="M65.2035 2.80058C64.8289 2.80058 64.5346 2.93421 64.2937 3.20145V1.17041H63.6248V6.11438H64.2937V4.19024C64.2937 3.73593 64.5881 3.44197 65.0162 3.44197C65.4176 3.44197 65.6852 3.73593 65.6852 4.19024V6.11438H66.3542V4.08335C66.3542 3.33507 65.926 2.80058 65.2035 2.80058Z" fill="white"/>
<path d="M70.1541 4.29709C70.1541 3.86951 70.0203 3.52209 69.7527 3.22813C69.4852 2.93416 69.1373 2.80054 68.7359 2.80054C68.281 2.80054 67.9064 2.96088 67.5853 3.3083C67.2642 3.62899 67.1304 4.02985 67.1304 4.51088C67.1304 4.99192 67.2909 5.39278 67.612 5.71347C67.9331 6.03416 68.3345 6.19451 68.8162 6.19451C69.2978 6.19451 69.6992 6.03416 70.0471 5.66003L69.726 5.17899C69.4584 5.44623 69.1373 5.55313 68.8162 5.55313C68.281 5.55313 67.8796 5.23244 67.7993 4.69796H70.1274C70.1274 4.56433 70.1541 4.43071 70.1541 4.29709ZM68.6824 3.38847C69.1373 3.38847 69.4852 3.70916 69.4852 4.1902H67.7993C67.8796 3.70916 68.2275 3.38847 68.6824 3.38847Z" fill="white"/>
<path d="M27.0188 17.7394L23.5402 9.42822H23.112L19.6602 17.7394H20.9981L21.56 16.3765H25.0922L25.6541 17.7394H27.0188ZM22.0149 15.2541L23.3261 11.8601L24.6105 15.2541H22.0149Z" fill="white"/>
<path d="M31.1398 11.5125C30.2835 11.5125 29.5342 11.8866 29.1061 12.528V11.6728H27.9287V19.984H29.1864V17.0176C29.6413 17.6056 30.3102 17.8728 31.1398 17.8728C31.9693 17.8728 32.665 17.5788 33.2002 16.9642C33.7354 16.3495 34.003 15.6012 34.003 14.6926C34.003 13.784 33.7354 13.0357 33.2002 12.4211C32.665 11.8064 31.9693 11.5125 31.1398 11.5125ZM30.9257 16.6702C30.444 16.6702 30.0159 16.5099 29.668 16.1625C29.3202 15.815 29.1596 15.334 29.1596 14.6659C29.1596 13.3564 29.9624 12.6883 30.9257 12.6883C31.4341 12.6883 31.8623 12.8754 32.2101 13.2495C32.558 13.6237 32.7185 14.1047 32.7185 14.6926C32.7185 15.2806 32.558 15.7349 32.2101 16.109C31.8623 16.4831 31.4341 16.6702 30.9257 16.6702Z" fill="white"/>
<path d="M38.3912 11.5125C37.535 11.5125 36.7857 11.8866 36.3576 12.528V11.6728H35.1802V19.984H36.4378V17.0176C36.8927 17.6056 37.5617 17.8728 38.3912 17.8728C39.2208 17.8728 39.9165 17.5788 40.4517 16.9642C40.9868 16.3495 41.2544 15.6012 41.2544 14.6926C41.2544 13.784 40.9868 13.0357 40.4517 12.4211C39.9165 11.8064 39.2208 11.5125 38.3912 11.5125ZM38.2039 16.6702C37.7223 16.6702 37.2941 16.5099 36.9463 16.1625C36.5984 15.815 36.4378 15.334 36.4378 14.6659C36.4378 13.3564 37.2406 12.6883 38.2039 12.6883C38.7123 12.6883 39.1405 12.8754 39.4883 13.2495C39.8362 13.6237 39.9968 14.1047 39.9968 14.6926C39.9968 15.2806 39.8362 15.7349 39.4883 16.109C39.1137 16.4831 38.7123 16.6702 38.2039 16.6702Z" fill="white"/>
<path d="M48.0244 9.42822C47.3287 9.42822 46.74 9.64202 46.2583 10.0429C45.7767 10.4437 45.5359 10.9782 45.5359 11.6463C45.5359 12.6886 46.2048 13.3567 47.3555 13.9179L48.2117 14.3455C49.0413 14.7463 49.3624 14.9869 49.3624 15.5748C49.3624 16.2696 48.8272 16.7239 47.9977 16.7239C47.1949 16.7239 46.5259 16.2963 45.9372 15.4144L45.0542 16.1093C45.6697 17.205 46.74 17.8731 48.0244 17.8731C48.7737 17.8731 49.4159 17.6593 49.8976 17.2317C50.406 16.8041 50.6468 16.2162 50.6468 15.5213C50.6468 14.4524 50.0313 13.811 48.7737 13.1963L47.8906 12.7687C47.0879 12.3679 46.7935 12.1541 46.7935 11.5929C46.7935 10.9515 47.3287 10.6041 47.9709 10.6041C48.6399 10.6041 49.2018 10.9515 49.63 11.5929L50.513 10.8981C50.0581 10.0162 49.1215 9.42822 48.0244 9.42822Z" fill="white"/>
<path d="M54.6072 16.697C53.858 16.697 53.4566 16.4298 53.4566 15.6548V12.7686H55.1959V11.6462H53.4566V10.0427H52.1989V11.6462H51.2356V12.7686H52.1989V15.735C52.1989 17.1514 53.0017 17.8462 54.3396 17.8462C54.634 17.8462 54.9818 17.7927 55.3832 17.7126V16.6169C55.0354 16.6703 54.7945 16.697 54.6072 16.697Z" fill="white"/>
<path d="M58.9957 11.5125C58.1394 11.5125 57.3902 11.8331 56.8015 12.4211C56.2128 13.0357 55.9185 13.784 55.9185 14.6659C55.9185 15.5478 56.2128 16.3228 56.8015 16.9107C57.3902 17.5254 58.1127 17.8194 58.9957 17.8461C59.852 17.8461 60.5745 17.5254 61.19 16.9375C61.8054 16.3228 62.0998 15.5745 62.0998 14.6659C62.0998 13.784 61.7786 13.009 61.19 12.4211C60.6013 11.8331 59.852 11.5125 58.9957 11.5125ZM59.0225 12.715C59.5309 12.715 59.959 12.9021 60.3069 13.303C60.6548 13.6771 60.8421 14.1314 60.8421 14.7194C60.8421 15.2806 60.6548 15.7349 60.3069 16.1357C59.959 16.5099 59.5309 16.6969 59.0225 16.6969C58.4873 16.6969 58.0592 16.5099 57.7381 16.1357C57.3902 15.7616 57.2296 15.2806 57.2296 14.7194C57.2296 14.1581 57.3902 13.6771 57.7381 13.303C58.0592 12.9021 58.4873 12.715 59.0225 12.715Z" fill="white"/>
<path d="M66.1671 11.5928C65.4446 11.5928 64.8826 11.8867 64.4545 12.4479V11.6462H63.2771V17.7126H64.5348V14.479C64.5348 13.41 65.2573 12.7954 66.2473 12.7954H66.622V11.6462C66.5149 11.6195 66.3544 11.5928 66.1671 11.5928Z" fill="white"/>
<path d="M72.7763 14.2919C72.7763 13.4902 72.5087 12.822 72.0003 12.2876C71.4919 11.7531 70.8497 11.4858 70.0736 11.4858C69.2174 11.4858 68.4949 11.8065 67.9329 12.4212C67.3442 13.0358 67.0767 13.7841 67.0767 14.666C67.0767 15.5746 67.371 16.3229 67.9597 16.9376C68.5484 17.5522 69.2976 17.8462 70.2074 17.8462C71.0905 17.8462 71.8665 17.5255 72.5355 16.8574L71.9468 15.9755C71.4116 16.4565 70.8497 16.6971 70.2342 16.6971C69.2174 16.6971 68.4949 16.1091 68.3343 15.0936H72.696C72.7228 14.8264 72.7763 14.5591 72.7763 14.2919ZM70.0201 12.6083C70.8764 12.6083 71.5186 13.1962 71.5186 14.1048H68.3343C68.5216 13.1962 69.1906 12.6083 70.0201 12.6083Z" fill="white"/>
<path d="M13.8534 10.1497C13.8266 7.82472 15.8871 6.7023 15.9674 6.64885C14.8167 5.07213 12.9971 4.85833 12.3817 4.83161C10.8832 4.67126 9.41144 5.68678 8.63543 5.68678C7.85943 5.68678 6.65528 4.85833 5.39761 4.88506C3.76532 4.91178 2.21331 5.79368 1.38379 7.18334C-0.355539 9.98938 0.928887 14.1316 2.61469 16.4032C3.44422 17.5256 4.40754 18.7549 5.69196 18.7282C6.94963 18.6747 7.40453 17.9799 8.90302 17.9799C10.4015 17.9799 10.8297 18.7282 12.1408 18.7015C13.4788 18.6747 14.3351 17.579 15.1378 16.4566C16.1011 15.1739 16.4758 13.9178 16.5025 13.8644C16.449 13.8377 13.8802 12.929 13.8534 10.1497ZM11.3916 3.36178C12.0606 2.58678 12.5155 1.51781 12.3817 0.422119C11.4184 0.448843 10.1874 1.03677 9.49171 1.81178C8.87626 2.47988 8.31432 3.6023 8.47488 4.64454C9.57199 4.72471 10.6959 4.11006 11.3916 3.36178Z" fill="white"/>
</svg>
