<svg width="32" height="32" viewBox="0 0 32 32" fill="none" xmlns="http://www.w3.org/2000/svg">
<path d="M15.9997 19.9335C15.822 19.9335 15.6553 19.9058 15.4997 19.8502C15.3442 19.7946 15.1997 19.7002 15.0664 19.5669L8.93307 13.4335C8.68863 13.1891 8.56641 12.878 8.56641 12.5002C8.56641 12.1224 8.68863 11.8113 8.93307 11.5669C9.17752 11.3224 9.48863 11.2002 9.86641 11.2002C10.2442 11.2002 10.5553 11.3224 10.7997 11.5669L15.9997 16.7669L21.1997 11.5669C21.4442 11.3224 21.7553 11.2002 22.1331 11.2002C22.5109 11.2002 22.822 11.3224 23.0664 11.5669C23.3109 11.8113 23.4331 12.1224 23.4331 12.5002C23.4331 12.878 23.3109 13.1891 23.0664 13.4335L16.9331 19.5669C16.7997 19.7002 16.6553 19.7946 16.4997 19.8502C16.3442 19.9058 16.1775 19.9335 15.9997 19.9335Z" fill="black"/>
</svg>
