<svg xmlns="http://www.w3.org/2000/svg" width="18" height="18" viewBox="0 0 18 18" fill="none">
<path d="M9.50625 9L7.725 10.7813C7.5875 10.9188 7.51875 11.0906 7.51875 11.2969C7.51875 11.5031 7.5875 11.6813 7.725 11.8313C7.875 11.9813 8.05312 12.0563 8.25937 12.0563C8.46562 12.0563 8.64375 11.9813 8.79375 11.8313L11.1 9.525C11.25 9.375 11.325 9.2 11.325 9C11.325 8.8 11.25 8.625 11.1 8.475L8.775 6.15C8.625 6 8.45 5.92813 8.25 5.93438C8.05 5.94063 7.875 6.01875 7.725 6.16875C7.5875 6.31875 7.51562 6.49375 7.50937 6.69375C7.50312 6.89375 7.575 7.06875 7.725 7.21875L9.50625 9ZM16.5 9C16.5 10.0375 16.3031 11.0125 15.9094 11.925C15.5156 12.8375 14.9812 13.6313 14.3062 14.3063C13.6312 14.9813 12.8375 15.5156 11.925 15.9094C11.0125 16.3031 10.0375 16.5 9 16.5C7.9625 16.5 6.9875 16.3031 6.075 15.9094C5.1625 15.5156 4.36875 14.9813 3.69375 14.3063C3.01875 13.6313 2.48437 12.8375 2.09062 11.925C1.69687 11.0125 1.5 10.0375 1.5 9C1.5 7.9625 1.69687 6.9875 2.09062 6.075C2.48437 5.1625 3.01875 4.36875 3.69375 3.69375C4.36875 3.01875 5.1625 2.48438 6.075 2.09063C6.9875 1.69688 7.9625 1.5 9 1.5C10.0375 1.5 11.0125 1.69688 11.925 2.09063C12.8375 2.48438 13.6312 3.01875 14.3062 3.69375C14.9812 4.36875 15.5156 5.1625 15.9094 6.075C16.3031 6.9875 16.5 7.9625 16.5 9Z" fill="inherit"/>
</svg>