<svg width="28" height="27" viewBox="0 0 28 27" fill="none" xmlns="http://www.w3.org/2000/svg">
<path d="M4.66797 20.3333V13.6666C4.66797 13.2888 4.79575 12.9722 5.0513 12.7166C5.30686 12.4611 5.62352 12.3333 6.0013 12.3333C6.37908 12.3333 6.69575 12.4611 6.9513 12.7166C7.20686 12.9722 7.33463 13.2888 7.33463 13.6666V20.3333C7.33463 20.7111 7.20686 21.0277 6.9513 21.2833C6.69575 21.5388 6.37908 21.6666 6.0013 21.6666C5.62352 21.6666 5.30686 21.5388 5.0513 21.2833C4.79575 21.0277 4.66797 20.7111 4.66797 20.3333ZM12.668 20.3333V13.6666C12.668 13.2888 12.7957 12.9722 13.0513 12.7166C13.3069 12.4611 13.6235 12.3333 14.0013 12.3333C14.3791 12.3333 14.6957 12.4611 14.9513 12.7166C15.2069 12.9722 15.3346 13.2888 15.3346 13.6666V20.3333C15.3346 20.7111 15.2069 21.0277 14.9513 21.2833C14.6957 21.5388 14.3791 21.6666 14.0013 21.6666C13.6235 21.6666 13.3069 21.5388 13.0513 21.2833C12.7957 21.0277 12.668 20.7111 12.668 20.3333ZM2.0013 27C1.62352 27 1.30686 26.8722 1.0513 26.6166C0.795747 26.3611 0.667969 26.0444 0.667969 25.6666C0.667969 25.2888 0.795747 24.9722 1.0513 24.7166C1.30686 24.4611 1.62352 24.3333 2.0013 24.3333H26.0013C26.3791 24.3333 26.6957 24.4611 26.9513 24.7166C27.2069 24.9722 27.3346 25.2888 27.3346 25.6666C27.3346 26.0444 27.2069 26.3611 26.9513 26.6166C26.6957 26.8722 26.3791 27 26.0013 27H2.0013ZM20.668 20.3333V13.6666C20.668 13.2888 20.7957 12.9722 21.0513 12.7166C21.3069 12.4611 21.6235 12.3333 22.0013 12.3333C22.3791 12.3333 22.6957 12.4611 22.9513 12.7166C23.2069 12.9722 23.3346 13.2888 23.3346 13.6666V20.3333C23.3346 20.7111 23.2069 21.0277 22.9513 21.2833C22.6957 21.5388 22.3791 21.6666 22.0013 21.6666C21.6235 21.6666 21.3069 21.5388 21.0513 21.2833C20.7957 21.0277 20.668 20.7111 20.668 20.3333ZM26.0013 9.66663H1.86797C1.53464 9.66663 1.2513 9.54996 1.01797 9.31663C0.784635 9.08329 0.667969 8.79996 0.667969 8.46663V7.73329C0.667969 7.48885 0.72908 7.27774 0.851302 7.09996C0.973524 6.92218 1.13464 6.77774 1.33464 6.66663L12.8013 0.933293C13.1791 0.755515 13.5791 0.666626 14.0013 0.666626C14.4235 0.666626 14.8235 0.755515 15.2013 0.933293L26.6013 6.63329C26.8457 6.7444 27.0291 6.91107 27.1513 7.13329C27.2735 7.35552 27.3346 7.58885 27.3346 7.83329V8.33329C27.3346 8.71107 27.2069 9.02774 26.9513 9.28329C26.6957 9.53885 26.3791 9.66663 26.0013 9.66663ZM6.6013 6.99996H21.4013L14.0013 3.33329L6.6013 6.99996Z" fill="white"/>
</svg>
