<svg width="64" height="64" viewBox="0 0 64 64" fill="none" xmlns="http://www.w3.org/2000/svg">
<rect width="64" height="64" rx="32" fill="#3355FF"/>
<path d="M22.668 37.3333V30.6666C22.668 30.2888 22.7957 29.9722 23.0513 29.7166C23.3069 29.4611 23.6235 29.3333 24.0013 29.3333C24.3791 29.3333 24.6957 29.4611 24.9513 29.7166C25.2069 29.9722 25.3346 30.2888 25.3346 30.6666V37.3333C25.3346 37.7111 25.2069 38.0277 24.9513 38.2833C24.6957 38.5388 24.3791 38.6666 24.0013 38.6666C23.6235 38.6666 23.3069 38.5388 23.0513 38.2833C22.7957 38.0277 22.668 37.7111 22.668 37.3333ZM30.668 37.3333V30.6666C30.668 30.2888 30.7957 29.9722 31.0513 29.7166C31.3069 29.4611 31.6235 29.3333 32.0013 29.3333C32.3791 29.3333 32.6957 29.4611 32.9513 29.7166C33.2069 29.9722 33.3346 30.2888 33.3346 30.6666V37.3333C33.3346 37.7111 33.2069 38.0277 32.9513 38.2833C32.6957 38.5388 32.3791 38.6666 32.0013 38.6666C31.6235 38.6666 31.3069 38.5388 31.0513 38.2833C30.7957 38.0277 30.668 37.7111 30.668 37.3333ZM20.0013 44C19.6235 44 19.3069 43.8722 19.0513 43.6166C18.7957 43.3611 18.668 43.0444 18.668 42.6666C18.668 42.2888 18.7957 41.9722 19.0513 41.7166C19.3069 41.4611 19.6235 41.3333 20.0013 41.3333H44.0013C44.3791 41.3333 44.6957 41.4611 44.9513 41.7166C45.2069 41.9722 45.3346 42.2888 45.3346 42.6666C45.3346 43.0444 45.2069 43.3611 44.9513 43.6166C44.6957 43.8722 44.3791 44 44.0013 44H20.0013ZM38.668 37.3333V30.6666C38.668 30.2888 38.7957 29.9722 39.0513 29.7166C39.3069 29.4611 39.6235 29.3333 40.0013 29.3333C40.3791 29.3333 40.6957 29.4611 40.9513 29.7166C41.2069 29.9722 41.3346 30.2888 41.3346 30.6666V37.3333C41.3346 37.7111 41.2069 38.0277 40.9513 38.2833C40.6957 38.5388 40.3791 38.6666 40.0013 38.6666C39.6235 38.6666 39.3069 38.5388 39.0513 38.2833C38.7957 38.0277 38.668 37.7111 38.668 37.3333ZM44.0013 26.6666H19.868C19.5346 26.6666 19.2513 26.55 19.018 26.3166C18.7846 26.0833 18.668 25.8 18.668 25.4666V24.7333C18.668 24.4888 18.7291 24.2777 18.8513 24.1C18.9735 23.9222 19.1346 23.7777 19.3346 23.6666L30.8013 17.9333C31.1791 17.7555 31.5791 17.6666 32.0013 17.6666C32.4235 17.6666 32.8235 17.7555 33.2013 17.9333L44.6013 23.6333C44.8457 23.7444 45.0291 23.9111 45.1513 24.1333C45.2735 24.3555 45.3346 24.5888 45.3346 24.8333V25.3333C45.3346 25.7111 45.2069 26.0277 44.9513 26.2833C44.6957 26.5388 44.3791 26.6666 44.0013 26.6666ZM24.6013 24H39.4013L32.0013 20.3333L24.6013 24Z" fill="white"/>
</svg>
