<svg width="64" height="64" viewBox="0 0 64 64" fill="none" xmlns="http://www.w3.org/2000/svg">
<rect width="64" height="64" rx="32" fill="#3355FF"/>
<path d="M22.6659 41.3333C22.2881 41.3333 21.9714 41.2055 21.7159 40.95C21.4603 40.6944 21.3325 40.3777 21.3325 40C21.3325 39.6222 21.4603 39.3055 21.7159 39.05C21.9714 38.7944 22.2881 38.6666 22.6659 38.6666H23.9992V29.3333C23.9992 27.4888 24.5548 25.85 25.6659 24.4166C26.777 22.9833 28.2214 22.0444 29.9992 21.6V20.6666C29.9992 20.1111 30.1936 19.6388 30.5825 19.25C30.9714 18.8611 31.4436 18.6666 31.9992 18.6666C32.5548 18.6666 33.027 18.8611 33.4159 19.25C33.8048 19.6388 33.9992 20.1111 33.9992 20.6666V21.6C35.777 22.0444 37.2214 22.9833 38.3325 24.4166C39.4436 25.85 39.9992 27.4888 39.9992 29.3333V38.6666H41.3325C41.7103 38.6666 42.027 38.7944 42.2825 39.05C42.5381 39.3055 42.6659 39.6222 42.6659 40C42.6659 40.3777 42.5381 40.6944 42.2825 40.95C42.027 41.2055 41.7103 41.3333 41.3325 41.3333H22.6659ZM31.9992 45.3333C31.2659 45.3333 30.6381 45.0722 30.1159 44.55C29.5936 44.0277 29.3325 43.4 29.3325 42.6666H34.6659C34.6659 43.4 34.4048 44.0277 33.8825 44.55C33.3603 45.0722 32.7325 45.3333 31.9992 45.3333ZM26.6659 38.6666H37.3325V29.3333C37.3325 27.8666 36.8103 26.6111 35.7659 25.5666C34.7214 24.5222 33.4659 24 31.9992 24C30.5325 24 29.277 24.5222 28.2325 25.5666C27.1881 26.6111 26.6659 27.8666 26.6659 29.3333V38.6666ZM19.9992 29.3333C19.6214 29.3333 19.3048 29.1888 19.0492 28.9C18.7936 28.6111 18.6881 28.2777 18.7325 27.9C18.9103 26.2333 19.377 24.6833 20.1325 23.25C20.8881 21.8166 21.8548 20.5666 23.0325 19.5C23.3214 19.2555 23.6492 19.1444 24.0159 19.1666C24.3825 19.1888 24.677 19.3555 24.8992 19.6666C25.1214 19.9777 25.2103 20.3111 25.1659 20.6666C25.1214 21.0222 24.9548 21.3333 24.6659 21.6C23.7992 22.4222 23.0881 23.3777 22.5325 24.4666C21.977 25.5555 21.6103 26.7333 21.4325 28C21.3881 28.3777 21.2325 28.6944 20.9659 28.95C20.6992 29.2055 20.377 29.3333 19.9992 29.3333ZM43.9992 29.3333C43.6214 29.3333 43.2992 29.2055 43.0325 28.95C42.7659 28.6944 42.6103 28.3777 42.5659 28C42.3881 26.7333 42.0214 25.5555 41.4659 24.4666C40.9103 23.3777 40.1992 22.4222 39.3325 21.6C39.0436 21.3333 38.877 21.0222 38.8325 20.6666C38.7881 20.3111 38.877 19.9777 39.0992 19.6666C39.3214 19.3555 39.6159 19.1888 39.9825 19.1666C40.3492 19.1444 40.677 19.2555 40.9659 19.5C42.1436 20.5666 43.1103 21.8166 43.8659 23.25C44.6214 24.6833 45.0881 26.2333 45.2659 27.9C45.3103 28.2777 45.2048 28.6111 44.9492 28.9C44.6936 29.1888 44.377 29.3333 43.9992 29.3333Z" fill="white"/>
</svg>
