<svg width="28" height="28" viewBox="0 0 28 28" fill="none" xmlns="http://www.w3.org/2000/svg">
<path d="M4.66587 23.3333C4.28809 23.3333 3.97142 23.2055 3.71587 22.95C3.46031 22.6944 3.33253 22.3777 3.33253 22C3.33253 21.6222 3.46031 21.3055 3.71587 21.05C3.97142 20.7944 4.28809 20.6666 4.66587 20.6666H5.9992V11.3333C5.9992 9.48885 6.55476 7.84996 7.66587 6.41663C8.77698 4.98329 10.2214 4.0444 11.9992 3.59996V2.66663C11.9992 2.11107 12.1936 1.63885 12.5825 1.24996C12.9714 0.86107 13.4436 0.666626 13.9992 0.666626C14.5548 0.666626 15.027 0.86107 15.4159 1.24996C15.8048 1.63885 15.9992 2.11107 15.9992 2.66663V3.59996C17.777 4.0444 19.2214 4.98329 20.3325 6.41663C21.4436 7.84996 21.9992 9.48885 21.9992 11.3333V20.6666H23.3325C23.7103 20.6666 24.027 20.7944 24.2825 21.05C24.5381 21.3055 24.6659 21.6222 24.6659 22C24.6659 22.3777 24.5381 22.6944 24.2825 22.95C24.027 23.2055 23.7103 23.3333 23.3325 23.3333H4.66587ZM13.9992 27.3333C13.2659 27.3333 12.6381 27.0722 12.1159 26.55C11.5936 26.0277 11.3325 25.4 11.3325 24.6666H16.6659C16.6659 25.4 16.4048 26.0277 15.8825 26.55C15.3603 27.0722 14.7325 27.3333 13.9992 27.3333ZM8.66587 20.6666H19.3325V11.3333C19.3325 9.86663 18.8103 8.61107 17.7659 7.56663C16.7214 6.52218 15.4659 5.99996 13.9992 5.99996C12.5325 5.99996 11.277 6.52218 10.2325 7.56663C9.18809 8.61107 8.66587 9.86663 8.66587 11.3333V20.6666ZM1.9992 11.3333C1.62142 11.3333 1.30476 11.1888 1.0492 10.9C0.793644 10.6111 0.688088 10.2777 0.732533 9.89996C0.910311 8.23329 1.37698 6.68329 2.13253 5.24996C2.88809 3.81663 3.85476 2.56663 5.03253 1.49996C5.32142 1.25551 5.6492 1.1444 6.01587 1.16663C6.38253 1.18885 6.67698 1.35551 6.8992 1.66663C7.12142 1.97774 7.21031 2.31107 7.16587 2.66663C7.12142 3.02218 6.95476 3.33329 6.66587 3.59996C5.7992 4.42218 5.08809 5.37774 4.53253 6.46663C3.97698 7.55551 3.61031 8.73329 3.43253 9.99996C3.38809 10.3777 3.23253 10.6944 2.96587 10.95C2.6992 11.2055 2.37698 11.3333 1.9992 11.3333ZM25.9992 11.3333C25.6214 11.3333 25.2992 11.2055 25.0325 10.95C24.7659 10.6944 24.6103 10.3777 24.5659 9.99996C24.3881 8.73329 24.0214 7.55551 23.4659 6.46663C22.9103 5.37774 22.1992 4.42218 21.3325 3.59996C21.0436 3.33329 20.877 3.02218 20.8325 2.66663C20.7881 2.31107 20.877 1.97774 21.0992 1.66663C21.3214 1.35551 21.6159 1.18885 21.9825 1.16663C22.3492 1.1444 22.677 1.25551 22.9659 1.49996C24.1436 2.56663 25.1103 3.81663 25.8659 5.24996C26.6214 6.68329 27.0881 8.23329 27.2659 9.89996C27.3103 10.2777 27.2048 10.6111 26.9492 10.9C26.6936 11.1888 26.377 11.3333 25.9992 11.3333Z" fill="white"/>
</svg>
