<svg width="65" height="64" viewBox="0 0 65 64" fill="none" xmlns="http://www.w3.org/2000/svg">
<rect x="0.125" width="64" height="64" rx="32" fill="#3355FF"/>
<path d="M28.125 42.6667H22.7917C22.0583 42.6667 21.4306 42.4056 20.9083 41.8834C20.3861 41.3612 20.125 40.7334 20.125 40.0001V21.3334C20.125 20.6001 20.3861 19.9723 20.9083 19.4501C21.4306 18.9279 22.0583 18.6667 22.7917 18.6667H41.4583C42.1917 18.6667 42.8194 18.9279 43.3417 19.4501C43.8639 19.9723 44.125 20.6001 44.125 21.3334V40.0001C44.125 40.7334 43.8639 41.3612 43.3417 41.8834C42.8194 42.4056 42.1917 42.6667 41.4583 42.6667H36.125L33.0583 45.7334C32.7917 46.0001 32.4806 46.1334 32.125 46.1334C31.7694 46.1334 31.4583 46.0001 31.1917 45.7334L28.125 42.6667ZM22.7917 40.0001H29.1917L32.125 42.9334L35.0583 40.0001H41.4583V21.3334H22.7917V40.0001ZM31.9917 38.6667C32.4583 38.6667 32.8528 38.5056 33.175 38.1834C33.4972 37.8612 33.6583 37.4667 33.6583 37.0001C33.6583 36.5334 33.4972 36.139 33.175 35.8167C32.8528 35.4945 32.4583 35.3334 31.9917 35.3334C31.525 35.3334 31.1306 35.4945 30.8083 35.8167C30.4861 36.139 30.325 36.5334 30.325 37.0001C30.325 37.4667 30.4861 37.8612 30.8083 38.1834C31.1306 38.5056 31.525 38.6667 31.9917 38.6667ZM34.325 26.6667C34.325 27.0445 34.2028 27.4501 33.9583 27.8834C33.7139 28.3167 33.3028 28.789 32.725 29.3001C32.3472 29.6334 32.0417 29.9501 31.8083 30.2501C31.575 30.5501 31.3806 30.8556 31.225 31.1667C31.1361 31.3445 31.0694 31.5223 31.025 31.7001C30.9806 31.8779 30.9361 32.0779 30.8917 32.3001C30.8472 32.6334 30.9361 32.9223 31.1583 33.1667C31.3806 33.4112 31.6694 33.5334 32.025 33.5334C32.3361 33.5334 32.6139 33.4223 32.8583 33.2001C33.1028 32.9779 33.2694 32.6779 33.3583 32.3001C33.425 31.989 33.5528 31.7001 33.7417 31.4334C33.9306 31.1667 34.2361 30.8223 34.6583 30.4001C35.4361 29.6223 35.9861 28.9667 36.3083 28.4334C36.6306 27.9001 36.7917 27.3112 36.7917 26.6667C36.7917 25.4667 36.3861 24.5001 35.575 23.7667C34.7639 23.0334 33.6583 22.6667 32.2583 22.6667C31.2583 22.6667 30.3917 22.8779 29.6583 23.3001C28.925 23.7223 28.3361 24.3112 27.8917 25.0667C27.7361 25.3334 27.7306 25.6112 27.875 25.9001C28.0194 26.189 28.2472 26.389 28.5583 26.5001C28.8472 26.6112 29.1361 26.6112 29.425 26.5001C29.7139 26.389 29.9472 26.2112 30.125 25.9667C30.3694 25.6556 30.6694 25.4056 31.025 25.2167C31.3806 25.0279 31.7917 24.9334 32.2583 24.9334C32.8361 24.9334 33.325 25.0945 33.725 25.4167C34.125 25.739 34.325 26.1556 34.325 26.6667Z" fill="white"/>
</svg>
