<svg width="65" height="64" viewBox="0 0 65 64" fill="none" xmlns="http://www.w3.org/2000/svg">
<rect x="0.125" width="64" height="64" rx="32" fill="#3355FF"/>
<path d="M20.125 38.8666V29.3333C20.125 28.6221 20.3861 28.0221 20.9083 27.5333C21.4306 27.0444 22.0472 26.8221 22.7583 26.8666C24.5139 27.1333 26.1861 27.6499 27.775 28.4166C29.3639 29.1833 30.8139 30.1777 32.125 31.3999C33.4361 30.1777 34.8861 29.1833 36.475 28.4166C38.0639 27.6499 39.7361 27.1333 41.4917 26.8666C42.2028 26.8221 42.8194 27.0444 43.3417 27.5333C43.8639 28.0221 44.125 28.6221 44.125 29.3333V38.8666C44.125 39.5777 43.8917 40.1833 43.425 40.6833C42.9583 41.1833 42.3694 41.4555 41.6583 41.4999C40.2361 41.7221 38.8583 42.0888 37.525 42.5999C36.1917 43.111 34.9472 43.7888 33.7917 44.6333C33.5472 44.8333 33.2861 44.9833 33.0083 45.0833C32.7306 45.1833 32.4361 45.2333 32.125 45.2333C31.8139 45.2333 31.5194 45.1833 31.2417 45.0833C30.9639 44.9833 30.7028 44.8333 30.4583 44.6333C29.3028 43.7888 28.0583 43.111 26.725 42.5999C25.3917 42.0888 24.0139 41.7221 22.5917 41.4999C21.8806 41.4555 21.2917 41.1833 20.825 40.6833C20.3583 40.1833 20.125 39.5777 20.125 38.8666ZM32.125 42.5333C33.525 41.4888 35.0139 40.6555 36.5917 40.0333C38.1694 39.411 39.7917 38.9999 41.4583 38.7999V29.5999C39.8361 29.8888 38.2417 30.4721 36.675 31.3499C35.1083 32.2277 33.5917 33.3999 32.125 34.8666C30.6583 33.3999 29.1417 32.2277 27.575 31.3499C26.0083 30.4721 24.4139 29.8888 22.7917 29.5999V38.7999C24.4583 38.9999 26.0806 39.411 27.6583 40.0333C29.2361 40.6555 30.725 41.4888 32.125 42.5333ZM32.125 27.9999C30.6583 27.9999 29.4028 27.4777 28.3583 26.4333C27.3139 25.3888 26.7917 24.1333 26.7917 22.6666C26.7917 21.1999 27.3139 19.9444 28.3583 18.8999C29.4028 17.8555 30.6583 17.3333 32.125 17.3333C33.5917 17.3333 34.8472 17.8555 35.8917 18.8999C36.9361 19.9444 37.4583 21.1999 37.4583 22.6666C37.4583 24.1333 36.9361 25.3888 35.8917 26.4333C34.8472 27.4777 33.5917 27.9999 32.125 27.9999ZM32.125 25.3333C32.8583 25.3333 33.4861 25.0721 34.0083 24.5499C34.5306 24.0277 34.7917 23.3999 34.7917 22.6666C34.7917 21.9333 34.5306 21.3055 34.0083 20.7833C33.4861 20.261 32.8583 19.9999 32.125 19.9999C31.3917 19.9999 30.7639 20.261 30.2417 20.7833C29.7194 21.3055 29.4583 21.9333 29.4583 22.6666C29.4583 23.3999 29.7194 24.0277 30.2417 24.5499C30.7639 25.0721 31.3917 25.3333 32.125 25.3333Z" fill="white"/>
</svg>
