<svg width="24" height="29" viewBox="0 0 24 29" fill="none" xmlns="http://www.w3.org/2000/svg">
<path d="M8 24.6667H2.66667C1.93333 24.6667 1.30556 24.4056 0.783333 23.8834C0.261111 23.3612 0 22.7334 0 22.0001V3.33341C0 2.60008 0.261111 1.9723 0.783333 1.45008C1.30556 0.927859 1.93333 0.666748 2.66667 0.666748H21.3333C22.0667 0.666748 22.6944 0.927859 23.2167 1.45008C23.7389 1.9723 24 2.60008 24 3.33341V22.0001C24 22.7334 23.7389 23.3612 23.2167 23.8834C22.6944 24.4056 22.0667 24.6667 21.3333 24.6667H16L12.9333 27.7334C12.6667 28.0001 12.3556 28.1334 12 28.1334C11.6444 28.1334 11.3333 28.0001 11.0667 27.7334L8 24.6667ZM2.66667 22.0001H9.06667L12 24.9334L14.9333 22.0001H21.3333V3.33341H2.66667V22.0001ZM11.8667 20.6667C12.3333 20.6667 12.7278 20.5056 13.05 20.1834C13.3722 19.8612 13.5333 19.4667 13.5333 19.0001C13.5333 18.5334 13.3722 18.139 13.05 17.8167C12.7278 17.4945 12.3333 17.3334 11.8667 17.3334C11.4 17.3334 11.0056 17.4945 10.6833 17.8167C10.3611 18.139 10.2 18.5334 10.2 19.0001C10.2 19.4667 10.3611 19.8612 10.6833 20.1834C11.0056 20.5056 11.4 20.6667 11.8667 20.6667ZM14.2 8.66675C14.2 9.04453 14.0778 9.45008 13.8333 9.88342C13.5889 10.3167 13.1778 10.789 12.6 11.3001C12.2222 11.6334 11.9167 11.9501 11.6833 12.2501C11.45 12.5501 11.2556 12.8556 11.1 13.1667C11.0111 13.3445 10.9444 13.5223 10.9 13.7001C10.8556 13.8779 10.8111 14.0779 10.7667 14.3001C10.7222 14.6334 10.8111 14.9223 11.0333 15.1667C11.2556 15.4112 11.5444 15.5334 11.9 15.5334C12.2111 15.5334 12.4889 15.4223 12.7333 15.2001C12.9778 14.9779 13.1444 14.6779 13.2333 14.3001C13.3 13.989 13.4278 13.7001 13.6167 13.4334C13.8056 13.1667 14.1111 12.8223 14.5333 12.4001C15.3111 11.6223 15.8611 10.9667 16.1833 10.4334C16.5056 9.90008 16.6667 9.31119 16.6667 8.66675C16.6667 7.46675 16.2611 6.50008 15.45 5.76675C14.6389 5.03341 13.5333 4.66675 12.1333 4.66675C11.1333 4.66675 10.2667 4.87786 9.53333 5.30008C8.8 5.7223 8.21111 6.31119 7.76667 7.06675C7.61111 7.33342 7.60556 7.61119 7.75 7.90008C7.89444 8.18897 8.12222 8.38897 8.43333 8.50008C8.72222 8.61119 9.01111 8.61119 9.3 8.50008C9.58889 8.38897 9.82222 8.21119 10 7.96675C10.2444 7.65564 10.5444 7.40564 10.9 7.21675C11.2556 7.02786 11.6667 6.93341 12.1333 6.93341C12.7111 6.93341 13.2 7.09453 13.6 7.41675C14 7.73897 14.2 8.15564 14.2 8.66675Z" fill="white"/>
</svg>
