<svg width="24" height="29" viewBox="0 0 24 29" fill="none" xmlns="http://www.w3.org/2000/svg">
<path d="M0 21.8667V12.3334C0 11.6223 0.261111 11.0223 0.783333 10.5334C1.30556 10.0445 1.92222 9.82226 2.63333 9.86671C4.38889 10.1334 6.06111 10.65 7.65 11.4167C9.23889 12.1834 10.6889 13.1778 12 14.4C13.3111 13.1778 14.7611 12.1834 16.35 11.4167C17.9389 10.65 19.6111 10.1334 21.3667 9.86671C22.0778 9.82226 22.6944 10.0445 23.2167 10.5334C23.7389 11.0223 24 11.6223 24 12.3334V21.8667C24 22.5778 23.7667 23.1834 23.3 23.6834C22.8333 24.1834 22.2444 24.4556 21.5333 24.5C20.1111 24.7223 18.7333 25.0889 17.4 25.6C16.0667 26.1112 14.8222 26.7889 13.6667 27.6334C13.4222 27.8334 13.1611 27.9834 12.8833 28.0834C12.6056 28.1834 12.3111 28.2334 12 28.2334C11.6889 28.2334 11.3944 28.1834 11.1167 28.0834C10.8389 27.9834 10.5778 27.8334 10.3333 27.6334C9.17778 26.7889 7.93333 26.1112 6.6 25.6C5.26667 25.0889 3.88889 24.7223 2.46667 24.5C1.75556 24.4556 1.16667 24.1834 0.7 23.6834C0.233333 23.1834 0 22.5778 0 21.8667ZM12 25.5334C13.4 24.4889 14.8889 23.6556 16.4667 23.0334C18.0444 22.4112 19.6667 22 21.3333 21.8V12.6C19.7111 12.8889 18.1167 13.4723 16.55 14.35C14.9833 15.2278 13.4667 16.4 12 17.8667C10.5333 16.4 9.01667 15.2278 7.45 14.35C5.88333 13.4723 4.28889 12.8889 2.66667 12.6V21.8C4.33333 22 5.95556 22.4112 7.53333 23.0334C9.11111 23.6556 10.6 24.4889 12 25.5334ZM12 11C10.5333 11 9.27778 10.4778 8.23333 9.43337C7.18889 8.38893 6.66667 7.13337 6.66667 5.66671C6.66667 4.20004 7.18889 2.94449 8.23333 1.90004C9.27778 0.855596 10.5333 0.333374 12 0.333374C13.4667 0.333374 14.7222 0.855596 15.7667 1.90004C16.8111 2.94449 17.3333 4.20004 17.3333 5.66671C17.3333 7.13337 16.8111 8.38893 15.7667 9.43337C14.7222 10.4778 13.4667 11 12 11ZM12 8.33337C12.7333 8.33337 13.3611 8.07226 13.8833 7.55004C14.4056 7.02782 14.6667 6.40004 14.6667 5.66671C14.6667 4.93337 14.4056 4.3056 13.8833 3.78337C13.3611 3.26115 12.7333 3.00004 12 3.00004C11.2667 3.00004 10.6389 3.26115 10.1167 3.78337C9.59445 4.3056 9.33333 4.93337 9.33333 5.66671C9.33333 6.40004 9.59445 7.02782 10.1167 7.55004C10.6389 8.07226 11.2667 8.33337 12 8.33337Z" fill="white"/>
</svg>
