<svg width="64" height="64" viewBox="0 0 64 64" fill="none" xmlns="http://www.w3.org/2000/svg">
<rect width="64" height="64" rx="32" fill="#3355FF"/>
<path d="M32 45.3333C31.2667 45.3333 30.6389 45.0722 30.1167 44.55C29.5944 44.0278 29.3333 43.4 29.3333 42.6667H34.6667C34.6667 43.4 34.4056 44.0278 33.8833 44.55C33.3611 45.0722 32.7333 45.3333 32 45.3333ZM28 41.3333C27.6222 41.3333 27.3056 41.2056 27.05 40.95C26.7944 40.6944 26.6667 40.3778 26.6667 40C26.6667 39.6222 26.7944 39.3056 27.05 39.05C27.3056 38.7944 27.6222 38.6667 28 38.6667H36C36.3778 38.6667 36.6944 38.7944 36.95 39.05C37.2056 39.3056 37.3333 39.6222 37.3333 40C37.3333 40.3778 37.2056 40.6944 36.95 40.95C36.6944 41.2056 36.3778 41.3333 36 41.3333H28ZM27 37.3333C25.4667 36.4222 24.25 35.2 23.35 33.6667C22.45 32.1333 22 30.4667 22 28.6667C22 25.8889 22.9722 23.5278 24.9167 21.5833C26.8611 19.6389 29.2222 18.6667 32 18.6667C34.7778 18.6667 37.1389 19.6389 39.0833 21.5833C41.0278 23.5278 42 25.8889 42 28.6667C42 30.4667 41.55 32.1333 40.65 33.6667C39.75 35.2 38.5333 36.4222 37 37.3333H27ZM27.8 34.6667H36.2C37.2 33.9556 37.9722 33.0778 38.5167 32.0333C39.0611 30.9889 39.3333 29.8667 39.3333 28.6667C39.3333 26.6222 38.6222 24.8889 37.2 23.4667C35.7778 22.0444 34.0444 21.3333 32 21.3333C29.9556 21.3333 28.2222 22.0444 26.8 23.4667C25.3778 24.8889 24.6667 26.6222 24.6667 28.6667C24.6667 29.8667 24.9389 30.9889 25.4833 32.0333C26.0278 33.0778 26.8 33.9556 27.8 34.6667Z" fill="white"/>
</svg>
