<svg width="20" height="28" viewBox="0 0 20 28" fill="none" xmlns="http://www.w3.org/2000/svg">
<path d="M10 27.3333C9.26667 27.3333 8.63889 27.0722 8.11667 26.55C7.59444 26.0278 7.33333 25.4 7.33333 24.6667H12.6667C12.6667 25.4 12.4056 26.0278 11.8833 26.55C11.3611 27.0722 10.7333 27.3333 10 27.3333ZM6 23.3333C5.62222 23.3333 5.30556 23.2056 5.05 22.95C4.79444 22.6944 4.66667 22.3778 4.66667 22C4.66667 21.6222 4.79444 21.3056 5.05 21.05C5.30556 20.7944 5.62222 20.6667 6 20.6667H14C14.3778 20.6667 14.6944 20.7944 14.95 21.05C15.2056 21.3056 15.3333 21.6222 15.3333 22C15.3333 22.3778 15.2056 22.6944 14.95 22.95C14.6944 23.2056 14.3778 23.3333 14 23.3333H6ZM5 19.3333C3.46667 18.4222 2.25 17.2 1.35 15.6667C0.45 14.1333 0 12.4667 0 10.6667C0 7.88889 0.972222 5.52778 2.91667 3.58334C4.86111 1.63889 7.22222 0.666672 10 0.666672C12.7778 0.666672 15.1389 1.63889 17.0833 3.58334C19.0278 5.52778 20 7.88889 20 10.6667C20 12.4667 19.55 14.1333 18.65 15.6667C17.75 17.2 16.5333 18.4222 15 19.3333H5ZM5.8 16.6667H14.2C15.2 15.9556 15.9722 15.0778 16.5167 14.0333C17.0611 12.9889 17.3333 11.8667 17.3333 10.6667C17.3333 8.62223 16.6222 6.88889 15.2 5.46667C13.7778 4.04445 12.0444 3.33334 10 3.33334C7.95556 3.33334 6.22222 4.04445 4.8 5.46667C3.37778 6.88889 2.66667 8.62223 2.66667 10.6667C2.66667 11.8667 2.93889 12.9889 3.48333 14.0333C4.02778 15.0778 4.8 15.9556 5.8 16.6667Z" fill="white"/>
</svg>
