<svg width="24" height="24" viewBox="0 0 24 24" fill="none" xmlns="http://www.w3.org/2000/svg">
<path d="M6.66667 18.6667C7.04445 18.6667 7.36111 18.5389 7.61667 18.2833C7.87222 18.0278 8 17.7111 8 17.3333C8 16.9556 7.87222 16.6389 7.61667 16.3833C7.36111 16.1278 7.04445 16 6.66667 16C6.28889 16 5.97222 16.1278 5.71667 16.3833C5.46111 16.6389 5.33333 16.9556 5.33333 17.3333C5.33333 17.7111 5.46111 18.0278 5.71667 18.2833C5.97222 18.5389 6.28889 18.6667 6.66667 18.6667ZM6.66667 13.3333C7.04445 13.3333 7.36111 13.2056 7.61667 12.95C7.87222 12.6944 8 12.3778 8 12C8 11.6222 7.87222 11.3056 7.61667 11.05C7.36111 10.7944 7.04445 10.6667 6.66667 10.6667C6.28889 10.6667 5.97222 10.7944 5.71667 11.05C5.46111 11.3056 5.33333 11.6222 5.33333 12C5.33333 12.3778 5.46111 12.6944 5.71667 12.95C5.97222 13.2056 6.28889 13.3333 6.66667 13.3333ZM6.66667 8C7.04445 8 7.36111 7.87222 7.61667 7.61667C7.87222 7.36111 8 7.04445 8 6.66667C8 6.28889 7.87222 5.97222 7.61667 5.71667C7.36111 5.46111 7.04445 5.33333 6.66667 5.33333C6.28889 5.33333 5.97222 5.46111 5.71667 5.71667C5.46111 5.97222 5.33333 6.28889 5.33333 6.66667C5.33333 7.04445 5.46111 7.36111 5.71667 7.61667C5.97222 7.87222 6.28889 8 6.66667 8ZM12 18.6667H17.3333C17.7111 18.6667 18.0278 18.5389 18.2833 18.2833C18.5389 18.0278 18.6667 17.7111 18.6667 17.3333C18.6667 16.9556 18.5389 16.6389 18.2833 16.3833C18.0278 16.1278 17.7111 16 17.3333 16H12C11.6222 16 11.3056 16.1278 11.05 16.3833C10.7944 16.6389 10.6667 16.9556 10.6667 17.3333C10.6667 17.7111 10.7944 18.0278 11.05 18.2833C11.3056 18.5389 11.6222 18.6667 12 18.6667ZM12 13.3333H17.3333C17.7111 13.3333 18.0278 13.2056 18.2833 12.95C18.5389 12.6944 18.6667 12.3778 18.6667 12C18.6667 11.6222 18.5389 11.3056 18.2833 11.05C18.0278 10.7944 17.7111 10.6667 17.3333 10.6667H12C11.6222 10.6667 11.3056 10.7944 11.05 11.05C10.7944 11.3056 10.6667 11.6222 10.6667 12C10.6667 12.3778 10.7944 12.6944 11.05 12.95C11.3056 13.2056 11.6222 13.3333 12 13.3333ZM12 8H17.3333C17.7111 8 18.0278 7.87222 18.2833 7.61667C18.5389 7.36111 18.6667 7.04445 18.6667 6.66667C18.6667 6.28889 18.5389 5.97222 18.2833 5.71667C18.0278 5.46111 17.7111 5.33333 17.3333 5.33333H12C11.6222 5.33333 11.3056 5.46111 11.05 5.71667C10.7944 5.97222 10.6667 6.28889 10.6667 6.66667C10.6667 7.04445 10.7944 7.36111 11.05 7.61667C11.3056 7.87222 11.6222 8 12 8ZM2.66667 24C1.93333 24 1.30556 23.7389 0.783333 23.2167C0.261111 22.6944 0 22.0667 0 21.3333V2.66667C0 1.93333 0.261111 1.30556 0.783333 0.783333C1.30556 0.261111 1.93333 0 2.66667 0H21.3333C22.0667 0 22.6944 0.261111 23.2167 0.783333C23.7389 1.30556 24 1.93333 24 2.66667V21.3333C24 22.0667 23.7389 22.6944 23.2167 23.2167C22.6944 23.7389 22.0667 24 21.3333 24H2.66667ZM2.66667 21.3333H21.3333V2.66667H2.66667V21.3333Z" fill="white"/>
</svg>
