<svg width="64" height="64" viewBox="0 0 64 64" fill="none" xmlns="http://www.w3.org/2000/svg">
<rect width="64" height="64" rx="32" fill="#3355FF"/>
<path d="M26.6667 38.6667C27.0444 38.6667 27.3611 38.5389 27.6167 38.2833C27.8722 38.0278 28 37.7111 28 37.3333C28 36.9556 27.8722 36.6389 27.6167 36.3833C27.3611 36.1278 27.0444 36 26.6667 36C26.2889 36 25.9722 36.1278 25.7167 36.3833C25.4611 36.6389 25.3333 36.9556 25.3333 37.3333C25.3333 37.7111 25.4611 38.0278 25.7167 38.2833C25.9722 38.5389 26.2889 38.6667 26.6667 38.6667ZM26.6667 33.3333C27.0444 33.3333 27.3611 33.2056 27.6167 32.95C27.8722 32.6944 28 32.3778 28 32C28 31.6222 27.8722 31.3056 27.6167 31.05C27.3611 30.7944 27.0444 30.6667 26.6667 30.6667C26.2889 30.6667 25.9722 30.7944 25.7167 31.05C25.4611 31.3056 25.3333 31.6222 25.3333 32C25.3333 32.3778 25.4611 32.6944 25.7167 32.95C25.9722 33.2056 26.2889 33.3333 26.6667 33.3333ZM26.6667 28C27.0444 28 27.3611 27.8722 27.6167 27.6167C27.8722 27.3611 28 27.0444 28 26.6667C28 26.2889 27.8722 25.9722 27.6167 25.7167C27.3611 25.4611 27.0444 25.3333 26.6667 25.3333C26.2889 25.3333 25.9722 25.4611 25.7167 25.7167C25.4611 25.9722 25.3333 26.2889 25.3333 26.6667C25.3333 27.0444 25.4611 27.3611 25.7167 27.6167C25.9722 27.8722 26.2889 28 26.6667 28ZM32 38.6667H37.3333C37.7111 38.6667 38.0278 38.5389 38.2833 38.2833C38.5389 38.0278 38.6667 37.7111 38.6667 37.3333C38.6667 36.9556 38.5389 36.6389 38.2833 36.3833C38.0278 36.1278 37.7111 36 37.3333 36H32C31.6222 36 31.3056 36.1278 31.05 36.3833C30.7944 36.6389 30.6667 36.9556 30.6667 37.3333C30.6667 37.7111 30.7944 38.0278 31.05 38.2833C31.3056 38.5389 31.6222 38.6667 32 38.6667ZM32 33.3333H37.3333C37.7111 33.3333 38.0278 33.2056 38.2833 32.95C38.5389 32.6944 38.6667 32.3778 38.6667 32C38.6667 31.6222 38.5389 31.3056 38.2833 31.05C38.0278 30.7944 37.7111 30.6667 37.3333 30.6667H32C31.6222 30.6667 31.3056 30.7944 31.05 31.05C30.7944 31.3056 30.6667 31.6222 30.6667 32C30.6667 32.3778 30.7944 32.6944 31.05 32.95C31.3056 33.2056 31.6222 33.3333 32 33.3333ZM32 28H37.3333C37.7111 28 38.0278 27.8722 38.2833 27.6167C38.5389 27.3611 38.6667 27.0444 38.6667 26.6667C38.6667 26.2889 38.5389 25.9722 38.2833 25.7167C38.0278 25.4611 37.7111 25.3333 37.3333 25.3333H32C31.6222 25.3333 31.3056 25.4611 31.05 25.7167C30.7944 25.9722 30.6667 26.2889 30.6667 26.6667C30.6667 27.0444 30.7944 27.3611 31.05 27.6167C31.3056 27.8722 31.6222 28 32 28ZM22.6667 44C21.9333 44 21.3056 43.7389 20.7833 43.2167C20.2611 42.6944 20 42.0667 20 41.3333V22.6667C20 21.9333 20.2611 21.3056 20.7833 20.7833C21.3056 20.2611 21.9333 20 22.6667 20H41.3333C42.0667 20 42.6944 20.2611 43.2167 20.7833C43.7389 21.3056 44 21.9333 44 22.6667V41.3333C44 42.0667 43.7389 42.6944 43.2167 43.2167C42.6944 43.7389 42.0667 44 41.3333 44H22.6667ZM22.6667 41.3333H41.3333V22.6667H22.6667V41.3333Z" fill="white"/>
</svg>
