<svg width="24" height="24" viewBox="0 0 24 24" fill="none" xmlns="http://www.w3.org/2000/svg">
<path d="M5 21C4.71667 21 4.47917 20.9042 4.2875 20.7125C4.09583 20.5208 4 20.2833 4 20C4 19.7167 4.09583 19.4792 4.2875 19.2875C4.47917 19.0958 4.71667 19 5 19H19C19.2833 19 19.5208 19.0958 19.7125 19.2875C19.9042 19.4792 20 19.7167 20 20C20 20.2833 19.9042 20.5208 19.7125 20.7125C19.5208 20.9042 19.2833 21 19 21H5ZM8 17C6.9 17 5.95833 16.6083 5.175 15.825C4.39167 15.0417 4 14.1 4 13V5C4 4.45 4.19583 3.97917 4.5875 3.5875C4.97917 3.19583 5.45 3 6 3H20C20.55 3 21.0208 3.19583 21.4125 3.5875C21.8042 3.97917 22 4.45 22 5V8C22 8.55 21.8042 9.02083 21.4125 9.4125C21.0208 9.80417 20.55 10 20 10H18V13C18 14.1 17.6083 15.0417 16.825 15.825C16.0417 16.6083 15.1 17 14 17H8ZM8 15H14C14.55 15 15.0208 14.8042 15.4125 14.4125C15.8042 14.0208 16 13.55 16 13V5H6V13C6 13.55 6.19583 14.0208 6.5875 14.4125C6.97917 14.8042 7.45 15 8 15ZM18 8H20V5H18V8ZM8 15H6H16H8Z" fill="#5F6368"/>
</svg>
