<svg width="30" height="22" viewBox="0 0 30 22" fill="none" xmlns="http://www.w3.org/2000/svg">
<path d="M7.00016 21.6667C5.88905 21.6667 4.94461 21.2778 4.16683 20.5C3.38905 19.7223 3.00016 18.7778 3.00016 17.6667H1.66683C1.28905 17.6667 0.972385 17.5389 0.716829 17.2834C0.461274 17.0278 0.333496 16.7112 0.333496 16.3334V3.00004C0.333496 2.26671 0.594607 1.63893 1.11683 1.11671C1.63905 0.594485 2.26683 0.333374 3.00016 0.333374H19.0002C19.7335 0.333374 20.3613 0.594485 20.8835 1.11671C21.4057 1.63893 21.6668 2.26671 21.6668 3.00004V5.66671H24.3335C24.7557 5.66671 25.1557 5.76115 25.5335 5.95004C25.9113 6.13893 26.2224 6.40004 26.4668 6.73337L29.4002 10.6334C29.4891 10.7445 29.5557 10.8667 29.6002 11C29.6446 11.1334 29.6668 11.2778 29.6668 11.4334V16.3334C29.6668 16.7112 29.5391 17.0278 29.2835 17.2834C29.0279 17.5389 28.7113 17.6667 28.3335 17.6667H27.0002C27.0002 18.7778 26.6113 19.7223 25.8335 20.5C25.0557 21.2778 24.1113 21.6667 23.0002 21.6667C21.8891 21.6667 20.9446 21.2778 20.1668 20.5C19.3891 19.7223 19.0002 18.7778 19.0002 17.6667H11.0002C11.0002 18.7778 10.6113 19.7223 9.8335 20.5C9.05572 21.2778 8.11127 21.6667 7.00016 21.6667ZM7.00016 19C7.37794 19 7.69461 18.8723 7.95016 18.6167C8.20572 18.3612 8.3335 18.0445 8.3335 17.6667C8.3335 17.2889 8.20572 16.9723 7.95016 16.7167C7.69461 16.4612 7.37794 16.3334 7.00016 16.3334C6.62239 16.3334 6.30572 16.4612 6.05016 16.7167C5.79461 16.9723 5.66683 17.2889 5.66683 17.6667C5.66683 18.0445 5.79461 18.3612 6.05016 18.6167C6.30572 18.8723 6.62239 19 7.00016 19ZM3.00016 15H4.06683C4.44461 14.6 4.87794 14.2778 5.36683 14.0334C5.85572 13.7889 6.40016 13.6667 7.00016 13.6667C7.60016 13.6667 8.14461 13.7889 8.6335 14.0334C9.12239 14.2778 9.55572 14.6 9.9335 15H19.0002V3.00004H3.00016V15ZM23.0002 19C23.3779 19 23.6946 18.8723 23.9502 18.6167C24.2057 18.3612 24.3335 18.0445 24.3335 17.6667C24.3335 17.2889 24.2057 16.9723 23.9502 16.7167C23.6946 16.4612 23.3779 16.3334 23.0002 16.3334C22.6224 16.3334 22.3057 16.4612 22.0502 16.7167C21.7946 16.9723 21.6668 17.2889 21.6668 17.6667C21.6668 18.0445 21.7946 18.3612 22.0502 18.6167C22.3057 18.8723 22.6224 19 23.0002 19ZM21.6668 12.3334H27.3335L24.3335 8.33337H21.6668V12.3334Z" fill="white"/>
</svg>
