<svg width="64" height="64" viewBox="0 0 64 64" fill="none" xmlns="http://www.w3.org/2000/svg">
<rect width="64" height="64" rx="32" fill="#3355FF"/>
<path d="M17.3984 42.6667V40.2667C17.3984 39.5333 17.5873 38.8444 17.9651 38.2C18.3429 37.5556 18.8651 37.0667 19.5318 36.7333C20.6651 36.1556 21.9429 35.6667 23.3651 35.2667C24.7873 34.8667 26.354 34.6667 28.0651 34.6667C29.7762 34.6667 31.3429 34.8667 32.7651 35.2667C34.1873 35.6667 35.4651 36.1556 36.5984 36.7333C37.2651 37.0667 37.7873 37.5556 38.1651 38.2C38.5429 38.8444 38.7318 39.5333 38.7318 40.2667V42.6667C38.7318 43.0444 38.604 43.3611 38.3484 43.6167C38.0929 43.8722 37.7762 44 37.3984 44H18.7318C18.354 44 18.0373 43.8722 17.7818 43.6167C17.5262 43.3611 17.3984 43.0444 17.3984 42.6667ZM20.0651 41.3333H36.0651V40.2667C36.0651 40.0222 36.004 39.8 35.8818 39.6C35.7596 39.4 35.5984 39.2444 35.3984 39.1333C34.5984 38.7333 33.5707 38.3333 32.3151 37.9333C31.0595 37.5333 29.6429 37.3333 28.0651 37.3333C26.4873 37.3333 25.0707 37.5333 23.8151 37.9333C22.5595 38.3333 21.5318 38.7333 20.7318 39.1333C20.5318 39.2444 20.3707 39.4 20.2484 39.6C20.1262 39.8 20.0651 40.0222 20.0651 40.2667V41.3333ZM28.0651 33.3333C26.5984 33.3333 25.3429 32.8111 24.2984 31.7667C23.254 30.7222 22.7318 29.4667 22.7318 28H22.3984C22.1984 28 22.0373 27.9389 21.9151 27.8167C21.7929 27.6944 21.7318 27.5333 21.7318 27.3333C21.7318 27.1333 21.7929 26.9722 21.9151 26.85C22.0373 26.7278 22.1984 26.6667 22.3984 26.6667H22.7318C22.7318 25.6667 22.9762 24.7667 23.4651 23.9667C23.954 23.1667 24.5984 22.5333 25.3984 22.0667V23.3333C25.3984 23.5333 25.4595 23.6944 25.5818 23.8167C25.704 23.9389 25.8651 24 26.0651 24C26.2651 24 26.4262 23.9389 26.5484 23.8167C26.6707 23.6944 26.7318 23.5333 26.7318 23.3333V21.5333C26.9318 21.4667 27.1429 21.4167 27.3651 21.3833C27.5873 21.35 27.8207 21.3333 28.0651 21.3333C28.3095 21.3333 28.5429 21.35 28.7651 21.3833C28.9873 21.4167 29.1984 21.4667 29.3984 21.5333V23.3333C29.3984 23.5333 29.4595 23.6944 29.5818 23.8167C29.704 23.9389 29.8651 24 30.0651 24C30.2651 24 30.4262 23.9389 30.5484 23.8167C30.6707 23.6944 30.7318 23.5333 30.7318 23.3333V22.0667C31.5318 22.5333 32.1762 23.1667 32.6651 23.9667C33.154 24.7667 33.3984 25.6667 33.3984 26.6667H33.7318C33.9318 26.6667 34.0929 26.7278 34.2151 26.85C34.3373 26.9722 34.3984 27.1333 34.3984 27.3333C34.3984 27.5333 34.3373 27.6944 34.2151 27.8167C34.0929 27.9389 33.9318 28 33.7318 28H33.3984C33.3984 29.4667 32.8762 30.7222 31.8318 31.7667C30.7873 32.8111 29.5318 33.3333 28.0651 33.3333ZM28.0651 30.6667C28.7984 30.6667 29.4262 30.4056 29.9484 29.8833C30.4707 29.3611 30.7318 28.7333 30.7318 28H25.3984C25.3984 28.7333 25.6595 29.3611 26.1818 29.8833C26.704 30.4056 27.3318 30.6667 28.0651 30.6667ZM37.9651 35.4667L37.8651 35C37.7318 34.9556 37.604 34.9056 37.4818 34.85C37.3596 34.7944 37.2429 34.7111 37.1318 34.6L36.7318 34.7333C36.5762 34.7778 36.4262 34.7778 36.2818 34.7333C36.1373 34.6889 36.0207 34.5889 35.9318 34.4333L35.7984 34.2C35.7095 34.0667 35.6818 33.9222 35.7151 33.7667C35.7484 33.6111 35.8207 33.4778 35.9318 33.3667L36.2651 33.0667V32.2667L35.9318 31.9667C35.8207 31.8556 35.7484 31.7222 35.7151 31.5667C35.6818 31.4111 35.7095 31.2667 35.7984 31.1333L35.9318 30.9C36.0207 30.7444 36.1373 30.6444 36.2818 30.6C36.4262 30.5556 36.5762 30.5556 36.7318 30.6L37.1318 30.7333C37.2207 30.6444 37.3318 30.5667 37.4651 30.5C37.5984 30.4333 37.7318 30.3778 37.8651 30.3333L37.9651 29.8667C38.0096 29.7111 38.0873 29.5833 38.1984 29.4833C38.3095 29.3833 38.4429 29.3333 38.5984 29.3333H38.8651C39.0207 29.3333 39.154 29.3833 39.2651 29.4833C39.3762 29.5833 39.454 29.7111 39.4984 29.8667L39.5984 30.3333C39.7318 30.3778 39.8651 30.4333 39.9984 30.5C40.1318 30.5667 40.2429 30.6444 40.3318 30.7333L40.7318 30.6C40.8873 30.5556 41.0373 30.5556 41.1818 30.6C41.3262 30.6444 41.4429 30.7444 41.5318 30.9L41.6651 31.1333C41.754 31.2667 41.7818 31.4111 41.7484 31.5667C41.7151 31.7222 41.6429 31.8556 41.5318 31.9667L41.1984 32.2667V33.0667L41.5318 33.3667C41.6429 33.4778 41.7151 33.6111 41.7484 33.7667C41.7818 33.9222 41.754 34.0667 41.6651 34.2L41.5318 34.4333C41.4429 34.5889 41.3262 34.6889 41.1818 34.7333C41.0373 34.7778 40.8873 34.7778 40.7318 34.7333L40.3318 34.6C40.2207 34.7111 40.104 34.7944 39.9818 34.85C39.8596 34.9056 39.7318 34.9556 39.5984 35L39.4984 35.4667C39.454 35.6222 39.3762 35.75 39.2651 35.85C39.154 35.95 39.0207 36 38.8651 36H38.5984C38.4429 36 38.3095 35.95 38.1984 35.85C38.0873 35.75 38.0096 35.6222 37.9651 35.4667ZM38.7318 33.6667C38.9984 33.6667 39.2318 33.5667 39.4318 33.3667C39.6318 33.1667 39.7318 32.9333 39.7318 32.6667C39.7318 32.4 39.6318 32.1667 39.4318 31.9667C39.2318 31.7667 38.9984 31.6667 38.7318 31.6667C38.4651 31.6667 38.2318 31.7667 38.0318 31.9667C37.8318 32.1667 37.7318 32.4 37.7318 32.6667C37.7318 32.9333 37.8318 33.1667 38.0318 33.3667C38.2318 33.5667 38.4651 33.6667 38.7318 33.6667ZM40.9984 28.6L40.8651 27.9333C40.6651 27.8667 40.4818 27.7833 40.3151 27.6833C40.1484 27.5833 39.9984 27.4667 39.8651 27.3333L39.1651 27.5667C38.9651 27.6333 38.7651 27.6278 38.5651 27.55C38.3651 27.4722 38.2095 27.3444 38.0984 27.1667L37.8984 26.8333C37.7873 26.6556 37.7484 26.4611 37.7818 26.25C37.8151 26.0389 37.9207 25.8556 38.0984 25.7L38.6651 25.2C38.6207 25.0889 38.5984 25 38.5984 24.9333V24.4C38.5984 24.3333 38.6207 24.2444 38.6651 24.1333L38.0984 23.6333C37.9207 23.4778 37.8151 23.2944 37.7818 23.0833C37.7484 22.8722 37.7873 22.6778 37.8984 22.5L38.0984 22.1667C38.2095 21.9889 38.3651 21.8611 38.5651 21.7833C38.7651 21.7056 38.9651 21.7 39.1651 21.7667L39.8651 22C39.9984 21.8667 40.1484 21.75 40.3151 21.65C40.4818 21.55 40.6651 21.4667 40.8651 21.4L40.9984 20.7333C41.0429 20.5111 41.1484 20.3333 41.3151 20.2C41.4818 20.0667 41.6762 20 41.8984 20H42.2318C42.454 20 42.6484 20.0667 42.8151 20.2C42.9818 20.3333 43.0873 20.5111 43.1318 20.7333L43.2651 21.4C43.4651 21.4667 43.6484 21.55 43.8151 21.65C43.9818 21.75 44.1318 21.8667 44.2651 22L44.9651 21.7667C45.1651 21.7 45.3651 21.7056 45.5651 21.7833C45.7651 21.8611 45.9207 21.9889 46.0318 22.1667L46.2318 22.5C46.3429 22.6778 46.3818 22.8722 46.3484 23.0833C46.3151 23.2944 46.2096 23.4778 46.0318 23.6333L45.4651 24.1333C45.5096 24.2444 45.5318 24.3333 45.5318 24.4V24.9333C45.5318 25 45.5096 25.0889 45.4651 25.2L46.0318 25.7C46.2096 25.8556 46.3151 26.0389 46.3484 26.25C46.3818 26.4611 46.3429 26.6556 46.2318 26.8333L46.0318 27.1667C45.9207 27.3444 45.7651 27.4722 45.5651 27.55C45.3651 27.6278 45.1651 27.6333 44.9651 27.5667L44.2651 27.3333C44.1318 27.4667 43.9818 27.5833 43.8151 27.6833C43.6484 27.7833 43.4651 27.8667 43.2651 27.9333L43.1318 28.6C43.0873 28.8222 42.9818 29 42.8151 29.1333C42.6484 29.2667 42.454 29.3333 42.2318 29.3333H41.8984C41.6762 29.3333 41.4818 29.2667 41.3151 29.1333C41.1484 29 41.0429 28.8222 40.9984 28.6ZM42.0651 26.3333C42.5318 26.3333 42.9262 26.1722 43.2484 25.85C43.5707 25.5278 43.7318 25.1333 43.7318 24.6667C43.7318 24.2 43.5707 23.8056 43.2484 23.4833C42.9262 23.1611 42.5318 23 42.0651 23C41.5984 23 41.204 23.1611 40.8818 23.4833C40.5595 23.8056 40.3984 24.2 40.3984 24.6667C40.3984 25.1333 40.5595 25.5278 40.8818 25.85C41.204 26.1722 41.5984 26.3333 42.0651 26.3333Z" fill="white"/>
</svg>
