<svg width="24" height="24" viewBox="0 0 24 24" fill="none" xmlns="http://www.w3.org/2000/svg">
<path d="M11.8745 20C11.9411 20 12.0078 19.9833 12.0745 19.95C12.1411 19.9167 12.1911 19.8833 12.2245 19.85L20.4245 11.65C20.6245 11.45 20.7703 11.225 20.862 10.975C20.9536 10.725 20.9995 10.475 20.9995 10.225C20.9995 9.95833 20.9536 9.70417 20.862 9.4625C20.7703 9.22083 20.6245 9.00833 20.4245 8.825L16.1745 4.575C15.9911 4.375 15.7786 4.22917 15.537 4.1375C15.2953 4.04583 15.0411 4 14.7745 4C14.5245 4 14.2745 4.04583 14.0245 4.1375C13.7745 4.22917 13.5495 4.375 13.3495 4.575L13.0745 4.85L14.9245 6.725C15.1745 6.95833 15.3578 7.225 15.4745 7.525C15.5911 7.825 15.6495 8.14167 15.6495 8.475C15.6495 9.175 15.412 9.7625 14.937 10.2375C14.462 10.7125 13.8745 10.95 13.1745 10.95C12.8411 10.95 12.5203 10.8917 12.212 10.775C11.9036 10.6583 11.6328 10.4833 11.3995 10.25L9.52448 8.4L5.14948 12.775C5.09948 12.825 5.06198 12.8792 5.03698 12.9375C5.01198 12.9958 4.99948 13.0583 4.99948 13.125C4.99948 13.2583 5.04948 13.3792 5.14948 13.4875C5.24948 13.5958 5.36614 13.65 5.49948 13.65C5.56614 13.65 5.63281 13.6333 5.69948 13.6C5.76614 13.5667 5.81614 13.5333 5.84948 13.5L8.54948 10.8C8.73281 10.6167 8.96198 10.5208 9.23698 10.5125C9.51198 10.5042 9.74948 10.6 9.94948 10.8C10.1328 10.9833 10.2245 11.2167 10.2245 11.5C10.2245 11.7833 10.1328 12.0167 9.94948 12.2L7.27448 14.9C7.22448 14.95 7.18698 15.0042 7.16198 15.0625C7.13698 15.1208 7.12448 15.1833 7.12448 15.25C7.12448 15.3833 7.17448 15.5 7.27448 15.6C7.37448 15.7 7.49114 15.75 7.62448 15.75C7.69114 15.75 7.75781 15.7333 7.82448 15.7C7.89114 15.6667 7.94114 15.6333 7.97448 15.6L10.6745 12.925C10.8578 12.7417 11.087 12.6458 11.362 12.6375C11.637 12.6292 11.8745 12.725 12.0745 12.925C12.2578 13.1083 12.3495 13.3417 12.3495 13.625C12.3495 13.9083 12.2578 14.1417 12.0745 14.325L9.39948 17.025C9.34948 17.0583 9.31197 17.1083 9.28697 17.175C9.26197 17.2417 9.24948 17.3083 9.24948 17.375C9.24948 17.5083 9.29948 17.625 9.39948 17.725C9.49948 17.825 9.61614 17.875 9.74948 17.875C9.81614 17.875 9.87864 17.8625 9.93698 17.8375C9.99531 17.8125 10.0495 17.775 10.0995 17.725L12.7995 15.05C12.9828 14.8667 13.212 14.7708 13.487 14.7625C13.762 14.7542 13.9995 14.85 14.1995 15.05C14.3828 15.2333 14.4745 15.4667 14.4745 15.75C14.4745 16.0333 14.3828 16.2667 14.1995 16.45L11.4995 19.15C11.4495 19.2 11.412 19.2542 11.387 19.3125C11.362 19.3708 11.3495 19.4333 11.3495 19.5C11.3495 19.6333 11.4036 19.75 11.512 19.85C11.6203 19.95 11.7411 20 11.8745 20ZM11.8495 22C11.2328 22 10.687 21.7958 10.212 21.3875C9.73698 20.9792 9.45781 20.4667 9.37448 19.85C8.80781 19.7667 8.33281 19.5333 7.94948 19.15C7.56614 18.7667 7.33281 18.2917 7.24948 17.725C6.68281 17.6417 6.21198 17.4042 5.83698 17.0125C5.46198 16.6208 5.23281 16.15 5.14948 15.6C4.51614 15.5167 3.99948 15.2417 3.59948 14.775C3.19948 14.3083 2.99948 13.7583 2.99948 13.125C2.99948 12.7917 3.06198 12.4708 3.18698 12.1625C3.31198 11.8542 3.49114 11.5833 3.72448 11.35L8.09948 6.975C8.48281 6.59167 8.95364 6.4 9.51198 6.4C10.0703 6.4 10.5411 6.59167 10.9245 6.975L12.7995 8.85C12.8328 8.9 12.8828 8.9375 12.9495 8.9625C13.0161 8.9875 13.0828 9 13.1495 9C13.2995 9 13.4245 8.95417 13.5245 8.8625C13.6245 8.77083 13.6745 8.65 13.6745 8.5C13.6745 8.43333 13.662 8.36667 13.637 8.3C13.612 8.23333 13.5745 8.18333 13.5245 8.15L9.94948 4.575C9.76614 4.375 9.55364 4.22917 9.31198 4.1375C9.07031 4.04583 8.81614 4 8.54948 4C8.29948 4 8.04948 4.04583 7.79948 4.1375C7.54948 4.22917 7.32448 4.375 7.12448 4.575L3.59948 8.125C3.36614 8.35833 3.19948 8.63333 3.09948 8.95C2.99948 9.26667 2.97448 9.58333 3.02448 9.9C3.07448 10.1833 3.01614 10.4333 2.84948 10.65C2.68281 10.8667 2.45781 10.9917 2.17448 11.025C1.89114 11.0583 1.64114 10.9958 1.42448 10.8375C1.20781 10.6792 1.08281 10.4583 1.04948 10.175C0.949475 9.54167 0.995309 8.92083 1.18698 8.3125C1.37864 7.70417 1.70781 7.16667 2.17448 6.7L5.69948 3.175C6.09948 2.79167 6.54531 2.5 7.03698 2.3C7.52864 2.1 8.03281 2 8.54948 2C9.06614 2 9.57031 2.1 10.062 2.3C10.5536 2.5 10.9911 2.79167 11.3745 3.175L11.6495 3.45L11.9245 3.175C12.3245 2.79167 12.7703 2.5 13.262 2.3C13.7536 2.1 14.2578 2 14.7745 2C15.2911 2 15.7953 2.1 16.287 2.3C16.7786 2.5 17.2161 2.79167 17.5995 3.175L21.8245 7.4C22.2078 7.78333 22.4995 8.225 22.6995 8.725C22.8995 9.225 22.9995 9.73333 22.9995 10.25C22.9995 10.7667 22.8995 11.2708 22.6995 11.7625C22.4995 12.2542 22.2078 12.6917 21.8245 13.075L17.7245 17.1625L13.6245 21.25C13.3911 21.4833 13.1203 21.6667 12.812 21.8C12.5036 21.9333 12.1828 22 11.8495 22Z" fill="#5F6368"/>
</svg>
