<svg width="26" height="28" viewBox="0 0 26 28" fill="none" xmlns="http://www.w3.org/2000/svg">
<path d="M18.6667 23.3333H16C15.6222 23.3333 15.3056 23.2055 15.05 22.95C14.7944 22.6944 14.6667 22.3777 14.6667 22C14.6667 21.6222 14.7944 21.3055 15.05 21.05C15.3056 20.7944 15.6222 20.6666 16 20.6666H18.6667V18C18.6667 17.6222 18.7944 17.3055 19.05 17.05C19.3056 16.7944 19.6222 16.6666 20 16.6666C20.3778 16.6666 20.6944 16.7944 20.95 17.05C21.2056 17.3055 21.3333 17.6222 21.3333 18V20.6666H24C24.3778 20.6666 24.6944 20.7944 24.95 21.05C25.2056 21.3055 25.3333 21.6222 25.3333 22C25.3333 22.3777 25.2056 22.6944 24.95 22.95C24.6944 23.2055 24.3778 23.3333 24 23.3333H21.3333V26C21.3333 26.3777 21.2056 26.6944 20.95 26.95C20.6944 27.2055 20.3778 27.3333 20 27.3333C19.6222 27.3333 19.3056 27.2055 19.05 26.95C18.7944 26.6944 18.6667 26.3777 18.6667 26V23.3333ZM2.66667 24.6666C1.93333 24.6666 1.30556 24.4055 0.783333 23.8833C0.261111 23.3611 0 22.7333 0 22V5.99996C0 5.26663 0.261111 4.63885 0.783333 4.11663C1.30556 3.5944 1.93333 3.33329 2.66667 3.33329H4V1.99996C4 1.62218 4.12778 1.30551 4.38333 1.04996C4.63889 0.794404 4.95556 0.666626 5.33333 0.666626C5.71111 0.666626 6.02778 0.794404 6.28333 1.04996C6.53889 1.30551 6.66667 1.62218 6.66667 1.99996V3.33329H14.6667V1.99996C14.6667 1.62218 14.7944 1.30551 15.05 1.04996C15.3056 0.794404 15.6222 0.666626 16 0.666626C16.3778 0.666626 16.6944 0.794404 16.95 1.04996C17.2056 1.30551 17.3333 1.62218 17.3333 1.99996V3.33329H18.6667C19.4 3.33329 20.0278 3.5944 20.55 4.11663C21.0722 4.63885 21.3333 5.26663 21.3333 5.99996V12.6666C21.3333 13.0444 21.2056 13.3611 20.95 13.6166C20.6944 13.8722 20.3778 14 20 14C19.6222 14 19.3056 13.8722 19.05 13.6166C18.7944 13.3611 18.6667 13.0444 18.6667 12.6666V11.3333H2.66667V22H10.6667C11.0444 22 11.3611 22.1277 11.6167 22.3833C11.8722 22.6388 12 22.9555 12 23.3333C12 23.7111 11.8722 24.0277 11.6167 24.2833C11.3611 24.5388 11.0444 24.6666 10.6667 24.6666H2.66667ZM2.66667 8.66663H18.6667V5.99996H2.66667V8.66663Z" fill="white"/>
</svg>
