<svg width="65" height="65" viewBox="0 0 65 65" fill="none" xmlns="http://www.w3.org/2000/svg">
<rect x="0.75" y="0.5" width="64" height="64" rx="32" fill="#3355FF"/>
<path d="M24.7507 43.1667C23.6395 43.1667 22.6951 42.7778 21.9173 42C21.1395 41.2223 20.7507 40.2778 20.7507 39.1667H19.4173C19.0395 39.1667 18.7229 39.0389 18.4673 38.7834C18.2118 38.5278 18.084 38.2112 18.084 37.8334V24.5C18.084 23.7667 18.3451 23.1389 18.8673 22.6167C19.3895 22.0945 20.0173 21.8334 20.7507 21.8334H36.7507C37.484 21.8334 38.1118 22.0945 38.634 22.6167C39.1562 23.1389 39.4173 23.7667 39.4173 24.5V27.1667H42.084C42.5062 27.1667 42.9062 27.2612 43.284 27.45C43.6618 27.6389 43.9729 27.9 44.2173 28.2334L47.1507 32.1334C47.2395 32.2445 47.3062 32.3667 47.3507 32.5C47.3951 32.6334 47.4173 32.7778 47.4173 32.9334V37.8334C47.4173 38.2112 47.2895 38.5278 47.034 38.7834C46.7784 39.0389 46.4618 39.1667 46.084 39.1667H44.7507C44.7507 40.2778 44.3618 41.2223 43.584 42C42.8062 42.7778 41.8618 43.1667 40.7507 43.1667C39.6395 43.1667 38.6951 42.7778 37.9173 42C37.1395 41.2223 36.7507 40.2778 36.7507 39.1667H28.7507C28.7507 40.2778 28.3618 41.2223 27.584 42C26.8062 42.7778 25.8618 43.1667 24.7507 43.1667ZM24.7507 40.5C25.1284 40.5 25.4451 40.3723 25.7007 40.1167C25.9562 39.8612 26.084 39.5445 26.084 39.1667C26.084 38.7889 25.9562 38.4723 25.7007 38.2167C25.4451 37.9612 25.1284 37.8334 24.7507 37.8334C24.3729 37.8334 24.0562 37.9612 23.8007 38.2167C23.5451 38.4723 23.4173 38.7889 23.4173 39.1667C23.4173 39.5445 23.5451 39.8612 23.8007 40.1167C24.0562 40.3723 24.3729 40.5 24.7507 40.5ZM20.7507 36.5H21.8173C22.1951 36.1 22.6284 35.7778 23.1173 35.5334C23.6062 35.2889 24.1507 35.1667 24.7507 35.1667C25.3507 35.1667 25.8951 35.2889 26.384 35.5334C26.8729 35.7778 27.3062 36.1 27.684 36.5H36.7507V24.5H20.7507V36.5ZM40.7507 40.5C41.1284 40.5 41.4451 40.3723 41.7007 40.1167C41.9562 39.8612 42.084 39.5445 42.084 39.1667C42.084 38.7889 41.9562 38.4723 41.7007 38.2167C41.4451 37.9612 41.1284 37.8334 40.7507 37.8334C40.3729 37.8334 40.0562 37.9612 39.8007 38.2167C39.5451 38.4723 39.4173 38.7889 39.4173 39.1667C39.4173 39.5445 39.5451 39.8612 39.8007 40.1167C40.0562 40.3723 40.3729 40.5 40.7507 40.5ZM39.4173 33.8334H45.084L42.084 29.8334H39.4173V33.8334Z" fill="white"/>
</svg>
