<svg width="65" height="64" viewBox="0 0 65 64" fill="none" xmlns="http://www.w3.org/2000/svg">
<rect x="0.75" width="64" height="64" rx="32" fill="#3355FF"/>
<path d="M26.0807 40C25.703 40 25.3863 39.8722 25.1307 39.6166C24.8752 39.3611 24.7474 39.0444 24.7474 38.6666V36H42.0807V24H44.7474C45.1252 24 45.4418 24.1277 45.6974 24.3833C45.9529 24.6388 46.0807 24.9555 46.0807 25.3333V42.1C46.0807 42.7 45.8085 43.1166 45.2641 43.35C44.7196 43.5833 44.2363 43.4888 43.8141 43.0666L40.7474 40H26.0807ZM24.7474 33.3333L21.6807 36.4C21.2585 36.8222 20.7752 36.9166 20.2307 36.6833C19.6863 36.45 19.4141 36.0333 19.4141 35.4333V20C19.4141 19.6222 19.5418 19.3055 19.7974 19.05C20.053 18.7944 20.3696 18.6666 20.7474 18.6666H38.0807C38.4585 18.6666 38.7752 18.7944 39.0307 19.05C39.2863 19.3055 39.4141 19.6222 39.4141 20V32C39.4141 32.3777 39.2863 32.6944 39.0307 32.95C38.7752 33.2055 38.4585 33.3333 38.0807 33.3333H24.7474ZM36.7474 30.6666V21.3333H22.0807V30.6666H36.7474Z" fill="white"/>
</svg>
