<svg width="25" height="24" viewBox="0 0 25 24" fill="none" xmlns="http://www.w3.org/2000/svg">
<path d="M10.0492 14.3L18.0742 6.27505C18.3909 5.95838 18.7659 5.80005 19.1992 5.80005C19.6326 5.80005 20.0076 5.95838 20.3242 6.27505C20.6409 6.59172 20.7992 6.96672 20.7992 7.40005C20.7992 7.83338 20.6409 8.20838 20.3242 8.52505L11.1742 17.675C10.8576 17.9917 10.4826 18.15 10.0492 18.15C9.61589 18.15 9.24089 17.9917 8.92422 17.675L4.67422 13.425C4.35755 13.1084 4.19922 12.7334 4.19922 12.3C4.19922 11.8667 4.35755 11.4917 4.67422 11.175C4.99089 10.8584 5.36589 10.7 5.79922 10.7C6.23255 10.7 6.60755 10.8584 6.92422 11.175L10.0492 14.3Z" fill="#2D2323"/>
</svg>
