<svg width="64" height="64" viewBox="0 0 64 64" fill="none" xmlns="http://www.w3.org/2000/svg">
<rect width="64" height="64" rx="32" fill="#3355FF"/>
<path d="M39.768 24.2333L43.5346 20.4667C43.8013 20.2 44.118 20.0667 44.4846 20.0667C44.8513 20.0667 45.168 20.2 45.4346 20.4667C45.7013 20.7333 45.8346 21.05 45.8346 21.4167C45.8346 21.7833 45.7013 22.1 45.4346 22.3667L40.7013 27.0667C40.4346 27.3333 40.1235 27.4667 39.768 27.4667C39.4124 27.4667 39.1013 27.3333 38.8346 27.0667L36.9346 25.1667C36.6902 24.9222 36.568 24.6167 36.568 24.25C36.568 23.8833 36.6902 23.5667 36.9346 23.3C37.2013 23.0333 37.518 22.9 37.8846 22.9C38.2513 22.9 38.568 23.0333 38.8346 23.3L39.768 24.2333ZM32.0013 40L26.4013 42.4C25.5124 42.7778 24.668 42.7056 23.868 42.1833C23.068 41.6611 22.668 40.9222 22.668 39.9667V22.6667C22.668 21.9333 22.9291 21.3056 23.4513 20.7833C23.9735 20.2611 24.6013 20 25.3346 20H32.0013C32.3791 20 32.6957 20.1278 32.9513 20.3833C33.2069 20.6389 33.3346 20.9556 33.3346 21.3333C33.3346 21.7111 33.2069 22.0278 32.9513 22.2833C32.6957 22.5389 32.3791 22.6667 32.0013 22.6667H25.3346V39.9333L32.0013 37.0667L38.668 39.9333V32C38.668 31.6222 38.7957 31.3056 39.0513 31.05C39.3069 30.7944 39.6235 30.6667 40.0013 30.6667C40.3791 30.6667 40.6957 30.7944 40.9513 31.05C41.2069 31.3056 41.3346 31.6222 41.3346 32V39.9667C41.3346 40.9222 40.9346 41.6611 40.1346 42.1833C39.3346 42.7056 38.4902 42.7778 37.6013 42.4L32.0013 40ZM32.0013 22.6667H25.3346H33.3346H32.0013Z" fill="white"/>
</svg>
