<svg width="65" height="64" viewBox="0 0 65 64" fill="none" xmlns="http://www.w3.org/2000/svg">
<rect x="0.75" width="64" height="64" rx="32" fill="#3355FF"/>
<path d="M32.7495 44L28.2495 45.5C28.0939 45.5444 27.9495 45.5777 27.8161 45.6C27.6828 45.6222 27.5495 45.6333 27.4161 45.6333C26.705 45.6333 26.0828 45.3833 25.5495 44.8833C25.0161 44.3833 24.7495 43.7444 24.7495 42.9666V35.7L21.2828 30.0666C21.1495 29.8444 21.0495 29.6166 20.9828 29.3833C20.9161 29.15 20.8828 28.9111 20.8828 28.6666C20.8828 28.4222 20.9161 28.1833 20.9828 27.95C21.0495 27.7166 21.1495 27.4888 21.2828 27.2666L25.8161 19.9333C26.0606 19.5333 26.3828 19.2222 26.7828 19C27.1828 18.7777 27.6161 18.6666 28.0828 18.6666H37.4161C37.8828 18.6666 38.3161 18.7777 38.7161 19C39.1161 19.2222 39.4384 19.5333 39.6828 19.9333L44.2161 27.2666C44.3495 27.4888 44.4495 27.7166 44.5161 27.95C44.5828 28.1833 44.6161 28.4222 44.6161 28.6666C44.6161 28.9111 44.5828 29.15 44.5161 29.3833C44.4495 29.6166 44.3495 29.8444 44.2161 30.0666L40.7495 35.7V42.9666C40.7495 43.7444 40.4828 44.3833 39.9495 44.8833C39.4161 45.3833 38.7939 45.6333 38.0828 45.6333C37.9495 45.6333 37.8161 45.6222 37.6828 45.6C37.5495 45.5777 37.405 45.5444 37.2495 45.5L32.7495 44ZM32.7495 41.2L38.0828 42.9666V38.6666H27.4161V42.9666L32.7495 41.2ZM28.0828 36H37.4161L41.9495 28.6666L37.4161 21.3333H28.0828L23.5495 28.6666L28.0828 36ZM31.3495 30.3333L36.0495 25.6C36.2939 25.3333 36.5995 25.2055 36.9661 25.2166C37.3328 25.2277 37.6495 25.3555 37.9161 25.6C38.1828 25.8666 38.3217 26.1833 38.3328 26.55C38.3439 26.9166 38.2161 27.2333 37.9495 27.5L32.2828 33.1666C32.0161 33.4333 31.705 33.5666 31.3495 33.5666C30.9939 33.5666 30.6828 33.4333 30.4161 33.1666L27.5828 30.3333C27.3161 30.0666 27.1828 29.75 27.1828 29.3833C27.1828 29.0166 27.3161 28.7 27.5828 28.4333C27.8495 28.1666 28.1661 28.0333 28.5328 28.0333C28.8995 28.0333 29.2161 28.1666 29.4828 28.4333L31.3495 30.3333ZM32.7495 38.6666H27.4161H38.0828H32.7495Z" fill="white"/>
</svg>
