<svg width="28" height="26" viewBox="0 0 28 26" fill="none" xmlns="http://www.w3.org/2000/svg">
<path d="M7.33073 22C6.95295 22 6.63628 21.8722 6.38073 21.6166C6.12517 21.3611 5.9974 21.0444 5.9974 20.6666V18H23.3307V5.99996H25.9974C26.3752 5.99996 26.6918 6.12774 26.9474 6.38329C27.2029 6.63885 27.3307 6.95551 27.3307 7.33329V24.1C27.3307 24.7 27.0585 25.1166 26.5141 25.35C25.9696 25.5833 25.4863 25.4888 25.0641 25.0666L21.9974 22H7.33073ZM5.9974 15.3333L2.93073 18.4C2.50851 18.8222 2.02517 18.9166 1.48073 18.6833C0.936285 18.45 0.664062 18.0333 0.664062 17.4333V1.99996C0.664062 1.62218 0.79184 1.30551 1.0474 1.04996C1.30295 0.794404 1.61962 0.666626 1.9974 0.666626H19.3307C19.7085 0.666626 20.0252 0.794404 20.2807 1.04996C20.5363 1.30551 20.6641 1.62218 20.6641 1.99996V14C20.6641 14.3777 20.5363 14.6944 20.2807 14.95C20.0252 15.2055 19.7085 15.3333 19.3307 15.3333H5.9974ZM17.9974 12.6666V3.33329H3.33073V12.6666H17.9974Z" fill="white"/>
</svg>
