<svg width="51" height="51" viewBox="0 0 51 51" fill="none" xmlns="http://www.w3.org/2000/svg">
<rect x="0.5" y="0.5" width="50" height="50" rx="25" fill="#FEDF22"/>
<g clip-path="url(#clip0_247_2651)">
<path d="M36.4977 19.751C36.4912 19.6439 36.4631 19.5392 36.4151 19.4432C36.3672 19.3472 36.3003 19.2619 36.2186 19.1924L33.3497 16.7206C33.2697 16.6515 33.1769 16.5989 33.0766 16.5659C32.9763 16.5328 32.8704 16.5199 32.7651 16.528C32.6598 16.536 32.5571 16.5648 32.463 16.6127C32.3689 16.6607 32.2851 16.7267 32.2166 16.8072L23.3224 27.1413L18.6618 22.7311C18.5853 22.6582 18.4952 22.6011 18.3967 22.5632C18.2981 22.5252 18.193 22.5072 18.0875 22.51C17.9819 22.5129 17.8779 22.5366 17.7816 22.5798C17.6852 22.623 17.5983 22.6849 17.5259 22.7618L14.9249 25.5157C14.8525 25.5922 14.7958 25.6822 14.7581 25.7805C14.7204 25.8789 14.7025 25.9838 14.7054 26.0891C14.7082 26.1944 14.7318 26.2981 14.7747 26.3943C14.8177 26.4905 14.8791 26.5773 14.9556 26.6497L20.1716 31.5905C21.0321 32.4184 22.1789 32.8817 23.3726 32.8837C23.4535 32.8837 23.5317 32.8837 23.6126 32.8837C24.2435 32.8516 24.8612 32.6906 25.4275 32.4105C25.9939 32.1305 26.497 31.7374 26.9057 31.2553L36.3051 20.3263C36.443 20.1645 36.5112 19.9546 36.4949 19.7426L36.4977 19.751Z" fill="#2D2323"/>
</g>
<defs>
<clipPath id="clip0_247_2651">
<rect width="22" height="17" fill="white" transform="translate(14.5 16.5)"/>
</clipPath>
</defs>
</svg>
