<svg width="24" height="23" viewBox="0 0 24 23" fill="none" xmlns="http://www.w3.org/2000/svg">
<path d="M17.768 4.23333L21.5346 0.466667C21.8013 0.2 22.118 0.0666667 22.4846 0.0666667C22.8513 0.0666667 23.168 0.2 23.4346 0.466667C23.7013 0.733333 23.8346 1.05 23.8346 1.41667C23.8346 1.78333 23.7013 2.1 23.4346 2.36667L18.7013 7.06667C18.4346 7.33333 18.1235 7.46667 17.768 7.46667C17.4124 7.46667 17.1013 7.33333 16.8346 7.06667L14.9346 5.16667C14.6902 4.92222 14.568 4.61667 14.568 4.25C14.568 3.88333 14.6902 3.56667 14.9346 3.3C15.2013 3.03333 15.518 2.9 15.8846 2.9C16.2513 2.9 16.568 3.03333 16.8346 3.3L17.768 4.23333ZM10.0013 20L4.4013 22.4C3.51241 22.7778 2.66797 22.7056 1.86797 22.1833C1.06797 21.6611 0.667969 20.9222 0.667969 19.9667V2.66667C0.667969 1.93333 0.92908 1.30556 1.4513 0.783333C1.97352 0.261111 2.6013 0 3.33464 0H10.0013C10.3791 0 10.6957 0.127778 10.9513 0.383333C11.2069 0.638889 11.3346 0.955556 11.3346 1.33333C11.3346 1.71111 11.2069 2.02778 10.9513 2.28333C10.6957 2.53889 10.3791 2.66667 10.0013 2.66667H3.33464V19.9333L10.0013 17.0667L16.668 19.9333V12C16.668 11.6222 16.7957 11.3056 17.0513 11.05C17.3069 10.7944 17.6235 10.6667 18.0013 10.6667C18.3791 10.6667 18.6957 10.7944 18.9513 11.05C19.2069 11.3056 19.3346 11.6222 19.3346 12V19.9667C19.3346 20.9222 18.9346 21.6611 18.1346 22.1833C17.3346 22.7056 16.4902 22.7778 15.6013 22.4L10.0013 20ZM10.0013 2.66667H3.33464H11.3346H10.0013Z" fill="white"/>
</svg>
