<svg width="24" height="28" viewBox="0 0 24 28" fill="none" xmlns="http://www.w3.org/2000/svg">
<path d="M11.9995 26L7.49948 27.5C7.34392 27.5444 7.19948 27.5777 7.06615 27.6C6.93281 27.6222 6.79948 27.6333 6.66615 27.6333C5.95504 27.6333 5.33281 27.3833 4.79948 26.8833C4.26615 26.3833 3.99948 25.7444 3.99948 24.9666V17.7L0.532813 12.0666C0.399479 11.8444 0.299479 11.6166 0.232813 11.3833C0.166146 11.15 0.132812 10.9111 0.132812 10.6666C0.132812 10.4222 0.166146 10.1833 0.232813 9.94996C0.299479 9.71663 0.399479 9.48885 0.532813 9.26663L5.06615 1.93329C5.31059 1.53329 5.63281 1.22218 6.03281 0.999959C6.43281 0.777737 6.86615 0.666626 7.33281 0.666626H16.6661C17.1328 0.666626 17.5661 0.777737 17.9661 0.999959C18.3661 1.22218 18.6884 1.53329 18.9328 1.93329L23.4661 9.26663C23.5995 9.48885 23.6995 9.71663 23.7661 9.94996C23.8328 10.1833 23.8661 10.4222 23.8661 10.6666C23.8661 10.9111 23.8328 11.15 23.7661 11.3833C23.6995 11.6166 23.5995 11.8444 23.4661 12.0666L19.9995 17.7V24.9666C19.9995 25.7444 19.7328 26.3833 19.1995 26.8833C18.6661 27.3833 18.0439 27.6333 17.3328 27.6333C17.1995 27.6333 17.0661 27.6222 16.9328 27.6C16.7995 27.5777 16.655 27.5444 16.4995 27.5L11.9995 26ZM11.9995 23.2L17.3328 24.9666V20.6666H6.66615V24.9666L11.9995 23.2ZM7.33281 18H16.6661L21.1995 10.6666L16.6661 3.33329H7.33281L2.79948 10.6666L7.33281 18ZM10.5995 12.3333L15.2995 7.59996C15.5439 7.33329 15.8495 7.20552 16.2161 7.21663C16.5828 7.22774 16.8995 7.35552 17.1661 7.59996C17.4328 7.86663 17.5717 8.18329 17.5828 8.54996C17.5939 8.91663 17.4661 9.23329 17.1995 9.49996L11.5328 15.1666C11.2661 15.4333 10.955 15.5666 10.5995 15.5666C10.2439 15.5666 9.93281 15.4333 9.66615 15.1666L6.83281 12.3333C6.56615 12.0666 6.43281 11.75 6.43281 11.3833C6.43281 11.0166 6.56615 10.7 6.83281 10.4333C7.09948 10.1666 7.41615 10.0333 7.78281 10.0333C8.14948 10.0333 8.46615 10.1666 8.73281 10.4333L10.5995 12.3333ZM11.9995 20.6666H6.66615H17.3328H11.9995Z" fill="white"/>
</svg>
