<svg width="25" height="23" viewBox="0 0 25 23" fill="none" xmlns="http://www.w3.org/2000/svg">
<path d="M6.125 19.2C5.785 19.2 5.5 19.085 5.27 18.855C5.04 18.625 4.925 18.34 4.925 18V15.6H20.525V4.8H22.925C23.265 4.8 23.55 4.915 23.78 5.145C24.01 5.375 24.125 5.66 24.125 6V21.09C24.125 21.63 23.88 22.005 23.39 22.215C22.9 22.425 22.465 22.34 22.085 21.96L19.325 19.2H6.125ZM4.925 13.2L2.165 15.96C1.785 16.34 1.35 16.425 0.86 16.215C0.37 16.005 0.125 15.63 0.125 15.09V1.2C0.125 0.86 0.24 0.575 0.47 0.345C0.7 0.115 0.985 0 1.325 0H16.925C17.265 0 17.55 0.115 17.78 0.345C18.01 0.575 18.125 0.86 18.125 1.2V12C18.125 12.34 18.01 12.625 17.78 12.855C17.55 13.085 17.265 13.2 16.925 13.2H4.925Z" fill="white"/>
</svg>
