<svg width="19" height="19" viewBox="0 0 19 19" fill="none" xmlns="http://www.w3.org/2000/svg">
<path d="M5.87891 14C5.66641 14 5.48828 13.9281 5.34453 13.7844C5.20078 13.6406 5.12891 13.4625 5.12891 13.25V11.75H14.8789V5H16.3789C16.5914 5 16.7695 5.07187 16.9133 5.21562C17.057 5.35937 17.1289 5.5375 17.1289 5.75V15.1812C17.1289 15.5187 16.9758 15.7531 16.6695 15.8844C16.3633 16.0156 16.0914 15.9625 15.8539 15.725L14.1289 14H5.87891ZM5.12891 10.25L3.40391 11.975C3.16641 12.2125 2.89453 12.2656 2.58828 12.1344C2.28203 12.0031 2.12891 11.7687 2.12891 11.4312V2.75C2.12891 2.5375 2.20078 2.35937 2.34453 2.21562C2.48828 2.07187 2.66641 2 2.87891 2H12.6289C12.8414 2 13.0195 2.07187 13.1633 2.21562C13.307 2.35937 13.3789 2.5375 13.3789 2.75V9.5C13.3789 9.7125 13.307 9.89062 13.1633 10.0344C13.0195 10.1781 12.8414 10.25 12.6289 10.25H5.12891Z" fill="#3355FF"/>
</svg>
