<svg width="24" height="24" viewBox="0 0 24 24" fill="none" xmlns="http://www.w3.org/2000/svg">
<path d="M6.00091 10.95L5.00091 11.5C4.76758 11.6333 4.51758 11.6667 4.25091 11.6C3.98424 11.5333 3.78424 11.3833 3.65091 11.15L1.65091 7.65C1.51758 7.41667 1.48424 7.16667 1.55091 6.9C1.61758 6.63333 1.76758 6.43333 2.00091 6.3L7.75091 3H9.50091C9.65091 3 9.77174 3.04583 9.86341 3.1375C9.95508 3.22917 10.0009 3.35 10.0009 3.5V4C10.0009 4.55 10.1967 5.02083 10.5884 5.4125C10.9801 5.80417 11.4509 6 12.0009 6C12.5509 6 13.0217 5.80417 13.4134 5.4125C13.8051 5.02083 14.0009 4.55 14.0009 4V3.5C14.0009 3.35 14.0467 3.22917 14.1384 3.1375C14.2301 3.04583 14.3509 3 14.5009 3H16.2509L22.0009 6.3C22.2342 6.43333 22.3842 6.63333 22.4509 6.9C22.5176 7.16667 22.4842 7.41667 22.3509 7.65L20.3509 11.15C20.2176 11.3833 20.0217 11.5292 19.7634 11.5875C19.5051 11.6458 19.2509 11.6083 19.0009 11.475L18.0009 10.975V20C18.0009 20.2833 17.9051 20.5208 17.7134 20.7125C17.5217 20.9042 17.2842 21 17.0009 21H7.00091C6.71758 21 6.48008 20.9042 6.28841 20.7125C6.09674 20.5208 6.00091 20.2833 6.00091 20V10.95ZM8.00091 7.6V19H16.0009V7.6L19.1009 9.3L20.1509 7.55L15.8509 5.05C15.6009 5.9 15.1301 6.60417 14.4384 7.1625C13.7467 7.72083 12.9342 8 12.0009 8C11.0676 8 10.2551 7.72083 9.56341 7.1625C8.87175 6.60417 8.40091 5.9 8.15091 5.05L3.85091 7.55L4.90091 9.3L8.00091 7.6Z" fill="#5F6368"/>
</svg>
