<svg width="24" height="28" viewBox="0 0 24 28" fill="none" xmlns="http://www.w3.org/2000/svg">
<path d="M3.2 16.4497H5.33333C5.33333 16.0719 5.46111 15.7553 5.71667 15.4997C5.97222 15.2442 6.28889 15.1164 6.66667 15.1164H17.3333C17.7111 15.1164 18.0278 15.2442 18.2833 15.4997C18.5389 15.7553 18.6667 16.0719 18.6667 16.4497H20.8C20.9556 16.4497 21.0833 16.3942 21.1833 16.283C21.2833 16.1719 21.3333 16.0275 21.3333 15.8497C21.3333 15.7386 21.3056 15.6442 21.25 15.5664C21.1944 15.4886 21.1111 15.4275 21 15.383L12 11.383L3 15.383C2.88889 15.4275 2.80556 15.4886 2.75 15.5664C2.69444 15.6442 2.66667 15.7386 2.66667 15.8497C2.66667 16.0275 2.71667 16.1719 2.81667 16.283C2.91667 16.3942 3.04444 16.4497 3.2 16.4497ZM8 24.4497H16V17.783H8V24.4497ZM14.9667 4.64971C14.6333 4.80526 14.3 4.81082 13.9667 4.66637C13.6333 4.52193 13.3889 4.28304 13.2333 3.94971C13.1222 3.70526 12.9611 3.50526 12.75 3.34971C12.5389 3.19415 12.2889 3.11637 12 3.11637C11.6222 3.11637 11.3056 3.24415 11.05 3.49971C10.7944 3.75526 10.6667 4.07193 10.6667 4.44971C10.6667 4.82748 10.7944 5.14415 11.05 5.39971C11.3056 5.65526 11.6222 5.78304 12 5.78304C12.3778 5.78304 12.6944 5.91082 12.95 6.16637C13.2056 6.42193 13.3333 6.7386 13.3333 7.11637V9.04971L22.0667 12.9164C22.6444 13.183 23.1111 13.5886 23.4667 14.133C23.8222 14.6775 24 15.2719 24 15.9164C24 16.8053 23.6889 17.5608 23.0667 18.183C22.4444 18.8053 21.6889 19.1164 20.8 19.1164H18.6667V25.783C18.6667 26.1608 18.5389 26.4775 18.2833 26.733C18.0278 26.9886 17.7111 27.1164 17.3333 27.1164H6.66667C6.28889 27.1164 5.97222 26.9886 5.71667 26.733C5.46111 26.4775 5.33333 26.1608 5.33333 25.783V19.1164H3.2C2.31111 19.1164 1.55556 18.8053 0.933333 18.183C0.311111 17.5608 0 16.8053 0 15.9164C0 15.2719 0.177778 14.6775 0.533333 14.133C0.888889 13.5886 1.35556 13.183 1.93333 12.9164L10.6667 9.04971V8.18304C9.86667 7.89415 9.22222 7.41082 8.73333 6.73304C8.24444 6.05526 8 5.29415 8 4.44971C8 3.3386 8.38889 2.39415 9.16667 1.61637C9.94444 0.838596 10.8889 0.449707 12 0.449707C12.8444 0.449707 13.5944 0.68304 14.25 1.14971C14.9056 1.61637 15.3889 2.20526 15.7 2.91637C15.8556 3.24971 15.8556 3.58304 15.7 3.91637C15.5444 4.24971 15.3 4.49415 14.9667 4.64971Z" fill="white"/>
</svg>
