<svg width="64" height="64" viewBox="0 0 64 64" fill="none" xmlns="http://www.w3.org/2000/svg">
<rect width="64" height="64" rx="32" fill="#3355FF"/>
<g clip-path="url(#clip0_247_11532)">
<path d="M24 46.6667C22.8889 46.6667 21.9444 46.2778 21.1667 45.5C20.3889 44.7222 20 43.7778 20 42.6667C20 41.5556 20.3889 40.6111 21.1667 39.8333C21.9444 39.0556 22.8889 38.6667 24 38.6667C24.3111 38.6667 24.6 38.7 24.8667 38.7667C25.1333 38.8333 25.3889 38.9222 25.6333 39.0333L27.5333 36.6667C26.9111 35.9778 26.4778 35.2 26.2333 34.3333C25.9889 33.4667 25.9333 32.6 26.0667 31.7333L23.3667 30.8333C22.9889 31.3889 22.5111 31.8333 21.9333 32.1667C21.3556 32.5 20.7111 32.6667 20 32.6667C18.8889 32.6667 17.9444 32.2778 17.1667 31.5C16.3889 30.7222 16 29.7778 16 28.6667C16 27.5556 16.3889 26.6111 17.1667 25.8333C17.9444 25.0556 18.8889 24.6667 20 24.6667C21.1111 24.6667 22.0556 25.0556 22.8333 25.8333C23.6111 26.6111 24 27.5556 24 28.6667V28.9333L26.7 29.8667C27.1444 29.0667 27.7389 28.3889 28.4833 27.8333C29.2278 27.2778 30.0667 26.9222 31 26.7667V23.8667C30.1333 23.6222 29.4167 23.15 28.85 22.45C28.2833 21.75 28 20.9333 28 20C28 18.8889 28.3889 17.9444 29.1667 17.1667C29.9444 16.3889 30.8889 16 32 16C33.1111 16 34.0556 16.3889 34.8333 17.1667C35.6111 17.9444 36 18.8889 36 20C36 20.9333 35.7111 21.75 35.1333 22.45C34.5556 23.15 33.8444 23.6222 33 23.8667V26.7667C33.9333 26.9222 34.7722 27.2778 35.5167 27.8333C36.2611 28.3889 36.8556 29.0667 37.3 29.8667L40 28.9333V28.6667C40 27.5556 40.3889 26.6111 41.1667 25.8333C41.9444 25.0556 42.8889 24.6667 44 24.6667C45.1111 24.6667 46.0556 25.0556 46.8333 25.8333C47.6111 26.6111 48 27.5556 48 28.6667C48 29.7778 47.6111 30.7222 46.8333 31.5C46.0556 32.2778 45.1111 32.6667 44 32.6667C43.2889 32.6667 42.6389 32.5 42.05 32.1667C41.4611 31.8333 40.9889 31.3889 40.6333 30.8333L37.9333 31.7333C38.0667 32.6 38.0111 33.4611 37.7667 34.3167C37.5222 35.1722 37.0889 35.9556 36.4667 36.6667L38.3667 39C38.6111 38.8889 38.8667 38.8056 39.1333 38.75C39.4 38.6944 39.6889 38.6667 40 38.6667C41.1111 38.6667 42.0556 39.0556 42.8333 39.8333C43.6111 40.6111 44 41.5556 44 42.6667C44 43.7778 43.6111 44.7222 42.8333 45.5C42.0556 46.2778 41.1111 46.6667 40 46.6667C38.8889 46.6667 37.9444 46.2778 37.1667 45.5C36.3889 44.7222 36 43.7778 36 42.6667C36 42.2222 36.0722 41.7944 36.2167 41.3833C36.3611 40.9722 36.5556 40.6 36.8 40.2667L34.9 37.9C33.9889 38.4111 33.0167 38.6667 31.9833 38.6667C30.95 38.6667 29.9778 38.4111 29.0667 37.9L27.2 40.2667C27.4444 40.6 27.6389 40.9722 27.7833 41.3833C27.9278 41.7944 28 42.2222 28 42.6667C28 43.7778 27.6111 44.7222 26.8333 45.5C26.0556 46.2778 25.1111 46.6667 24 46.6667ZM20 30C20.3778 30 20.6944 29.8722 20.95 29.6167C21.2056 29.3611 21.3333 29.0444 21.3333 28.6667C21.3333 28.2889 21.2056 27.9722 20.95 27.7167C20.6944 27.4611 20.3778 27.3333 20 27.3333C19.6222 27.3333 19.3056 27.4611 19.05 27.7167C18.7944 27.9722 18.6667 28.2889 18.6667 28.6667C18.6667 29.0444 18.7944 29.3611 19.05 29.6167C19.3056 29.8722 19.6222 30 20 30ZM24 44C24.3778 44 24.6944 43.8722 24.95 43.6167C25.2056 43.3611 25.3333 43.0444 25.3333 42.6667C25.3333 42.2889 25.2056 41.9722 24.95 41.7167C24.6944 41.4611 24.3778 41.3333 24 41.3333C23.6222 41.3333 23.3056 41.4611 23.05 41.7167C22.7944 41.9722 22.6667 42.2889 22.6667 42.6667C22.6667 43.0444 22.7944 43.3611 23.05 43.6167C23.3056 43.8722 23.6222 44 24 44ZM32 21.3333C32.3778 21.3333 32.6944 21.2056 32.95 20.95C33.2056 20.6944 33.3333 20.3778 33.3333 20C33.3333 19.6222 33.2056 19.3056 32.95 19.05C32.6944 18.7944 32.3778 18.6667 32 18.6667C31.6222 18.6667 31.3056 18.7944 31.05 19.05C30.7944 19.3056 30.6667 19.6222 30.6667 20C30.6667 20.3778 30.7944 20.6944 31.05 20.95C31.3056 21.2056 31.6222 21.3333 32 21.3333ZM32 36C32.9333 36 33.7222 35.6778 34.3667 35.0333C35.0111 34.3889 35.3333 33.6 35.3333 32.6667C35.3333 31.7333 35.0111 30.9444 34.3667 30.3C33.7222 29.6556 32.9333 29.3333 32 29.3333C31.0667 29.3333 30.2778 29.6556 29.6333 30.3C28.9889 30.9444 28.6667 31.7333 28.6667 32.6667C28.6667 33.6 28.9889 34.3889 29.6333 35.0333C30.2778 35.6778 31.0667 36 32 36ZM40 44C40.3778 44 40.6944 43.8722 40.95 43.6167C41.2056 43.3611 41.3333 43.0444 41.3333 42.6667C41.3333 42.2889 41.2056 41.9722 40.95 41.7167C40.6944 41.4611 40.3778 41.3333 40 41.3333C39.6222 41.3333 39.3056 41.4611 39.05 41.7167C38.7944 41.9722 38.6667 42.2889 38.6667 42.6667C38.6667 43.0444 38.7944 43.3611 39.05 43.6167C39.3056 43.8722 39.6222 44 40 44ZM44 30C44.3778 30 44.6944 29.8722 44.95 29.6167C45.2056 29.3611 45.3333 29.0444 45.3333 28.6667C45.3333 28.2889 45.2056 27.9722 44.95 27.7167C44.6944 27.4611 44.3778 27.3333 44 27.3333C43.6222 27.3333 43.3056 27.4611 43.05 27.7167C42.7944 27.9722 42.6667 28.2889 42.6667 28.6667C42.6667 29.0444 42.7944 29.3611 43.05 29.6167C43.3056 29.8722 43.6222 30 44 30Z" fill="white"/>
</g>
<defs>
<clipPath id="clip0_247_11532">
<rect width="32" height="32" fill="white" transform="translate(16 16)"/>
</clipPath>
</defs>
</svg>
