<svg width="50" height="50" viewBox="0 0 50 50" fill="none" xmlns="http://www.w3.org/2000/svg">
<rect width="50" height="50" rx="25" fill="#FEDF22"/>
<path d="M18 34C17.7167 34 17.4792 33.9042 17.2875 33.7125C17.0958 33.5208 17 33.2833 17 33C17 32.7167 17.0958 32.4792 17.2875 32.2875C17.4792 32.0958 17.7167 32 18 32H32C32.2833 32 32.5208 32.0958 32.7125 32.2875C32.9042 32.4792 33 32.7167 33 33C33 33.2833 32.9042 33.5208 32.7125 33.7125C32.5208 33.9042 32.2833 34 32 34H18ZM21 30C19.9 30 18.9583 29.6083 18.175 28.825C17.3917 28.0417 17 27.1 17 26V18C17 17.45 17.1958 16.9792 17.5875 16.5875C17.9792 16.1958 18.45 16 19 16H33C33.55 16 34.0208 16.1958 34.4125 16.5875C34.8042 16.9792 35 17.45 35 18V21C35 21.55 34.8042 22.0208 34.4125 22.4125C34.0208 22.8042 33.55 23 33 23H31V26C31 27.1 30.6083 28.0417 29.825 28.825C29.0417 29.6083 28.1 30 27 30H21ZM21 28H27C27.55 28 28.0208 27.8042 28.4125 27.4125C28.8042 27.0208 29 26.55 29 26V18H19V26C19 26.55 19.1958 27.0208 19.5875 27.4125C19.9792 27.8042 20.45 28 21 28ZM31 21H33V18H31V21ZM21 28H19H29H21Z" fill="#2D2323"/>
</svg>
