<svg width="64" height="64" viewBox="0 0 64 64" fill="none" xmlns="http://www.w3.org/2000/svg">
<rect width="64" height="64" rx="32" fill="#3355FF"/>
<path d="M31.9987 46.6667C27.8654 46.6667 24.3876 45.8945 21.5654 44.35C18.7431 42.8056 17.332 40.9112 17.332 38.6667C17.332 38.0223 17.4654 37.3945 17.732 36.7834C17.9987 36.1723 18.3876 35.5778 18.8987 35C19.4098 34.4223 20.0376 33.9056 20.782 33.45C21.5265 32.9945 22.3654 32.5778 23.2987 32.2C23.632 32.0667 23.9598 32.0834 24.282 32.25C24.6043 32.4167 24.8209 32.6778 24.932 33.0334C25.0431 33.3667 25.0154 33.6945 24.8487 34.0167C24.682 34.3389 24.432 34.5778 24.0987 34.7334C23.4765 34.9778 22.9154 35.25 22.4154 35.55C21.9154 35.85 21.4876 36.1778 21.132 36.5334C20.7543 36.8889 20.4709 37.25 20.282 37.6167C20.0931 37.9834 19.9987 38.3334 19.9987 38.6667C19.9987 40.0889 21.1987 41.3334 23.5987 42.4C25.9987 43.4667 28.7987 44 31.9987 44C35.1987 44 37.9987 43.4667 40.3987 42.4C42.7987 41.3334 43.9987 40.0889 43.9987 38.6667C43.9987 38.3334 43.9043 37.9834 43.7154 37.6167C43.5265 37.25 43.2431 36.8889 42.8654 36.5334C42.5098 36.1778 42.082 35.85 41.582 35.55C41.082 35.25 40.5209 34.9778 39.8987 34.7334C39.5654 34.5778 39.3154 34.3389 39.1487 34.0167C38.982 33.6945 38.9543 33.3667 39.0654 33.0334C39.1765 32.6778 39.3931 32.4167 39.7154 32.25C40.0376 32.0834 40.3654 32.0667 40.6987 32.2C41.5209 32.5334 42.2709 32.9056 42.9487 33.3167C43.6265 33.7278 44.2209 34.1778 44.732 34.6667C45.3765 35.2667 45.8598 35.9056 46.182 36.5834C46.5043 37.2612 46.6654 37.9556 46.6654 38.6667C46.6654 40.9112 45.2543 42.8056 42.432 44.35C39.6098 45.8945 36.132 46.6667 31.9987 46.6667ZM29.332 41.3334C28.9543 41.3334 28.6376 41.2056 28.382 40.95C28.1265 40.6945 27.9987 40.3778 27.9987 40V26.6667H22.6654C22.2876 26.6667 21.9709 26.5389 21.7154 26.2834C21.4598 26.0278 21.332 25.7112 21.332 25.3334C21.332 24.9556 21.4598 24.6389 21.7154 24.3834C21.9709 24.1278 22.2876 24 22.6654 24H41.332C41.7098 24 42.0265 24.1278 42.282 24.3834C42.5376 24.6389 42.6654 24.9556 42.6654 25.3334C42.6654 25.7112 42.5376 26.0278 42.282 26.2834C42.0265 26.5389 41.7098 26.6667 41.332 26.6667H35.9987V40C35.9987 40.3778 35.8709 40.6945 35.6154 40.95C35.3598 41.2056 35.0431 41.3334 34.6654 41.3334C34.2876 41.3334 33.9709 41.2056 33.7154 40.95C33.4598 40.6945 33.332 40.3778 33.332 40V34.6667H30.6654V40C30.6654 40.3778 30.5376 40.6945 30.282 40.95C30.0265 41.2056 29.7098 41.3334 29.332 41.3334ZM31.9987 22.6667C31.2654 22.6667 30.6376 22.4056 30.1154 21.8834C29.5931 21.3612 29.332 20.7334 29.332 20C29.332 19.2667 29.5931 18.6389 30.1154 18.1167C30.6376 17.5945 31.2654 17.3334 31.9987 17.3334C32.732 17.3334 33.3598 17.5945 33.882 18.1167C34.4043 18.6389 34.6654 19.2667 34.6654 20C34.6654 20.7334 34.4043 21.3612 33.882 21.8834C33.3598 22.4056 32.732 22.6667 31.9987 22.6667Z" fill="white"/>
</svg>
