<svg width="30" height="30" viewBox="0 0 30 30" fill="none" xmlns="http://www.w3.org/2000/svg">
<path d="M14.9987 29.6667C10.8654 29.6667 7.38759 28.8945 4.56536 27.35C1.74314 25.8056 0.332031 23.9112 0.332031 21.6667C0.332031 21.0223 0.465365 20.3945 0.732031 19.7834C0.998698 19.1723 1.38759 18.5778 1.8987 18C2.40981 17.4223 3.03759 16.9056 3.78203 16.45C4.52648 15.9945 5.36537 15.5778 6.2987 15.2C6.63203 15.0667 6.95981 15.0834 7.28203 15.25C7.60425 15.4167 7.82092 15.6778 7.93203 16.0334C8.04314 16.3667 8.01537 16.6945 7.8487 17.0167C7.68203 17.3389 7.43203 17.5778 7.0987 17.7334C6.47648 17.9778 5.91536 18.25 5.41536 18.55C4.91536 18.85 4.48759 19.1778 4.13203 19.5334C3.75425 19.8889 3.47092 20.25 3.28203 20.6167C3.09314 20.9834 2.9987 21.3334 2.9987 21.6667C2.9987 23.0889 4.1987 24.3334 6.5987 25.4C8.9987 26.4667 11.7987 27 14.9987 27C18.1987 27 20.9987 26.4667 23.3987 25.4C25.7987 24.3334 26.9987 23.0889 26.9987 21.6667C26.9987 21.3334 26.9043 20.9834 26.7154 20.6167C26.5265 20.25 26.2431 19.8889 25.8654 19.5334C25.5098 19.1778 25.082 18.85 24.582 18.55C24.082 18.25 23.5209 17.9778 22.8987 17.7334C22.5654 17.5778 22.3154 17.3389 22.1487 17.0167C21.982 16.6945 21.9543 16.3667 22.0654 16.0334C22.1765 15.6778 22.3931 15.4167 22.7154 15.25C23.0376 15.0834 23.3654 15.0667 23.6987 15.2C24.5209 15.5334 25.2709 15.9056 25.9487 16.3167C26.6265 16.7278 27.2209 17.1778 27.732 17.6667C28.3765 18.2667 28.8598 18.9056 29.182 19.5834C29.5043 20.2612 29.6654 20.9556 29.6654 21.6667C29.6654 23.9112 28.2543 25.8056 25.432 27.35C22.6098 28.8945 19.132 29.6667 14.9987 29.6667ZM12.332 24.3334C11.9543 24.3334 11.6376 24.2056 11.382 23.95C11.1265 23.6945 10.9987 23.3778 10.9987 23V9.66671H5.66536C5.28759 9.66671 4.97092 9.53893 4.71536 9.28337C4.45981 9.02782 4.33203 8.71115 4.33203 8.33337C4.33203 7.9556 4.45981 7.63893 4.71536 7.38337C4.97092 7.12782 5.28759 7.00004 5.66536 7.00004H24.332C24.7098 7.00004 25.0265 7.12782 25.282 7.38337C25.5376 7.63893 25.6654 7.9556 25.6654 8.33337C25.6654 8.71115 25.5376 9.02782 25.282 9.28337C25.0265 9.53893 24.7098 9.66671 24.332 9.66671H18.9987V23C18.9987 23.3778 18.8709 23.6945 18.6154 23.95C18.3598 24.2056 18.0431 24.3334 17.6654 24.3334C17.2876 24.3334 16.9709 24.2056 16.7154 23.95C16.4598 23.6945 16.332 23.3778 16.332 23V17.6667H13.6654V23C13.6654 23.3778 13.5376 23.6945 13.282 23.95C13.0265 24.2056 12.7098 24.3334 12.332 24.3334ZM14.9987 5.66671C14.2654 5.66671 13.6376 5.4056 13.1154 4.88337C12.5931 4.36115 12.332 3.73337 12.332 3.00004C12.332 2.26671 12.5931 1.63893 13.1154 1.11671C13.6376 0.594485 14.2654 0.333374 14.9987 0.333374C15.732 0.333374 16.3598 0.594485 16.882 1.11671C17.4043 1.63893 17.6654 2.26671 17.6654 3.00004C17.6654 3.73337 17.4043 4.36115 16.882 4.88337C16.3598 5.4056 15.732 5.66671 14.9987 5.66671Z" fill="white"/>
</svg>
