<svg width="64" height="64" viewBox="0 0 64 64" fill="none" xmlns="http://www.w3.org/2000/svg">
<rect width="64" height="64" rx="32" fill="#3355FF"/>
<path d="M30.6667 41.9V32.7667L22.6667 28.1333V37.2667L30.6667 41.9ZM33.3333 41.9L41.3333 37.2667V28.1333L33.3333 32.7667V41.9ZM30.6667 44.9667L21.3333 39.6C20.9111 39.3556 20.5833 39.0333 20.35 38.6333C20.1167 38.2333 20 37.7889 20 37.3V26.7C20 26.2111 20.1167 25.7667 20.35 25.3667C20.5833 24.9667 20.9111 24.6444 21.3333 24.4L30.6667 19.0333C31.0889 18.7889 31.5333 18.6667 32 18.6667C32.4667 18.6667 32.9111 18.7889 33.3333 19.0333L42.6667 24.4C43.0889 24.6444 43.4167 24.9667 43.65 25.3667C43.8833 25.7667 44 26.2111 44 26.7V37.3C44 37.7889 43.8833 38.2333 43.65 38.6333C43.4167 39.0333 43.0889 39.3556 42.6667 39.6L33.3333 44.9667C32.9111 45.2111 32.4667 45.3333 32 45.3333C31.5333 45.3333 31.0889 45.2111 30.6667 44.9667ZM37.3333 27.3667L39.9 25.9L32 21.3333L29.4 22.8333L37.3333 27.3667ZM32 30.4667L34.6 28.9667L26.7 24.4L24.1 25.9L32 30.4667Z" fill="white"/>
</svg>
