<svg width="50" height="50" viewBox="0 0 50 50" fill="none" xmlns="http://www.w3.org/2000/svg">
<rect width="50" height="50" rx="25" fill="#FEDF22"/>
<path d="M24 35C23.45 35 22.9792 34.8042 22.5875 34.4125C22.1958 34.0208 22 33.55 22 33V29H19C18.45 29 17.9792 28.8042 17.5875 28.4125C17.1958 28.0208 17 27.55 17 27V20C17 18.9 17.3917 17.9583 18.175 17.175C18.9583 16.3917 19.9 16 21 16H32C32.2833 16 32.5208 16.0958 32.7125 16.2875C32.9042 16.4792 33 16.7167 33 17V27C33 27.55 32.8042 28.0208 32.4125 28.4125C32.0208 28.8042 31.55 29 31 29H28V33C28 33.55 27.8042 34.0208 27.4125 34.4125C27.0208 34.8042 26.55 35 26 35H24ZM19 23H31V18H30V21C30 21.2833 29.9042 21.5208 29.7125 21.7125C29.5208 21.9042 29.2833 22 29 22C28.7167 22 28.4792 21.9042 28.2875 21.7125C28.0958 21.5208 28 21.2833 28 21V18H27V19C27 19.2833 26.9042 19.5208 26.7125 19.7125C26.5208 19.9042 26.2833 20 26 20C25.7167 20 25.4792 19.9042 25.2875 19.7125C25.0958 19.5208 25 19.2833 25 19V18H21C20.45 18 19.9792 18.1958 19.5875 18.5875C19.1958 18.9792 19 19.45 19 20V23ZM19 27H31V25H19V27Z" fill="#2D2323"/>
</svg>
