<svg width="24" height="28" viewBox="0 0 24 28" fill="none" xmlns="http://www.w3.org/2000/svg">
<path d="M10.6667 23.9V14.7666L2.66667 10.1333V19.2666L10.6667 23.9ZM13.3333 23.9L21.3333 19.2666V10.1333L13.3333 14.7666V23.9ZM10.6667 26.9666L1.33333 21.6C0.911111 21.3555 0.583333 21.0333 0.35 20.6333C0.116667 20.2333 0 19.7888 0 19.3V8.69996C0 8.21107 0.116667 7.76663 0.35 7.36663C0.583333 6.96663 0.911111 6.6444 1.33333 6.39996L10.6667 1.03329C11.0889 0.788848 11.5333 0.666626 12 0.666626C12.4667 0.666626 12.9111 0.788848 13.3333 1.03329L22.6667 6.39996C23.0889 6.6444 23.4167 6.96663 23.65 7.36663C23.8833 7.76663 24 8.21107 24 8.69996V19.3C24 19.7888 23.8833 20.2333 23.65 20.6333C23.4167 21.0333 23.0889 21.3555 22.6667 21.6L13.3333 26.9666C12.9111 27.2111 12.4667 27.3333 12 27.3333C11.5333 27.3333 11.0889 27.2111 10.6667 26.9666ZM17.3333 9.36663L19.9 7.89996L12 3.33329L9.4 4.83329L17.3333 9.36663ZM12 12.4666L14.6 10.9666L6.7 6.39996L4.1 7.89996L12 12.4666Z" fill="white"/>
</svg>
