<svg width="22" height="26" viewBox="0 0 22 26" fill="none" xmlns="http://www.w3.org/2000/svg">
<path d="M9.66537 25.3333C8.93203 25.3333 8.30425 25.0722 7.78203 24.55C7.25981 24.0278 6.9987 23.4 6.9987 22.6667V17.3333H2.9987C2.26536 17.3333 1.63759 17.0722 1.11536 16.55C0.593142 16.0278 0.332031 15.4 0.332031 14.6667V5.33333C0.332031 3.86667 0.854253 2.61111 1.8987 1.56667C2.94314 0.522222 4.1987 0 5.66536 0H20.332C20.7098 0 21.0265 0.127778 21.282 0.383333C21.5376 0.638889 21.6654 0.955556 21.6654 1.33333V14.6667C21.6654 15.4 21.4043 16.0278 20.882 16.55C20.3598 17.0722 19.732 17.3333 18.9987 17.3333H14.9987V22.6667C14.9987 23.4 14.7376 24.0278 14.2154 24.55C13.6931 25.0722 13.0654 25.3333 12.332 25.3333H9.66537ZM2.9987 9.33333H18.9987V2.66667H17.6654V6.66667C17.6654 7.04445 17.5376 7.36111 17.282 7.61667C17.0265 7.87222 16.7098 8 16.332 8C15.9543 8 15.6376 7.87222 15.382 7.61667C15.1265 7.36111 14.9987 7.04445 14.9987 6.66667V2.66667H13.6654V4C13.6654 4.37778 13.5376 4.69444 13.282 4.95C13.0265 5.20556 12.7098 5.33333 12.332 5.33333C11.9543 5.33333 11.6376 5.20556 11.382 4.95C11.1265 4.69444 10.9987 4.37778 10.9987 4V2.66667H5.66536C4.93203 2.66667 4.30425 2.92778 3.78203 3.45C3.25981 3.97222 2.9987 4.6 2.9987 5.33333V9.33333ZM2.9987 14.6667H18.9987V12H2.9987V14.6667Z" fill="white"/>
</svg>
