<svg width="64" height="65" viewBox="0 0 64 65" fill="none" xmlns="http://www.w3.org/2000/svg">
<rect y="0.5" width="64" height="64" rx="32" fill="#3355FF"/>
<path d="M30.6654 45.8333C29.932 45.8333 29.3043 45.5722 28.782 45.05C28.2598 44.5278 27.9987 43.9 27.9987 43.1667V37.8333H23.9987C23.2654 37.8333 22.6376 37.5722 22.1154 37.05C21.5931 36.5278 21.332 35.9 21.332 35.1667V25.8333C21.332 24.3667 21.8543 23.1111 22.8987 22.0667C23.9431 21.0222 25.1987 20.5 26.6654 20.5H41.332C41.7098 20.5 42.0265 20.6278 42.282 20.8833C42.5376 21.1389 42.6654 21.4556 42.6654 21.8333V35.1667C42.6654 35.9 42.4043 36.5278 41.882 37.05C41.3598 37.5722 40.732 37.8333 39.9987 37.8333H35.9987V43.1667C35.9987 43.9 35.7376 44.5278 35.2154 45.05C34.6931 45.5722 34.0654 45.8333 33.332 45.8333H30.6654ZM23.9987 29.8333H39.9987V23.1667H38.6654V27.1667C38.6654 27.5444 38.5376 27.8611 38.282 28.1167C38.0265 28.3722 37.7098 28.5 37.332 28.5C36.9543 28.5 36.6376 28.3722 36.382 28.1167C36.1265 27.8611 35.9987 27.5444 35.9987 27.1667V23.1667H34.6654V24.5C34.6654 24.8778 34.5376 25.1944 34.282 25.45C34.0265 25.7056 33.7098 25.8333 33.332 25.8333C32.9543 25.8333 32.6376 25.7056 32.382 25.45C32.1265 25.1944 31.9987 24.8778 31.9987 24.5V23.1667H26.6654C25.932 23.1667 25.3043 23.4278 24.782 23.95C24.2598 24.4722 23.9987 25.1 23.9987 25.8333V29.8333ZM23.9987 35.1667H39.9987V32.5H23.9987V35.1667Z" fill="white"/>
</svg>
