<svg width="24" height="25" viewBox="0 0 24 25" fill="none" xmlns="http://www.w3.org/2000/svg">
<path d="M1.33333 24.2034C0.955556 24.2034 0.638889 24.0756 0.383333 23.82C0.127778 23.5645 0 23.2478 0 22.87C0 22.4923 0.127778 22.1756 0.383333 21.92C0.638889 21.6645 0.955556 21.5367 1.33333 21.5367H20C20.3778 21.5367 20.6944 21.6645 20.95 21.92C21.2056 22.1756 21.3333 22.4923 21.3333 22.87C21.3333 23.2478 21.2056 23.5645 20.95 23.82C20.6944 24.0756 20.3778 24.2034 20 24.2034H1.33333ZM5.33333 18.87C3.86667 18.87 2.61111 18.3478 1.56667 17.3034C0.522222 16.2589 0 15.0034 0 13.5367V2.87004C0 2.1367 0.261111 1.50892 0.783333 0.986703C1.30556 0.46448 1.93333 0.203369 2.66667 0.203369H21.3333C22.0667 0.203369 22.6944 0.46448 23.2167 0.986703C23.7389 1.50892 24 2.1367 24 2.87004V6.87004C24 7.60337 23.7389 8.23115 23.2167 8.75337C22.6944 9.27559 22.0667 9.5367 21.3333 9.5367H18.6667V13.5367C18.6667 15.0034 18.1444 16.2589 17.1 17.3034C16.0556 18.3478 14.8 18.87 13.3333 18.87H5.33333ZM5.33333 16.2034H13.3333C14.0667 16.2034 14.6944 15.9423 15.2167 15.42C15.7389 14.8978 16 14.27 16 13.5367V2.87004H2.66667V13.5367C2.66667 14.27 2.92778 14.8978 3.45 15.42C3.97222 15.9423 4.6 16.2034 5.33333 16.2034ZM18.6667 6.87004H21.3333V2.87004H18.6667V6.87004ZM5.33333 16.2034H2.66667H16H5.33333Z" fill="white"/>
</svg>
