<svg width="64" height="65" viewBox="0 0 64 65" fill="none" xmlns="http://www.w3.org/2000/svg">
<rect y="0.5" width="64" height="64" rx="32" fill="#3355FF"/>
<path d="M32 35.8L34.5333 37.3333C34.7778 37.4889 35.0222 37.4833 35.2667 37.3167C35.5111 37.15 35.6 36.9222 35.5333 36.6333L34.8667 33.7333L37.1333 31.7667C37.3556 31.5667 37.4222 31.3278 37.3333 31.05C37.2444 30.7722 37.0444 30.6222 36.7333 30.6L33.7667 30.3667L32.6 27.6333C32.4889 27.3667 32.2889 27.2333 32 27.2333C31.7111 27.2333 31.5111 27.3667 31.4 27.6333L30.2333 30.3667L27.2667 30.6C26.9556 30.6222 26.7556 30.7722 26.6667 31.05C26.5778 31.3278 26.6444 31.5667 26.8667 31.7667L29.1333 33.7333L28.4667 36.6333C28.4 36.9222 28.4889 37.15 28.7333 37.3167C28.9778 37.4833 29.2222 37.4889 29.4667 37.3333L32 35.8ZM27.5333 43.1667H24C23.2667 43.1667 22.6389 42.9056 22.1167 42.3833C21.5944 41.8611 21.3333 41.2333 21.3333 40.5V36.9667L18.7667 34.3667C18.5222 34.1 18.3333 33.8056 18.2 33.4833C18.0667 33.1611 18 32.8333 18 32.5C18 32.1667 18.0667 31.8389 18.2 31.5167C18.3333 31.1944 18.5222 30.9 18.7667 30.6333L21.3333 28.0333V24.5C21.3333 23.7667 21.5944 23.1389 22.1167 22.6167C22.6389 22.0944 23.2667 21.8333 24 21.8333H27.5333L30.1333 19.2667C30.4 19.0222 30.6944 18.8333 31.0167 18.7C31.3389 18.5667 31.6667 18.5 32 18.5C32.3333 18.5 32.6611 18.5667 32.9833 18.7C33.3056 18.8333 33.6 19.0222 33.8667 19.2667L36.4667 21.8333H40C40.7333 21.8333 41.3611 22.0944 41.8833 22.6167C42.4056 23.1389 42.6667 23.7667 42.6667 24.5V28.0333L45.2333 30.6333C45.4778 30.9 45.6667 31.1944 45.8 31.5167C45.9333 31.8389 46 32.1667 46 32.5C46 32.8333 45.9333 33.1611 45.8 33.4833C45.6667 33.8056 45.4778 34.1 45.2333 34.3667L42.6667 36.9667V40.5C42.6667 41.2333 42.4056 41.8611 41.8833 42.3833C41.3611 42.9056 40.7333 43.1667 40 43.1667H36.4667L33.8667 45.7333C33.6 45.9778 33.3056 46.1667 32.9833 46.3C32.6611 46.4333 32.3333 46.5 32 46.5C31.6667 46.5 31.3389 46.4333 31.0167 46.3C30.6944 46.1667 30.4 45.9778 30.1333 45.7333L27.5333 43.1667ZM28.6667 40.5L32 43.8333L35.3333 40.5H40V35.8333L43.3333 32.5L40 29.1667V24.5H35.3333L32 21.1667L28.6667 24.5H24V29.1667L20.6667 32.5L24 35.8333V40.5H28.6667Z" fill="white"/>
</svg>
