<svg width="25" height="33" viewBox="0 0 25 33" fill="none" xmlns="http://www.w3.org/2000/svg">
<path d="M5.26875 11.3594V1.75942C5.26875 1.30609 5.42208 0.92609 5.72875 0.619424C6.03542 0.312757 6.41542 0.159424 6.86875 0.159424C7.32208 0.159424 7.70208 0.312757 8.00875 0.619424C8.31542 0.92609 8.46875 1.30609 8.46875 1.75942V11.3594H10.0688V1.75942C10.0688 1.30609 10.2221 0.92609 10.5287 0.619424C10.8354 0.312757 11.2154 0.159424 11.6688 0.159424C12.1221 0.159424 12.5021 0.312757 12.8088 0.619424C13.1154 0.92609 13.2688 1.30609 13.2688 1.75942V11.3594C13.2688 12.8528 12.8088 14.1594 11.8888 15.2794C10.9688 16.3994 9.82875 17.1461 8.46875 17.5194V30.5594C8.46875 31.0128 8.31542 31.3928 8.00875 31.6994C7.70208 32.0061 7.32208 32.1594 6.86875 32.1594C6.41542 32.1594 6.03542 32.0061 5.72875 31.6994C5.42208 31.3928 5.26875 31.0128 5.26875 30.5594V17.5194C3.90875 17.1461 2.76875 16.3994 1.84875 15.2794C0.92875 14.1594 0.46875 12.8528 0.46875 11.3594V1.75942C0.46875 1.30609 0.622083 0.92609 0.92875 0.619424C1.23542 0.312757 1.61542 0.159424 2.06875 0.159424C2.52208 0.159424 2.90208 0.312757 3.20875 0.619424C3.51542 0.92609 3.66875 1.30609 3.66875 1.75942V11.3594H5.26875ZM21.2688 19.3594H18.0688C17.6154 19.3594 17.2354 19.2061 16.9288 18.8994C16.6221 18.5928 16.4688 18.2128 16.4688 17.7594V8.15942C16.4688 6.29276 17.1554 4.49276 18.5288 2.75942C19.9021 1.02609 21.3221 0.159424 22.7888 0.159424C23.2688 0.159424 23.6688 0.34609 23.9888 0.719424C24.3088 1.09276 24.4688 1.53276 24.4688 2.03942V30.5594C24.4688 31.0128 24.3154 31.3928 24.0088 31.6994C23.7021 32.0061 23.3221 32.1594 22.8688 32.1594C22.4154 32.1594 22.0354 32.0061 21.7288 31.6994C21.4221 31.3928 21.2688 31.0128 21.2688 30.5594V19.3594Z" fill="white"/>
</svg>
