<svg width="50" height="50" viewBox="0 0 50 50" fill="none" xmlns="http://www.w3.org/2000/svg">
<rect width="50" height="50" rx="25" fill="#FEDF22"/>
<path d="M20 22V16C20 15.7167 20.0958 15.4792 20.2875 15.2875C20.4792 15.0958 20.7167 15 21 15C21.2833 15 21.5208 15.0958 21.7125 15.2875C21.9042 15.4792 22 15.7167 22 16V22H23V16C23 15.7167 23.0958 15.4792 23.2875 15.2875C23.4792 15.0958 23.7167 15 24 15C24.2833 15 24.5208 15.0958 24.7125 15.2875C24.9042 15.4792 25 15.7167 25 16V22C25 22.9333 24.7125 23.75 24.1375 24.45C23.5625 25.15 22.85 25.6167 22 25.85V34C22 34.2833 21.9042 34.5208 21.7125 34.7125C21.5208 34.9042 21.2833 35 21 35C20.7167 35 20.4792 34.9042 20.2875 34.7125C20.0958 34.5208 20 34.2833 20 34V25.85C19.15 25.6167 18.4375 25.15 17.8625 24.45C17.2875 23.75 17 22.9333 17 22V16C17 15.7167 17.0958 15.4792 17.2875 15.2875C17.4792 15.0958 17.7167 15 18 15C18.2833 15 18.5208 15.0958 18.7125 15.2875C18.9042 15.4792 19 15.7167 19 16V22H20ZM30 27H28C27.7167 27 27.4792 26.9042 27.2875 26.7125C27.0958 26.5208 27 26.2833 27 26V20C27 18.8333 27.4292 17.7083 28.2875 16.625C29.1458 15.5417 30.0333 15 30.95 15C31.25 15 31.5 15.1167 31.7 15.35C31.9 15.5833 32 15.8583 32 16.175V34C32 34.2833 31.9042 34.5208 31.7125 34.7125C31.5208 34.9042 31.2833 35 31 35C30.7167 35 30.4792 34.9042 30.2875 34.7125C30.0958 34.5208 30 34.2833 30 34V27Z" fill="black"/>
</svg>
