<svg width="28" height="29" viewBox="0 0 28 29" fill="none" xmlns="http://www.w3.org/2000/svg">
<path d="M3.33366 25.6667V13.6667C2.60033 13.6667 1.97255 13.4056 1.45033 12.8834C0.928103 12.3612 0.666992 11.7334 0.666992 11V8.33337C0.666992 7.60004 0.928103 6.97226 1.45033 6.45004C1.97255 5.92782 2.60033 5.66671 3.33366 5.66671H7.60033C7.48921 5.46671 7.41699 5.2556 7.38366 5.03337C7.35033 4.81115 7.33366 4.57782 7.33366 4.33337C7.33366 3.22226 7.72255 2.27782 8.50033 1.50004C9.2781 0.722263 10.2225 0.333374 11.3337 0.333374C11.8448 0.333374 12.3225 0.427818 12.767 0.616707C13.2114 0.805596 13.6225 1.06671 14.0003 1.40004C14.3781 1.04449 14.7892 0.777819 15.2337 0.600041C15.6781 0.422263 16.1559 0.333374 16.667 0.333374C17.7781 0.333374 18.7225 0.722263 19.5003 1.50004C20.2781 2.27782 20.667 3.22226 20.667 4.33337C20.667 4.57782 20.6448 4.8056 20.6003 5.01671C20.5559 5.22782 20.4892 5.44449 20.4003 5.66671H24.667C25.4003 5.66671 26.0281 5.92782 26.5503 6.45004C27.0725 6.97226 27.3337 7.60004 27.3337 8.33337V11C27.3337 11.7334 27.0725 12.3612 26.5503 12.8834C26.0281 13.4056 25.4003 13.6667 24.667 13.6667V25.6667C24.667 26.4 24.4059 27.0278 23.8837 27.55C23.3614 28.0723 22.7337 28.3334 22.0003 28.3334H6.00033C5.26699 28.3334 4.63921 28.0723 4.11699 27.55C3.59477 27.0278 3.33366 26.4 3.33366 25.6667ZM16.667 3.00004C16.2892 3.00004 15.9725 3.12782 15.717 3.38337C15.4614 3.63893 15.3337 3.9556 15.3337 4.33337C15.3337 4.71115 15.4614 5.02782 15.717 5.28337C15.9725 5.53893 16.2892 5.66671 16.667 5.66671C17.0448 5.66671 17.3614 5.53893 17.617 5.28337C17.8725 5.02782 18.0003 4.71115 18.0003 4.33337C18.0003 3.9556 17.8725 3.63893 17.617 3.38337C17.3614 3.12782 17.0448 3.00004 16.667 3.00004ZM10.0003 4.33337C10.0003 4.71115 10.1281 5.02782 10.3837 5.28337C10.6392 5.53893 10.9559 5.66671 11.3337 5.66671C11.7114 5.66671 12.0281 5.53893 12.2837 5.28337C12.5392 5.02782 12.667 4.71115 12.667 4.33337C12.667 3.9556 12.5392 3.63893 12.2837 3.38337C12.0281 3.12782 11.7114 3.00004 11.3337 3.00004C10.9559 3.00004 10.6392 3.12782 10.3837 3.38337C10.1281 3.63893 10.0003 3.9556 10.0003 4.33337ZM3.33366 8.33337V11H12.667V8.33337H3.33366ZM12.667 25.6667V13.6667H6.00033V25.6667H12.667ZM15.3337 25.6667H22.0003V13.6667H15.3337V25.6667ZM24.667 11V8.33337H15.3337V11H24.667Z" fill="white"/>
</svg>
