<svg width="28" height="27" viewBox="0 0 28 27" fill="none" xmlns="http://www.w3.org/2000/svg">
<path d="M14.0013 26.8333C12.1791 26.8333 10.4569 26.4833 8.83463 25.7833C7.21241 25.0833 5.79575 24.1277 4.58464 22.9166C3.37352 21.7055 2.41797 20.2888 1.71797 18.6666C1.01797 17.0444 0.667969 15.3222 0.667969 13.5C0.667969 11.6555 1.01797 9.92774 1.71797 8.31663C2.41797 6.70551 3.37352 5.2944 4.58464 4.08329C5.79575 2.87218 7.21241 1.91663 8.83463 1.21663C10.4569 0.516626 12.1791 0.166626 14.0013 0.166626C15.8457 0.166626 17.5735 0.516626 19.1846 1.21663C20.7957 1.91663 22.2069 2.87218 23.418 4.08329C24.6291 5.2944 25.5846 6.70551 26.2846 8.31663C26.9846 9.92774 27.3346 11.6555 27.3346 13.5C27.3346 15.3222 26.9846 17.0444 26.2846 18.6666C25.5846 20.2888 24.6291 21.7055 23.418 22.9166C22.2069 24.1277 20.7957 25.0833 19.1846 25.7833C17.5735 26.4833 15.8457 26.8333 14.0013 26.8333ZM14.0013 24.1C14.5791 23.3 15.0791 22.4666 15.5013 21.6C15.9235 20.7333 16.268 19.8111 16.5346 18.8333H11.468C11.7346 19.8111 12.0791 20.7333 12.5013 21.6C12.9235 22.4666 13.4235 23.3 14.0013 24.1ZM10.5346 23.5666C10.1346 22.8333 9.78463 22.0722 9.48464 21.2833C9.18464 20.4944 8.93464 19.6777 8.73464 18.8333H4.8013C5.44575 19.9444 6.2513 20.9111 7.21797 21.7333C8.18464 22.5555 9.29019 23.1666 10.5346 23.5666ZM17.468 23.5666C18.7124 23.1666 19.818 22.5555 20.7846 21.7333C21.7513 20.9111 22.5569 19.9444 23.2013 18.8333H19.268C19.068 19.6777 18.818 20.4944 18.518 21.2833C18.218 22.0722 17.868 22.8333 17.468 23.5666ZM3.66797 16.1666H8.2013C8.13463 15.7222 8.08463 15.2833 8.0513 14.85C8.01797 14.4166 8.0013 13.9666 8.0013 13.5C8.0013 13.0333 8.01797 12.5833 8.0513 12.15C8.08463 11.7166 8.13463 11.2777 8.2013 10.8333H3.66797C3.55686 11.2777 3.47352 11.7166 3.41797 12.15C3.36241 12.5833 3.33464 13.0333 3.33464 13.5C3.33464 13.9666 3.36241 14.4166 3.41797 14.85C3.47352 15.2833 3.55686 15.7222 3.66797 16.1666ZM10.868 16.1666H17.1346C17.2013 15.7222 17.2513 15.2833 17.2846 14.85C17.318 14.4166 17.3346 13.9666 17.3346 13.5C17.3346 13.0333 17.318 12.5833 17.2846 12.15C17.2513 11.7166 17.2013 11.2777 17.1346 10.8333H10.868C10.8013 11.2777 10.7513 11.7166 10.718 12.15C10.6846 12.5833 10.668 13.0333 10.668 13.5C10.668 13.9666 10.6846 14.4166 10.718 14.85C10.7513 15.2833 10.8013 15.7222 10.868 16.1666ZM19.8013 16.1666H24.3346C24.4457 15.7222 24.5291 15.2833 24.5846 14.85C24.6402 14.4166 24.668 13.9666 24.668 13.5C24.668 13.0333 24.6402 12.5833 24.5846 12.15C24.5291 11.7166 24.4457 11.2777 24.3346 10.8333H19.8013C19.868 11.2777 19.918 11.7166 19.9513 12.15C19.9846 12.5833 20.0013 13.0333 20.0013 13.5C20.0013 13.9666 19.9846 14.4166 19.9513 14.85C19.918 15.2833 19.868 15.7222 19.8013 16.1666ZM19.268 8.16663H23.2013C22.5569 7.05551 21.7513 6.08885 20.7846 5.26663C19.818 4.4444 18.7124 3.83329 17.468 3.43329C17.868 4.16663 18.218 4.92774 18.518 5.71663C18.818 6.50551 19.068 7.32218 19.268 8.16663ZM11.468 8.16663H16.5346C16.268 7.18885 15.9235 6.26663 15.5013 5.39996C15.0791 4.53329 14.5791 3.69996 14.0013 2.89996C13.4235 3.69996 12.9235 4.53329 12.5013 5.39996C12.0791 6.26663 11.7346 7.18885 11.468 8.16663ZM4.8013 8.16663H8.73464C8.93464 7.32218 9.18464 6.50551 9.48464 5.71663C9.78463 4.92774 10.1346 4.16663 10.5346 3.43329C9.29019 3.83329 8.18464 4.4444 7.21797 5.26663C6.2513 6.08885 5.44575 7.05551 4.8013 8.16663Z" fill="white"/>
</svg>
