<svg width="65" height="65" viewBox="0 0 65 65" fill="none" xmlns="http://www.w3.org/2000/svg">
<rect x="0.5" y="0.5" width="64" height="64" rx="32" fill="#3355FF"/>
<path d="M32.5013 45.8333C30.6791 45.8333 28.9569 45.4833 27.3346 44.7833C25.7124 44.0833 24.2957 43.1277 23.0846 41.9166C21.8735 40.7055 20.918 39.2888 20.218 37.6666C19.518 36.0444 19.168 34.3222 19.168 32.5C19.168 30.6555 19.518 28.9277 20.218 27.3166C20.918 25.7055 21.8735 24.2944 23.0846 23.0833C24.2957 21.8722 25.7124 20.9166 27.3346 20.2166C28.9569 19.5166 30.6791 19.1666 32.5013 19.1666C34.3457 19.1666 36.0735 19.5166 37.6846 20.2166C39.2957 20.9166 40.7069 21.8722 41.918 23.0833C43.1291 24.2944 44.0846 25.7055 44.7846 27.3166C45.4846 28.9277 45.8346 30.6555 45.8346 32.5C45.8346 34.3222 45.4846 36.0444 44.7846 37.6666C44.0846 39.2888 43.1291 40.7055 41.918 41.9166C40.7069 43.1277 39.2957 44.0833 37.6846 44.7833C36.0735 45.4833 34.3457 45.8333 32.5013 45.8333ZM32.5013 43.1C33.0791 42.3 33.5791 41.4666 34.0013 40.6C34.4235 39.7333 34.768 38.8111 35.0346 37.8333H29.968C30.2346 38.8111 30.5791 39.7333 31.0013 40.6C31.4235 41.4666 31.9235 42.3 32.5013 43.1ZM29.0346 42.5666C28.6346 41.8333 28.2846 41.0722 27.9846 40.2833C27.6846 39.4944 27.4346 38.6777 27.2346 37.8333H23.3013C23.9457 38.9444 24.7513 39.9111 25.718 40.7333C26.6846 41.5555 27.7902 42.1666 29.0346 42.5666ZM35.968 42.5666C37.2124 42.1666 38.318 41.5555 39.2846 40.7333C40.2513 39.9111 41.0569 38.9444 41.7013 37.8333H37.768C37.568 38.6777 37.318 39.4944 37.018 40.2833C36.718 41.0722 36.368 41.8333 35.968 42.5666ZM22.168 35.1666H26.7013C26.6346 34.7222 26.5846 34.2833 26.5513 33.85C26.518 33.4166 26.5013 32.9666 26.5013 32.5C26.5013 32.0333 26.518 31.5833 26.5513 31.15C26.5846 30.7166 26.6346 30.2777 26.7013 29.8333H22.168C22.0569 30.2777 21.9735 30.7166 21.918 31.15C21.8624 31.5833 21.8346 32.0333 21.8346 32.5C21.8346 32.9666 21.8624 33.4166 21.918 33.85C21.9735 34.2833 22.0569 34.7222 22.168 35.1666ZM29.368 35.1666H35.6346C35.7013 34.7222 35.7513 34.2833 35.7846 33.85C35.818 33.4166 35.8346 32.9666 35.8346 32.5C35.8346 32.0333 35.818 31.5833 35.7846 31.15C35.7513 30.7166 35.7013 30.2777 35.6346 29.8333H29.368C29.3013 30.2777 29.2513 30.7166 29.218 31.15C29.1846 31.5833 29.168 32.0333 29.168 32.5C29.168 32.9666 29.1846 33.4166 29.218 33.85C29.2513 34.2833 29.3013 34.7222 29.368 35.1666ZM38.3013 35.1666H42.8346C42.9457 34.7222 43.0291 34.2833 43.0846 33.85C43.1402 33.4166 43.168 32.9666 43.168 32.5C43.168 32.0333 43.1402 31.5833 43.0846 31.15C43.0291 30.7166 42.9457 30.2777 42.8346 29.8333H38.3013C38.368 30.2777 38.418 30.7166 38.4513 31.15C38.4846 31.5833 38.5013 32.0333 38.5013 32.5C38.5013 32.9666 38.4846 33.4166 38.4513 33.85C38.418 34.2833 38.368 34.7222 38.3013 35.1666ZM37.768 27.1666H41.7013C41.0569 26.0555 40.2513 25.0888 39.2846 24.2666C38.318 23.4444 37.2124 22.8333 35.968 22.4333C36.368 23.1666 36.718 23.9277 37.018 24.7166C37.318 25.5055 37.568 26.3222 37.768 27.1666ZM29.968 27.1666H35.0346C34.768 26.1888 34.4235 25.2666 34.0013 24.4C33.5791 23.5333 33.0791 22.7 32.5013 21.9C31.9235 22.7 31.4235 23.5333 31.0013 24.4C30.5791 25.2666 30.2346 26.1888 29.968 27.1666ZM23.3013 27.1666H27.2346C27.4346 26.3222 27.6846 25.5055 27.9846 24.7166C28.2846 23.9277 28.6346 23.1666 29.0346 22.4333C27.7902 22.8333 26.6846 23.4444 25.718 24.2666C24.7513 25.0888 23.9457 26.0555 23.3013 27.1666Z" fill="white"/>
</svg>
