<svg width="189" height="46" viewBox="0 0 189 46" fill="none" xmlns="http://www.w3.org/2000/svg">
<path d="M22.6406 21.8727L0.816621 1.48315C0.624621 1.99449 0.432617 2.50584 0.432617 3.20892V40.7282C0.432617 41.4313 0.624621 41.9427 0.816621 42.454L22.6406 21.8727Z" fill="#4D90FF"/>
<path d="M25.2002 21.8727L32.4962 28.6479L40.4962 24.4294C43.0562 23.0872 43.0562 20.8501 40.4962 19.5078L32.3042 15.0975L25.2002 21.8727Z" fill="#FBBC04"/>
<path d="M23.9207 20.6583L30.6407 14.2027L4.97668 0.652296C3.88868 0.14096 2.80068 -0.0507917 2.09668 0.332711L23.9207 20.6583Z" fill="#0BB83A"/>
<path d="M23.9207 23.0232L2.09668 43.5406C2.80068 43.8602 3.88867 43.7323 5.16867 43.221L30.9607 29.6706L23.9207 23.0232Z" fill="#EC2919"/>
<path d="M58.6089 2.8894C57.1369 2.8894 55.8569 3.40074 54.8329 4.42341C53.8089 5.44608 53.2969 6.72443 53.2969 8.25844C53.2969 9.79245 53.8089 11.0708 54.8329 12.0935C55.8569 13.1161 57.1369 13.6275 58.6089 13.6275C60.6569 13.6275 62.3849 12.5409 63.2809 10.879V7.93885H58.5449V9.40894H61.6169V10.5595C60.9129 11.646 59.9529 12.1574 58.6089 12.1574C57.5209 12.1574 56.6249 11.7739 55.9209 11.0708C55.2169 10.3038 54.8969 9.40895 54.8969 8.25844C54.8969 7.17185 55.2169 6.2131 55.9209 5.51001C56.5609 4.80692 57.4569 4.42341 58.5449 4.42341C59.8249 4.42341 60.7849 4.99867 61.5529 6.08526L62.7049 5.06258C61.8089 3.65641 60.4009 2.8894 58.6089 2.8894Z" fill="#010202"/>
<path d="M65.3281 3.08105V13.4996H72.1121V12.0294H66.9281V8.70577H70.7041V7.23567H66.9281V4.55116H71.9201V3.08105H65.3281Z" fill="#010202"/>
<path d="M72.9443 3.08105V4.55116H76.3363V13.4996H77.9363V4.55116H81.3283V3.08105H72.9443Z" fill="#010202"/>
<path d="M86.3848 3.08105V13.4996H87.9848V3.08105H86.3848Z" fill="#010202"/>
<path d="M89.5205 3.08105V4.55116H92.9125V13.4996H94.5125V4.55116H97.9045V3.08105H89.5205Z" fill="#010202"/>
<path d="M107.568 2.8894C106.096 2.8894 104.816 3.40074 103.792 4.42341C102.768 5.44608 102.256 6.72443 102.256 8.25844C102.256 9.79245 102.768 11.0708 103.792 12.0935C104.816 13.1161 106.032 13.6275 107.568 13.6275C109.04 13.6275 110.256 13.1161 111.28 12.0935C112.304 11.0708 112.816 9.79245 112.816 8.25844C112.816 6.72443 112.304 5.44608 111.28 4.42341C110.32 3.40074 109.04 2.8894 107.568 2.8894ZM107.568 4.42341C108.592 4.42341 109.488 4.80692 110.128 5.51001C110.832 6.2131 111.152 7.17185 111.152 8.25844C111.152 9.40895 110.832 10.3038 110.128 11.0069C109.424 11.71 108.592 12.0935 107.568 12.0935C106.544 12.0935 105.648 11.71 105.008 11.0069C104.304 10.2399 103.984 9.34503 103.984 8.25844C103.984 7.17185 104.304 6.2131 105.008 5.51001C105.712 4.80692 106.544 4.42341 107.568 4.42341Z" fill="#010202"/>
<path d="M121.457 10.112L115.377 2.8894H114.801V13.4996H116.401V6.46877L122.545 13.6914H123.121V3.08115H121.521V10.112H121.457Z" fill="#010202"/>
<path d="M62.5769 21.2335C59.9529 21.2335 57.7769 22.1284 55.9849 23.982C54.1929 25.7716 53.2969 28.0087 53.2969 30.6933C53.2969 33.3778 54.1929 35.6149 55.9849 37.4046C57.7769 39.1942 59.9529 40.0891 62.5769 40.0891C66.0969 40.0891 69.2329 38.1716 70.7689 35.2953V30.1819H62.5129V32.8025H67.9529V34.784C66.7369 36.6376 65.0089 37.5324 62.7049 37.5324C60.7849 37.5324 59.2489 36.8932 58.0329 35.6149C56.8169 34.3365 56.2409 32.6747 56.2409 30.6933C56.2409 28.7758 56.8169 27.1778 57.9689 25.8995C59.1209 24.6211 60.6569 23.982 62.5129 23.982C64.6889 23.982 66.4809 24.9407 67.7609 26.8582L69.8089 25.1325C68.1449 22.5119 65.7129 21.2335 62.5769 21.2335Z" fill="#010202"/>
<path d="M78.8319 25.8995C76.9119 25.8995 75.2479 26.6026 73.9039 27.9449C72.5599 29.2871 71.9199 31.0129 71.9199 32.9943C71.9199 34.9758 72.5599 36.7015 73.9039 38.0438C75.2479 39.386 76.8479 40.0891 78.8319 40.0891C80.7519 40.0891 82.3519 39.386 83.7599 38.0438C85.1039 36.6376 85.8079 34.9758 85.8079 32.9943C85.8079 31.0129 85.1039 29.2871 83.7599 27.9449C82.4159 26.6026 80.7519 25.8995 78.8319 25.8995ZM78.8959 28.584C80.0479 28.584 81.0079 29.0315 81.7759 29.8624C82.5439 30.6933 82.9279 31.716 82.9279 32.9943C82.9279 34.2088 82.5439 35.2954 81.7759 36.1263C81.0079 36.9572 80.0479 37.3407 78.8959 37.3407C77.7439 37.3407 76.7839 36.9572 76.0159 36.1263C75.2479 35.2954 74.8639 34.2088 74.8639 32.9943C74.8639 31.716 75.2479 30.6933 76.0159 29.8624C76.7199 28.9675 77.6799 28.584 78.8959 28.584Z" fill="#010202"/>
<path d="M93.744 25.8995C91.824 25.8995 90.16 26.6026 88.816 27.9449C87.472 29.2871 86.832 31.0129 86.832 32.9943C86.832 34.9758 87.472 36.7015 88.816 38.0438C90.16 39.386 91.76 40.0891 93.744 40.0891C95.664 40.0891 97.264 39.386 98.672 38.0438C100.016 36.6376 100.72 34.9758 100.72 32.9943C100.72 31.0129 100.016 29.2871 98.672 27.9449C97.328 26.6026 95.664 25.8995 93.744 25.8995ZM93.808 28.584C94.96 28.584 95.92 29.0315 96.688 29.8624C97.456 30.6933 97.84 31.716 97.84 32.9943C97.84 34.2088 97.456 35.2954 96.688 36.1263C95.92 36.9572 94.96 37.3407 93.808 37.3407C92.656 37.3407 91.696 36.9572 90.928 36.1263C90.16 35.2954 89.776 34.2088 89.776 32.9943C89.776 31.716 90.16 30.6933 90.928 29.8624C91.632 28.9675 92.592 28.584 93.808 28.584Z" fill="#010202"/>
<path d="M112.881 28.1366C111.857 26.6665 110.321 25.8995 108.273 25.8995C106.417 25.8995 104.945 26.5387 103.729 27.817C102.513 29.0954 101.937 30.6933 101.937 32.7387C101.937 34.7201 102.577 36.3819 103.729 37.6603C104.945 38.9386 106.417 39.5778 108.273 39.5778C110.193 39.5778 111.601 38.9386 112.689 37.6603V38.619C112.689 41.1757 111.153 42.518 108.785 42.518C107.249 42.518 105.713 41.8788 104.177 40.6005L102.641 42.6458C104.369 44.3716 106.481 45.2025 108.913 45.2025C112.881 45.2025 115.441 42.7736 115.441 38.4912V26.3469H112.881V28.1366ZM108.721 36.9572C107.569 36.9572 106.673 36.5737 105.841 35.8067C105.073 34.9758 104.689 33.9531 104.689 32.7387C104.689 31.5242 105.073 30.5016 105.841 29.6706C106.609 28.9036 107.569 28.5201 108.721 28.5201C110.897 28.5201 112.689 29.9263 112.689 32.6748C112.689 34.0809 112.305 35.1036 111.537 35.8706C110.705 36.5737 109.809 36.9572 108.721 36.9572Z" fill="#010202"/>
<path d="M118.129 19.0604V39.7696H120.945V19.0604H118.129Z" fill="#010202"/>
<path d="M135.665 32.0994C135.665 30.3098 135.089 28.8397 133.937 27.6252C132.785 26.4108 131.377 25.8356 129.649 25.8356C127.729 25.8356 126.129 26.5387 124.849 27.8809C123.569 29.2232 122.929 30.9489 122.929 32.9304C122.929 34.9757 123.569 36.6376 124.913 37.9798C126.257 39.3221 127.921 40.0252 129.969 40.0252C131.953 40.0252 133.681 39.3221 135.217 37.852L133.873 35.8706C132.721 36.9572 131.441 37.4685 130.033 37.4685C127.793 37.4685 126.129 36.1262 125.745 33.8891H135.473C135.601 33.3139 135.665 32.6747 135.665 32.0994ZM129.521 28.3923C131.441 28.3923 132.849 29.6706 132.849 31.716H125.745C126.193 29.6706 127.665 28.3923 129.521 28.3923Z" fill="#010202"/>
<path d="M143.856 21.5531V39.7695H146.672V32.7386H150.256C152.048 32.7386 153.456 32.2273 154.608 31.2046C155.696 30.1819 156.272 28.7757 156.272 27.1139C156.272 25.4521 155.696 24.1098 154.608 23.0871C153.52 22.0645 152.048 21.5531 150.256 21.5531H143.856ZM150.256 24.1098C152.24 24.1098 153.392 25.3242 153.392 27.1139C153.392 28.9036 152.24 30.118 150.256 30.118H146.736V24.1098H150.256Z" fill="#010202"/>
<path d="M157.873 19.0604V39.7696H160.689V19.0604H157.873Z" fill="#010202"/>
<path d="M168.432 25.8995C166.064 25.8995 164.208 26.8583 162.928 28.7758L164.528 30.5016C165.616 29.1593 166.832 28.4562 168.176 28.4562C169.968 28.4562 170.992 29.4789 170.992 31.3325V32.2273H167.28C164.336 32.2273 162.48 33.7613 162.48 36.1263C162.48 38.4912 164.272 40.0252 167.024 40.0252C168.816 40.0252 170.224 39.386 171.184 38.1716V39.7056H173.808V31.5242C173.808 27.9449 171.696 25.8995 168.432 25.8995ZM167.6 37.852C166.256 37.852 165.296 37.2129 165.296 36.0624C165.296 34.9758 166.064 34.4005 167.6 34.4005H170.928V34.6562C170.992 36.5098 169.456 37.852 167.6 37.852Z" fill="#010202"/>
<path d="M181.616 36.1263L177.84 26.2191H174.832L180.08 39.1943L179.568 40.4726C178.928 42.0066 178.032 42.4541 176.688 42.4541C176.496 42.4541 175.984 42.454 175.152 42.3262V44.7551C175.856 44.9468 176.624 45.0107 177.328 45.0107C179.568 45.0107 181.04 43.8602 182.128 41.3036L188.528 26.2191H185.52L181.616 36.1263Z" fill="#010202"/>
</svg>
