<svg width="79" height="20" viewBox="0 0 79 20" fill="none" xmlns="http://www.w3.org/2000/svg">
<path d="M9.28409 9.44908L0.159334 0.924072C0.0790574 1.13787 -0.0012207 1.35166 -0.0012207 1.64563V17.3327C-0.0012207 17.6267 0.0790574 17.8405 0.159334 18.0543L9.28409 9.44908Z" fill="#4D90FF"/>
<path d="M10.3545 9.44897L13.405 12.2817L16.7499 10.5179C17.8202 9.95673 17.8202 9.02139 16.7499 8.46018L13.3247 6.61621L10.3545 9.44897Z" fill="#FBBC04"/>
<path d="M9.8191 8.94133L12.6288 6.24219L1.89848 0.57667C1.44358 0.362877 0.988683 0.282704 0.694336 0.443049L9.8191 8.94133Z" fill="#0BB83A"/>
<path d="M9.8191 9.93018L0.694336 18.5086C0.988683 18.6423 1.44358 18.5888 1.97876 18.375L12.7626 12.7095L9.8191 9.93018Z" fill="#EC2919"/>
<path d="M24.3225 1.51221C23.7071 1.51221 23.1719 1.726 22.7438 2.15359C22.3156 2.58117 22.1016 3.11566 22.1016 3.75704C22.1016 4.39842 22.3156 4.9329 22.7438 5.36049C23.1719 5.78807 23.7071 6.00187 24.3225 6.00187C25.1788 6.00187 25.9013 5.54756 26.2759 4.85273V3.62342H24.2958V4.23807H25.5802V4.71911C25.2859 5.17342 24.8845 5.38721 24.3225 5.38721C23.8676 5.38721 23.493 5.22686 23.1987 4.9329C22.9043 4.61221 22.7705 4.23807 22.7705 3.75704C22.7705 3.30273 22.9043 2.90187 23.1987 2.6079C23.4663 2.31393 23.8409 2.15359 24.2958 2.15359C24.831 2.15359 25.2323 2.3941 25.5535 2.84842L26.0351 2.42083C25.6605 1.8329 25.0718 1.51221 24.3225 1.51221Z" fill="white"/>
<path d="M27.1321 1.59204V5.94809H29.9685V5.33343H27.8011V3.94377H29.3798V3.32911H27.8011V2.2067H29.8882V1.59204H27.1321Z" fill="white"/>
<path d="M30.3164 1.59204V2.2067H31.7346V5.94809H32.4036V2.2067H33.8218V1.59204H30.3164Z" fill="white"/>
<path d="M35.9358 1.59204V5.94809H36.6048V1.59204H35.9358Z" fill="white"/>
<path d="M37.2471 1.59204V2.2067H38.6653V5.94809H39.3343V2.2067H40.7525V1.59204H37.2471Z" fill="white"/>
<path d="M44.793 1.51221C44.1775 1.51221 43.6424 1.726 43.2142 2.15359C42.7861 2.58117 42.572 3.11566 42.572 3.75704C42.572 4.39842 42.7861 4.9329 43.2142 5.36049C43.6424 5.78807 44.1508 6.00187 44.793 6.00187C45.4085 6.00187 45.9169 5.78807 46.345 5.36049C46.7732 4.9329 46.9872 4.39842 46.9872 3.75704C46.9872 3.11566 46.7732 2.58117 46.345 2.15359C45.9436 1.726 45.4085 1.51221 44.793 1.51221ZM44.793 2.15359C45.2211 2.15359 45.5958 2.31393 45.8634 2.6079C46.1577 2.90187 46.2915 3.30273 46.2915 3.75704C46.2915 4.23807 46.1577 4.61221 45.8634 4.90617C45.569 5.20014 45.2211 5.36049 44.793 5.36049C44.3649 5.36049 43.9902 5.20014 43.7226 4.90617C43.4283 4.58548 43.2945 4.21135 43.2945 3.75704C43.2945 3.30273 43.4283 2.90187 43.7226 2.6079C44.017 2.31393 44.3649 2.15359 44.793 2.15359Z" fill="white"/>
<path d="M50.5998 4.53204L48.0577 1.51221H47.8169V5.94842H48.4859V3.00876L51.0547 6.02859H51.2955V1.59238H50.6266V4.53204H50.5998Z" fill="white"/>
<path d="M25.9816 9.18188C24.8845 9.18188 23.9747 9.55603 23.2254 10.331C22.4762 11.0793 22.1016 12.0147 22.1016 13.1371C22.1016 14.2595 22.4762 15.1948 23.2254 15.9431C23.9747 16.6914 24.8845 17.0655 25.9816 17.0655C27.4533 17.0655 28.7645 16.2638 29.4067 15.0612V12.9233H25.9548V14.019H28.2293V14.8474C27.7209 15.6224 26.9984 15.9966 26.0351 15.9966C25.2323 15.9966 24.5901 15.7293 24.0817 15.1948C23.5733 14.6603 23.3325 13.9655 23.3325 13.1371C23.3325 12.3353 23.5733 11.6672 24.055 11.1328C24.5366 10.5983 25.1788 10.331 25.9548 10.331C26.8646 10.331 27.6139 10.7319 28.1491 11.5336L29.0053 10.8121C28.3096 9.71637 27.2928 9.18188 25.9816 9.18188Z" fill="white"/>
<path d="M32.7781 11.1328C31.9754 11.1328 31.2796 11.4268 30.7177 11.988C30.1558 12.5492 29.8882 13.2707 29.8882 14.0992C29.8882 14.9276 30.1558 15.6492 30.7177 16.2104C31.2796 16.7716 31.9486 17.0656 32.7781 17.0656C33.5809 17.0656 34.2499 16.7716 34.8386 16.2104C35.4005 15.6225 35.6948 14.9276 35.6948 14.0992C35.6948 13.2707 35.4005 12.5492 34.8386 11.988C34.2766 11.4268 33.5809 11.1328 32.7781 11.1328ZM32.8049 12.2552C33.2866 12.2552 33.6879 12.4423 34.009 12.7897C34.3301 13.1371 34.4907 13.5647 34.4907 14.0992C34.4907 14.607 34.3301 15.0613 34.009 15.4087C33.6879 15.7561 33.2866 15.9164 32.8049 15.9164C32.3232 15.9164 31.9219 15.7561 31.6007 15.4087C31.2796 15.0613 31.1191 14.607 31.1191 14.0992C31.1191 13.5647 31.2796 13.1371 31.6007 12.7897C31.8951 12.4156 32.2965 12.2552 32.8049 12.2552Z" fill="white"/>
<path d="M39.013 11.1328C38.2102 11.1328 37.5145 11.4268 36.9526 11.988C36.3906 12.5492 36.123 13.2707 36.123 14.0992C36.123 14.9276 36.3906 15.6492 36.9526 16.2104C37.5145 16.7716 38.1835 17.0656 39.013 17.0656C39.8158 17.0656 40.4847 16.7716 41.0734 16.2104C41.6354 15.6225 41.9297 14.9276 41.9297 14.0992C41.9297 13.2707 41.6354 12.5492 41.0734 11.988C40.5115 11.4268 39.8158 11.1328 39.013 11.1328ZM39.0398 12.2552C39.5214 12.2552 39.9228 12.4423 40.2439 12.7897C40.565 13.1371 40.7256 13.5647 40.7256 14.0992C40.7256 14.607 40.565 15.0613 40.2439 15.4087C39.9228 15.7561 39.5214 15.9164 39.0398 15.9164C38.5581 15.9164 38.1567 15.7561 37.8356 15.4087C37.5145 15.0613 37.354 14.607 37.354 14.0992C37.354 13.5647 37.5145 13.1371 37.8356 12.7897C38.13 12.4156 38.5313 12.2552 39.0398 12.2552Z" fill="white"/>
<path d="M47.014 12.0682C46.5859 11.4535 45.9436 11.1328 45.0874 11.1328C44.3113 11.1328 43.6959 11.4001 43.1875 11.9345C42.6791 12.469 42.4382 13.1371 42.4382 13.9923C42.4382 14.8207 42.7058 15.5156 43.1875 16.0501C43.6959 16.5845 44.3113 16.8518 45.0874 16.8518C45.8901 16.8518 46.4788 16.5845 46.9337 16.0501V16.4509C46.9337 17.5199 46.2915 18.0811 45.3014 18.0811C44.6592 18.0811 44.017 17.8139 43.3748 17.2794L42.7326 18.1345C43.4551 18.8561 44.3381 19.2035 45.3549 19.2035C47.014 19.2035 48.0843 18.188 48.0843 16.3975V11.3199H47.014V12.0682ZM45.2747 15.7561C44.793 15.7561 44.4184 15.5958 44.0705 15.2751C43.7494 14.9276 43.5889 14.5001 43.5889 13.9923C43.5889 13.4845 43.7494 13.057 44.0705 12.7095C44.3916 12.3888 44.793 12.2285 45.2747 12.2285C46.1845 12.2285 46.9337 12.8164 46.9337 13.9656C46.9337 14.5535 46.7732 14.9811 46.4521 15.3018C46.1042 15.5958 45.7296 15.7561 45.2747 15.7561Z" fill="white"/>
<path d="M49.2083 8.27319V16.9318H50.3856V8.27319H49.2083Z" fill="white"/>
<path d="M56.5401 13.7252C56.5401 12.9769 56.2993 12.3622 55.8176 11.8545C55.336 11.3467 54.7473 11.1062 54.0248 11.1062C53.222 11.1062 52.553 11.4002 52.0179 11.9614C51.4827 12.5226 51.2151 13.2441 51.2151 14.0726C51.2151 14.9278 51.4827 15.6226 52.0446 16.1838C52.6065 16.745 53.3023 17.039 54.1586 17.039C54.9881 17.039 55.7106 16.745 56.3528 16.1303L55.7909 15.3019C55.3092 15.7562 54.774 15.97 54.1853 15.97C53.2488 15.97 52.553 15.4088 52.3925 14.4734H56.4598C56.5133 14.2329 56.5401 13.9657 56.5401 13.7252ZM53.9713 12.1752C54.774 12.1752 55.3627 12.7097 55.3627 13.5648H52.3925C52.5798 12.7097 53.1952 12.1752 53.9713 12.1752Z" fill="white"/>
<path d="M59.9651 9.31543V16.9318H61.1425V13.9922H62.641C63.3902 13.9922 63.9789 13.7784 64.4606 13.3508C64.9155 12.9232 65.1563 12.3353 65.1563 11.6404C65.1563 10.9456 64.9155 10.3844 64.4606 9.95682C64.0057 9.52923 63.3902 9.31543 62.641 9.31543H59.9651ZM62.641 10.3844C63.4705 10.3844 63.9522 10.8922 63.9522 11.6404C63.9522 12.3887 63.4705 12.8965 62.641 12.8965H61.1692V10.3844H62.641Z" fill="white"/>
<path d="M65.8254 8.27319V16.9318H67.0028V8.27319H65.8254Z" fill="white"/>
<path d="M70.2405 11.1328C69.2504 11.1328 68.4744 11.5337 67.9393 12.3354L68.6082 13.0569C69.0631 12.4957 69.5716 12.2018 70.1335 12.2018C70.8827 12.2018 71.3109 12.6294 71.3109 13.4044V13.7785H69.7589C68.528 13.7785 67.752 14.4199 67.752 15.4087C67.752 16.3975 68.5012 17.0389 69.6518 17.0389C70.4011 17.0389 70.9898 16.7716 71.3911 16.2638V16.9052H72.4883V13.4845C72.4883 11.988 71.6052 11.1328 70.2405 11.1328ZM69.8927 16.1302C69.3307 16.1302 68.9293 15.863 68.9293 15.382C68.9293 14.9276 69.2504 14.6871 69.8927 14.6871H71.2841V14.794C71.3109 15.569 70.6687 16.1302 69.8927 16.1302Z" fill="white"/>
<path d="M75.7529 15.4086L74.1742 11.2664H72.9165L75.1107 16.6914L74.8967 17.2258C74.6291 17.8672 74.2544 18.0543 73.6925 18.0543C73.6122 18.0543 73.3982 18.0543 73.0503 18.0008V19.0164C73.3446 19.0965 73.6657 19.1233 73.9601 19.1233C74.8967 19.1233 75.5121 18.6422 75.967 17.5733L78.6429 11.2664H77.3852L75.7529 15.4086Z" fill="white"/>
</svg>
