<svg width="30" height="28" viewBox="0 0 30 28" fill="none" xmlns="http://www.w3.org/2000/svg">
<path d="M1.33338 20.4C1.04449 20.2 0.872272 19.9277 0.816716 19.5833C0.761161 19.2389 0.822272 18.9111 1.00005 18.6L6.03338 10.5333C6.27783 10.1555 6.61672 9.94997 7.05005 9.91664C7.48338 9.8833 7.85561 10.0333 8.16672 10.3666L11 13.6666L15.2334 6.76663C15.4778 6.34441 15.85 6.1333 16.35 6.1333C16.85 6.1333 17.2334 6.3333 17.5 6.7333L18.8667 8.79997C19.1112 9.17775 19.1834 9.53886 19.0834 9.8833C18.9834 10.2277 18.7889 10.4889 18.5 10.6666C18.2112 10.8444 17.8945 10.9166 17.55 10.8833C17.2056 10.85 16.9112 10.6444 16.6667 10.2666L16.4334 9.9333L12.3334 16.6C12.0889 16.9777 11.7445 17.1889 11.3 17.2333C10.8556 17.2777 10.4778 17.1222 10.1667 16.7666L7.33338 13.4666L3.26672 20.0333C3.06672 20.3666 2.77227 20.5722 2.38338 20.65C1.99449 20.7277 1.64449 20.6444 1.33338 20.4ZM20.4334 24.4333C18.7667 24.4333 17.35 23.85 16.1834 22.6833C15.0167 21.5166 14.4334 20.1 14.4334 18.4333C14.4334 16.7666 15.0167 15.35 16.1834 14.1833C17.35 13.0166 18.7667 12.4333 20.4334 12.4333C22.1 12.4333 23.5167 13.0166 24.6834 14.1833C25.85 15.35 26.4334 16.7666 26.4334 18.4333C26.4334 19.0111 26.3556 19.5722 26.2 20.1166C26.0445 20.6611 25.8112 21.1666 25.5 21.6333L28.7 24.8333C28.9667 25.1 29.1056 25.4111 29.1167 25.7666C29.1278 26.1222 29 26.4333 28.7334 26.7C28.4667 26.9666 28.15 27.1 27.7834 27.1C27.4167 27.1 27.1 26.9666 26.8334 26.7L23.6 23.5C23.1556 23.8111 22.6612 24.0444 22.1167 24.2C21.5723 24.3555 21.0112 24.4333 20.4334 24.4333ZM20.4334 21.7666C21.3667 21.7666 22.1556 21.4444 22.8 20.8C23.4445 20.1555 23.7667 19.3666 23.7667 18.4333C23.7667 17.5 23.4445 16.7111 22.8 16.0666C22.1556 15.4222 21.3667 15.1 20.4334 15.1C19.5 15.1 18.7112 15.4222 18.0667 16.0666C17.4223 16.7111 17.1 17.5 17.1 18.4333C17.1 19.3666 17.4223 20.1555 18.0667 20.8C18.7112 21.4444 19.5 21.7666 20.4334 21.7666ZM22.0667 10.7333C21.7778 10.5555 21.5778 10.3 21.4667 9.96664C21.3556 9.6333 21.4223 9.27775 21.6667 8.89997L26.7334 0.866635C26.9334 0.555524 27.2223 0.355524 27.6 0.266635C27.9778 0.177746 28.3223 0.255524 28.6334 0.499968C28.9223 0.699968 29.1 0.97219 29.1667 1.31663C29.2334 1.66108 29.1778 1.98886 29 2.29997L23.9 10.3C23.6556 10.6777 23.3612 10.8889 23.0167 10.9333C22.6723 10.9777 22.3556 10.9111 22.0667 10.7333Z" fill="white"/>
</svg>
