<svg width="50" height="50" viewBox="0 0 50 50" fill="none" xmlns="http://www.w3.org/2000/svg">
<rect width="50" height="50" rx="25" fill="#FEDF22"/>
<path d="M17 34C16.7167 34 16.4792 33.9042 16.2875 33.7125C16.0958 33.5208 16 33.2833 16 33V32C16 31.7167 16.0958 31.4792 16.2875 31.2875C16.4792 31.0958 16.7167 31 17 31C17.2833 31 17.5208 31.0958 17.7125 31.2875C17.9042 31.4792 18 31.7167 18 32V33C18 33.2833 17.9042 33.5208 17.7125 33.7125C17.5208 33.9042 17.2833 34 17 34ZM21 34C20.7167 34 20.4792 33.9042 20.2875 33.7125C20.0958 33.5208 20 33.2833 20 33V27.5C20 27.2167 20.0958 26.9792 20.2875 26.7875C20.4792 26.5958 20.7167 26.5 21 26.5C21.2833 26.5 21.5208 26.5958 21.7125 26.7875C21.9042 26.9792 22 27.2167 22 27.5V33C22 33.2833 21.9042 33.5208 21.7125 33.7125C21.5208 33.9042 21.2833 34 21 34ZM25 34C24.7167 34 24.4792 33.9042 24.2875 33.7125C24.0958 33.5208 24 33.2833 24 33V29.5C24 29.2167 24.0958 28.9792 24.2875 28.7875C24.4792 28.5958 24.7167 28.5 25 28.5C25.2833 28.5 25.5208 28.5958 25.7125 28.7875C25.9042 28.9792 26 29.2167 26 29.5V33C26 33.2833 25.9042 33.5208 25.7125 33.7125C25.5208 33.9042 25.2833 34 25 34ZM29 34C28.7167 34 28.4792 33.9042 28.2875 33.7125C28.0958 33.5208 28 33.2833 28 33V28C28 27.7167 28.0958 27.4792 28.2875 27.2875C28.4792 27.0958 28.7167 27 29 27C29.2833 27 29.5208 27.0958 29.7125 27.2875C29.9042 27.4792 30 27.7167 30 28V33C30 33.2833 29.9042 33.5208 29.7125 33.7125C29.5208 33.9042 29.2833 34 29 34ZM33 34C32.7167 34 32.4792 33.9042 32.2875 33.7125C32.0958 33.5208 32 33.2833 32 33V24C32 23.7167 32.0958 23.4792 32.2875 23.2875C32.4792 23.0958 32.7167 23 33 23C33.2833 23 33.5208 23.0958 33.7125 23.2875C33.9042 23.4792 34 23.7167 34 24V33C34 33.2833 33.9042 33.5208 33.7125 33.7125C33.5208 33.9042 33.2833 34 33 34ZM27 24.975C26.7333 24.975 26.4792 24.925 26.2375 24.825C25.9958 24.725 25.775 24.5833 25.575 24.4L23 21.825L17.7 27.125C17.5 27.325 17.2625 27.4208 16.9875 27.4125C16.7125 27.4042 16.475 27.3 16.275 27.1C16.0917 26.9 16.0042 26.6625 16.0125 26.3875C16.0208 26.1125 16.1167 25.8833 16.3 25.7L21.575 20.425C21.775 20.225 21.9958 20.0792 22.2375 19.9875C22.4792 19.8958 22.7333 19.85 23 19.85C23.2667 19.85 23.525 19.8958 23.775 19.9875C24.025 20.0792 24.2417 20.225 24.425 20.425L27 23L32.3 17.7C32.5 17.5 32.7375 17.4042 33.0125 17.4125C33.2875 17.4208 33.525 17.525 33.725 17.725C33.9083 17.925 33.9958 18.1625 33.9875 18.4375C33.9792 18.7125 33.8833 18.9417 33.7 19.125L28.425 24.4C28.2417 24.5833 28.025 24.725 27.775 24.825C27.525 24.925 27.2667 24.975 27 24.975Z" fill="#2D2323"/>
</svg>
