<svg width="25" height="23" viewBox="0 0 25 23" fill="none" xmlns="http://www.w3.org/2000/svg">
<path d="M1.9974 22.403C1.61962 22.403 1.30295 22.2752 1.0474 22.0196C0.79184 21.7641 0.664062 21.4474 0.664062 21.0696V19.7363C0.664062 19.3585 0.79184 19.0419 1.0474 18.7863C1.30295 18.5308 1.61962 18.403 1.9974 18.403C2.37517 18.403 2.69184 18.5308 2.9474 18.7863C3.20295 19.0419 3.33073 19.3585 3.33073 19.7363V21.0696C3.33073 21.4474 3.20295 21.7641 2.9474 22.0196C2.69184 22.2752 2.37517 22.403 1.9974 22.403ZM7.33073 22.403C6.95295 22.403 6.63628 22.2752 6.38073 22.0196C6.12517 21.7641 5.9974 21.4474 5.9974 21.0696V13.7363C5.9974 13.3585 6.12517 13.0419 6.38073 12.7863C6.63628 12.5308 6.95295 12.403 7.33073 12.403C7.70851 12.403 8.02517 12.5308 8.28073 12.7863C8.53629 13.0419 8.66406 13.3585 8.66406 13.7363V21.0696C8.66406 21.4474 8.53629 21.7641 8.28073 22.0196C8.02517 22.2752 7.70851 22.403 7.33073 22.403ZM12.6641 22.403C12.2863 22.403 11.9696 22.2752 11.7141 22.0196C11.4585 21.7641 11.3307 21.4474 11.3307 21.0696V16.403C11.3307 16.0252 11.4585 15.7085 11.7141 15.453C11.9696 15.1974 12.2863 15.0696 12.6641 15.0696C13.0418 15.0696 13.3585 15.1974 13.6141 15.453C13.8696 15.7085 13.9974 16.0252 13.9974 16.403V21.0696C13.9974 21.4474 13.8696 21.7641 13.6141 22.0196C13.3585 22.2752 13.0418 22.403 12.6641 22.403ZM17.9974 22.403C17.6196 22.403 17.303 22.2752 17.0474 22.0196C16.7918 21.7641 16.6641 21.4474 16.6641 21.0696V14.403C16.6641 14.0252 16.7918 13.7085 17.0474 13.453C17.303 13.1974 17.6196 13.0696 17.9974 13.0696C18.3752 13.0696 18.6918 13.1974 18.9474 13.453C19.203 13.7085 19.3307 14.0252 19.3307 14.403V21.0696C19.3307 21.4474 19.203 21.7641 18.9474 22.0196C18.6918 22.2752 18.3752 22.403 17.9974 22.403ZM23.3307 22.403C22.953 22.403 22.6363 22.2752 22.3807 22.0196C22.1252 21.7641 21.9974 21.4474 21.9974 21.0696V9.06964C21.9974 8.69187 22.1252 8.3752 22.3807 8.11964C22.6363 7.86409 22.953 7.73631 23.3307 7.73631C23.7085 7.73631 24.0252 7.86409 24.2807 8.11964C24.5363 8.3752 24.6641 8.69187 24.6641 9.06964V21.0696C24.6641 21.4474 24.5363 21.7641 24.2807 22.0196C24.0252 22.2752 23.7085 22.403 23.3307 22.403ZM15.3307 10.3696C14.9752 10.3696 14.6363 10.303 14.3141 10.1696C13.9918 10.0363 13.6974 9.84742 13.4307 9.60298L9.9974 6.16964L2.93073 13.2363C2.66406 13.503 2.3474 13.6308 1.98073 13.6196C1.61406 13.6085 1.2974 13.4696 1.03073 13.203C0.786285 12.9363 0.669618 12.6196 0.680729 12.253C0.69184 11.8863 0.819618 11.5808 1.06406 11.3363L8.0974 4.30298C8.36406 4.03631 8.65851 3.84187 8.98073 3.71964C9.30295 3.59742 9.64184 3.53631 9.9974 3.53631C10.353 3.53631 10.6974 3.59742 11.0307 3.71964C11.3641 3.84187 11.653 4.03631 11.8974 4.30298L15.3307 7.73631L22.3974 0.669645C22.6641 0.402978 22.9807 0.2752 23.3474 0.286311C23.7141 0.297422 24.0307 0.436311 24.2974 0.702978C24.5418 0.969645 24.6585 1.28631 24.6474 1.65298C24.6363 2.01964 24.5085 2.3252 24.2641 2.56964L17.2307 9.60298C16.9863 9.84742 16.6974 10.0363 16.3641 10.1696C16.0307 10.303 15.6863 10.3696 15.3307 10.3696Z" fill="white"/>
</svg>
