<svg width="51" height="50" viewBox="0 0 51 50" fill="none" xmlns="http://www.w3.org/2000/svg">
<rect x="0.5" width="50" height="50" rx="25" fill="#FEDF22"/>
<path d="M18.9 27H20.5C20.5 26.7167 20.5958 26.4792 20.7875 26.2875C20.9792 26.0958 21.2167 26 21.5 26H29.5C29.7833 26 30.0208 26.0958 30.2125 26.2875C30.4042 26.4792 30.5 26.7167 30.5 27H32.1C32.2167 27 32.3125 26.9583 32.3875 26.875C32.4625 26.7917 32.5 26.6833 32.5 26.55C32.5 26.4667 32.4792 26.3958 32.4375 26.3375C32.3958 26.2792 32.3333 26.2333 32.25 26.2L25.5 23.2L18.75 26.2C18.6667 26.2333 18.6042 26.2792 18.5625 26.3375C18.5208 26.3958 18.5 26.4667 18.5 26.55C18.5 26.6833 18.5375 26.7917 18.6125 26.875C18.6875 26.9583 18.7833 27 18.9 27ZM22.5 33H28.5V28H22.5V33ZM27.725 18.15C27.475 18.2667 27.225 18.2708 26.975 18.1625C26.725 18.0542 26.5417 17.875 26.425 17.625C26.3417 17.4417 26.2208 17.2917 26.0625 17.175C25.9042 17.0583 25.7167 17 25.5 17C25.2167 17 24.9792 17.0958 24.7875 17.2875C24.5958 17.4792 24.5 17.7167 24.5 18C24.5 18.2833 24.5958 18.5208 24.7875 18.7125C24.9792 18.9042 25.2167 19 25.5 19C25.7833 19 26.0208 19.0958 26.2125 19.2875C26.4042 19.4792 26.5 19.7167 26.5 20V21.45L33.05 24.35C33.4833 24.55 33.8333 24.8542 34.1 25.2625C34.3667 25.6708 34.5 26.1167 34.5 26.6C34.5 27.2667 34.2667 27.8333 33.8 28.3C33.3333 28.7667 32.7667 29 32.1 29H30.5V34C30.5 34.2833 30.4042 34.5208 30.2125 34.7125C30.0208 34.9042 29.7833 35 29.5 35H21.5C21.2167 35 20.9792 34.9042 20.7875 34.7125C20.5958 34.5208 20.5 34.2833 20.5 34V29H18.9C18.2333 29 17.6667 28.7667 17.2 28.3C16.7333 27.8333 16.5 27.2667 16.5 26.6C16.5 26.1167 16.6333 25.6708 16.9 25.2625C17.1667 24.8542 17.5167 24.55 17.95 24.35L24.5 21.45V20.8C23.9 20.5833 23.4167 20.2208 23.05 19.7125C22.6833 19.2042 22.5 18.6333 22.5 18C22.5 17.1667 22.7917 16.4583 23.375 15.875C23.9583 15.2917 24.6667 15 25.5 15C26.1333 15 26.6958 15.175 27.1875 15.525C27.6792 15.875 28.0417 16.3167 28.275 16.85C28.3917 17.1 28.3917 17.35 28.275 17.6C28.1583 17.85 27.975 18.0333 27.725 18.15Z" fill="#2D2323"/>
</svg>
