<svg width="65" height="65" viewBox="0 0 65 65" fill="none" xmlns="http://www.w3.org/2000/svg">
<rect x="0.75" y="0.5" width="64" height="64" rx="32" fill="#3355FF"/>
<path d="M19.0834 39.9C18.7945 39.7 18.6223 39.4278 18.5667 39.0834C18.5112 38.7389 18.5723 38.4111 18.75 38.1L23.7834 30.0334C24.0278 29.6556 24.3667 29.45 24.8 29.4167C25.2334 29.3834 25.6056 29.5334 25.9167 29.8667L28.75 33.1667L32.9834 26.2667C33.2278 25.8445 33.6 25.6334 34.1 25.6334C34.6 25.6334 34.9834 25.8334 35.25 26.2334L36.6167 28.3C36.8612 28.6778 36.9334 29.0389 36.8334 29.3834C36.7334 29.7278 36.5389 29.9889 36.25 30.1667C35.9612 30.3445 35.6445 30.4167 35.3 30.3834C34.9556 30.35 34.6612 30.1445 34.4167 29.7667L34.1834 29.4334L30.0834 36.1C29.8389 36.4778 29.4945 36.6889 29.05 36.7334C28.6056 36.7778 28.2278 36.6223 27.9167 36.2667L25.0834 32.9667L21.0167 39.5334C20.8167 39.8667 20.5223 40.0723 20.1334 40.15C19.7445 40.2278 19.3945 40.1445 19.0834 39.9ZM38.1834 43.9334C36.5167 43.9334 35.1 43.35 33.9334 42.1834C32.7667 41.0167 32.1834 39.6 32.1834 37.9334C32.1834 36.2667 32.7667 34.85 33.9334 33.6834C35.1 32.5167 36.5167 31.9334 38.1834 31.9334C39.85 31.9334 41.2667 32.5167 42.4334 33.6834C43.6 34.85 44.1834 36.2667 44.1834 37.9334C44.1834 38.5111 44.1056 39.0723 43.95 39.6167C43.7945 40.1611 43.5612 40.6667 43.25 41.1334L46.45 44.3334C46.7167 44.6 46.8556 44.9111 46.8667 45.2667C46.8778 45.6223 46.75 45.9334 46.4834 46.2C46.2167 46.4667 45.9 46.6 45.5334 46.6C45.1667 46.6 44.85 46.4667 44.5834 46.2L41.35 43C40.9056 43.3111 40.4112 43.5445 39.8667 43.7C39.3223 43.8556 38.7612 43.9334 38.1834 43.9334ZM38.1834 41.2667C39.1167 41.2667 39.9056 40.9445 40.55 40.3C41.1945 39.6556 41.5167 38.8667 41.5167 37.9334C41.5167 37 41.1945 36.2111 40.55 35.5667C39.9056 34.9223 39.1167 34.6 38.1834 34.6C37.25 34.6 36.4612 34.9223 35.8167 35.5667C35.1723 36.2111 34.85 37 34.85 37.9334C34.85 38.8667 35.1723 39.6556 35.8167 40.3C36.4612 40.9445 37.25 41.2667 38.1834 41.2667ZM39.8167 30.2334C39.5278 30.0556 39.3278 29.8 39.2167 29.4667C39.1056 29.1334 39.1723 28.7778 39.4167 28.4L44.4834 20.3667C44.6834 20.0556 44.9723 19.8556 45.35 19.7667C45.7278 19.6778 46.0723 19.7556 46.3834 20C46.6723 20.2 46.85 20.4723 46.9167 20.8167C46.9834 21.1611 46.9278 21.4889 46.75 21.8L41.65 29.8C41.4056 30.1778 41.1112 30.3889 40.7667 30.4334C40.4223 30.4778 40.1056 30.4111 39.8167 30.2334Z" fill="white"/>
</svg>
