<svg width="14" height="20" viewBox="0 0 14 20" fill="none" xmlns="http://www.w3.org/2000/svg">
<path d="M7 20C5.05 20 3.39583 19.3209 2.0375 17.9625C0.679167 16.6042 0 14.95 0 13C0 11.4334 0.4625 10.0292 1.3875 8.78754C2.3125 7.54587 3.525 6.70837 5.025 6.27504C4.69167 6.1917 4.36667 6.07087 4.05 5.91254C3.73333 5.7542 3.45 5.55004 3.2 5.30004C2.65 4.75004 2.29583 4.09587 2.1375 3.33754C1.97917 2.5792 1.94167 1.80837 2.025 1.02504C2.80833 0.941704 3.57917 0.979204 4.3375 1.13754C5.09583 1.29587 5.75 1.65004 6.3 2.20004C6.68333 2.58337 6.9625 3.0167 7.1375 3.50004C7.3125 3.98337 7.425 4.4917 7.475 5.02504C7.69167 4.50837 7.95417 4.02087 8.2625 3.56254C8.57083 3.1042 8.91667 2.68337 9.3 2.30004C9.48333 2.1167 9.71667 2.02504 10 2.02504C10.2833 2.02504 10.5167 2.1167 10.7 2.30004C10.8833 2.48337 10.975 2.7167 10.975 3.00004C10.975 3.28337 10.8833 3.5167 10.7 3.70004C10.3333 4.0667 10.0083 4.47087 9.725 4.91254C9.44167 5.3542 9.23333 5.82504 9.1 6.32504C10.5667 6.7917 11.75 7.63754 12.65 8.86254C13.55 10.0875 14 11.4667 14 13C14 14.95 13.3208 16.6042 11.9625 17.9625C10.6042 19.3209 8.95 20 7 20ZM7 18C8.38333 18 9.5625 17.5125 10.5375 16.5375C11.5125 15.5625 12 14.3834 12 13C12 11.6167 11.5125 10.4375 10.5375 9.46254C9.5625 8.48754 8.38333 8.00004 7 8.00004C5.61667 8.00004 4.4375 8.48754 3.4625 9.46254C2.4875 10.4375 2 11.6167 2 13C2 14.3834 2.4875 15.5625 3.4625 16.5375C4.4375 17.5125 5.61667 18 7 18Z" fill="#5F6368"/>
</svg>
