<svg width="64" height="64" viewBox="0 0 64 64" fill="none" xmlns="http://www.w3.org/2000/svg">
<rect width="64" height="64" rx="32" fill="#3355FF"/>
<path d="M31.8339 42.6666C31.9228 42.6666 32.0117 42.6444 32.1006 42.6C32.1895 42.5555 32.2562 42.5111 32.3006 42.4666L43.2339 31.5333C43.5006 31.2666 43.695 30.9666 43.8173 30.6333C43.9395 30.3 44.0006 29.9666 44.0006 29.6333C44.0006 29.2777 43.9395 28.9388 43.8173 28.6166C43.695 28.2944 43.5006 28.0111 43.2339 27.7666L37.5673 22.1C37.3228 21.8333 37.0395 21.6388 36.7173 21.5166C36.395 21.3944 36.0562 21.3333 35.7006 21.3333C35.3673 21.3333 35.0339 21.3944 34.7006 21.5166C34.3673 21.6388 34.0673 21.8333 33.8006 22.1L33.4339 22.4666L35.9006 24.9666C36.2339 25.2777 36.4784 25.6333 36.6339 26.0333C36.7895 26.4333 36.8673 26.8555 36.8673 27.3C36.8673 28.2333 36.5506 29.0166 35.9173 29.65C35.2839 30.2833 34.5006 30.6 33.5673 30.6C33.1228 30.6 32.695 30.5222 32.2839 30.3666C31.8728 30.2111 31.5117 29.9777 31.2006 29.6666L28.7006 27.2L22.8673 33.0333C22.8006 33.1 22.7506 33.1722 22.7173 33.25C22.6839 33.3277 22.6673 33.4111 22.6673 33.5C22.6673 33.6777 22.7339 33.8388 22.8673 33.9833C23.0006 34.1277 23.1562 34.2 23.3339 34.2C23.4228 34.2 23.5117 34.1777 23.6006 34.1333C23.6895 34.0888 23.7562 34.0444 23.8006 34L27.4006 30.4C27.645 30.1555 27.9506 30.0277 28.3173 30.0166C28.6839 30.0055 29.0006 30.1333 29.2673 30.4C29.5117 30.6444 29.6339 30.9555 29.6339 31.3333C29.6339 31.7111 29.5117 32.0222 29.2673 32.2666L25.7006 35.8666C25.6339 35.9333 25.5839 36.0055 25.5506 36.0833C25.5173 36.1611 25.5006 36.2444 25.5006 36.3333C25.5006 36.5111 25.5673 36.6666 25.7006 36.8C25.8339 36.9333 25.9895 37 26.1673 37C26.2562 37 26.345 36.9777 26.4339 36.9333C26.5228 36.8888 26.5895 36.8444 26.6339 36.8L30.2339 33.2333C30.4784 32.9888 30.7839 32.8611 31.1506 32.85C31.5173 32.8388 31.8339 32.9666 32.1006 33.2333C32.345 33.4777 32.4673 33.7888 32.4673 34.1666C32.4673 34.5444 32.345 34.8555 32.1006 35.1L28.5339 38.7C28.4673 38.7444 28.4173 38.8111 28.3839 38.9C28.3506 38.9888 28.3339 39.0777 28.3339 39.1666C28.3339 39.3444 28.4006 39.5 28.5339 39.6333C28.6673 39.7666 28.8228 39.8333 29.0006 39.8333C29.0895 39.8333 29.1728 39.8166 29.2506 39.7833C29.3284 39.75 29.4006 39.7 29.4673 39.6333L33.0673 36.0666C33.3117 35.8222 33.6173 35.6944 33.9839 35.6833C34.3506 35.6722 34.6673 35.8 34.9339 36.0666C35.1784 36.3111 35.3006 36.6222 35.3006 37C35.3006 37.3777 35.1784 37.6888 34.9339 37.9333L31.3339 41.5333C31.2673 41.6 31.2173 41.6722 31.1839 41.75C31.1506 41.8277 31.1339 41.9111 31.1339 42C31.1339 42.1777 31.2062 42.3333 31.3506 42.4666C31.495 42.6 31.6562 42.6666 31.8339 42.6666ZM31.8006 45.3333C30.9784 45.3333 30.2506 45.0611 29.6173 44.5166C28.9839 43.9722 28.6117 43.2888 28.5006 42.4666C27.745 42.3555 27.1117 42.0444 26.6006 41.5333C26.0895 41.0222 25.7784 40.3888 25.6673 39.6333C24.9117 39.5222 24.2839 39.2055 23.7839 38.6833C23.2839 38.1611 22.9784 37.5333 22.8673 36.8C22.0228 36.6888 21.3339 36.3222 20.8006 35.7C20.2673 35.0777 20.0006 34.3444 20.0006 33.5C20.0006 33.0555 20.0839 32.6277 20.2506 32.2166C20.4173 31.8055 20.6562 31.4444 20.9673 31.1333L26.8006 25.3C27.3117 24.7888 27.9395 24.5333 28.6839 24.5333C29.4284 24.5333 30.0562 24.7888 30.5673 25.3L33.0673 27.8C33.1117 27.8666 33.1784 27.9166 33.2673 27.95C33.3562 27.9833 33.445 28 33.5339 28C33.7339 28 33.9006 27.9388 34.0339 27.8166C34.1673 27.6944 34.2339 27.5333 34.2339 27.3333C34.2339 27.2444 34.2173 27.1555 34.1839 27.0666C34.1506 26.9777 34.1006 26.9111 34.0339 26.8666L29.2673 22.1C29.0228 21.8333 28.7395 21.6388 28.4173 21.5166C28.095 21.3944 27.7562 21.3333 27.4006 21.3333C27.0673 21.3333 26.7339 21.3944 26.4006 21.5166C26.0673 21.6388 25.7673 21.8333 25.5006 22.1L20.8006 26.8333C20.4895 27.1444 20.2673 27.5111 20.1339 27.9333C20.0006 28.3555 19.9673 28.7777 20.0339 29.2C20.1006 29.5777 20.0228 29.9111 19.8006 30.2C19.5784 30.4888 19.2784 30.6555 18.9006 30.7C18.5228 30.7444 18.1895 30.6611 17.9006 30.45C17.6117 30.2388 17.445 29.9444 17.4006 29.5666C17.2673 28.7222 17.3284 27.8944 17.5839 27.0833C17.8395 26.2722 18.2784 25.5555 18.9006 24.9333L23.6006 20.2333C24.1339 19.7222 24.7284 19.3333 25.3839 19.0666C26.0395 18.8 26.7117 18.6666 27.4006 18.6666C28.0895 18.6666 28.7617 18.8 29.4173 19.0666C30.0728 19.3333 30.6562 19.7222 31.1673 20.2333L31.5339 20.6L31.9006 20.2333C32.4339 19.7222 33.0284 19.3333 33.6839 19.0666C34.3395 18.8 35.0117 18.6666 35.7006 18.6666C36.3895 18.6666 37.0617 18.8 37.7173 19.0666C38.3728 19.3333 38.9562 19.7222 39.4673 20.2333L45.1006 25.8666C45.6117 26.3777 46.0006 26.9666 46.2673 27.6333C46.5339 28.3 46.6673 28.9777 46.6673 29.6666C46.6673 30.3555 46.5339 31.0277 46.2673 31.6833C46.0006 32.3388 45.6117 32.9222 45.1006 33.4333L34.1673 44.3333C33.8562 44.6444 33.495 44.8888 33.0839 45.0666C32.6728 45.2444 32.245 45.3333 31.8006 45.3333Z" fill="white"/>
</svg>
