<svg width="30" height="28" viewBox="0 0 30 28" fill="none" xmlns="http://www.w3.org/2000/svg">
<path d="M14.8339 24.6666C14.9228 24.6666 15.0117 24.6444 15.1006 24.6C15.1895 24.5555 15.2562 24.5111 15.3006 24.4666L26.2339 13.5333C26.5006 13.2666 26.695 12.9666 26.8173 12.6333C26.9395 12.3 27.0006 11.9666 27.0006 11.6333C27.0006 11.2777 26.9395 10.9388 26.8173 10.6166C26.695 10.2944 26.5006 10.0111 26.2339 9.76663L20.5673 4.09996C20.3228 3.83329 20.0395 3.63885 19.7173 3.51663C19.395 3.3944 19.0562 3.33329 18.7006 3.33329C18.3673 3.33329 18.0339 3.3944 17.7006 3.51663C17.3673 3.63885 17.0673 3.83329 16.8006 4.09996L16.4339 4.46663L18.9006 6.96663C19.2339 7.27774 19.4784 7.63329 19.6339 8.03329C19.7895 8.43329 19.8673 8.85551 19.8673 9.29996C19.8673 10.2333 19.5506 11.0166 18.9173 11.65C18.2839 12.2833 17.5006 12.6 16.5673 12.6C16.1228 12.6 15.695 12.5222 15.2839 12.3666C14.8728 12.2111 14.5117 11.9777 14.2006 11.6666L11.7006 9.19996L5.86727 15.0333C5.8006 15.1 5.7506 15.1722 5.71727 15.25C5.68394 15.3277 5.66727 15.4111 5.66727 15.5C5.66727 15.6777 5.73394 15.8388 5.86727 15.9833C6.0006 16.1277 6.15616 16.2 6.33394 16.2C6.42282 16.2 6.51171 16.1777 6.6006 16.1333C6.68949 16.0888 6.75616 16.0444 6.8006 16L10.4006 12.4C10.645 12.1555 10.9506 12.0277 11.3173 12.0166C11.6839 12.0055 12.0006 12.1333 12.2673 12.4C12.5117 12.6444 12.6339 12.9555 12.6339 13.3333C12.6339 13.7111 12.5117 14.0222 12.2673 14.2666L8.7006 17.8666C8.63394 17.9333 8.58394 18.0055 8.5506 18.0833C8.51727 18.1611 8.5006 18.2444 8.5006 18.3333C8.5006 18.5111 8.56727 18.6666 8.7006 18.8C8.83394 18.9333 8.98949 19 9.16727 19C9.25616 19 9.34505 18.9777 9.43394 18.9333C9.52282 18.8888 9.58949 18.8444 9.63393 18.8L13.2339 15.2333C13.4784 14.9888 13.7839 14.8611 14.1506 14.85C14.5173 14.8388 14.8339 14.9666 15.1006 15.2333C15.345 15.4777 15.4673 15.7888 15.4673 16.1666C15.4673 16.5444 15.345 16.8555 15.1006 17.1L11.5339 20.7C11.4673 20.7444 11.4173 20.8111 11.3839 20.9C11.3506 20.9888 11.3339 21.0777 11.3339 21.1666C11.3339 21.3444 11.4006 21.5 11.5339 21.6333C11.6673 21.7666 11.8228 21.8333 12.0006 21.8333C12.0895 21.8333 12.1728 21.8166 12.2506 21.7833C12.3284 21.75 12.4006 21.7 12.4673 21.6333L16.0673 18.0666C16.3117 17.8222 16.6173 17.6944 16.9839 17.6833C17.3506 17.6722 17.6673 17.8 17.9339 18.0666C18.1784 18.3111 18.3006 18.6222 18.3006 19C18.3006 19.3777 18.1784 19.6888 17.9339 19.9333L14.3339 23.5333C14.2673 23.6 14.2173 23.6722 14.1839 23.75C14.1506 23.8277 14.1339 23.9111 14.1339 24C14.1339 24.1777 14.2062 24.3333 14.3506 24.4666C14.495 24.6 14.6562 24.6666 14.8339 24.6666ZM14.8006 27.3333C13.9784 27.3333 13.2506 27.0611 12.6173 26.5166C11.9839 25.9722 11.6117 25.2888 11.5006 24.4666C10.745 24.3555 10.1117 24.0444 9.6006 23.5333C9.08949 23.0222 8.77838 22.3888 8.66727 21.6333C7.91171 21.5222 7.28394 21.2055 6.78394 20.6833C6.28394 20.1611 5.97838 19.5333 5.86727 18.8C5.02282 18.6888 4.33394 18.3222 3.8006 17.7C3.26727 17.0777 3.0006 16.3444 3.0006 15.5C3.0006 15.0555 3.08394 14.6277 3.2506 14.2166C3.41727 13.8055 3.65616 13.4444 3.96727 13.1333L9.8006 7.29996C10.3117 6.78885 10.9395 6.53329 11.6839 6.53329C12.4284 6.53329 13.0562 6.78885 13.5673 7.29996L16.0673 9.79996C16.1117 9.86663 16.1784 9.91663 16.2673 9.94996C16.3562 9.98329 16.445 9.99996 16.5339 9.99996C16.7339 9.99996 16.9006 9.93885 17.0339 9.81663C17.1673 9.6944 17.2339 9.53329 17.2339 9.33329C17.2339 9.2444 17.2173 9.15551 17.1839 9.06663C17.1506 8.97774 17.1006 8.91107 17.0339 8.86663L12.2673 4.09996C12.0228 3.83329 11.7395 3.63885 11.4173 3.51663C11.095 3.3944 10.7562 3.33329 10.4006 3.33329C10.0673 3.33329 9.73394 3.3944 9.4006 3.51663C9.06727 3.63885 8.76727 3.83329 8.5006 4.09996L3.8006 8.83329C3.48949 9.1444 3.26727 9.51107 3.13394 9.93329C3.0006 10.3555 2.96727 10.7777 3.03394 11.2C3.1006 11.5777 3.02282 11.9111 2.8006 12.2C2.57838 12.4888 2.27838 12.6555 1.9006 12.7C1.52282 12.7444 1.18949 12.6611 0.900603 12.45C0.611714 12.2388 0.445047 11.9444 0.400603 11.5666C0.267269 10.7222 0.32838 9.8944 0.583936 9.08329C0.839492 8.27218 1.27838 7.55551 1.9006 6.93329L6.6006 2.23329C7.13394 1.72218 7.72838 1.33329 8.38394 1.06663C9.03949 0.799959 9.71171 0.666626 10.4006 0.666626C11.0895 0.666626 11.7617 0.799959 12.4173 1.06663C13.0728 1.33329 13.6562 1.72218 14.1673 2.23329L14.5339 2.59996L14.9006 2.23329C15.4339 1.72218 16.0284 1.33329 16.6839 1.06663C17.3395 0.799959 18.0117 0.666626 18.7006 0.666626C19.3895 0.666626 20.0617 0.799959 20.7173 1.06663C21.3728 1.33329 21.9562 1.72218 22.4673 2.23329L28.1006 7.86663C28.6117 8.37774 29.0006 8.96663 29.2673 9.63329C29.5339 10.3 29.6673 10.9777 29.6673 11.6666C29.6673 12.3555 29.5339 13.0277 29.2673 13.6833C29.0006 14.3388 28.6117 14.9222 28.1006 15.4333L17.1673 26.3333C16.8562 26.6444 16.495 26.8888 16.0839 27.0666C15.6728 27.2444 15.245 27.3333 14.8006 27.3333Z" fill="white"/>
</svg>
