<svg width="42" height="42" viewBox="0 0 42 42" fill="none" xmlns="http://www.w3.org/2000/svg">
<rect width="42" height="42" rx="21" fill="#FEDF22"/>
<path d="M22.0286 11C23.1536 11.003 23.7246 11.009 24.2176 11.023L24.4116 11.03C24.6356 11.038 24.8566 11.048 25.1236 11.06C26.1876 11.11 26.9136 11.278 27.5506 11.525C28.2106 11.779 28.7666 12.123 29.3226 12.678C29.8311 13.1779 30.2245 13.7826 30.4756 14.45C30.7226 15.087 30.8906 15.813 30.9406 16.878C30.9526 17.144 30.9626 17.365 30.9706 17.59L30.9766 17.784C30.9916 18.276 30.9976 18.847 30.9996 19.972L31.0006 20.718V22.028C31.003 22.7574 30.9954 23.4868 30.9776 24.216L30.9716 24.41C30.9636 24.635 30.9536 24.856 30.9416 25.122C30.8916 26.187 30.7216 26.912 30.4756 27.55C30.2253 28.2178 29.8317 28.8226 29.3226 29.322C28.8225 29.8303 28.2179 30.2238 27.5506 30.475C26.9136 30.722 26.1876 30.89 25.1236 30.94C24.8863 30.9512 24.649 30.9612 24.4116 30.97L24.2176 30.976C23.7246 30.99 23.1536 30.997 22.0286 30.999L21.2826 31H19.9736C19.2438 31.0025 18.5141 30.9949 17.7846 30.977L17.5906 30.971C17.3532 30.962 17.1158 30.9517 16.8786 30.94C15.8146 30.89 15.0886 30.722 14.4506 30.475C13.7832 30.2244 13.1788 29.8308 12.6796 29.322C12.1706 28.8223 11.7768 28.2176 11.5256 27.55C11.2786 26.913 11.1106 26.187 11.0606 25.122C11.0494 24.8847 11.0394 24.6474 11.0306 24.41L11.0256 24.216C11.0071 23.4868 10.9988 22.7574 11.0006 22.028V19.972C10.9978 19.2426 11.0051 18.5132 11.0226 17.784L11.0296 17.59C11.0376 17.365 11.0476 17.144 11.0596 16.878C11.1096 15.813 11.2776 15.088 11.5246 14.45C11.7757 13.7819 12.1703 13.177 12.6806 12.678C13.1797 12.1695 13.7837 11.776 14.4506 11.525C15.0886 11.278 15.8136 11.11 16.8786 11.06C17.1446 11.048 17.3666 11.038 17.5906 11.03L17.7846 11.024C18.5138 11.0062 19.2432 10.9986 19.9726 11.001L22.0286 11ZM21.0006 16C19.6745 16 18.4027 16.5268 17.465 17.4645C16.5274 18.4021 16.0006 19.6739 16.0006 21C16.0006 22.3261 16.5274 23.5979 17.465 24.5355C18.4027 25.4732 19.6745 26 21.0006 26C22.3267 26 23.5984 25.4732 24.5361 24.5355C25.4738 23.5979 26.0006 22.3261 26.0006 21C26.0006 19.6739 25.4738 18.4021 24.5361 17.4645C23.5984 16.5268 22.3267 16 21.0006 16ZM21.0006 18C21.3945 17.9999 21.7847 18.0775 22.1487 18.2282C22.5127 18.3789 22.8434 18.5998 23.122 18.8783C23.4007 19.1569 23.6217 19.4875 23.7725 19.8515C23.9233 20.2154 24.001 20.6055 24.0011 20.9995C24.0011 21.3935 23.9236 21.7836 23.7729 22.1476C23.6222 22.5116 23.4013 22.8423 23.1228 23.121C22.8442 23.3996 22.5135 23.6206 22.1496 23.7714C21.7856 23.9223 21.3955 23.9999 21.0016 24C20.2059 24 19.4429 23.6839 18.8803 23.1213C18.3176 22.5587 18.0016 21.7956 18.0016 21C18.0016 20.2044 18.3176 19.4413 18.8803 18.8787C19.4429 18.3161 20.2059 18 21.0016 18M26.2516 14.5C25.9201 14.5 25.6021 14.6317 25.3677 14.8661C25.1333 15.1005 25.0016 15.4185 25.0016 15.75C25.0016 16.0815 25.1333 16.3995 25.3677 16.6339C25.6021 16.8683 25.9201 17 26.2516 17C26.5831 17 26.901 16.8683 27.1355 16.6339C27.3699 16.3995 27.5016 16.0815 27.5016 15.75C27.5016 15.4185 27.3699 15.1005 27.1355 14.8661C26.901 14.6317 26.5831 14.5 26.2516 14.5Z" fill="black"/>
</svg>
