<svg width="25" height="25" viewBox="0 0 25 25" fill="none" xmlns="http://www.w3.org/2000/svg">
<path d="M13.4836 0.74707C14.8335 0.75067 15.5187 0.75787 16.1103 0.774669L16.3431 0.783068C16.6119 0.792668 16.877 0.804667 17.1974 0.819067C18.4742 0.879063 19.3453 1.08065 20.1097 1.37704C20.9016 1.68182 21.5688 2.0946 22.236 2.76057C22.8461 3.36041 23.3183 4.08601 23.6195 4.88686C23.9159 5.65122 24.1175 6.52237 24.1775 7.80031C24.1919 8.11949 24.2039 8.38468 24.2135 8.65467L24.2207 8.88745C24.2387 9.47782 24.2459 10.163 24.2483 11.5129L24.2495 12.4081V13.98C24.2524 14.8552 24.2432 15.7305 24.2219 16.6055L24.2147 16.8382C24.2051 17.1082 24.1931 17.3734 24.1787 17.6926C24.1187 18.9705 23.9147 19.8405 23.6195 20.6061C23.3191 21.4073 22.8469 22.1331 22.236 22.7323C21.636 23.3423 20.9104 23.8144 20.1097 24.1159C19.3453 24.4123 18.4742 24.6138 17.1974 24.6738C16.9127 24.6873 16.6279 24.6992 16.3431 24.7098L16.1103 24.717C15.5187 24.7338 14.8335 24.7422 13.4836 24.7446L12.5885 24.7458H11.0177C10.1421 24.7489 9.26646 24.7397 8.39108 24.7182L8.15829 24.711C7.87343 24.7003 7.58864 24.6879 7.30393 24.6738C6.0272 24.6138 5.15604 24.4123 4.39048 24.1159C3.58972 23.8151 2.86442 23.3429 2.26539 22.7323C1.65467 22.1327 1.18211 21.4071 0.88066 20.6061C0.584275 19.8417 0.382686 18.9705 0.322689 17.6926C0.30932 17.4079 0.29732 17.1231 0.28669 16.8382L0.280691 16.6055C0.258579 15.7305 0.248578 14.8552 0.250692 13.98V11.5129C0.247343 10.6377 0.256144 9.76244 0.277091 8.88745L0.285491 8.65467C0.29509 8.38468 0.307089 8.11949 0.321489 7.80031C0.381486 6.52237 0.583075 5.65242 0.87946 4.88686C1.18078 4.08518 1.65428 3.35936 2.26659 2.76057C2.86547 2.15037 3.59029 1.67821 4.39048 1.37704C5.15604 1.08065 6.026 0.879063 7.30393 0.819067C7.62311 0.804667 7.8895 0.792668 8.15829 0.783068L8.39108 0.775869C9.26606 0.754549 10.1413 0.745349 11.0165 0.74827L13.4836 0.74707ZM12.2501 6.74676C10.6589 6.74676 9.13281 7.37887 8.00765 8.50403C6.88249 9.62919 6.25039 11.1552 6.25039 12.7465C6.25039 14.3377 6.88249 15.8637 8.00765 16.9889C9.13281 18.114 10.6589 18.7461 12.2501 18.7461C13.8413 18.7461 15.3673 18.114 16.4925 16.9889C17.6177 15.8637 18.2498 14.3377 18.2498 12.7465C18.2498 11.1552 17.6177 9.62919 16.4925 8.50403C15.3673 7.37887 13.8413 6.74676 12.2501 6.74676ZM12.2501 9.14664C12.7228 9.14656 13.1909 9.2396 13.6277 9.42043C14.0645 9.60127 14.4614 9.86636 14.7957 10.2006C15.13 10.5348 15.3953 10.9316 15.5762 11.3683C15.7572 11.805 15.8504 12.2731 15.8505 12.7459C15.8506 13.2186 15.7575 13.6867 15.5767 14.1235C15.3959 14.5603 15.1308 14.9572 14.7966 15.2915C14.4623 15.6258 14.0655 15.891 13.6288 16.072C13.1921 16.253 12.724 16.3462 12.2513 16.3463C11.2965 16.3463 10.3809 15.967 9.70582 15.2919C9.03073 14.6168 8.65146 13.7012 8.65146 12.7465C8.65146 11.7917 9.03073 10.8761 9.70582 10.201C10.3809 9.5259 11.2965 9.14664 12.2513 9.14664M18.551 4.94686C18.1531 4.94686 17.7716 5.10488 17.4903 5.38617C17.2091 5.66746 17.051 6.04897 17.051 6.44678C17.051 6.84458 17.2091 7.22609 17.4903 7.50738C17.7716 7.78867 18.1531 7.9467 18.551 7.9467C18.9488 7.9467 19.3303 7.78867 19.6116 7.50738C19.8929 7.22609 20.0509 6.84458 20.0509 6.44678C20.0509 6.04897 19.8929 5.66746 19.6116 5.38617C19.3303 5.10488 18.9488 4.94686 18.551 4.94686Z" fill="white"/>
</svg>
