<svg width="24" height="25" viewBox="0 0 24 25" fill="none" xmlns="http://www.w3.org/2000/svg">
<path d="M21.3333 0.970215C22.0406 0.970215 22.7189 1.25117 23.219 1.75126C23.719 2.25136 24 2.92964 24 3.63688V22.3035C24 23.0108 23.719 23.6891 23.219 24.1892C22.7189 24.6893 22.0406 24.9702 21.3333 24.9702H2.66667C1.95942 24.9702 1.28115 24.6893 0.781048 24.1892C0.280951 23.6891 0 23.0108 0 22.3035V3.63688C0 2.92964 0.280951 2.25136 0.781048 1.75126C1.28115 1.25117 1.95942 0.970215 2.66667 0.970215H21.3333ZM20.6667 21.6369V14.5702C20.6667 13.4174 20.2087 12.3118 19.3936 11.4967C18.5784 10.6815 17.4728 10.2235 16.32 10.2235C15.1867 10.2235 13.8667 10.9169 13.2267 11.9569V10.4769H9.50667V21.6369H13.2267V15.0635C13.2267 14.0369 14.0533 13.1969 15.08 13.1969C15.5751 13.1969 16.0499 13.3935 16.3999 13.7436C16.75 14.0937 16.9467 14.5685 16.9467 15.0635V21.6369H20.6667ZM5.17333 8.38355C5.76742 8.38355 6.33717 8.14755 6.75725 7.72747C7.17733 7.30739 7.41333 6.73763 7.41333 6.14355C7.41333 4.90355 6.41333 3.89022 5.17333 3.89022C4.57571 3.89022 4.00257 4.12762 3.57999 4.5502C3.1574 4.97278 2.92 5.54593 2.92 6.14355C2.92 7.38355 3.93333 8.38355 5.17333 8.38355ZM7.02667 21.6369V10.4769H3.33333V21.6369H7.02667Z" fill="white"/>
</svg>
