<svg width="42" height="42" viewBox="0 0 42 42" fill="none" xmlns="http://www.w3.org/2000/svg">
<rect width="42" height="42" rx="21" fill="#FEDF22"/>
<g clip-path="url(#clip0_425_1580)">
<g clip-path="url(#clip1_425_1580)">
<path d="M11.3992 12.7751C11.3992 12.0155 12.0304 11.3999 12.8092 11.3999H29.1892C29.968 11.3999 30.5992 12.0155 30.5992 12.7751V29.2247C30.5992 29.9843 29.968 30.5999 29.1892 30.5999H12.8092C12.0304 30.5999 11.3992 29.9843 11.3992 29.2247V12.7751ZM15.8902 27.4727C16.6858 27.4727 17.3308 26.8277 17.3308 26.0321V20.2433C17.3308 19.4477 16.6858 18.8027 15.8902 18.8027C15.0945 18.8027 14.4496 19.4477 14.4496 20.2433V26.0321C14.4496 26.8277 15.0945 27.4727 15.8902 27.4727ZM15.8908 17.6183C16.8952 17.6183 17.5204 16.9535 17.5204 16.1207C17.5024 15.2699 16.8964 14.6231 15.91 14.6231C14.9236 14.6231 14.2792 15.2711 14.2792 16.1207C14.2792 16.9535 14.9044 17.6183 15.8716 17.6183H15.8908ZM20.3437 27.4727C21.1371 27.4727 21.7804 26.8295 21.7804 26.036V22.6307C21.7804 22.3715 21.7996 22.1123 21.8764 21.9275C22.084 21.4103 22.558 20.8739 23.3548 20.8739C24.3976 20.8739 24.814 21.6683 24.814 22.8347V26.0321C24.814 26.8277 25.4589 27.4727 26.2546 27.4727C27.0502 27.4727 27.6952 26.8277 27.6952 26.0321V22.4999C27.6952 19.8359 26.2744 18.5975 24.3784 18.5975C22.8496 18.5975 22.1644 19.4375 21.7804 20.0291V20.0523C21.7804 20.0561 21.7773 20.0591 21.7736 20.0591C21.7682 20.0591 21.765 20.0532 21.7679 20.0487L21.7804 20.0291C21.7804 19.3518 21.2313 18.8027 20.554 18.8027H20.3722C19.5701 18.8027 18.9128 19.4702 18.915 20.2724C18.9195 21.8983 18.912 24.4434 18.9062 26.0318C18.9033 26.8279 19.5476 27.4727 20.3437 27.4727Z" fill="#2D2323"/>
</g>
</g>
<defs>
<clipPath id="clip0_425_1580">
<rect width="24" height="24" fill="white" transform="translate(9 9)"/>
</clipPath>
<clipPath id="clip1_425_1580">
<rect width="19.2" height="19.2" fill="white" transform="translate(11.3999 11.3999)"/>
</clipPath>
</defs>
</svg>
