<svg width="121" height="26" viewBox="0 0 121 26" fill="none" xmlns="http://www.w3.org/2000/svg">
<g clip-path="url(#clip0_247_5614)">
<path d="M16.3794 19.3974C14.8612 20.8972 12.8546 21.0983 11.783 21.0983C10.1755 21.0676 4.94555 20.4559 4.94555 13.9371C4.94555 10.1833 7.45725 7.84833 11.529 7.84833C14.5989 7.84833 18.2548 8.91246 18.2548 13.9762C18.2548 16.3502 17.6241 18.1657 16.3794 19.4085V19.3974ZM23.3396 13.9622C23.3396 7.32045 18.7599 3.0332 11.6713 3.0332C8.00983 3.0332 4.97346 4.13364 2.90828 6.21722C0.988217 8.15277 -0.0192567 10.8312 0.000278798 13.9622C0.000278798 22.8076 6.02837 25.9721 11.6713 25.9721C13.3626 25.9721 16.5971 25.6648 19.2706 23.6064C21.9442 21.548 23.3396 18.2774 23.3396 13.9622Z" fill="black"/>
<path d="M36.8159 12.5099L37.1089 12.5574L37.307 7.25073H37.028C34.417 7.25347 31.8835 8.1393 29.8389 9.76443L29.2808 7.46859H25.1504V25.8297H29.9505V12.482C30.9048 12.2643 31.8831 12.1704 32.8613 12.2027C34.1844 12.2134 35.505 12.3189 36.8131 12.5183L36.8159 12.5099Z" fill="black"/>
<path d="M46.8378 12.0489C48.173 12.0492 49.5056 12.1669 50.8202 12.4008V20.5871C49.5776 20.9896 48.2853 21.218 46.9801 21.2658C45.7215 21.2658 44.8954 20.9865 44.2954 20.3776C43.5754 19.6515 43.2349 18.4644 43.2488 16.7467C43.2488 13.7191 44.5242 12.0489 46.8406 12.0489H46.8378ZM45.6964 25.9971C47.9541 25.9971 49.7625 25.4553 51.0854 24.3772L51.2361 25.8212H55.6176V3.80678L55.7348 1.03613H50.8147V7.97114C49.307 7.49786 47.737 7.25309 46.1568 7.24496C38.6803 7.24496 38.3008 15.2776 38.3008 16.892C38.3008 22.5953 41.0637 25.9999 45.6908 25.9999L45.6964 25.9971Z" fill="black"/>
<path d="M62.3889 12.4818C63.3431 12.2641 64.3214 12.1703 65.2997 12.2025C66.6227 12.2136 67.9433 12.3191 69.2514 12.5181L69.5444 12.5684L69.7426 7.26172H69.4635C66.8523 7.26314 64.3184 8.14912 62.2745 9.77542L61.7163 7.47678H57.5859V25.8184H62.3861V12.4818H62.3889Z" fill="black"/>
<path d="M74.081 5.69492C75.7945 5.69492 76.9443 4.5442 76.9443 2.8293C76.9443 1.1144 75.7917 0 74.081 0C72.3702 0 71.2539 1.16189 71.2539 2.8293C71.2539 4.49672 72.387 5.69492 74.081 5.69492Z" fill="black"/>
<path d="M71.5723 25.8212H76.3696V10.2223L76.4896 7.45728H71.5723V25.8212Z" fill="black"/>
<path d="M92.3331 19.8359C91.4651 20.6962 90.1563 21.1487 88.5795 21.1207C84.7142 21.0788 82.9979 19.5539 82.9979 16.1743C82.9979 13.6355 84.9682 12.1189 88.2641 12.1189C91.56 12.1189 93.6168 13.5992 93.6168 16.1743C93.6168 17.7468 93.1898 18.9897 92.3331 19.8359ZM88.292 7.31494C84.9431 7.31494 82.2137 8.2869 80.3885 10.1303C78.8396 11.6916 78.0331 13.7947 78.0471 16.2106C78.0471 23.3998 83.3495 25.9638 88.292 25.9638C93.2345 25.9638 98.5733 23.4026 98.5733 16.2106C98.5733 10.8062 94.5378 7.31494 88.292 7.31494Z" fill="black"/>
<path d="M120.998 4.25099C120.991 4.14386 120.963 4.03915 120.915 3.94316C120.867 3.84716 120.8 3.76186 120.719 3.69239L117.85 1.22059C117.77 1.1515 117.677 1.09891 117.577 1.06585C117.476 1.03279 117.37 1.01991 117.265 1.02796C117.16 1.03601 117.057 1.06482 116.963 1.11274C116.869 1.16066 116.785 1.22674 116.717 1.30717L107.822 11.6413L103.162 7.23112C103.085 7.15819 102.995 7.10111 102.897 7.06316C102.798 7.02522 102.693 7.00715 102.587 7.01001C102.482 7.01286 102.378 7.03658 102.282 7.0798C102.185 7.12302 102.098 7.18489 102.026 7.26184L99.4249 10.0157C99.3525 10.0922 99.2958 10.1822 99.2581 10.2805C99.2204 10.3789 99.2025 10.4838 99.2054 10.5891C99.2082 10.6944 99.2318 10.7981 99.2747 10.8943C99.3177 10.9905 99.3791 11.0773 99.4556 11.1497L104.672 16.0905C105.532 16.9184 106.679 17.3817 107.873 17.3837C107.954 17.3837 108.032 17.3837 108.113 17.3837C108.744 17.3516 109.361 17.1906 109.928 16.9105C110.494 16.6305 110.997 16.2374 111.406 15.7553L120.805 4.82635C120.943 4.66452 121.011 4.45465 120.995 4.24261L120.998 4.25099Z" fill="#FEDF22"/>
</g>
<defs>
<clipPath id="clip0_247_5614">
<rect width="121" height="26" fill="white"/>
</clipPath>
</defs>
</svg>
