<svg width="25" height="20" viewBox="0 0 25 20" fill="none" xmlns="http://www.w3.org/2000/svg">
<path d="M2.525 19.2C1.865 19.2 1.3 18.965 0.83 18.495C0.36 18.025 0.125 17.46 0.125 16.8V2.4C0.125 1.74 0.36 1.175 0.83 0.705C1.3 0.235 1.865 0 2.525 0H21.725C22.385 0 22.95 0.235 23.42 0.705C23.89 1.175 24.125 1.74 24.125 2.4V16.8C24.125 17.46 23.89 18.025 23.42 18.495C22.95 18.965 22.385 19.2 21.725 19.2H2.525ZM12.125 10.59C12.225 10.59 12.33 10.575 12.44 10.545C12.55 10.515 12.655 10.47 12.755 10.41L21.245 5.1C21.405 5 21.525 4.875 21.605 4.725C21.685 4.575 21.725 4.41 21.725 4.23C21.725 3.83 21.555 3.53 21.215 3.33C20.875 3.13 20.525 3.14 20.165 3.36L12.125 8.4L4.085 3.36C3.725 3.14 3.375 3.135 3.035 3.345C2.695 3.555 2.525 3.85 2.525 4.23C2.525 4.43 2.565 4.605 2.645 4.755C2.725 4.905 2.845 5.02 3.005 5.1L11.495 10.41C11.595 10.47 11.7 10.515 11.81 10.545C11.92 10.575 12.025 10.59 12.125 10.59Z" fill="white"/>
</svg>
