<svg width="28" height="25" viewBox="0 0 28 25" fill="none" xmlns="http://www.w3.org/2000/svg">
<path d="M4.6993 24.5C3.96597 24.5 3.33819 24.2389 2.81597 23.7167C2.29375 23.1944 2.03264 22.5667 2.03264 21.8333V11.2333C1.52153 10.7667 1.12708 10.1667 0.849304 9.43333C0.571526 8.7 0.56597 7.9 0.832637 7.03333L2.23264 2.5C2.41042 1.92222 2.72708 1.44444 3.18264 1.06667C3.63819 0.688889 4.16597 0.5 4.76597 0.5H23.2993C23.8993 0.5 24.4215 0.683333 24.866 1.05C25.3104 1.41667 25.6326 1.9 25.8326 2.5L27.2326 7.03333C27.4993 7.9 27.4937 8.68889 27.216 9.4C26.9382 10.1111 26.5438 10.7222 26.0326 11.2333V21.8333C26.0326 22.5667 25.7715 23.1944 25.2493 23.7167C24.7271 24.2389 24.0993 24.5 23.366 24.5H4.6993ZM16.966 9.83333C17.566 9.83333 18.0215 9.62778 18.3326 9.21667C18.6437 8.80556 18.766 8.34444 18.6993 7.83333L17.966 3.16667H15.366V8.1C15.366 8.56667 15.5215 8.97222 15.8326 9.31667C16.1437 9.66111 16.5215 9.83333 16.966 9.83333ZM10.966 9.83333C11.4771 9.83333 11.8937 9.66111 12.216 9.31667C12.5382 8.97222 12.6993 8.56667 12.6993 8.1V3.16667H10.0993L9.36597 7.83333C9.27708 8.36667 9.39375 8.83333 9.71597 9.23333C10.0382 9.63333 10.4549 9.83333 10.966 9.83333ZM5.03264 9.83333C5.43264 9.83333 5.78264 9.68889 6.08264 9.4C6.38264 9.11111 6.56597 8.74444 6.63264 8.3L7.36597 3.16667H4.76597L3.43264 7.63333C3.2993 8.07778 3.37153 8.55556 3.6493 9.06667C3.92708 9.57778 4.38819 9.83333 5.03264 9.83333ZM23.0326 9.83333C23.6771 9.83333 24.1437 9.57778 24.4326 9.06667C24.7215 8.55556 24.7882 8.07778 24.6326 7.63333L23.2326 3.16667H20.6993L21.4326 8.3C21.4993 8.74444 21.6826 9.11111 21.9826 9.4C22.2826 9.68889 22.6326 9.83333 23.0326 9.83333ZM4.6993 21.8333H23.366V12.4333C23.2549 12.4778 23.1826 12.5 23.1493 12.5H23.0326C22.4326 12.5 21.9049 12.4 21.4493 12.2C20.9937 12 20.5437 11.6778 20.0993 11.2333C19.6993 11.6333 19.2437 11.9444 18.7326 12.1667C18.2215 12.3889 17.6771 12.5 17.0993 12.5C16.4993 12.5 15.9382 12.3889 15.416 12.1667C14.8937 11.9444 14.4326 11.6333 14.0326 11.2333C13.6549 11.6333 13.216 11.9444 12.716 12.1667C12.216 12.3889 11.6771 12.5 11.0993 12.5C10.4549 12.5 9.87153 12.3889 9.3493 12.1667C8.82708 11.9444 8.36597 11.6333 7.96597 11.2333C7.4993 11.7 7.03819 12.0278 6.58264 12.2167C6.12708 12.4056 5.61041 12.5 5.03264 12.5H4.88264C4.82708 12.5 4.76597 12.4778 4.6993 12.4333V21.8333Z" fill="white"/>
</svg>
