<svg width="65" height="65" viewBox="0 0 65 65" fill="none" xmlns="http://www.w3.org/2000/svg">
<rect x="0.5" y="0.5" width="64" height="64" rx="32" fill="#3355FF"/>
<path d="M23.1993 44.5C22.466 44.5 21.8382 44.2389 21.316 43.7167C20.7937 43.1944 20.5326 42.5667 20.5326 41.8333V31.2333C20.0215 30.7667 19.6271 30.1667 19.3493 29.4333C19.0715 28.7 19.066 27.9 19.3326 27.0333L20.7326 22.5C20.9104 21.9222 21.2271 21.4444 21.6826 21.0667C22.1382 20.6889 22.666 20.5 23.266 20.5H41.7993C42.3993 20.5 42.9215 20.6833 43.366 21.05C43.8104 21.4167 44.1326 21.9 44.3326 22.5L45.7326 27.0333C45.9993 27.9 45.9937 28.6889 45.716 29.4C45.4382 30.1111 45.0438 30.7222 44.5326 31.2333V41.8333C44.5326 42.5667 44.2715 43.1944 43.7493 43.7167C43.2271 44.2389 42.5993 44.5 41.866 44.5H23.1993ZM35.466 29.8333C36.066 29.8333 36.5215 29.6278 36.8326 29.2167C37.1437 28.8056 37.266 28.3444 37.1993 27.8333L36.466 23.1667H33.866V28.1C33.866 28.5667 34.0215 28.9722 34.3326 29.3167C34.6437 29.6611 35.0215 29.8333 35.466 29.8333ZM29.466 29.8333C29.9771 29.8333 30.3937 29.6611 30.716 29.3167C31.0382 28.9722 31.1993 28.5667 31.1993 28.1V23.1667H28.5993L27.866 27.8333C27.7771 28.3667 27.8937 28.8333 28.216 29.2333C28.5382 29.6333 28.9549 29.8333 29.466 29.8333ZM23.5326 29.8333C23.9326 29.8333 24.2826 29.6889 24.5826 29.4C24.8826 29.1111 25.066 28.7444 25.1326 28.3L25.866 23.1667H23.266L21.9326 27.6333C21.7993 28.0778 21.8715 28.5556 22.1493 29.0667C22.4271 29.5778 22.8882 29.8333 23.5326 29.8333ZM41.5326 29.8333C42.1771 29.8333 42.6437 29.5778 42.9326 29.0667C43.2215 28.5556 43.2882 28.0778 43.1326 27.6333L41.7326 23.1667H39.1993L39.9326 28.3C39.9993 28.7444 40.1826 29.1111 40.4826 29.4C40.7826 29.6889 41.1326 29.8333 41.5326 29.8333ZM23.1993 41.8333H41.866V32.4333C41.7549 32.4778 41.6826 32.5 41.6493 32.5H41.5326C40.9326 32.5 40.4049 32.4 39.9493 32.2C39.4937 32 39.0437 31.6778 38.5993 31.2333C38.1993 31.6333 37.7437 31.9444 37.2326 32.1667C36.7215 32.3889 36.1771 32.5 35.5993 32.5C34.9993 32.5 34.4382 32.3889 33.916 32.1667C33.3937 31.9444 32.9326 31.6333 32.5326 31.2333C32.1549 31.6333 31.716 31.9444 31.216 32.1667C30.716 32.3889 30.1771 32.5 29.5993 32.5C28.9549 32.5 28.3715 32.3889 27.8493 32.1667C27.3271 31.9444 26.866 31.6333 26.466 31.2333C25.9993 31.7 25.5382 32.0278 25.0826 32.2167C24.6271 32.4056 24.1104 32.5 23.5326 32.5H23.3826C23.3271 32.5 23.266 32.4778 23.1993 32.4333V41.8333Z" fill="white"/>
</svg>
