<svg width="51" height="50" viewBox="0 0 51 50" fill="none" xmlns="http://www.w3.org/2000/svg">
<rect x="0.75" width="50" height="50" rx="25" fill="#FEDF22"/>
<path d="M18.7492 17H32.7492C33.0326 17 33.2701 17.0958 33.4617 17.2875C33.6534 17.4792 33.7492 17.7167 33.7492 18C33.7492 18.2833 33.6534 18.5208 33.4617 18.7125C33.2701 18.9042 33.0326 19 32.7492 19H18.7492C18.4659 19 18.2284 18.9042 18.0367 18.7125C17.8451 18.5208 17.7492 18.2833 17.7492 18C17.7492 17.7167 17.8451 17.4792 18.0367 17.2875C18.2284 17.0958 18.4659 17 18.7492 17ZM18.7492 33C18.4659 33 18.2284 32.9042 18.0367 32.7125C17.8451 32.5208 17.7492 32.2833 17.7492 32V27H17.5742C17.2576 27 16.9992 26.8792 16.7992 26.6375C16.5992 26.3958 16.5326 26.1167 16.5992 25.8L17.5992 20.8C17.6492 20.5667 17.7659 20.375 17.9492 20.225C18.1326 20.075 18.3409 20 18.5742 20H32.9242C33.1576 20 33.3659 20.075 33.5492 20.225C33.7326 20.375 33.8492 20.5667 33.8992 20.8L34.8992 25.8C34.9659 26.1167 34.8992 26.3958 34.6992 26.6375C34.4992 26.8792 34.2409 27 33.9242 27H33.7492V32C33.7492 32.2833 33.6534 32.5208 33.4617 32.7125C33.2701 32.9042 33.0326 33 32.7492 33C32.4659 33 32.2284 32.9042 32.0367 32.7125C31.8451 32.5208 31.7492 32.2833 31.7492 32V27H27.7492V32C27.7492 32.2833 27.6534 32.5208 27.4617 32.7125C27.2701 32.9042 27.0326 33 26.7492 33H18.7492ZM19.7492 31H25.7492V27H19.7492V31ZM18.7992 25H32.6992L32.0992 22H19.3992L18.7992 25Z" fill="#2D2323"/>
</svg>
