<svg width="19" height="19" viewBox="0 0 19 19" fill="none" xmlns="http://www.w3.org/2000/svg">
<path d="M3.625 15.5C3.2125 15.5 2.85938 15.3531 2.56563 15.0594C2.27187 14.7656 2.125 14.4125 2.125 14V5C2.125 4.5875 2.27187 4.23438 2.56563 3.94063C2.85938 3.64687 3.2125 3.5 3.625 3.5H15.625C16.0375 3.5 16.3906 3.64687 16.6844 3.94063C16.9781 4.23438 17.125 4.5875 17.125 5V14C17.125 14.4125 16.9781 14.7656 16.6844 15.0594C16.3906 15.3531 16.0375 15.5 15.625 15.5H3.625ZM9.625 10.1188C9.6875 10.1188 9.75313 10.1094 9.82188 10.0906C9.89063 10.0719 9.95625 10.0438 10.0188 10.0063L15.325 6.6875C15.425 6.625 15.5 6.54688 15.55 6.45312C15.6 6.35938 15.625 6.25625 15.625 6.14375C15.625 5.89375 15.5188 5.70625 15.3063 5.58125C15.0938 5.45625 14.875 5.4625 14.65 5.6L9.625 8.75L4.6 5.6C4.375 5.4625 4.15625 5.45938 3.94375 5.59063C3.73125 5.72188 3.625 5.90625 3.625 6.14375C3.625 6.26875 3.65 6.37813 3.7 6.47188C3.75 6.56563 3.825 6.6375 3.925 6.6875L9.23125 10.0063C9.29375 10.0438 9.35938 10.0719 9.42813 10.0906C9.49688 10.1094 9.5625 10.1188 9.625 10.1188Z" fill="inherit"/>
</svg>
