<svg width="20" height="30" viewBox="0 0 20 30" fill="none" xmlns="http://www.w3.org/2000/svg">
<path d="M3.33073 29.6667C2.5974 29.6667 1.96962 29.4056 1.4474 28.8834C0.925174 28.3612 0.664062 27.7334 0.664062 27V3.00004C0.664062 2.26671 0.925174 1.63893 1.4474 1.11671C1.96962 0.594485 2.5974 0.333374 3.33073 0.333374H16.6641C17.3974 0.333374 18.0252 0.594485 18.5474 1.11671C19.0696 1.63893 19.3307 2.26671 19.3307 3.00004V27C19.3307 27.7334 19.0696 28.3612 18.5474 28.8834C18.0252 29.4056 17.3974 29.6667 16.6641 29.6667H3.33073ZM3.33073 23V27H16.6641V23H3.33073ZM9.9974 26.3334C10.3752 26.3334 10.6918 26.2056 10.9474 25.95C11.203 25.6945 11.3307 25.3778 11.3307 25C11.3307 24.6223 11.203 24.3056 10.9474 24.05C10.6918 23.7945 10.3752 23.6667 9.9974 23.6667C9.61962 23.6667 9.30295 23.7945 9.0474 24.05C8.79184 24.3056 8.66406 24.6223 8.66406 25C8.66406 25.3778 8.79184 25.6945 9.0474 25.95C9.30295 26.2056 9.61962 26.3334 9.9974 26.3334ZM3.33073 20.3334H16.6641V7.00004H3.33073V20.3334ZM3.33073 4.33337H16.6641V3.00004H3.33073V4.33337Z" fill="white"/>
</svg>
