<svg width="65" height="65" viewBox="0 0 65 65" fill="none" xmlns="http://www.w3.org/2000/svg">
<rect x="0.5" y="0.5" width="64" height="64" rx="32" fill="#3355FF"/>
<path d="M28 34.25V34.75C28 34.9667 28.0708 35.1458 28.2125 35.2875C28.3542 35.4292 28.5333 35.5 28.75 35.5C28.9667 35.5 29.1458 35.4292 29.2875 35.2875C29.4292 35.1458 29.5 34.9667 29.5 34.75V32.25C29.5 32.0333 29.4292 31.8542 29.2875 31.7125C29.1458 31.5708 28.9667 31.5 28.75 31.5C28.5333 31.5 28.3542 31.5708 28.2125 31.7125C28.0708 31.8542 28 32.0333 28 32.25V32.75H27.25C27.0333 32.75 26.8542 32.8208 26.7125 32.9625C26.5708 33.1042 26.5 33.2833 26.5 33.5C26.5 33.7167 26.5708 33.8958 26.7125 34.0375C26.8542 34.1792 27.0333 34.25 27.25 34.25H28ZM31.25 34.25H37.75C37.9667 34.25 38.1458 34.1792 38.2875 34.0375C38.4292 33.8958 38.5 33.7167 38.5 33.5C38.5 33.2833 38.4292 33.1042 38.2875 32.9625C38.1458 32.8208 37.9667 32.75 37.75 32.75H31.25C31.0333 32.75 30.8542 32.8208 30.7125 32.9625C30.5708 33.1042 30.5 33.2833 30.5 33.5C30.5 33.7167 30.5708 33.8958 30.7125 34.0375C30.8542 34.1792 31.0333 34.25 31.25 34.25ZM37 30.25H37.75C37.9667 30.25 38.1458 30.1792 38.2875 30.0375C38.4292 29.8958 38.5 29.7167 38.5 29.5C38.5 29.2833 38.4292 29.1042 38.2875 28.9625C38.1458 28.8208 37.9667 28.75 37.75 28.75H37V28.25C37 28.0333 36.9292 27.8542 36.7875 27.7125C36.6458 27.5708 36.4667 27.5 36.25 27.5C36.0333 27.5 35.8542 27.5708 35.7125 27.7125C35.5708 27.8542 35.5 28.0333 35.5 28.25V30.75C35.5 30.9667 35.5708 31.1458 35.7125 31.2875C35.8542 31.4292 36.0333 31.5 36.25 31.5C36.4667 31.5 36.6458 31.4292 36.7875 31.2875C36.9292 31.1458 37 30.9667 37 30.75V30.25ZM27.25 30.25H33.75C33.9667 30.25 34.1458 30.1792 34.2875 30.0375C34.4292 29.8958 34.5 29.7167 34.5 29.5C34.5 29.2833 34.4292 29.1042 34.2875 28.9625C34.1458 28.8208 33.9667 28.75 33.75 28.75H27.25C27.0333 28.75 26.8542 28.8208 26.7125 28.9625C26.5708 29.1042 26.5 29.2833 26.5 29.5C26.5 29.7167 26.5708 29.8958 26.7125 30.0375C26.8542 30.1792 27.0333 30.25 27.25 30.25ZM24.5 39.5C23.95 39.5 23.4792 39.3042 23.0875 38.9125C22.6958 38.5208 22.5 38.05 22.5 37.5V25.5C22.5 24.95 22.6958 24.4792 23.0875 24.0875C23.4792 23.6958 23.95 23.5 24.5 23.5H40.5C41.05 23.5 41.5208 23.6958 41.9125 24.0875C42.3042 24.4792 42.5 24.95 42.5 25.5V37.5C42.5 38.05 42.3042 38.5208 41.9125 38.9125C41.5208 39.3042 41.05 39.5 40.5 39.5H36.5V40.5C36.5 40.7833 36.4042 41.0208 36.2125 41.2125C36.0208 41.4042 35.7833 41.5 35.5 41.5H29.5C29.2167 41.5 28.9792 41.4042 28.7875 41.2125C28.5958 41.0208 28.5 40.7833 28.5 40.5V39.5H24.5ZM24.5 37.5H40.5V25.5H24.5V37.5Z" fill="white"/>
</svg>
