<svg width="51" height="50" viewBox="0 0 51 50" fill="none" xmlns="http://www.w3.org/2000/svg">
<rect x="0.75" width="50" height="50" rx="25" fill="#FEDF22"/>
<path d="M27.75 26C26.9167 26 26.2083 25.7083 25.625 25.125C25.0417 24.5417 24.75 23.8333 24.75 23C24.75 22.1667 25.0417 21.4583 25.625 20.875C26.2083 20.2917 26.9167 20 27.75 20C28.5833 20 29.2917 20.2917 29.875 20.875C30.4583 21.4583 30.75 22.1667 30.75 23C30.75 23.8333 30.4583 24.5417 29.875 25.125C29.2917 25.7083 28.5833 26 27.75 26ZM20.75 29C20.2 29 19.7292 28.8042 19.3375 28.4125C18.9458 28.0208 18.75 27.55 18.75 27V19C18.75 18.45 18.9458 17.9792 19.3375 17.5875C19.7292 17.1958 20.2 17 20.75 17H34.75C35.3 17 35.7708 17.1958 36.1625 17.5875C36.5542 17.9792 36.75 18.45 36.75 19V27C36.75 27.55 36.5542 28.0208 36.1625 28.4125C35.7708 28.8042 35.3 29 34.75 29H20.75ZM22.75 27H32.75C32.75 26.45 32.9458 25.9792 33.3375 25.5875C33.7292 25.1958 34.2 25 34.75 25V21C34.2 21 33.7292 20.8042 33.3375 20.4125C32.9458 20.0208 32.75 19.55 32.75 19H22.75C22.75 19.55 22.5542 20.0208 22.1625 20.4125C21.7708 20.8042 21.3 21 20.75 21V25C21.3 25 21.7708 25.1958 22.1625 25.5875C22.5542 25.9792 22.75 26.45 22.75 27ZM32.75 33H16.75C16.2 33 15.7292 32.8042 15.3375 32.4125C14.9458 32.0208 14.75 31.55 14.75 31V21C14.75 20.7167 14.8458 20.4792 15.0375 20.2875C15.2292 20.0958 15.4667 20 15.75 20C16.0333 20 16.2708 20.0958 16.4625 20.2875C16.6542 20.4792 16.75 20.7167 16.75 21V31H32.75C33.0333 31 33.2708 31.0958 33.4625 31.2875C33.6542 31.4792 33.75 31.7167 33.75 32C33.75 32.2833 33.6542 32.5208 33.4625 32.7125C33.2708 32.9042 33.0333 33 32.75 33Z" fill="black"/>
</svg>
