<svg width="64" height="64" viewBox="0 0 64 64" fill="none" xmlns="http://www.w3.org/2000/svg">
<rect width="64" height="64" rx="32" fill="#3355FF"/>
<path d="M20.0013 29.3333H21.3346C21.7124 29.3333 22.0291 29.4611 22.2846 29.7167C22.5402 29.9722 22.668 30.2889 22.668 30.6667C22.668 31.0444 22.5402 31.3611 22.2846 31.6167C22.0291 31.8722 21.7124 32 21.3346 32H20.0013C19.6235 32 19.3069 31.8722 19.0513 31.6167C18.7957 31.3611 18.668 31.0444 18.668 30.6667C18.668 30.2889 18.7957 29.9722 19.0513 29.7167C19.3069 29.4611 19.6235 29.3333 20.0013 29.3333ZM22.268 36.5333L23.2013 35.6C23.468 35.3333 23.7791 35.2056 24.1346 35.2167C24.4902 35.2278 24.8013 35.3556 25.068 35.6C25.3346 35.8667 25.4735 36.1833 25.4846 36.55C25.4957 36.9167 25.368 37.2333 25.1013 37.5L24.168 38.4333C23.9013 38.7 23.5846 38.8278 23.218 38.8167C22.8513 38.8056 22.5346 38.6667 22.268 38.4C22.0235 38.1333 21.8957 37.8222 21.8846 37.4667C21.8735 37.1111 22.0013 36.8 22.268 36.5333ZM23.2013 25.7333L22.268 24.8C22.0013 24.5333 21.8735 24.2222 21.8846 23.8667C21.8957 23.5111 22.0235 23.2 22.268 22.9333C22.5346 22.6667 22.8513 22.5278 23.218 22.5167C23.5846 22.5056 23.9013 22.6333 24.168 22.9L25.1013 23.8333C25.368 24.1 25.4957 24.4167 25.4846 24.7833C25.4735 25.15 25.3346 25.4667 25.068 25.7333C24.8013 25.9778 24.4902 26.1056 24.1346 26.1167C23.7791 26.1278 23.468 26 23.2013 25.7333ZM39.068 41.7333L33.668 36.3333L32.668 39.3333C32.6235 39.4889 32.5402 39.6056 32.418 39.6833C32.2957 39.7611 32.168 39.8 32.0346 39.8C31.9013 39.8 31.7735 39.7556 31.6513 39.6667C31.5291 39.5778 31.4457 39.4556 31.4013 39.3L28.5346 29.7667C28.4902 29.5889 28.4957 29.4111 28.5513 29.2333C28.6069 29.0556 28.6902 28.9111 28.8013 28.8C28.9124 28.6889 29.0569 28.6056 29.2346 28.55C29.4124 28.4944 29.5902 28.4889 29.768 28.5333L39.368 31.4C39.5235 31.4444 39.6402 31.5278 39.718 31.65C39.7957 31.7722 39.8346 31.9 39.8346 32.0333C39.8346 32.1667 39.8013 32.2944 39.7346 32.4167C39.668 32.5389 39.5569 32.6222 39.4013 32.6667L36.4013 33.7333L41.7346 39.0667C42.0013 39.3333 42.1346 39.6444 42.1346 40C42.1346 40.3556 42.0013 40.6667 41.7346 40.9333L40.9346 41.7333C40.668 42 40.3569 42.1333 40.0013 42.1333C39.6457 42.1333 39.3346 42 39.068 41.7333ZM29.3346 22.6667V21.3333C29.3346 20.9556 29.4624 20.6389 29.718 20.3833C29.9735 20.1278 30.2902 20 30.668 20C31.0457 20 31.3624 20.1278 31.618 20.3833C31.8735 20.6389 32.0013 20.9556 32.0013 21.3333V22.6667C32.0013 23.0444 31.8735 23.3611 31.618 23.6167C31.3624 23.8722 31.0457 24 30.668 24C30.2902 24 29.9735 23.8722 29.718 23.6167C29.4624 23.3611 29.3346 23.0444 29.3346 22.6667ZM36.2346 23.8333L37.2013 22.8667C37.4457 22.6222 37.7513 22.4944 38.118 22.4833C38.4846 22.4722 38.8013 22.6 39.068 22.8667C39.3124 23.1111 39.4402 23.4167 39.4513 23.7833C39.4624 24.15 39.3457 24.4667 39.1013 24.7333L38.1346 25.7333C37.8902 26 37.5846 26.1278 37.218 26.1167C36.8513 26.1056 36.5346 25.9778 36.268 25.7333C36.0013 25.4667 35.8624 25.15 35.8513 24.7833C35.8402 24.4167 35.968 24.1 36.2346 23.8333Z" fill="white"/>
</svg>
