<svg width="30" height="22" viewBox="0 0 30 22" fill="none" xmlns="http://www.w3.org/2000/svg">
<path d="M17.6654 12.3333C16.5543 12.3333 15.6098 11.9444 14.832 11.1666C14.0543 10.3888 13.6654 9.44436 13.6654 8.33325C13.6654 7.22214 14.0543 6.2777 14.832 5.49992C15.6098 4.72214 16.5543 4.33325 17.6654 4.33325C18.7765 4.33325 19.7209 4.72214 20.4987 5.49992C21.2765 6.2777 21.6654 7.22214 21.6654 8.33325C21.6654 9.44436 21.2765 10.3888 20.4987 11.1666C19.7209 11.9444 18.7765 12.3333 17.6654 12.3333ZM8.33203 16.3333C7.5987 16.3333 6.97092 16.0721 6.4487 15.5499C5.92648 15.0277 5.66536 14.3999 5.66536 13.6666V2.99992C5.66536 2.26659 5.92648 1.63881 6.4487 1.11659C6.97092 0.594363 7.5987 0.333252 8.33203 0.333252H26.9987C27.732 0.333252 28.3598 0.594363 28.882 1.11659C29.4043 1.63881 29.6654 2.26659 29.6654 2.99992V13.6666C29.6654 14.3999 29.4043 15.0277 28.882 15.5499C28.3598 16.0721 27.732 16.3333 26.9987 16.3333H8.33203ZM10.9987 13.6666H24.332C24.332 12.9333 24.5931 12.3055 25.1154 11.7833C25.6376 11.261 26.2654 10.9999 26.9987 10.9999V5.66659C26.2654 5.66659 25.6376 5.40547 25.1154 4.88325C24.5931 4.36103 24.332 3.73325 24.332 2.99992H10.9987C10.9987 3.73325 10.7376 4.36103 10.2154 4.88325C9.69314 5.40547 9.06536 5.66659 8.33203 5.66659V10.9999C9.06536 10.9999 9.69314 11.261 10.2154 11.7833C10.7376 12.3055 10.9987 12.9333 10.9987 13.6666ZM24.332 21.6666H2.9987C2.26536 21.6666 1.63759 21.4055 1.11536 20.8833C0.593142 20.361 0.332031 19.7333 0.332031 18.9999V5.66659C0.332031 5.28881 0.459809 4.97214 0.715365 4.71659C0.97092 4.46103 1.28759 4.33325 1.66536 4.33325C2.04314 4.33325 2.35981 4.46103 2.61536 4.71659C2.87092 4.97214 2.9987 5.28881 2.9987 5.66659V18.9999H24.332C24.7098 18.9999 25.0265 19.1277 25.282 19.3833C25.5376 19.6388 25.6654 19.9555 25.6654 20.3333C25.6654 20.711 25.5376 21.0277 25.282 21.2833C25.0265 21.5388 24.7098 21.6666 24.332 21.6666Z" fill="white"/>
</svg>
