<svg width="64" height="65" viewBox="0 0 64 65" fill="none" xmlns="http://www.w3.org/2000/svg">
<rect y="0.5" width="64" height="64" rx="32" fill="#3355FF"/>
<path d="M25.3307 47.1667C24.5974 47.1667 23.9696 46.9056 23.4474 46.3834C22.9252 45.8612 22.6641 45.2334 22.6641 44.5V20.5C22.6641 19.7667 22.9252 19.1389 23.4474 18.6167C23.9696 18.0945 24.5974 17.8334 25.3307 17.8334H38.6641C39.3974 17.8334 40.0252 18.0945 40.5474 18.6167C41.0696 19.1389 41.3307 19.7667 41.3307 20.5V44.5C41.3307 45.2334 41.0696 45.8612 40.5474 46.3834C40.0252 46.9056 39.3974 47.1667 38.6641 47.1667H25.3307ZM25.3307 40.5V44.5H38.6641V40.5H25.3307ZM31.9974 43.8334C32.3752 43.8334 32.6918 43.7056 32.9474 43.45C33.203 43.1945 33.3307 42.8778 33.3307 42.5C33.3307 42.1223 33.203 41.8056 32.9474 41.55C32.6918 41.2945 32.3752 41.1667 31.9974 41.1667C31.6196 41.1667 31.303 41.2945 31.0474 41.55C30.7918 41.8056 30.6641 42.1223 30.6641 42.5C30.6641 42.8778 30.7918 43.1945 31.0474 43.45C31.303 43.7056 31.6196 43.8334 31.9974 43.8334ZM25.3307 37.8334H38.6641V24.5H25.3307V37.8334ZM25.3307 21.8334H38.6641V20.5H25.3307V21.8334Z" fill="white"/>
</svg>
