<!-- @TODO - rename to cursor-default -->

<svg width="25" height="23" viewBox="0 0 25 23" fill="none" xmlns="http://www.w3.org/2000/svg">
<path d="M2.0013 9.33333H3.33464C3.71241 9.33333 4.02908 9.46111 4.28464 9.71667C4.54019 9.97222 4.66797 10.2889 4.66797 10.6667C4.66797 11.0444 4.54019 11.3611 4.28464 11.6167C4.02908 11.8722 3.71241 12 3.33464 12H2.0013C1.62352 12 1.30686 11.8722 1.0513 11.6167C0.795747 11.3611 0.667969 11.0444 0.667969 10.6667C0.667969 10.2889 0.795747 9.97222 1.0513 9.71667C1.30686 9.46111 1.62352 9.33333 2.0013 9.33333ZM4.26797 16.5333L5.2013 15.6C5.46797 15.3333 5.77908 15.2056 6.13464 15.2167C6.49019 15.2278 6.8013 15.3556 7.06797 15.6C7.33464 15.8667 7.47352 16.1833 7.48464 16.55C7.49575 16.9167 7.36797 17.2333 7.1013 17.5L6.16797 18.4333C5.9013 18.7 5.58464 18.8278 5.21797 18.8167C4.8513 18.8056 4.53464 18.6667 4.26797 18.4C4.02352 18.1333 3.89575 17.8222 3.88464 17.4667C3.87352 17.1111 4.0013 16.8 4.26797 16.5333ZM5.2013 5.73333L4.26797 4.8C4.0013 4.53333 3.87352 4.22222 3.88464 3.86667C3.89575 3.51111 4.02352 3.2 4.26797 2.93333C4.53464 2.66667 4.8513 2.52778 5.21797 2.51667C5.58464 2.50556 5.9013 2.63333 6.16797 2.9L7.1013 3.83333C7.36797 4.1 7.49575 4.41667 7.48464 4.78333C7.47352 5.15 7.33464 5.46667 7.06797 5.73333C6.8013 5.97778 6.49019 6.10556 6.13464 6.11667C5.77908 6.12778 5.46797 6 5.2013 5.73333ZM21.068 21.7333L15.668 16.3333L14.668 19.3333C14.6235 19.4889 14.5402 19.6056 14.418 19.6833C14.2957 19.7611 14.168 19.8 14.0346 19.8C13.9013 19.8 13.7735 19.7556 13.6513 19.6667C13.5291 19.5778 13.4457 19.4556 13.4013 19.3L10.5346 9.76667C10.4902 9.58889 10.4957 9.41111 10.5513 9.23333C10.6069 9.05556 10.6902 8.91111 10.8013 8.8C10.9124 8.68889 11.0569 8.60555 11.2346 8.55C11.4124 8.49444 11.5902 8.48889 11.768 8.53333L21.368 11.4C21.5235 11.4444 21.6402 11.5278 21.718 11.65C21.7957 11.7722 21.8346 11.9 21.8346 12.0333C21.8346 12.1667 21.8013 12.2944 21.7346 12.4167C21.668 12.5389 21.5569 12.6222 21.4013 12.6667L18.4013 13.7333L23.7346 19.0667C24.0013 19.3333 24.1346 19.6444 24.1346 20C24.1346 20.3556 24.0013 20.6667 23.7346 20.9333L22.9346 21.7333C22.668 22 22.3569 22.1333 22.0013 22.1333C21.6457 22.1333 21.3346 22 21.068 21.7333ZM11.3346 2.66667V1.33333C11.3346 0.955555 11.4624 0.638889 11.718 0.383333C11.9735 0.127778 12.2902 0 12.668 0C13.0457 0 13.3624 0.127778 13.618 0.383333C13.8735 0.638889 14.0013 0.955555 14.0013 1.33333V2.66667C14.0013 3.04444 13.8735 3.36111 13.618 3.61667C13.3624 3.87222 13.0457 4 12.668 4C12.2902 4 11.9735 3.87222 11.718 3.61667C11.4624 3.36111 11.3346 3.04444 11.3346 2.66667ZM18.2346 3.83333L19.2013 2.86667C19.4457 2.62222 19.7513 2.49444 20.118 2.48333C20.4846 2.47222 20.8013 2.6 21.068 2.86667C21.3124 3.11111 21.4402 3.41667 21.4513 3.78333C21.4624 4.15 21.3457 4.46667 21.1013 4.73333L20.1346 5.73333C19.8902 6 19.5846 6.12778 19.218 6.11667C18.8513 6.10556 18.5346 5.97778 18.268 5.73333C18.0013 5.46667 17.8624 5.15 17.8513 4.78333C17.8402 4.41667 17.968 4.1 18.2346 3.83333Z" fill="white"/>
</svg>
