<svg width="20" height="19" viewBox="0 0 20 19" fill="none" xmlns="http://www.w3.org/2000/svg">
<path d="M5.5 11.25V11.75C5.5 11.9667 5.57083 12.1458 5.7125 12.2875C5.85417 12.4292 6.03333 12.5 6.25 12.5C6.46667 12.5 6.64583 12.4292 6.7875 12.2875C6.92917 12.1458 7 11.9667 7 11.75V9.25C7 9.03333 6.92917 8.85417 6.7875 8.7125C6.64583 8.57083 6.46667 8.5 6.25 8.5C6.03333 8.5 5.85417 8.57083 5.7125 8.7125C5.57083 8.85417 5.5 9.03333 5.5 9.25V9.75H4.75C4.53333 9.75 4.35417 9.82083 4.2125 9.9625C4.07083 10.1042 4 10.2833 4 10.5C4 10.7167 4.07083 10.8958 4.2125 11.0375C4.35417 11.1792 4.53333 11.25 4.75 11.25H5.5ZM8.75 11.25H15.25C15.4667 11.25 15.6458 11.1792 15.7875 11.0375C15.9292 10.8958 16 10.7167 16 10.5C16 10.2833 15.9292 10.1042 15.7875 9.9625C15.6458 9.82083 15.4667 9.75 15.25 9.75H8.75C8.53333 9.75 8.35417 9.82083 8.2125 9.9625C8.07083 10.1042 8 10.2833 8 10.5C8 10.7167 8.07083 10.8958 8.2125 11.0375C8.35417 11.1792 8.53333 11.25 8.75 11.25ZM14.5 7.25H15.25C15.4667 7.25 15.6458 7.17917 15.7875 7.0375C15.9292 6.89583 16 6.71667 16 6.5C16 6.28333 15.9292 6.10417 15.7875 5.9625C15.6458 5.82083 15.4667 5.75 15.25 5.75H14.5V5.25C14.5 5.03333 14.4292 4.85417 14.2875 4.7125C14.1458 4.57083 13.9667 4.5 13.75 4.5C13.5333 4.5 13.3542 4.57083 13.2125 4.7125C13.0708 4.85417 13 5.03333 13 5.25V7.75C13 7.96667 13.0708 8.14583 13.2125 8.2875C13.3542 8.42917 13.5333 8.5 13.75 8.5C13.9667 8.5 14.1458 8.42917 14.2875 8.2875C14.4292 8.14583 14.5 7.96667 14.5 7.75V7.25ZM4.75 7.25H11.25C11.4667 7.25 11.6458 7.17917 11.7875 7.0375C11.9292 6.89583 12 6.71667 12 6.5C12 6.28333 11.9292 6.10417 11.7875 5.9625C11.6458 5.82083 11.4667 5.75 11.25 5.75H4.75C4.53333 5.75 4.35417 5.82083 4.2125 5.9625C4.07083 6.10417 4 6.28333 4 6.5C4 6.71667 4.07083 6.89583 4.2125 7.0375C4.35417 7.17917 4.53333 7.25 4.75 7.25ZM2 16.5C1.45 16.5 0.979167 16.3042 0.5875 15.9125C0.195833 15.5208 0 15.05 0 14.5V2.5C0 1.95 0.195833 1.47917 0.5875 1.0875C0.979167 0.695833 1.45 0.5 2 0.5H18C18.55 0.5 19.0208 0.695833 19.4125 1.0875C19.8042 1.47917 20 1.95 20 2.5V14.5C20 15.05 19.8042 15.5208 19.4125 15.9125C19.0208 16.3042 18.55 16.5 18 16.5H14V17.5C14 17.7833 13.9042 18.0208 13.7125 18.2125C13.5208 18.4042 13.2833 18.5 13 18.5H7C6.71667 18.5 6.47917 18.4042 6.2875 18.2125C6.09583 18.0208 6 17.7833 6 17.5V16.5H2ZM2 14.5H18V2.5H2V14.5Z" fill="white"/>
</svg>
