<svg width="65" height="64" viewBox="0 0 65 64" fill="none" xmlns="http://www.w3.org/2000/svg">
<rect x="0.5" width="64" height="64" rx="32" fill="#3355FF"/>
<path d="M35.1654 33.3333C34.0543 33.3333 33.1098 32.9444 32.332 32.1666C31.5543 31.3889 31.1654 30.4444 31.1654 29.3333C31.1654 28.2222 31.5543 27.2778 32.332 26.5C33.1098 25.7222 34.0543 25.3333 35.1654 25.3333C36.2765 25.3333 37.2209 25.7222 37.9987 26.5C38.7765 27.2778 39.1654 28.2222 39.1654 29.3333C39.1654 30.4444 38.7765 31.3889 37.9987 32.1666C37.2209 32.9444 36.2765 33.3333 35.1654 33.3333ZM25.832 37.3333C25.0987 37.3333 24.4709 37.0722 23.9487 36.55C23.4265 36.0278 23.1654 35.4 23.1654 34.6666V24C23.1654 23.2666 23.4265 22.6389 23.9487 22.1166C24.4709 21.5944 25.0987 21.3333 25.832 21.3333H44.4987C45.232 21.3333 45.8598 21.5944 46.382 22.1166C46.9043 22.6389 47.1654 23.2666 47.1654 24V34.6666C47.1654 35.4 46.9043 36.0278 46.382 36.55C45.8598 37.0722 45.232 37.3333 44.4987 37.3333H25.832ZM28.4987 34.6666H41.832C41.832 33.9333 42.0931 33.3055 42.6154 32.7833C43.1376 32.2611 43.7654 32 44.4987 32V26.6666C43.7654 26.6666 43.1376 26.4055 42.6154 25.8833C42.0931 25.3611 41.832 24.7333 41.832 24H28.4987C28.4987 24.7333 28.2376 25.3611 27.7154 25.8833C27.1931 26.4055 26.5654 26.6666 25.832 26.6666V32C26.5654 32 27.1931 32.2611 27.7154 32.7833C28.2376 33.3055 28.4987 33.9333 28.4987 34.6666ZM41.832 42.6666H20.4987C19.7654 42.6666 19.1376 42.4055 18.6154 41.8833C18.0931 41.3611 17.832 40.7333 17.832 40V26.6666C17.832 26.2889 17.9598 25.9722 18.2154 25.7166C18.4709 25.4611 18.7876 25.3333 19.1654 25.3333C19.5431 25.3333 19.8598 25.4611 20.1154 25.7166C20.3709 25.9722 20.4987 26.2889 20.4987 26.6666V40H41.832C42.2098 40 42.5265 40.1278 42.782 40.3833C43.0376 40.6389 43.1654 40.9555 43.1654 41.3333C43.1654 41.7111 43.0376 42.0278 42.782 42.2833C42.5265 42.5389 42.2098 42.6666 41.832 42.6666Z" fill="white"/>
</svg>
