<svg width="65" height="65" viewBox="0 0 65 65" fill="none" xmlns="http://www.w3.org/2000/svg">
<rect x="0.75" y="0.5" width="64" height="64" rx="32" fill="#3355FF"/>
<path d="M37.4167 39.3333L44.0167 32.7333C44.2611 32.4889 44.5722 32.3666 44.95 32.3666C45.3278 32.3666 45.6389 32.4889 45.8833 32.7333C46.1278 32.9778 46.25 33.2889 46.25 33.6666C46.25 34.0444 46.1278 34.3555 45.8833 34.6L38.35 42.1333C38.0833 42.4 37.7722 42.5333 37.4167 42.5333C37.0611 42.5333 36.75 42.4 36.4833 42.1333L32.6833 38.3333C32.4389 38.0889 32.3167 37.7778 32.3167 37.4C32.3167 37.0222 32.4389 36.7111 32.6833 36.4666C32.9278 36.2222 33.2389 36.1 33.6167 36.1C33.9944 36.1 34.3056 36.2222 34.55 36.4666L37.4167 39.3333ZM23.4167 44.5C22.6833 44.5 22.0556 44.2389 21.5333 43.7166C21.0111 43.1944 20.75 42.5666 20.75 41.8333V23.1666C20.75 22.4333 21.0111 21.8055 21.5333 21.2833C22.0556 20.7611 22.6833 20.5 23.4167 20.5H28.9833C29.2278 19.7222 29.7056 19.0833 30.4167 18.5833C31.1278 18.0833 31.9056 17.8333 32.75 17.8333C33.6389 17.8333 34.4333 18.0833 35.1333 18.5833C35.8333 19.0833 36.3056 19.7222 36.55 20.5H42.0833C42.8167 20.5 43.4444 20.7611 43.9667 21.2833C44.4889 21.8055 44.75 22.4333 44.75 23.1666V28.5C44.75 28.8778 44.6222 29.1944 44.3667 29.45C44.1111 29.7055 43.7944 29.8333 43.4167 29.8333C43.0389 29.8333 42.7222 29.7055 42.4667 29.45C42.2111 29.1944 42.0833 28.8778 42.0833 28.5V23.1666H39.4167V25.8333C39.4167 26.2111 39.2889 26.5278 39.0333 26.7833C38.7778 27.0389 38.4611 27.1666 38.0833 27.1666H27.4167C27.0389 27.1666 26.7222 27.0389 26.4667 26.7833C26.2111 26.5278 26.0833 26.2111 26.0833 25.8333V23.1666H23.4167V41.8333H30.0833C30.4611 41.8333 30.7778 41.9611 31.0333 42.2166C31.2889 42.4722 31.4167 42.7889 31.4167 43.1666C31.4167 43.5444 31.2889 43.8611 31.0333 44.1166C30.7778 44.3722 30.4611 44.5 30.0833 44.5H23.4167ZM32.75 23.1666C33.1278 23.1666 33.4444 23.0389 33.7 22.7833C33.9556 22.5278 34.0833 22.2111 34.0833 21.8333C34.0833 21.4555 33.9556 21.1389 33.7 20.8833C33.4444 20.6278 33.1278 20.5 32.75 20.5C32.3722 20.5 32.0556 20.6278 31.8 20.8833C31.5444 21.1389 31.4167 21.4555 31.4167 21.8333C31.4167 22.2111 31.5444 22.5278 31.8 22.7833C32.0556 23.0389 32.3722 23.1666 32.75 23.1666Z" fill="white"/>
</svg>
