<svg width="65" height="65" viewBox="0 0 65 65" fill="none" xmlns="http://www.w3.org/2000/svg">
<rect x="0.75" y="0.5" width="64" height="64" rx="32" fill="#3355FF"/>
<path d="M24.75 45.8334C23.6389 45.8334 22.6944 45.4445 21.9167 44.6667C21.1389 43.8889 20.75 42.9445 20.75 41.8334V39.1667C20.75 38.7889 20.8778 38.4722 21.1333 38.2167C21.3889 37.9611 21.7056 37.8334 22.0833 37.8334H24.75V19.9667C24.75 19.8111 24.8167 19.7056 24.95 19.65C25.0833 19.5945 25.2056 19.6222 25.3167 19.7333L26.2833 20.7C26.4167 20.8333 26.5722 20.9 26.75 20.9C26.9278 20.9 27.0833 20.8333 27.2167 20.7L28.2833 19.6333C28.4167 19.5 28.5722 19.4333 28.75 19.4333C28.9278 19.4333 29.0833 19.5 29.2167 19.6333L30.2833 20.7C30.4167 20.8333 30.5722 20.9 30.75 20.9C30.9278 20.9 31.0833 20.8333 31.2167 20.7L32.2833 19.6333C32.4167 19.5 32.5722 19.4333 32.75 19.4333C32.9278 19.4333 33.0833 19.5 33.2167 19.6333L34.2833 20.7C34.4167 20.8333 34.5722 20.9 34.75 20.9C34.9278 20.9 35.0833 20.8333 35.2167 20.7L36.2833 19.6333C36.4167 19.5 36.5722 19.4333 36.75 19.4333C36.9278 19.4333 37.0833 19.5 37.2167 19.6333L38.2833 20.7C38.4167 20.8333 38.5722 20.9 38.75 20.9C38.9278 20.9 39.0833 20.8333 39.2167 20.7L40.2833 19.6333C40.4167 19.5 40.5722 19.4333 40.75 19.4333C40.9278 19.4333 41.0833 19.5 41.2167 19.6333L42.2833 20.7C42.4167 20.8333 42.5722 20.9 42.75 20.9C42.9278 20.9 43.0833 20.8333 43.2167 20.7L44.1833 19.7333C44.2944 19.6222 44.4167 19.5945 44.55 19.65C44.6833 19.7056 44.75 19.8111 44.75 19.9667V41.8334C44.75 42.9445 44.3611 43.8889 43.5833 44.6667C42.8056 45.4445 41.8611 45.8334 40.75 45.8334H24.75ZM40.75 43.1667C41.1278 43.1667 41.4444 43.0389 41.7 42.7833C41.9556 42.5278 42.0833 42.2111 42.0833 41.8334V23.1667H27.4167V37.8334H38.0833C38.4611 37.8334 38.7778 37.9611 39.0333 38.2167C39.2889 38.4722 39.4167 38.7889 39.4167 39.1667V41.8334C39.4167 42.2111 39.5444 42.5278 39.8 42.7833C40.0556 43.0389 40.3722 43.1667 40.75 43.1667ZM30.0833 25.8334H35.4167C35.7944 25.8334 36.1111 25.9611 36.3667 26.2167C36.6222 26.4722 36.75 26.7889 36.75 27.1667C36.75 27.5445 36.6222 27.8611 36.3667 28.1167C36.1111 28.3722 35.7944 28.5 35.4167 28.5H30.0833C29.7056 28.5 29.3889 28.3722 29.1333 28.1167C28.8778 27.8611 28.75 27.5445 28.75 27.1667C28.75 26.7889 28.8778 26.4722 29.1333 26.2167C29.3889 25.9611 29.7056 25.8334 30.0833 25.8334ZM30.0833 29.8334H35.4167C35.7944 29.8334 36.1111 29.9611 36.3667 30.2167C36.6222 30.4722 36.75 30.7889 36.75 31.1667C36.75 31.5445 36.6222 31.8611 36.3667 32.1167C36.1111 32.3722 35.7944 32.5 35.4167 32.5H30.0833C29.7056 32.5 29.3889 32.3722 29.1333 32.1167C28.8778 31.8611 28.75 31.5445 28.75 31.1667C28.75 30.7889 28.8778 30.4722 29.1333 30.2167C29.3889 29.9611 29.7056 29.8334 30.0833 29.8334ZM39.4167 28.5C39.0389 28.5 38.7222 28.3722 38.4667 28.1167C38.2111 27.8611 38.0833 27.5445 38.0833 27.1667C38.0833 26.7889 38.2111 26.4722 38.4667 26.2167C38.7222 25.9611 39.0389 25.8334 39.4167 25.8334C39.7944 25.8334 40.1111 25.9611 40.3667 26.2167C40.6222 26.4722 40.75 26.7889 40.75 27.1667C40.75 27.5445 40.6222 27.8611 40.3667 28.1167C40.1111 28.3722 39.7944 28.5 39.4167 28.5ZM39.4167 32.5C39.0389 32.5 38.7222 32.3722 38.4667 32.1167C38.2111 31.8611 38.0833 31.5445 38.0833 31.1667C38.0833 30.7889 38.2111 30.4722 38.4667 30.2167C38.7222 29.9611 39.0389 29.8334 39.4167 29.8334C39.7944 29.8334 40.1111 29.9611 40.3667 30.2167C40.6222 30.4722 40.75 30.7889 40.75 31.1667C40.75 31.5445 40.6222 31.8611 40.3667 32.1167C40.1111 32.3722 39.7944 32.5 39.4167 32.5ZM24.75 43.1667H36.75V40.5H23.4167V41.8334C23.4167 42.2111 23.5444 42.5278 23.8 42.7833C24.0556 43.0389 24.3722 43.1667 24.75 43.1667Z" fill="white"/>
</svg>
