<!-- @TODO: Rename this to check-paper instead of paper-check -->
<svg width="26" height="27" viewBox="0 0 26 27" fill="none" xmlns="http://www.w3.org/2000/svg">
<path d="M16.6667 21.8334L23.2667 15.2334C23.5111 14.9889 23.8222 14.8667 24.2 14.8667C24.5778 14.8667 24.8889 14.9889 25.1333 15.2334C25.3778 15.4778 25.5 15.7889 25.5 16.1667C25.5 16.5445 25.3778 16.8556 25.1333 17.1L17.6 24.6334C17.3333 24.9 17.0222 25.0334 16.6667 25.0334C16.3111 25.0334 16 24.9 15.7333 24.6334L11.9333 20.8334C11.6889 20.5889 11.5667 20.2778 11.5667 19.9C11.5667 19.5223 11.6889 19.2112 11.9333 18.9667C12.1778 18.7223 12.4889 18.6 12.8667 18.6C13.2444 18.6 13.5556 18.7223 13.8 18.9667L16.6667 21.8334ZM2.66667 27C1.93333 27 1.30556 26.7389 0.783333 26.2167C0.261111 25.6945 0 25.0667 0 24.3334V5.66671C0 4.93337 0.261111 4.3056 0.783333 3.78337C1.30556 3.26115 1.93333 3.00004 2.66667 3.00004H8.23333C8.47778 2.22226 8.95556 1.58337 9.66667 1.08337C10.3778 0.583374 11.1556 0.333374 12 0.333374C12.8889 0.333374 13.6833 0.583374 14.3833 1.08337C15.0833 1.58337 15.5556 2.22226 15.8 3.00004H21.3333C22.0667 3.00004 22.6944 3.26115 23.2167 3.78337C23.7389 4.3056 24 4.93337 24 5.66671V11C24 11.3778 23.8722 11.6945 23.6167 11.95C23.3611 12.2056 23.0444 12.3334 22.6667 12.3334C22.2889 12.3334 21.9722 12.2056 21.7167 11.95C21.4611 11.6945 21.3333 11.3778 21.3333 11V5.66671H18.6667V8.33337C18.6667 8.71115 18.5389 9.02782 18.2833 9.28337C18.0278 9.53893 17.7111 9.66671 17.3333 9.66671H6.66667C6.28889 9.66671 5.97222 9.53893 5.71667 9.28337C5.46111 9.02782 5.33333 8.71115 5.33333 8.33337V5.66671H2.66667V24.3334H9.33333C9.71111 24.3334 10.0278 24.4612 10.2833 24.7167C10.5389 24.9723 10.6667 25.2889 10.6667 25.6667C10.6667 26.0445 10.5389 26.3612 10.2833 26.6167C10.0278 26.8723 9.71111 27 9.33333 27H2.66667ZM12 5.66671C12.3778 5.66671 12.6944 5.53893 12.95 5.28337C13.2056 5.02782 13.3333 4.71115 13.3333 4.33337C13.3333 3.9556 13.2056 3.63893 12.95 3.38337C12.6944 3.12782 12.3778 3.00004 12 3.00004C11.6222 3.00004 11.3056 3.12782 11.05 3.38337C10.7944 3.63893 10.6667 3.9556 10.6667 4.33337C10.6667 4.71115 10.7944 5.02782 11.05 5.28337C11.3056 5.53893 11.6222 5.66671 12 5.66671Z" fill="white"/>
</svg>
