<svg width="19" height="19" viewBox="0 0 19 19" fill="none" xmlns="http://www.w3.org/2000/svg">
<path d="M15.8711 9.5C15.6711 9.5 15.493 9.42813 15.3367 9.28438C15.1805 9.14063 15.0898 8.9625 15.0648 8.75C14.9023 7.5875 14.4117 6.59688 13.593 5.77813C12.7742 4.95938 11.7836 4.46875 10.6211 4.30625C10.4086 4.28125 10.2305 4.19375 10.0867 4.04375C9.94297 3.89375 9.87109 3.7125 9.87109 3.5C9.87109 3.2875 9.94609 3.10938 10.0961 2.96563C10.2461 2.82188 10.4211 2.7625 10.6211 2.7875C12.1961 2.9625 13.5398 3.60625 14.6523 4.71875C15.7648 5.83125 16.4086 7.175 16.5836 8.75C16.6086 8.95 16.5492 9.125 16.4055 9.275C16.2617 9.425 16.0836 9.5 15.8711 9.5ZM12.7398 9.5C12.5773 9.5 12.4336 9.44375 12.3086 9.33125C12.1836 9.21875 12.0898 9.06875 12.0273 8.88125C11.9273 8.51875 11.7367 8.19688 11.4555 7.91563C11.1742 7.63438 10.8523 7.44375 10.4898 7.34375C10.3023 7.28125 10.1523 7.1875 10.0398 7.0625C9.92734 6.9375 9.87109 6.7875 9.87109 6.6125C9.87109 6.3625 9.95859 6.15938 10.1336 6.00313C10.3086 5.84688 10.5023 5.79375 10.7148 5.84375C11.4148 6.00625 12.018 6.34063 12.5242 6.84688C13.0305 7.35313 13.3648 7.95625 13.5273 8.65625C13.5773 8.86875 13.5211 9.0625 13.3586 9.2375C13.1961 9.4125 12.9898 9.5 12.7398 9.5ZM15.8336 16.25C14.2711 16.25 12.7273 15.9094 11.2023 15.2281C9.67734 14.5469 8.28984 13.5813 7.03984 12.3313C5.78984 11.0813 4.82422 9.69375 4.14297 8.16875C3.46172 6.64375 3.12109 5.1 3.12109 3.5375C3.12109 3.3125 3.19609 3.125 3.34609 2.975C3.49609 2.825 3.68359 2.75 3.90859 2.75H6.94609C7.12109 2.75 7.27734 2.80937 7.41484 2.92813C7.55234 3.04688 7.63359 3.1875 7.65859 3.35L8.14609 5.975C8.17109 6.175 8.16484 6.34375 8.12734 6.48125C8.08984 6.61875 8.02109 6.7375 7.92109 6.8375L6.10234 8.675C6.35234 9.1375 6.64922 9.58438 6.99297 10.0156C7.33672 10.4469 7.71484 10.8625 8.12734 11.2625C8.51484 11.65 8.92109 12.0094 9.34609 12.3406C9.77109 12.6719 10.2211 12.975 10.6961 13.25L12.4586 11.4875C12.5711 11.375 12.718 11.2906 12.8992 11.2344C13.0805 11.1781 13.2586 11.1625 13.4336 11.1875L16.0211 11.7125C16.1961 11.7625 16.3398 11.8531 16.4523 11.9844C16.5648 12.1156 16.6211 12.2625 16.6211 12.425V15.4625C16.6211 15.6875 16.5461 15.875 16.3961 16.025C16.2461 16.175 16.0586 16.25 15.8336 16.25Z" fill="inherit"/>
</svg>
