<svg width="25" height="24" viewBox="0 0 25 24" fill="none" xmlns="http://www.w3.org/2000/svg">
<path d="M22.7917 12C22.4361 12 22.1194 11.8722 21.8417 11.6167C21.5639 11.3611 21.4028 11.0444 21.3583 10.6667C21.0694 8.6 20.1972 6.83889 18.7417 5.38333C17.2861 3.92778 15.525 3.05556 13.4583 2.76667C13.0806 2.72222 12.7639 2.56667 12.5083 2.3C12.2528 2.03333 12.125 1.71111 12.125 1.33333C12.125 0.955555 12.2583 0.638889 12.525 0.383333C12.7917 0.127778 13.1028 0.0222222 13.4583 0.0666667C16.2583 0.377778 18.6472 1.52222 20.625 3.5C22.6028 5.47778 23.7472 7.86667 24.0583 10.6667C24.1028 11.0222 23.9972 11.3333 23.7417 11.6C23.4861 11.8667 23.1694 12 22.7917 12ZM17.225 12C16.9361 12 16.6806 11.9 16.4583 11.7C16.2361 11.5 16.0694 11.2333 15.9583 10.9C15.7806 10.2556 15.4417 9.68333 14.9417 9.18333C14.4417 8.68333 13.8694 8.34444 13.225 8.16667C12.8917 8.05556 12.625 7.88889 12.425 7.66667C12.225 7.44444 12.125 7.17778 12.125 6.86667C12.125 6.42222 12.2806 6.06111 12.5917 5.78333C12.9028 5.50556 13.2472 5.41111 13.625 5.5C14.8694 5.78889 15.9417 6.38333 16.8417 7.28333C17.7417 8.18333 18.3361 9.25556 18.625 10.5C18.7139 10.8778 18.6139 11.2222 18.325 11.5333C18.0361 11.8444 17.6694 12 17.225 12ZM22.725 24C19.9472 24 17.2028 23.3944 14.4917 22.1833C11.7806 20.9722 9.31389 19.2556 7.09167 17.0333C4.86944 14.8111 3.15278 12.3444 1.94167 9.63333C0.730556 6.92222 0.125 4.17778 0.125 1.4C0.125 1 0.258333 0.666667 0.525 0.4C0.791667 0.133333 1.125 0 1.525 0H6.925C7.23611 0 7.51389 0.105556 7.75833 0.316667C8.00278 0.527778 8.14722 0.777778 8.19167 1.06667L9.05833 5.73333C9.10278 6.08889 9.09167 6.38889 9.025 6.63333C8.95833 6.87778 8.83611 7.08889 8.65833 7.26667L5.425 10.5333C5.86944 11.3556 6.39722 12.15 7.00833 12.9167C7.61944 13.6833 8.29167 14.4222 9.025 15.1333C9.71389 15.8222 10.4361 16.4611 11.1917 17.05C11.9472 17.6389 12.7472 18.1778 13.5917 18.6667L16.725 15.5333C16.925 15.3333 17.1861 15.1833 17.5083 15.0833C17.8306 14.9833 18.1472 14.9556 18.4583 15L23.0583 15.9333C23.3694 16.0222 23.625 16.1833 23.825 16.4167C24.025 16.65 24.125 16.9111 24.125 17.2V22.6C24.125 23 23.9917 23.3333 23.725 23.6C23.4583 23.8667 23.125 24 22.725 24Z" fill="white"/>
</svg>
