<svg width="50" height="50" viewBox="0 0 50 50" fill="none" xmlns="http://www.w3.org/2000/svg">
<rect width="50" height="50" rx="25" fill="#FEDF22"/>
<path d="M17 24C16.7167 24 16.4792 23.9042 16.2875 23.7125C16.0958 23.5208 16 23.2833 16 23V17C16 16.7167 16.0958 16.4792 16.2875 16.2875C16.4792 16.0958 16.7167 16 17 16H23C23.2833 16 23.5208 16.0958 23.7125 16.2875C23.9042 16.4792 24 16.7167 24 17V23C24 23.2833 23.9042 23.5208 23.7125 23.7125C23.5208 23.9042 23.2833 24 23 24H17ZM27 24C26.7167 24 26.4792 23.9042 26.2875 23.7125C26.0958 23.5208 26 23.2833 26 23V17C26 16.7167 26.0958 16.4792 26.2875 16.2875C26.4792 16.0958 26.7167 16 27 16H33C33.2833 16 33.5208 16.0958 33.7125 16.2875C33.9042 16.4792 34 16.7167 34 17V23C34 23.2833 33.9042 23.5208 33.7125 23.7125C33.5208 23.9042 33.2833 24 33 24H27ZM17 34C16.7167 34 16.4792 33.9042 16.2875 33.7125C16.0958 33.5208 16 33.2833 16 33V27C16 26.7167 16.0958 26.4792 16.2875 26.2875C16.4792 26.0958 16.7167 26 17 26H23C23.2833 26 23.5208 26.0958 23.7125 26.2875C23.9042 26.4792 24 26.7167 24 27V33C24 33.2833 23.9042 33.5208 23.7125 33.7125C23.5208 33.9042 23.2833 34 23 34H17ZM30 34C29.7167 34 29.4792 33.9042 29.2875 33.7125C29.0958 33.5208 29 33.2833 29 33V31H26.975C26.6917 31 26.4583 30.9042 26.275 30.7125C26.0917 30.5208 26 30.2833 26 30C26 29.7167 26.0958 29.4792 26.2875 29.2875C26.4792 29.0958 26.7167 29 27 29H29V26.975C29 26.6917 29.0958 26.4583 29.2875 26.275C29.4792 26.0917 29.7167 26 30 26C30.2833 26 30.5208 26.0958 30.7125 26.2875C30.9042 26.4792 31 26.7167 31 27V29H33.025C33.3083 29 33.5417 29.0958 33.725 29.2875C33.9083 29.4792 34 29.7167 34 30C34 30.2833 33.9042 30.5208 33.7125 30.7125C33.5208 30.9042 33.2833 31 33 31H31V33.025C31 33.3083 30.9042 33.5417 30.7125 33.725C30.5208 33.9083 30.2833 34 30 34ZM28 18V22H32V18H28ZM18 18V22H22V18H18ZM18 28V32H22V28H18Z" fill="#2D2323"/>
</svg>
