<svg width="64" height="64" viewBox="0 0 64 64" fill="none" xmlns="http://www.w3.org/2000/svg">
<rect width="64" height="64" rx="32" fill="#3355FF"/>
<path d="M21.3333 30.6667C20.9556 30.6667 20.6389 30.5389 20.3833 30.2833C20.1278 30.0278 20 29.7111 20 29.3333V21.3333C20 20.9556 20.1278 20.6389 20.3833 20.3833C20.6389 20.1278 20.9556 20 21.3333 20H29.3333C29.7111 20 30.0278 20.1278 30.2833 20.3833C30.5389 20.6389 30.6667 20.9556 30.6667 21.3333V29.3333C30.6667 29.7111 30.5389 30.0278 30.2833 30.2833C30.0278 30.5389 29.7111 30.6667 29.3333 30.6667H21.3333ZM34.6667 30.6667C34.2889 30.6667 33.9722 30.5389 33.7167 30.2833C33.4611 30.0278 33.3333 29.7111 33.3333 29.3333V21.3333C33.3333 20.9556 33.4611 20.6389 33.7167 20.3833C33.9722 20.1278 34.2889 20 34.6667 20H42.6667C43.0444 20 43.3611 20.1278 43.6167 20.3833C43.8722 20.6389 44 20.9556 44 21.3333V29.3333C44 29.7111 43.8722 30.0278 43.6167 30.2833C43.3611 30.5389 43.0444 30.6667 42.6667 30.6667H34.6667ZM21.3333 44C20.9556 44 20.6389 43.8722 20.3833 43.6167C20.1278 43.3611 20 43.0444 20 42.6667V34.6667C20 34.2889 20.1278 33.9722 20.3833 33.7167C20.6389 33.4611 20.9556 33.3333 21.3333 33.3333H29.3333C29.7111 33.3333 30.0278 33.4611 30.2833 33.7167C30.5389 33.9722 30.6667 34.2889 30.6667 34.6667V42.6667C30.6667 43.0444 30.5389 43.3611 30.2833 43.6167C30.0278 43.8722 29.7111 44 29.3333 44H21.3333ZM38.6667 44C38.2889 44 37.9722 43.8722 37.7167 43.6167C37.4611 43.3611 37.3333 43.0444 37.3333 42.6667V40H34.6333C34.2556 40 33.9444 39.8722 33.7 39.6167C33.4556 39.3611 33.3333 39.0444 33.3333 38.6667C33.3333 38.2889 33.4611 37.9722 33.7167 37.7167C33.9722 37.4611 34.2889 37.3333 34.6667 37.3333H37.3333V34.6333C37.3333 34.2556 37.4611 33.9444 37.7167 33.7C37.9722 33.4556 38.2889 33.3333 38.6667 33.3333C39.0444 33.3333 39.3611 33.4611 39.6167 33.7167C39.8722 33.9722 40 34.2889 40 34.6667V37.3333H42.7C43.0778 37.3333 43.3889 37.4611 43.6333 37.7167C43.8778 37.9722 44 38.2889 44 38.6667C44 39.0444 43.8722 39.3611 43.6167 39.6167C43.3611 39.8722 43.0444 40 42.6667 40H40V42.7C40 43.0778 39.8722 43.3889 39.6167 43.6333C39.3611 43.8778 39.0444 44 38.6667 44ZM36 22.6667V28H41.3333V22.6667H36ZM22.6667 22.6667V28H28V22.6667H22.6667ZM22.6667 36V41.3333H28V36H22.6667Z" fill="white"/>
</svg>
