<svg width="24" height="24" viewBox="0 0 24 24" fill="none" xmlns="http://www.w3.org/2000/svg">
<path d="M1.33333 10.6667C0.955556 10.6667 0.638889 10.5389 0.383333 10.2833C0.127778 10.0278 0 9.71111 0 9.33333V1.33333C0 0.955556 0.127778 0.638889 0.383333 0.383333C0.638889 0.127778 0.955556 0 1.33333 0H9.33333C9.71111 0 10.0278 0.127778 10.2833 0.383333C10.5389 0.638889 10.6667 0.955556 10.6667 1.33333V9.33333C10.6667 9.71111 10.5389 10.0278 10.2833 10.2833C10.0278 10.5389 9.71111 10.6667 9.33333 10.6667H1.33333ZM14.6667 10.6667C14.2889 10.6667 13.9722 10.5389 13.7167 10.2833C13.4611 10.0278 13.3333 9.71111 13.3333 9.33333V1.33333C13.3333 0.955556 13.4611 0.638889 13.7167 0.383333C13.9722 0.127778 14.2889 0 14.6667 0H22.6667C23.0444 0 23.3611 0.127778 23.6167 0.383333C23.8722 0.638889 24 0.955556 24 1.33333V9.33333C24 9.71111 23.8722 10.0278 23.6167 10.2833C23.3611 10.5389 23.0444 10.6667 22.6667 10.6667H14.6667ZM1.33333 24C0.955556 24 0.638889 23.8722 0.383333 23.6167C0.127778 23.3611 0 23.0444 0 22.6667V14.6667C0 14.2889 0.127778 13.9722 0.383333 13.7167C0.638889 13.4611 0.955556 13.3333 1.33333 13.3333H9.33333C9.71111 13.3333 10.0278 13.4611 10.2833 13.7167C10.5389 13.9722 10.6667 14.2889 10.6667 14.6667V22.6667C10.6667 23.0444 10.5389 23.3611 10.2833 23.6167C10.0278 23.8722 9.71111 24 9.33333 24H1.33333ZM18.6667 24C18.2889 24 17.9722 23.8722 17.7167 23.6167C17.4611 23.3611 17.3333 23.0444 17.3333 22.6667V20H14.6333C14.2556 20 13.9444 19.8722 13.7 19.6167C13.4556 19.3611 13.3333 19.0444 13.3333 18.6667C13.3333 18.2889 13.4611 17.9722 13.7167 17.7167C13.9722 17.4611 14.2889 17.3333 14.6667 17.3333H17.3333V14.6333C17.3333 14.2556 17.4611 13.9444 17.7167 13.7C17.9722 13.4556 18.2889 13.3333 18.6667 13.3333C19.0444 13.3333 19.3611 13.4611 19.6167 13.7167C19.8722 13.9722 20 14.2889 20 14.6667V17.3333H22.7C23.0778 17.3333 23.3889 17.4611 23.6333 17.7167C23.8778 17.9722 24 18.2889 24 18.6667C24 19.0444 23.8722 19.3611 23.6167 19.6167C23.3611 19.8722 23.0444 20 22.6667 20H20V22.7C20 23.0778 19.8722 23.3889 19.6167 23.6333C19.3611 23.8778 19.0444 24 18.6667 24ZM16 2.66667V8H21.3333V2.66667H16ZM2.66667 2.66667V8H8V2.66667H2.66667ZM2.66667 16V21.3333H8V16H2.66667Z" fill="white"/>
</svg>
