<svg width="64" height="64" viewBox="0 0 64 64" fill="none" xmlns="http://www.w3.org/2000/svg">
<rect width="64" height="64" rx="32" fill="#3355FF"/>
<path d="M21.3346 42.6667V30.6667C20.6013 30.6667 19.9735 30.4056 19.4513 29.8834C18.9291 29.3612 18.668 28.7334 18.668 28V25.3334C18.668 24.6 18.9291 23.9723 19.4513 23.45C19.9735 22.9278 20.6013 22.6667 21.3346 22.6667H25.6013C25.4902 22.4667 25.418 22.2556 25.3846 22.0334C25.3513 21.8112 25.3346 21.5778 25.3346 21.3334C25.3346 20.2223 25.7235 19.2778 26.5013 18.5C27.2791 17.7223 28.2235 17.3334 29.3346 17.3334C29.8457 17.3334 30.3235 17.4278 30.768 17.6167C31.2124 17.8056 31.6235 18.0667 32.0013 18.4C32.3791 18.0445 32.7902 17.7778 33.2346 17.6C33.6791 17.4223 34.1569 17.3334 34.668 17.3334C35.7791 17.3334 36.7235 17.7223 37.5013 18.5C38.2791 19.2778 38.668 20.2223 38.668 21.3334C38.668 21.5778 38.6457 21.8056 38.6013 22.0167C38.5569 22.2278 38.4902 22.4445 38.4013 22.6667H42.668C43.4013 22.6667 44.0291 22.9278 44.5513 23.45C45.0735 23.9723 45.3346 24.6 45.3346 25.3334V28C45.3346 28.7334 45.0735 29.3612 44.5513 29.8834C44.0291 30.4056 43.4013 30.6667 42.668 30.6667V42.6667C42.668 43.4 42.4069 44.0278 41.8846 44.55C41.3624 45.0723 40.7346 45.3334 40.0013 45.3334H24.0013C23.268 45.3334 22.6402 45.0723 22.118 44.55C21.5957 44.0278 21.3346 43.4 21.3346 42.6667ZM34.668 20C34.2902 20 33.9735 20.1278 33.718 20.3834C33.4624 20.6389 33.3346 20.9556 33.3346 21.3334C33.3346 21.7112 33.4624 22.0278 33.718 22.2834C33.9735 22.5389 34.2902 22.6667 34.668 22.6667C35.0457 22.6667 35.3624 22.5389 35.618 22.2834C35.8735 22.0278 36.0013 21.7112 36.0013 21.3334C36.0013 20.9556 35.8735 20.6389 35.618 20.3834C35.3624 20.1278 35.0457 20 34.668 20ZM28.0013 21.3334C28.0013 21.7112 28.1291 22.0278 28.3846 22.2834C28.6402 22.5389 28.9569 22.6667 29.3346 22.6667C29.7124 22.6667 30.0291 22.5389 30.2846 22.2834C30.5402 22.0278 30.668 21.7112 30.668 21.3334C30.668 20.9556 30.5402 20.6389 30.2846 20.3834C30.0291 20.1278 29.7124 20 29.3346 20C28.9569 20 28.6402 20.1278 28.3846 20.3834C28.1291 20.6389 28.0013 20.9556 28.0013 21.3334ZM21.3346 25.3334V28H30.668V25.3334H21.3346ZM30.668 42.6667V30.6667H24.0013V42.6667H30.668ZM33.3346 42.6667H40.0013V30.6667H33.3346V42.6667ZM42.668 28V25.3334H33.3346V28H42.668Z" fill="white"/>
</svg>
