<svg width="20" height="20" viewBox="0 0 20 20" fill="none" xmlns="http://www.w3.org/2000/svg">
<path d="M6 18.2499C4.36667 17.6166 2.95833 16.6791 1.775 15.4374C0.591667 14.1957 0 12.7166 0 10.9999C0 10.7166 0.0958333 10.4791 0.2875 10.2874C0.479167 10.0957 0.716667 9.99991 1 9.99991H2V2.89991C2 2.64991 2.08333 2.43324 2.25 2.24991C2.41667 2.06658 2.625 1.95824 2.875 1.92491L19.175 0.0999112C19.4083 0.0665779 19.6042 0.124911 19.7625 0.274911C19.9208 0.424911 20 0.616578 20 0.849911C20 1.03324 19.9333 1.19574 19.8 1.33741C19.6667 1.47908 19.5083 1.55824 19.325 1.57491L8.5 2.79991V4.49991H19.25C19.4667 4.49991 19.6458 4.57074 19.7875 4.71241C19.9292 4.85408 20 5.03324 20 5.24991C20 5.46658 19.9292 5.64574 19.7875 5.78741C19.6458 5.92908 19.4667 5.99991 19.25 5.99991H8.5V9.99991H19C19.2833 9.99991 19.5208 10.0957 19.7125 10.2874C19.9042 10.4791 20 10.7166 20 10.9999C20 12.7166 19.4083 14.1957 18.225 15.4374C17.0417 16.6791 15.6333 17.6166 14 18.2499V18.9999C14 19.2832 13.9042 19.5207 13.7125 19.7124C13.5208 19.9041 13.2833 19.9999 13 19.9999H7C6.71667 19.9999 6.47917 19.9041 6.2875 19.7124C6.09583 19.5207 6 19.2832 6 18.9999V18.2499ZM6 4.49991H7V2.97491L6 3.07491V4.49991ZM3.5 4.49991H4.5V3.24991L3.5 3.34991V4.49991ZM6 9.99991H7V5.99991H6V9.99991ZM3.5 9.99991H4.5V5.99991H3.5V9.99991ZM8 17.9999H12V16.8999L13.25 16.3999C14.2667 15.9999 15.1667 15.4249 15.95 14.6749C16.7333 13.9249 17.3 13.0332 17.65 11.9999H2.35C2.7 13.0332 3.26667 13.9291 4.05 14.6874C4.83333 15.4457 5.73333 16.0166 6.75 16.3999L8 16.8999V17.9999Z" fill="#5F6368"/>
</svg>
