<svg width="22" height="26" viewBox="0 0 22 26" fill="none" xmlns="http://www.w3.org/2000/svg">
<path d="M5.63594 21.3333C5.41372 20.6889 5.20816 20.0333 5.01927 19.3666C4.83038 18.7 4.68038 18.0333 4.56927 17.3666L3.0026 18.4333V22.4L5.63594 21.3333ZM10.5359 3.49998C9.46927 4.63331 8.61372 6.12775 7.96927 7.98331C7.32483 9.83886 7.0026 11.7889 7.0026 13.8333C7.0026 15.1666 7.12483 16.4722 7.36927 17.75C7.61372 19.0278 7.93594 20.1111 8.33594 21H13.6693C14.0693 20.1111 14.3915 19.0278 14.6359 17.75C14.8804 16.4722 15.0026 15.1666 15.0026 13.8333C15.0026 11.7889 14.6804 9.83886 14.0359 7.98331C13.3915 6.12775 12.5359 4.63331 11.4693 3.49998C11.4026 3.43331 11.3304 3.38331 11.2526 3.34998C11.1748 3.31664 11.0915 3.29998 11.0026 3.29998C10.9137 3.29998 10.8304 3.31664 10.7526 3.34998C10.6748 3.38331 10.6026 3.43331 10.5359 3.49998ZM11.0026 14.3333C10.2693 14.3333 9.64149 14.0722 9.11927 13.55C8.59705 13.0278 8.33594 12.4 8.33594 11.6666C8.33594 10.9333 8.59705 10.3055 9.11927 9.78331C9.64149 9.26109 10.2693 8.99998 11.0026 8.99998C11.7359 8.99998 12.3637 9.26109 12.8859 9.78331C13.4082 10.3055 13.6693 10.9333 13.6693 11.6666C13.6693 12.4 13.4082 13.0278 12.8859 13.55C12.3637 14.0722 11.7359 14.3333 11.0026 14.3333ZM16.3693 21.3333L19.0026 22.4V18.4333L17.4359 17.3666C17.3248 18.0333 17.1748 18.7 16.9859 19.3666C16.797 20.0333 16.5915 20.6889 16.3693 21.3333ZM12.0359 0.466642C13.9026 2.06664 15.3082 4.03331 16.2526 6.36664C17.1971 8.69998 17.6693 11.3555 17.6693 14.3333L20.4693 16.2C20.847 16.4444 21.1415 16.7666 21.3526 17.1666C21.5637 17.5666 21.6693 17.9889 21.6693 18.4333V24.3666C21.6693 24.8333 21.4748 25.2 21.0859 25.4666C20.6971 25.7333 20.2804 25.7778 19.8359 25.6L15.0359 23.6666H6.96927L2.16927 25.6C1.72483 25.7778 1.30816 25.7333 0.919271 25.4666C0.530382 25.2 0.335938 24.8333 0.335938 24.3666V18.4333C0.335938 17.9889 0.441493 17.5666 0.652604 17.1666C0.863715 16.7666 1.15816 16.4444 1.53594 16.2L4.33594 14.3333C4.33594 11.3555 4.80816 8.69998 5.7526 6.36664C6.69705 4.03331 8.1026 2.06664 9.96927 0.466642C10.1248 0.355531 10.2915 0.266642 10.4693 0.199976C10.647 0.133309 10.8248 0.0999756 11.0026 0.0999756C11.1804 0.0999756 11.3582 0.133309 11.5359 0.199976C11.7137 0.266642 11.8804 0.355531 12.0359 0.466642Z" fill="white"/>
</svg>
