<svg width="64" height="64" viewBox="0 0 64 64" fill="none" xmlns="http://www.w3.org/2000/svg">
<rect width="64" height="64" rx="32" fill="#3355FF"/>
<path d="M26.6359 40.3333C26.4137 39.6889 26.2082 39.0333 26.0193 38.3666C25.8304 37.7 25.6804 37.0333 25.5693 36.3666L24.0026 37.4333V41.4L26.6359 40.3333ZM31.5359 22.5C30.4693 23.6333 29.6137 25.1278 28.9693 26.9833C28.3248 28.8389 28.0026 30.7889 28.0026 32.8333C28.0026 34.1666 28.1248 35.4722 28.3693 36.75C28.6137 38.0278 28.9359 39.1111 29.3359 40H34.6693C35.0693 39.1111 35.3915 38.0278 35.6359 36.75C35.8804 35.4722 36.0026 34.1666 36.0026 32.8333C36.0026 30.7889 35.6804 28.8389 35.0359 26.9833C34.3915 25.1278 33.5359 23.6333 32.4693 22.5C32.4026 22.4333 32.3304 22.3833 32.2526 22.35C32.1748 22.3166 32.0915 22.3 32.0026 22.3C31.9137 22.3 31.8304 22.3166 31.7526 22.35C31.6748 22.3833 31.6026 22.4333 31.5359 22.5ZM32.0026 33.3333C31.2693 33.3333 30.6415 33.0722 30.1193 32.55C29.597 32.0278 29.3359 31.4 29.3359 30.6666C29.3359 29.9333 29.597 29.3055 30.1193 28.7833C30.6415 28.2611 31.2693 28 32.0026 28C32.7359 28 33.3637 28.2611 33.8859 28.7833C34.4082 29.3055 34.6693 29.9333 34.6693 30.6666C34.6693 31.4 34.4082 32.0278 33.8859 32.55C33.3637 33.0722 32.7359 33.3333 32.0026 33.3333ZM37.3693 40.3333L40.0026 41.4V37.4333L38.4359 36.3666C38.3248 37.0333 38.1748 37.7 37.9859 38.3666C37.797 39.0333 37.5915 39.6889 37.3693 40.3333ZM33.0359 19.4666C34.9026 21.0666 36.3082 23.0333 37.2526 25.3666C38.1971 27.7 38.6693 30.3555 38.6693 33.3333L41.4693 35.2C41.847 35.4444 42.1415 35.7666 42.3526 36.1666C42.5637 36.5666 42.6693 36.9889 42.6693 37.4333V43.3666C42.6693 43.8333 42.4748 44.2 42.0859 44.4666C41.6971 44.7333 41.2804 44.7778 40.8359 44.6L36.0359 42.6666H27.9693L23.1693 44.6C22.7248 44.7778 22.3082 44.7333 21.9193 44.4666C21.5304 44.2 21.3359 43.8333 21.3359 43.3666V37.4333C21.3359 36.9889 21.4415 36.5666 21.6526 36.1666C21.8637 35.7666 22.1582 35.4444 22.5359 35.2L25.3359 33.3333C25.3359 30.3555 25.8082 27.7 26.7526 25.3666C27.697 23.0333 29.1026 21.0666 30.9693 19.4666C31.1248 19.3555 31.2915 19.2666 31.4693 19.2C31.647 19.1333 31.8248 19.1 32.0026 19.1C32.1804 19.1 32.3582 19.1333 32.5359 19.2C32.7137 19.2666 32.8804 19.3555 33.0359 19.4666Z" fill="white"/>
</svg>
