<svg width="1600" height="121" viewBox="0 0 1600 121" fill="none" xmlns="http://www.w3.org/2000/svg">
<rect width="1614" height="121" transform="translate(-14)" fill="#FEDF22"/>
<ellipse cx="115.725" cy="88.3828" rx="8.5" ry="9" fill="#E7E7E7"/>
<ellipse cx="221.725" cy="88.3828" rx="8.5" ry="9" fill="#E7E7E7"/>
<ellipse cx="221.725" cy="34" rx="8.5" ry="9" fill="#F2604B"/>
<ellipse cx="1.72461" cy="88.3828" rx="8.5" ry="9" fill="#F2604B"/>
<circle cx="56.7246" cy="34.5" r="13.5" fill="#F2604B"/>
<rect x="101.225" y="30" width="15" height="27" rx="7.5" transform="rotate(-45 101.225 30)" fill="#3355FF"/>
<rect x="43.2246" y="86.6067" width="15" height="27" rx="7.5" transform="rotate(-45 43.2246 86.6067)" fill="#3355FF"/>
<rect x="-13.7754" y="30" width="15" height="27" rx="7.5" transform="rotate(-45 -13.7754 30)" fill="white"/>
<rect x="156.225" y="82.6067" width="15" height="27" rx="7.5" transform="rotate(-45 156.225 82.6067)" fill="white"/>
<rect width="15" height="27" rx="7.5" transform="matrix(-0.707107 -0.707107 -0.707107 0.707107 185.922 30)" fill="#E7E7E7"/>
<ellipse cx="387.633" cy="88.3828" rx="8.5" ry="9" fill="#E7E7E7"/>
<ellipse cx="493.633" cy="88.3828" rx="8.5" ry="9" fill="#E7E7E7"/>
<ellipse cx="493.633" cy="34" rx="8.5" ry="9" fill="#F2604B"/>
<ellipse cx="273.633" cy="88.3828" rx="8.5" ry="9" fill="#F2604B"/>
<circle cx="328.633" cy="34.5" r="13.5" fill="#F2604B"/>
<rect x="373.133" y="30" width="15" height="27" rx="7.5" transform="rotate(-45 373.133 30)" fill="#3355FF"/>
<rect x="315.133" y="86.6067" width="15" height="27" rx="7.5" transform="rotate(-45 315.133 86.6067)" fill="#3355FF"/>
<rect x="258.133" y="30" width="15" height="27" rx="7.5" transform="rotate(-45 258.133 30)" fill="white"/>
<rect x="428.133" y="82.6067" width="15" height="27" rx="7.5" transform="rotate(-45 428.133 82.6067)" fill="white"/>
<rect width="15" height="27" rx="7.5" transform="matrix(-0.707107 -0.707107 -0.707107 0.707107 457.832 30)" fill="#E7E7E7"/>
<ellipse cx="659.541" cy="88.3828" rx="8.5" ry="9" fill="#E7E7E7"/>
<ellipse cx="765.541" cy="88.3828" rx="8.5" ry="9" fill="#E7E7E7"/>
<ellipse cx="765.541" cy="34" rx="8.5" ry="9" fill="#F2604B"/>
<ellipse cx="545.541" cy="88.3828" rx="8.5" ry="9" fill="#F2604B"/>
<circle cx="600.541" cy="34.5" r="13.5" fill="#F2604B"/>
<rect x="645.041" y="30" width="15" height="27" rx="7.5" transform="rotate(-45 645.041 30)" fill="#3355FF"/>
<rect x="587.041" y="86.6067" width="15" height="27" rx="7.5" transform="rotate(-45 587.041 86.6067)" fill="#3355FF"/>
<rect x="530.041" y="30" width="15" height="27" rx="7.5" transform="rotate(-45 530.041 30)" fill="white"/>
<rect x="700.041" y="82.6067" width="15" height="27" rx="7.5" transform="rotate(-45 700.041 82.6067)" fill="white"/>
<rect width="15" height="27" rx="7.5" transform="matrix(-0.707107 -0.707107 -0.707107 0.707107 729.738 30)" fill="#E7E7E7"/>
<ellipse cx="931.449" cy="88.3828" rx="8.5" ry="9" fill="#E7E7E7"/>
<ellipse cx="1037.45" cy="88.3828" rx="8.5" ry="9" fill="#E7E7E7"/>
<ellipse cx="1037.45" cy="34" rx="8.5" ry="9" fill="#F2604B"/>
<ellipse cx="817.449" cy="88.3828" rx="8.5" ry="9" fill="#F2604B"/>
<circle cx="872.449" cy="34.5" r="13.5" fill="#F2604B"/>
<rect x="916.949" y="30" width="15" height="27" rx="7.5" transform="rotate(-45 916.949 30)" fill="#3355FF"/>
<rect x="858.949" y="86.6067" width="15" height="27" rx="7.5" transform="rotate(-45 858.949 86.6067)" fill="#3355FF"/>
<rect x="801.949" y="30" width="15" height="27" rx="7.5" transform="rotate(-45 801.949 30)" fill="white"/>
<rect x="971.949" y="82.6067" width="15" height="27" rx="7.5" transform="rotate(-45 971.949 82.6067)" fill="white"/>
<rect width="15" height="27" rx="7.5" transform="matrix(-0.707107 -0.707107 -0.707107 0.707107 1001.65 30)" fill="#E7E7E7"/>
<ellipse cx="1203.36" cy="88.3828" rx="8.5" ry="9" fill="#E7E7E7"/>
<ellipse cx="1309.36" cy="88.3828" rx="8.5" ry="9" fill="#E7E7E7"/>
<ellipse cx="1309.36" cy="34" rx="8.5" ry="9" fill="#F2604B"/>
<ellipse cx="1089.36" cy="88.3828" rx="8.5" ry="9" fill="#F2604B"/>
<circle cx="1144.36" cy="34.5" r="13.5" fill="#F2604B"/>
<rect x="1188.86" y="30" width="15" height="27" rx="7.5" transform="rotate(-45 1188.86 30)" fill="#3355FF"/>
<rect x="1130.86" y="86.6067" width="15" height="27" rx="7.5" transform="rotate(-45 1130.86 86.6067)" fill="#3355FF"/>
<rect x="1073.86" y="30" width="15" height="27" rx="7.5" transform="rotate(-45 1073.86 30)" fill="white"/>
<rect x="1243.86" y="82.6067" width="15" height="27" rx="7.5" transform="rotate(-45 1243.86 82.6067)" fill="white"/>
<rect width="15" height="27" rx="7.5" transform="matrix(-0.707107 -0.707107 -0.707107 0.707107 1273.55 30)" fill="#E7E7E7"/>
<ellipse cx="1475.27" cy="88.3828" rx="8.5" ry="9" fill="#E7E7E7"/>
<ellipse cx="1581.27" cy="88.3828" rx="8.5" ry="9" fill="#E7E7E7"/>
<ellipse cx="1581.27" cy="34" rx="8.5" ry="9" fill="#F2604B"/>
<ellipse cx="1361.27" cy="88.3828" rx="8.5" ry="9" fill="#F2604B"/>
<circle cx="1416.27" cy="34.5" r="13.5" fill="#F2604B"/>
<rect x="1460.77" y="30" width="15" height="27" rx="7.5" transform="rotate(-45 1460.77 30)" fill="#3355FF"/>
<rect x="1402.77" y="86.6067" width="15" height="27" rx="7.5" transform="rotate(-45 1402.77 86.6067)" fill="#3355FF"/>
<rect x="1345.77" y="30" width="15" height="27" rx="7.5" transform="rotate(-45 1345.77 30)" fill="white"/>
<rect x="1515.77" y="82.6067" width="15" height="27" rx="7.5" transform="rotate(-45 1515.77 82.6067)" fill="white"/>
<rect width="15" height="27" rx="7.5" transform="matrix(-0.707107 -0.707107 -0.707107 0.707107 1545.46 30)" fill="#E7E7E7"/>
</svg>
