<svg width="22" height="28" viewBox="0 0 22 28" fill="none" xmlns="http://www.w3.org/2000/svg">
<path d="M9.5987 14.9334L7.73203 13.0667C7.46536 12.8 7.15425 12.6667 6.7987 12.6667C6.44314 12.6667 6.13203 12.8 5.86537 13.0667C5.5987 13.3334 5.46536 13.65 5.46536 14.0167C5.46536 14.3834 5.5987 14.7 5.86537 14.9667L8.66537 17.8C8.93203 18.0667 9.24314 18.2 9.5987 18.2C9.95425 18.2 10.2654 18.0667 10.532 17.8L16.1987 12.1334C16.4654 11.8667 16.5987 11.55 16.5987 11.1834C16.5987 10.8167 16.4654 10.5 16.1987 10.2334C15.932 9.9667 15.6154 9.83337 15.2487 9.83337C14.882 9.83337 14.5654 9.9667 14.2987 10.2334L9.5987 14.9334ZM10.9987 27.2C10.8431 27.2 10.6987 27.1889 10.5654 27.1667C10.432 27.1445 10.2987 27.1111 10.1654 27.0667C7.16536 26.0667 4.77648 24.2167 2.9987 21.5167C1.22092 18.8167 0.332031 15.9111 0.332031 12.8V6.50003C0.332031 5.94448 0.493142 5.44448 0.815365 5.00003C1.13759 4.55559 1.55425 4.23337 2.06536 4.03337L10.0654 1.03337C10.3765 0.922255 10.6876 0.866699 10.9987 0.866699C11.3098 0.866699 11.6209 0.922255 11.932 1.03337L19.932 4.03337C20.4431 4.23337 20.8598 4.55559 21.182 5.00003C21.5043 5.44448 21.6654 5.94448 21.6654 6.50003V12.8C21.6654 15.9111 20.7765 18.8167 18.9987 21.5167C17.2209 24.2167 14.832 26.0667 11.832 27.0667C11.6987 27.1111 11.5654 27.1445 11.432 27.1667C11.2987 27.1889 11.1543 27.2 10.9987 27.2ZM10.9987 24.5334C13.3098 23.8 15.2209 22.3334 16.732 20.1334C18.2431 17.9334 18.9987 15.4889 18.9987 12.8V6.50003L10.9987 3.50003L2.9987 6.50003V12.8C2.9987 15.4889 3.75425 17.9334 5.26536 20.1334C6.77648 22.3334 8.68759 23.8 10.9987 24.5334Z" fill="white"/>
</svg>
