<svg width="64" height="64" viewBox="0 0 64 64" fill="none" xmlns="http://www.w3.org/2000/svg">
<rect width="64" height="64" rx="32" fill="#3355FF"/>
<path d="M30.5987 32.9334L28.732 31.0667C28.4654 30.8 28.1543 30.6667 27.7987 30.6667C27.4431 30.6667 27.132 30.8 26.8654 31.0667C26.5987 31.3334 26.4654 31.65 26.4654 32.0167C26.4654 32.3834 26.5987 32.7 26.8654 32.9667L29.6654 35.8C29.932 36.0667 30.2431 36.2 30.5987 36.2C30.9543 36.2 31.2654 36.0667 31.532 35.8L37.1987 30.1334C37.4654 29.8667 37.5987 29.55 37.5987 29.1834C37.5987 28.8167 37.4654 28.5 37.1987 28.2334C36.932 27.9667 36.6154 27.8334 36.2487 27.8334C35.882 27.8334 35.5654 27.9667 35.2987 28.2334L30.5987 32.9334ZM31.9987 45.2C31.8431 45.2 31.6987 45.1889 31.5654 45.1667C31.432 45.1445 31.2987 45.1111 31.1654 45.0667C28.1654 44.0667 25.7765 42.2167 23.9987 39.5167C22.2209 36.8167 21.332 33.9111 21.332 30.8V24.5C21.332 23.9445 21.4931 23.4445 21.8154 23C22.1376 22.5556 22.5543 22.2334 23.0654 22.0334L31.0654 19.0334C31.3765 18.9223 31.6876 18.8667 31.9987 18.8667C32.3098 18.8667 32.6209 18.9223 32.932 19.0334L40.932 22.0334C41.4431 22.2334 41.8598 22.5556 42.182 23C42.5043 23.4445 42.6654 23.9445 42.6654 24.5V30.8C42.6654 33.9111 41.7765 36.8167 39.9987 39.5167C38.2209 42.2167 35.832 44.0667 32.832 45.0667C32.6987 45.1111 32.5654 45.1445 32.432 45.1667C32.2987 45.1889 32.1543 45.2 31.9987 45.2ZM31.9987 42.5334C34.3098 41.8 36.2209 40.3334 37.732 38.1334C39.2431 35.9334 39.9987 33.4889 39.9987 30.8V24.5L31.9987 21.5L23.9987 24.5V30.8C23.9987 33.4889 24.7543 35.9334 26.2654 38.1334C27.7765 40.3334 29.6876 41.8 31.9987 42.5334Z" fill="white"/>
</svg>
