<svg width="64" height="64" viewBox="0 0 64 64" fill="none" xmlns="http://www.w3.org/2000/svg">
<rect width="64" height="64" rx="32" fill="#3355FF"/>
<path d="M20.966 25.3333C20.3882 24.6444 19.9716 23.9889 19.716 23.3667C19.4605 22.7444 19.3216 22.0667 19.2993 21.3333C19.2993 20.9556 19.4382 20.6389 19.716 20.3833C19.9938 20.1278 20.3216 20 20.6993 20C21.0327 20 21.3049 20.1333 21.516 20.4C21.7271 20.6667 21.8327 20.9778 21.8327 21.3333C21.8327 21.7778 21.9105 22.1889 22.066 22.5667C22.2216 22.9444 22.4882 23.3556 22.866 23.8C23.5327 24.6 24.0049 25.3167 24.2827 25.95C24.5605 26.5833 24.6882 27.2667 24.666 28C24.6438 28.3778 24.4882 28.6944 24.1993 28.95C23.9105 29.2056 23.5771 29.3333 23.1993 29.3333C22.8882 29.3333 22.6382 29.2 22.4493 28.9333C22.2605 28.6667 22.166 28.3667 22.166 28.0333C22.166 27.5222 22.0605 27.0556 21.8493 26.6333C21.6382 26.2111 21.3438 25.7778 20.966 25.3333ZM26.3327 25.3333C25.7549 24.6444 25.3327 23.9889 25.066 23.3667C24.7993 22.7444 24.6549 22.0667 24.6327 21.3333C24.6327 20.9556 24.7716 20.6389 25.0493 20.3833C25.3271 20.1278 25.6549 20 26.0327 20C26.366 20 26.6382 20.1333 26.8493 20.4C27.0605 20.6667 27.166 20.9778 27.166 21.3333C27.166 21.7778 27.2438 22.1889 27.3993 22.5667C27.5549 22.9444 27.8216 23.3556 28.1993 23.8C28.866 24.6 29.3382 25.3167 29.616 25.95C29.8938 26.5833 30.0216 27.2667 29.9993 28C29.9771 28.3778 29.8216 28.6944 29.5327 28.95C29.2438 29.2056 28.9105 29.3333 28.5327 29.3333C28.2216 29.3333 27.9716 29.2 27.7827 28.9333C27.5938 28.6667 27.4993 28.3667 27.4993 28.0333C27.5216 27.5222 27.4271 27.0556 27.216 26.6333C27.0049 26.2111 26.7105 25.7778 26.3327 25.3333ZM31.666 25.3333C31.0882 24.6444 30.666 23.9889 30.3993 23.3667C30.1327 22.7444 29.9882 22.0667 29.966 21.3333C29.966 20.9556 30.1049 20.6389 30.3827 20.3833C30.6605 20.1278 30.9882 20 31.366 20C31.6993 20 31.9716 20.1333 32.1827 20.4C32.3938 20.6667 32.4993 20.9778 32.4993 21.3333C32.4993 21.7778 32.5771 22.1889 32.7327 22.5667C32.8882 22.9444 33.1549 23.3556 33.5327 23.8C34.1993 24.6 34.6716 25.3167 34.9494 25.95C35.2271 26.5833 35.3549 27.2667 35.3327 28C35.3105 28.3778 35.1549 28.6944 34.866 28.95C34.5771 29.2056 34.2438 29.3333 33.866 29.3333C33.5549 29.3333 33.3049 29.2 33.116 28.9333C32.9271 28.6667 32.8327 28.3667 32.8327 28.0333C32.8549 27.5222 32.7605 27.0556 32.5493 26.6333C32.3382 26.2111 32.0438 25.7778 31.666 25.3333ZM22.666 42.6667C21.5549 42.6667 20.6105 42.2778 19.8327 41.5C19.0549 40.7222 18.666 39.7778 18.666 38.6667V33.3333C18.666 32.9556 18.7938 32.6389 19.0493 32.3833C19.3049 32.1278 19.6216 32 19.9993 32H37.366C37.4771 31.2444 37.7771 30.5833 38.266 30.0167C38.7549 29.45 39.3549 29.0444 40.066 28.8L44.966 27.1667C45.3216 27.0556 45.666 27.0778 45.9993 27.2333C46.3327 27.3889 46.5549 27.6444 46.666 28C46.7771 28.3556 46.7493 28.7 46.5827 29.0333C46.416 29.3667 46.1549 29.5889 45.7994 29.7L40.8993 31.3333C40.6327 31.4222 40.416 31.5833 40.2493 31.8167C40.0827 32.05 39.9993 32.3111 39.9993 32.6V38.6667C39.9993 39.7778 39.6105 40.7222 38.8327 41.5C38.0549 42.2778 37.1105 42.6667 35.9993 42.6667H22.666ZM22.666 40H35.9993C36.3771 40 36.6938 39.8722 36.9494 39.6167C37.2049 39.3611 37.3327 39.0444 37.3327 38.6667V34.6667H21.3327V38.6667C21.3327 39.0444 21.4605 39.3611 21.716 39.6167C21.9716 39.8722 22.2882 40 22.666 40Z" fill="white"/>
</svg>
