<svg width="29" height="23" viewBox="0 0 29 23" fill="none" xmlns="http://www.w3.org/2000/svg">
<path d="M2.9665 5.33333C2.38873 4.64444 1.97206 3.98889 1.7165 3.36667C1.46095 2.74444 1.32206 2.06667 1.29984 1.33333C1.29984 0.955555 1.43873 0.638889 1.7165 0.383333C1.99428 0.127778 2.32206 0 2.69984 0C3.03317 0 3.30539 0.133333 3.5165 0.4C3.72762 0.666667 3.83317 0.977778 3.83317 1.33333C3.83317 1.77778 3.91095 2.18889 4.0665 2.56667C4.22206 2.94444 4.48873 3.35556 4.8665 3.8C5.53317 4.6 6.00539 5.31667 6.28317 5.95C6.56095 6.58333 6.68873 7.26667 6.6665 8C6.64428 8.37778 6.48873 8.69444 6.19984 8.95C5.91095 9.20555 5.57762 9.33333 5.19984 9.33333C4.88873 9.33333 4.63873 9.2 4.44984 8.93333C4.26095 8.66667 4.1665 8.36667 4.1665 8.03333C4.1665 7.52222 4.06095 7.05556 3.84984 6.63333C3.63873 6.21111 3.34428 5.77778 2.9665 5.33333ZM8.33317 5.33333C7.75539 4.64444 7.33317 3.98889 7.0665 3.36667C6.79984 2.74444 6.65539 2.06667 6.63317 1.33333C6.63317 0.955555 6.77206 0.638889 7.04984 0.383333C7.32762 0.127778 7.65539 0 8.03317 0C8.3665 0 8.63873 0.133333 8.84984 0.4C9.06095 0.666667 9.1665 0.977778 9.1665 1.33333C9.1665 1.77778 9.24428 2.18889 9.39984 2.56667C9.55539 2.94444 9.82206 3.35556 10.1998 3.8C10.8665 4.6 11.3387 5.31667 11.6165 5.95C11.8943 6.58333 12.0221 7.26667 11.9998 8C11.9776 8.37778 11.8221 8.69444 11.5332 8.95C11.2443 9.20555 10.9109 9.33333 10.5332 9.33333C10.2221 9.33333 9.97206 9.2 9.78317 8.93333C9.59428 8.66667 9.49984 8.36667 9.49984 8.03333C9.52206 7.52222 9.42762 7.05556 9.2165 6.63333C9.00539 6.21111 8.71095 5.77778 8.33317 5.33333ZM13.6665 5.33333C13.0887 4.64444 12.6665 3.98889 12.3998 3.36667C12.1332 2.74444 11.9887 2.06667 11.9665 1.33333C11.9665 0.955555 12.1054 0.638889 12.3832 0.383333C12.6609 0.127778 12.9887 0 13.3665 0C13.6998 0 13.9721 0.133333 14.1832 0.4C14.3943 0.666667 14.4998 0.977778 14.4998 1.33333C14.4998 1.77778 14.5776 2.18889 14.7332 2.56667C14.8887 2.94444 15.1554 3.35556 15.5332 3.8C16.1998 4.6 16.6721 5.31667 16.9498 5.95C17.2276 6.58333 17.3554 7.26667 17.3332 8C17.3109 8.37778 17.1554 8.69444 16.8665 8.95C16.5776 9.20555 16.2443 9.33333 15.8665 9.33333C15.5554 9.33333 15.3054 9.2 15.1165 8.93333C14.9276 8.66667 14.8332 8.36667 14.8332 8.03333C14.8554 7.52222 14.7609 7.05556 14.5498 6.63333C14.3387 6.21111 14.0443 5.77778 13.6665 5.33333ZM4.6665 22.6667C3.55539 22.6667 2.61095 22.2778 1.83317 21.5C1.05539 20.7222 0.666504 19.7778 0.666504 18.6667V13.3333C0.666504 12.9556 0.794282 12.6389 1.04984 12.3833C1.30539 12.1278 1.62206 12 1.99984 12H19.3665C19.4776 11.2444 19.7776 10.5833 20.2665 10.0167C20.7554 9.45 21.3554 9.04444 22.0665 8.8L26.9665 7.16667C27.3221 7.05556 27.6665 7.07778 27.9998 7.23333C28.3332 7.38889 28.5554 7.64444 28.6665 8C28.7776 8.35556 28.7498 8.7 28.5832 9.03333C28.4165 9.36667 28.1554 9.58889 27.7998 9.7L22.8998 11.3333C22.6332 11.4222 22.4165 11.5833 22.2498 11.8167C22.0832 12.05 21.9998 12.3111 21.9998 12.6V18.6667C21.9998 19.7778 21.6109 20.7222 20.8332 21.5C20.0554 22.2778 19.1109 22.6667 17.9998 22.6667H4.6665ZM4.6665 20H17.9998C18.3776 20 18.6943 19.8722 18.9498 19.6167C19.2054 19.3611 19.3332 19.0444 19.3332 18.6667V14.6667H3.33317V18.6667C3.33317 19.0444 3.46095 19.3611 3.7165 19.6167C3.97206 19.8722 4.28873 20 4.6665 20Z" fill="white"/>
</svg>
