<svg width="51" height="51" viewBox="0 0 51 51" fill="none" xmlns="http://www.w3.org/2000/svg">
<rect x="0.5" y="0.5" width="50" height="50" rx="25" fill="#FEDF22"/>
<path d="M29.45 25.8L25.2 21.55C25.1 21.45 25.0292 21.3417 24.9875 21.225C24.9458 21.1083 24.925 20.9833 24.925 20.85C24.925 20.7167 24.9458 20.5917 24.9875 20.475C25.0292 20.3583 25.1 20.25 25.2 20.15L29.45 15.9C29.55 15.8 29.6583 15.7292 29.775 15.6875C29.8917 15.6458 30.0167 15.625 30.15 15.625C30.2833 15.625 30.4083 15.6458 30.525 15.6875C30.6417 15.7292 30.75 15.8 30.85 15.9L35.1 20.15C35.2 20.25 35.2708 20.3583 35.3125 20.475C35.3542 20.5917 35.375 20.7167 35.375 20.85C35.375 20.9833 35.3542 21.1083 35.3125 21.225C35.2708 21.3417 35.2 21.45 35.1 21.55L30.85 25.8C30.75 25.9 30.6417 25.9708 30.525 26.0125C30.4083 26.0542 30.2833 26.075 30.15 26.075C30.0167 26.075 29.8917 26.0542 29.775 26.0125C29.6583 25.9708 29.55 25.9 29.45 25.8ZM16.5 23.5V17.5C16.5 17.2167 16.5958 16.9792 16.7875 16.7875C16.9792 16.5958 17.2167 16.5 17.5 16.5H23.5C23.7833 16.5 24.0208 16.5958 24.2125 16.7875C24.4042 16.9792 24.5 17.2167 24.5 17.5V23.5C24.5 23.7833 24.4042 24.0208 24.2125 24.2125C24.0208 24.4042 23.7833 24.5 23.5 24.5H17.5C17.2167 24.5 16.9792 24.4042 16.7875 24.2125C16.5958 24.0208 16.5 23.7833 16.5 23.5ZM26.5 33.5V27.5C26.5 27.2167 26.5958 26.9792 26.7875 26.7875C26.9792 26.5958 27.2167 26.5 27.5 26.5H33.5C33.7833 26.5 34.0208 26.5958 34.2125 26.7875C34.4042 26.9792 34.5 27.2167 34.5 27.5V33.5C34.5 33.7833 34.4042 34.0208 34.2125 34.2125C34.0208 34.4042 33.7833 34.5 33.5 34.5H27.5C27.2167 34.5 26.9792 34.4042 26.7875 34.2125C26.5958 34.0208 26.5 33.7833 26.5 33.5ZM16.5 33.5V27.5C16.5 27.2167 16.5958 26.9792 16.7875 26.7875C16.9792 26.5958 17.2167 26.5 17.5 26.5H23.5C23.7833 26.5 24.0208 26.5958 24.2125 26.7875C24.4042 26.9792 24.5 27.2167 24.5 27.5V33.5C24.5 33.7833 24.4042 34.0208 24.2125 34.2125C24.0208 34.4042 23.7833 34.5 23.5 34.5H17.5C17.2167 34.5 16.9792 34.4042 16.7875 34.2125C16.5958 34.0208 16.5 33.7833 16.5 33.5ZM18.5 22.5H22.5V18.5H18.5V22.5ZM30.175 23.7L33 20.875L30.175 18.05L27.35 20.875L30.175 23.7ZM28.5 32.5H32.5V28.5H28.5V32.5ZM18.5 32.5H22.5V28.5H18.5V32.5Z" fill="#2D2323"/>
</svg>
