<svg width="25" height="25" viewBox="0 0 25 25" fill="none" xmlns="http://www.w3.org/2000/svg">
<path d="M17.1648 12.9706L11.7609 7.56661C11.6337 7.43946 11.5436 7.30171 11.4907 7.15337C11.4377 7.00502 11.4112 6.84608 11.4112 6.67655C11.4112 6.50701 11.4377 6.34807 11.4907 6.19972C11.5436 6.05138 11.6337 5.91363 11.7609 5.78648L17.1648 0.382506C17.292 0.255353 17.4297 0.165287 17.5781 0.112307C17.7264 0.059327 17.8854 0.0328369 18.0549 0.0328369C18.2244 0.0328369 18.3834 0.059327 18.5317 0.112307C18.6801 0.165287 18.8178 0.255353 18.945 0.382506L24.3489 5.78648C24.4761 5.91363 24.5662 6.05138 24.6191 6.19972C24.6721 6.34807 24.6986 6.50701 24.6986 6.67655C24.6986 6.84608 24.6721 7.00502 24.6191 7.15337C24.5662 7.30171 24.4761 7.43946 24.3489 7.56661L18.945 12.9706C18.8178 13.0977 18.6801 13.1878 18.5317 13.2408C18.3834 13.2938 18.2244 13.3203 18.0549 13.3203C17.8854 13.3203 17.7264 13.2938 17.5781 13.2408C17.4297 13.1878 17.292 13.0977 17.1648 12.9706ZM0.698608 10.0461V2.41694C0.698608 2.05668 0.820463 1.75469 1.06417 1.51098C1.30788 1.26727 1.60987 1.14542 1.97013 1.14542H9.59927C9.95954 1.14542 10.2615 1.26727 10.5052 1.51098C10.7489 1.75469 10.8708 2.05668 10.8708 2.41694V10.0461C10.8708 10.4063 10.7489 10.7083 10.5052 10.952C10.2615 11.1958 9.95954 11.3176 9.59927 11.3176H1.97013C1.60987 11.3176 1.30788 11.1958 1.06417 10.952C0.820463 10.7083 0.698608 10.4063 0.698608 10.0461ZM13.4138 22.7613V15.1322C13.4138 14.7719 13.5357 14.4699 13.7794 14.2262C14.0231 13.9825 14.3251 13.8607 14.6854 13.8607H22.3145C22.6748 13.8607 22.9768 13.9825 23.2205 14.2262C23.4642 14.4699 23.586 14.7719 23.586 15.1322V22.7613C23.586 23.1216 23.4642 23.4236 23.2205 23.6673C22.9768 23.911 22.6748 24.0328 22.3145 24.0328H14.6854C14.3251 24.0328 14.0231 23.911 13.7794 23.6673C13.5357 23.4236 13.4138 23.1216 13.4138 22.7613ZM0.698608 22.7613V15.1322C0.698608 14.7719 0.820463 14.4699 1.06417 14.2262C1.30788 13.9825 1.60987 13.8607 1.97013 13.8607H9.59927C9.95954 13.8607 10.2615 13.9825 10.5052 14.2262C10.7489 14.4699 10.8708 14.7719 10.8708 15.1322V22.7613C10.8708 23.1216 10.7489 23.4236 10.5052 23.6673C10.2615 23.911 9.95954 24.0328 9.59927 24.0328H1.97013C1.60987 24.0328 1.30788 23.911 1.06417 23.6673C0.820463 23.4236 0.698608 23.1216 0.698608 22.7613ZM3.24165 8.77456H8.32775V3.68847H3.24165V8.77456ZM18.0867 10.3004L21.6787 6.70833L18.0867 3.11628L14.4946 6.70833L18.0867 10.3004ZM15.9569 21.4898H21.043V16.4037H15.9569V21.4898ZM3.24165 21.4898H8.32775V16.4037H3.24165V21.4898Z" fill="white"/>
</svg>
