<svg width="28" height="28" viewBox="0 0 28 28" fill="none" xmlns="http://www.w3.org/2000/svg">
<path d="M14 17.3L16.5333 18.8333C16.7778 18.9889 17.0222 18.9833 17.2667 18.8167C17.5111 18.65 17.6 18.4222 17.5333 18.1333L16.8667 15.2333L19.1333 13.2667C19.3556 13.0667 19.4222 12.8278 19.3333 12.55C19.2444 12.2722 19.0444 12.1222 18.7333 12.1L15.7667 11.8667L14.6 9.13333C14.4889 8.86667 14.2889 8.73333 14 8.73333C13.7111 8.73333 13.5111 8.86667 13.4 9.13333L12.2333 11.8667L9.26667 12.1C8.95556 12.1222 8.75556 12.2722 8.66667 12.55C8.57778 12.8278 8.64444 13.0667 8.86667 13.2667L11.1333 15.2333L10.4667 18.1333C10.4 18.4222 10.4889 18.65 10.7333 18.8167C10.9778 18.9833 11.2222 18.9889 11.4667 18.8333L14 17.3ZM9.53333 24.6667H6C5.26667 24.6667 4.63889 24.4056 4.11667 23.8833C3.59444 23.3611 3.33333 22.7333 3.33333 22V18.4667L0.766667 15.8667C0.522222 15.6 0.333333 15.3056 0.2 14.9833C0.0666667 14.6611 0 14.3333 0 14C0 13.6667 0.0666667 13.3389 0.2 13.0167C0.333333 12.6944 0.522222 12.4 0.766667 12.1333L3.33333 9.53333V6C3.33333 5.26667 3.59444 4.63889 4.11667 4.11667C4.63889 3.59444 5.26667 3.33333 6 3.33333H9.53333L12.1333 0.766667C12.4 0.522222 12.6944 0.333333 13.0167 0.2C13.3389 0.0666667 13.6667 0 14 0C14.3333 0 14.6611 0.0666667 14.9833 0.2C15.3056 0.333333 15.6 0.522222 15.8667 0.766667L18.4667 3.33333H22C22.7333 3.33333 23.3611 3.59444 23.8833 4.11667C24.4056 4.63889 24.6667 5.26667 24.6667 6V9.53333L27.2333 12.1333C27.4778 12.4 27.6667 12.6944 27.8 13.0167C27.9333 13.3389 28 13.6667 28 14C28 14.3333 27.9333 14.6611 27.8 14.9833C27.6667 15.3056 27.4778 15.6 27.2333 15.8667L24.6667 18.4667V22C24.6667 22.7333 24.4056 23.3611 23.8833 23.8833C23.3611 24.4056 22.7333 24.6667 22 24.6667H18.4667L15.8667 27.2333C15.6 27.4778 15.3056 27.6667 14.9833 27.8C14.6611 27.9333 14.3333 28 14 28C13.6667 28 13.3389 27.9333 13.0167 27.8C12.6944 27.6667 12.4 27.4778 12.1333 27.2333L9.53333 24.6667ZM10.6667 22L14 25.3333L17.3333 22H22V17.3333L25.3333 14L22 10.6667V6H17.3333L14 2.66667L10.6667 6H6V10.6667L2.66667 14L6 17.3333V22H10.6667Z" fill="white"/>
</svg>
