<svg width="65" height="65" viewBox="0 0 65 65" fill="none" xmlns="http://www.w3.org/2000/svg">
<rect x="0.75" y="0.5" width="64" height="64" rx="32" fill="#3355FF"/>
<path d="M25.4167 41.4666L26.7501 38.1666C26.9501 37.6555 27.2723 37.25 27.7167 36.95C28.1612 36.65 28.6612 36.5 29.2167 36.5H31.4167V31.1333C28.0167 31.0222 25.1667 30.5222 22.8667 29.6333C20.5667 28.7444 19.4167 27.7 19.4167 26.5C19.4167 25.2111 20.7167 24.1111 23.3167 23.2C25.9167 22.2889 29.0612 21.8333 32.7501 21.8333C36.4612 21.8333 39.6112 22.2889 42.2001 23.2C44.789 24.1111 46.0834 25.2111 46.0834 26.5C46.0834 27.7 44.9334 28.7444 42.6334 29.6333C40.3334 30.5222 37.4834 31.0222 34.0834 31.1333V36.5H36.2834C36.8167 36.5 37.3112 36.65 37.7667 36.95C38.2223 37.25 38.5501 37.6555 38.7501 38.1666L40.0834 41.4666C40.2612 41.8666 40.2223 42.25 39.9667 42.6166C39.7112 42.9833 39.3612 43.1666 38.9167 43.1666C38.6723 43.1666 38.4501 43.1 38.2501 42.9666C38.0501 42.8333 37.8945 42.6444 37.7834 42.4L36.4834 39.1666H29.0167L27.7167 42.4C27.6056 42.6444 27.4501 42.8333 27.2501 42.9666C27.0501 43.1 26.8279 43.1666 26.5834 43.1666C26.139 43.1666 25.789 42.9833 25.5334 42.6166C25.2779 42.25 25.239 41.8666 25.4167 41.4666ZM32.7501 28.5C34.9056 28.5 36.939 28.3111 38.8501 27.9333C40.7612 27.5555 42.1612 27.0778 43.0501 26.5C42.1612 25.9222 40.7612 25.4444 38.8501 25.0666C36.939 24.6889 34.9056 24.5 32.7501 24.5C30.5945 24.5 28.5612 24.6889 26.6501 25.0666C24.739 25.4444 23.339 25.9222 22.4501 26.5C23.339 27.0778 24.739 27.5555 26.6501 27.9333C28.5612 28.3111 30.5945 28.5 32.7501 28.5Z" fill="white"/>
</svg>
