<svg width="28" height="22" viewBox="0 0 28 22" fill="none" xmlns="http://www.w3.org/2000/svg">
<path d="M6.66797 19.9668L8.0013 16.6668C8.2013 16.1557 8.52352 15.7502 8.96797 15.4502C9.41241 15.1502 9.91241 15.0002 10.468 15.0002H12.668V9.6335C9.26797 9.52239 6.41797 9.02239 4.11797 8.1335C1.81797 7.24461 0.667969 6.20016 0.667969 5.00016C0.667969 3.71127 1.96797 2.61127 4.56797 1.70016C7.16797 0.789052 10.3124 0.333496 14.0013 0.333496C17.7124 0.333496 20.8624 0.789052 23.4513 1.70016C26.0402 2.61127 27.3346 3.71127 27.3346 5.00016C27.3346 6.20016 26.1846 7.24461 23.8846 8.1335C21.5846 9.02239 18.7346 9.52239 15.3346 9.6335V15.0002H17.5346C18.068 15.0002 18.5624 15.1502 19.018 15.4502C19.4735 15.7502 19.8013 16.1557 20.0013 16.6668L21.3346 19.9668C21.5124 20.3668 21.4735 20.7502 21.218 21.1168C20.9624 21.4835 20.6124 21.6668 20.168 21.6668C19.9235 21.6668 19.7013 21.6002 19.5013 21.4668C19.3013 21.3335 19.1457 21.1446 19.0346 20.9002L17.7346 17.6668H10.268L8.96797 20.9002C8.85686 21.1446 8.7013 21.3335 8.5013 21.4668C8.3013 21.6002 8.07908 21.6668 7.83463 21.6668C7.39019 21.6668 7.04019 21.4835 6.78464 21.1168C6.52908 20.7502 6.49019 20.3668 6.66797 19.9668ZM14.0013 7.00016C16.1569 7.00016 18.1902 6.81127 20.1013 6.4335C22.0124 6.05572 23.4124 5.57794 24.3013 5.00016C23.4124 4.42239 22.0124 3.94461 20.1013 3.56683C18.1902 3.18905 16.1569 3.00016 14.0013 3.00016C11.8457 3.00016 9.81241 3.18905 7.9013 3.56683C5.99019 3.94461 4.59019 4.42239 3.7013 5.00016C4.59019 5.57794 5.99019 6.05572 7.9013 6.4335C9.81241 6.81127 11.8457 7.00016 14.0013 7.00016Z" fill="white"/>
</svg>
