<svg width="39" height="13" viewBox="0 0 39 13" fill="none" xmlns="http://www.w3.org/2000/svg">
<ellipse cx="5.40587" cy="6.15266" rx="5.39025" ry="5.64692" fill="#F2604B"/>
<path d="M14.4753 6.57266C12.9718 5.06907 12.9718 2.63128 14.4753 1.12769C15.9789 -0.375897 18.4167 -0.375897 19.9203 1.12769L24.2763 5.48367C25.7799 6.98725 25.7799 9.42505 24.2763 10.9286C22.7727 12.4322 20.3349 12.4322 18.8313 10.9286L14.4753 6.57266Z" fill="#3355FF"/>
<path d="M28.071 6.57266C26.5675 5.06907 26.5675 2.63128 28.071 1.12769C29.5746 -0.375897 32.0124 -0.375897 33.516 1.12769L37.872 5.48367C39.3756 6.98725 39.3756 9.42505 37.872 10.9286C36.3684 12.4322 33.9306 12.4322 32.427 10.9286L28.071 6.57266Z" fill="#FEDF22"/>
</svg>
