<svg width="29" height="26" viewBox="0 0 29 26" fill="none" xmlns="http://www.w3.org/2000/svg">
<path d="M26.0013 8.66663C26.7124 8.66663 27.3346 8.9333 27.868 9.46663C28.4013 9.99997 28.668 10.6222 28.668 11.3333V14C28.668 14.1555 28.6457 14.3222 28.6013 14.5C28.5569 14.6777 28.5124 14.8444 28.468 15L24.468 24.4C24.268 24.8444 23.9346 25.2222 23.468 25.5333C23.0013 25.8444 22.5124 26 22.0013 26H7.33464V8.66663L15.3346 0.733301C15.668 0.399967 16.0624 0.205523 16.518 0.149967C16.9735 0.0944119 17.4124 0.177745 17.8346 0.399967C18.2569 0.62219 18.568 0.933301 18.768 1.3333C18.968 1.7333 19.0124 2.14441 18.9013 2.56663L17.4013 8.66663H26.0013ZM10.0013 9.79997V23.3333H22.0013L26.0013 14V11.3333H14.0013L15.8013 3.99997L10.0013 9.79997ZM3.33464 26C2.6013 26 1.97352 25.7389 1.4513 25.2166C0.92908 24.6944 0.667969 24.0666 0.667969 23.3333V11.3333C0.667969 10.6 0.92908 9.97219 1.4513 9.44997C1.97352 8.92775 2.6013 8.66663 3.33464 8.66663H7.33464V11.3333H3.33464V23.3333H7.33464V26H3.33464Z" fill="white"/>
</svg>
