<svg width="64" height="64" viewBox="0 0 64 64" fill="none" xmlns="http://www.w3.org/2000/svg">
<rect width="64" height="64" rx="32" fill="#3355FF"/>
<path d="M44.0013 26.6666C44.7124 26.6666 45.3346 26.9333 45.868 27.4666C46.4013 28 46.668 28.6222 46.668 29.3333V32C46.668 32.1555 46.6457 32.3222 46.6013 32.5C46.5569 32.6777 46.5124 32.8444 46.468 33L42.468 42.4C42.268 42.8444 41.9346 43.2222 41.468 43.5333C41.0013 43.8444 40.5124 44 40.0013 44H25.3346V26.6666L33.3346 18.7333C33.668 18.4 34.0624 18.2055 34.518 18.15C34.9735 18.0944 35.4124 18.1777 35.8346 18.4C36.2569 18.6222 36.568 18.9333 36.768 19.3333C36.968 19.7333 37.0124 20.1444 36.9013 20.5666L35.4013 26.6666H44.0013ZM28.0013 27.8V41.3333H40.0013L44.0013 32V29.3333H32.0013L33.8013 22L28.0013 27.8ZM21.3346 44C20.6013 44 19.9735 43.7389 19.4513 43.2166C18.9291 42.6944 18.668 42.0666 18.668 41.3333V29.3333C18.668 28.6 18.9291 27.9722 19.4513 27.45C19.9735 26.9277 20.6013 26.6666 21.3346 26.6666H25.3346V29.3333H21.3346V41.3333H25.3346V44H21.3346Z" fill="white"/>
</svg>
