<svg width="24" height="24" viewBox="0 0 24 24" fill="none" xmlns="http://www.w3.org/2000/svg">
<path d="M12 24C10.3556 24 8.80556 23.6833 7.35 23.05C5.89444 22.4167 4.62222 21.5556 3.53333 20.4667C2.44444 19.3778 1.58333 18.1056 0.95 16.65C0.316667 15.1944 0 13.6444 0 12C0 10.2667 0.333333 8.64444 1 7.13333C1.66667 5.62222 2.6 4.32222 3.8 3.23333C4.06667 2.98889 4.38333 2.87222 4.75 2.88333C5.11667 2.89444 5.42222 3.02222 5.66667 3.26667L12.9333 10.5333C13.1778 10.7778 13.3 11.0889 13.3 11.4667C13.3 11.8444 13.1778 12.1556 12.9333 12.4C12.6889 12.6444 12.3778 12.7667 12 12.7667C11.6222 12.7667 11.3111 12.6444 11.0667 12.4L4.8 6.13333C4.13333 6.93333 3.61111 7.82778 3.23333 8.81667C2.85556 9.80556 2.66667 10.8667 2.66667 12C2.66667 14.5778 3.57778 16.7778 5.4 18.6C7.22222 20.4222 9.42222 21.3333 12 21.3333C14.5778 21.3333 16.7778 20.4222 18.6 18.6C20.4222 16.7778 21.3333 14.5778 21.3333 12C21.3333 9.62222 20.5722 7.57222 19.05 5.85C17.5278 4.12778 15.6222 3.11111 13.3333 2.8V4C13.3333 4.37778 13.2056 4.69444 12.95 4.95C12.6944 5.20556 12.3778 5.33333 12 5.33333C11.6222 5.33333 11.3056 5.20556 11.05 4.95C10.7944 4.69444 10.6667 4.37778 10.6667 4V1.33333C10.6667 0.955556 10.7944 0.638889 11.05 0.383333C11.3056 0.127778 11.6222 0 12 0C13.6444 0 15.1944 0.316667 16.65 0.95C18.1056 1.58333 19.3778 2.44444 20.4667 3.53333C21.5556 4.62222 22.4167 5.89444 23.05 7.35C23.6833 8.80556 24 10.3556 24 12C24 13.6444 23.6833 15.1944 23.05 16.65C22.4167 18.1056 21.5556 19.3778 20.4667 20.4667C19.3778 21.5556 18.1056 22.4167 16.65 23.05C15.1944 23.6833 13.6444 24 12 24ZM5.33333 13.3333C4.95556 13.3333 4.63889 13.2056 4.38333 12.95C4.12778 12.6944 4 12.3778 4 12C4 11.6222 4.12778 11.3056 4.38333 11.05C4.63889 10.7944 4.95556 10.6667 5.33333 10.6667C5.71111 10.6667 6.02778 10.7944 6.28333 11.05C6.53889 11.3056 6.66667 11.6222 6.66667 12C6.66667 12.3778 6.53889 12.6944 6.28333 12.95C6.02778 13.2056 5.71111 13.3333 5.33333 13.3333ZM12 20C11.6222 20 11.3056 19.8722 11.05 19.6167C10.7944 19.3611 10.6667 19.0444 10.6667 18.6667C10.6667 18.2889 10.7944 17.9722 11.05 17.7167C11.3056 17.4611 11.6222 17.3333 12 17.3333C12.3778 17.3333 12.6944 17.4611 12.95 17.7167C13.2056 17.9722 13.3333 18.2889 13.3333 18.6667C13.3333 19.0444 13.2056 19.3611 12.95 19.6167C12.6944 19.8722 12.3778 20 12 20ZM18.6667 13.3333C18.2889 13.3333 17.9722 13.2056 17.7167 12.95C17.4611 12.6944 17.3333 12.3778 17.3333 12C17.3333 11.6222 17.4611 11.3056 17.7167 11.05C17.9722 10.7944 18.2889 10.6667 18.6667 10.6667C19.0444 10.6667 19.3611 10.7944 19.6167 11.05C19.8722 11.3056 20 11.6222 20 12C20 12.3778 19.8722 12.6944 19.6167 12.95C19.3611 13.2056 19.0444 13.3333 18.6667 13.3333Z" fill="white"/>
</svg>
