<svg width="28" height="28" viewBox="0 0 28 28" fill="none" xmlns="http://www.w3.org/2000/svg">
<path d="M26.5327 17L16.9993 26.5333C16.7327 26.8 16.4327 27 16.0993 27.1333C15.766 27.2666 15.4327 27.3333 15.0993 27.3333C14.766 27.3333 14.4327 27.2666 14.0993 27.1333C13.766 27 13.466 26.8 13.1993 26.5333L1.43268 14.7666C1.18824 14.5222 0.999349 14.2388 0.866016 13.9166C0.732682 13.5944 0.666016 13.2555 0.666016 12.9V3.33329C0.666016 2.59996 0.927127 1.97218 1.44935 1.44996C1.97157 0.927737 2.59935 0.666626 3.33268 0.666626H12.8993C13.2549 0.666626 13.5993 0.738848 13.9327 0.883293C14.266 1.02774 14.5549 1.22218 14.7993 1.46663L26.5327 13.2333C26.7993 13.5 26.9938 13.8 27.116 14.1333C27.2382 14.4666 27.2993 14.8 27.2993 15.1333C27.2993 15.4666 27.2382 15.7944 27.116 16.1166C26.9938 16.4388 26.7993 16.7333 26.5327 17ZM15.0993 24.6666L24.6327 15.1333L12.866 3.33329H3.33268V12.8666L15.0993 24.6666ZM6.66602 8.66663C7.22157 8.66663 7.69379 8.47218 8.08268 8.08329C8.47157 7.6944 8.66602 7.22218 8.66602 6.66663C8.66602 6.11107 8.47157 5.63885 8.08268 5.24996C7.69379 4.86107 7.22157 4.66663 6.66602 4.66663C6.11046 4.66663 5.63824 4.86107 5.24935 5.24996C4.86046 5.63885 4.66602 6.11107 4.66602 6.66663C4.66602 7.22218 4.86046 7.6944 5.24935 8.08329C5.63824 8.47218 6.11046 8.66663 6.66602 8.66663Z" fill="white"/>
</svg>
