<svg width="51" height="50" viewBox="0 0 51 50" fill="none" xmlns="http://www.w3.org/2000/svg">
<rect x="0.25" width="50" height="50" rx="25" fill="#FEDF22"/>
<path d="M25.25 34C23.15 34 21.2917 33.3625 19.675 32.0875C18.0583 30.8125 17.0083 29.1833 16.525 27.2C16.4583 26.95 16.5083 26.7208 16.675 26.5125C16.8417 26.3042 17.0667 26.1833 17.35 26.15C17.6167 26.1167 17.8583 26.1667 18.075 26.3C18.2917 26.4333 18.4417 26.6333 18.525 26.9C18.925 28.4 19.75 29.625 21 30.575C22.25 31.525 23.6667 32 25.25 32C27.2 32 28.8542 31.3208 30.2125 29.9625C31.5708 28.6042 32.25 26.95 32.25 25C32.25 23.05 31.5708 21.3958 30.2125 20.0375C28.8542 18.6792 27.2 18 25.25 18C24.1 18 23.025 18.2667 22.025 18.8C21.025 19.3333 20.1833 20.0667 19.5 21H21.25C21.5333 21 21.7708 21.0958 21.9625 21.2875C22.1542 21.4792 22.25 21.7167 22.25 22C22.25 22.2833 22.1542 22.5208 21.9625 22.7125C21.7708 22.9042 21.5333 23 21.25 23H17.25C16.9667 23 16.7292 22.9042 16.5375 22.7125C16.3458 22.5208 16.25 22.2833 16.25 22V18C16.25 17.7167 16.3458 17.4792 16.5375 17.2875C16.7292 17.0958 16.9667 17 17.25 17C17.5333 17 17.7708 17.0958 17.9625 17.2875C18.1542 17.4792 18.25 17.7167 18.25 18V19.35C19.1 18.2833 20.1375 17.4583 21.3625 16.875C22.5875 16.2917 23.8833 16 25.25 16C26.5 16 27.6708 16.2375 28.7625 16.7125C29.8542 17.1875 30.8042 17.8292 31.6125 18.6375C32.4208 19.4458 33.0625 20.3958 33.5375 21.4875C34.0125 22.5792 34.25 23.75 34.25 25C34.25 26.25 34.0125 27.4208 33.5375 28.5125C33.0625 29.6042 32.4208 30.5542 31.6125 31.3625C30.8042 32.1708 29.8542 32.8125 28.7625 33.2875C27.6708 33.7625 26.5 34 25.25 34ZM26.25 24.6L28.75 27.1C28.9333 27.2833 29.025 27.5167 29.025 27.8C29.025 28.0833 28.9333 28.3167 28.75 28.5C28.5667 28.6833 28.3333 28.775 28.05 28.775C27.7667 28.775 27.5333 28.6833 27.35 28.5L24.55 25.7C24.45 25.6 24.375 25.4875 24.325 25.3625C24.275 25.2375 24.25 25.1083 24.25 24.975V21C24.25 20.7167 24.3458 20.4792 24.5375 20.2875C24.7292 20.0958 24.9667 20 25.25 20C25.5333 20 25.7708 20.0958 25.9625 20.2875C26.1542 20.4792 26.25 20.7167 26.25 21V24.6Z" fill="#2D2323"/>
</svg>
