<svg width="25" height="24" viewBox="0 0 25 24" fill="none" xmlns="http://www.w3.org/2000/svg">
<path d="M12.2266 24C9.42656 24 6.94878 23.15 4.79323 21.45C2.63767 19.75 1.23767 17.5778 0.593229 14.9333C0.50434 14.6 0.571007 14.2944 0.793229 14.0167C1.01545 13.7389 1.31545 13.5778 1.69323 13.5333C2.04878 13.4889 2.37101 13.5556 2.6599 13.7333C2.94878 13.9111 3.14878 14.1778 3.2599 14.5333C3.79323 16.5333 4.89323 18.1667 6.5599 19.4333C8.22656 20.7 10.1155 21.3333 12.2266 21.3333C14.8266 21.3333 17.0321 20.4278 18.8432 18.6167C20.6543 16.8056 21.5599 14.6 21.5599 12C21.5599 9.4 20.6543 7.19444 18.8432 5.38333C17.0321 3.57222 14.8266 2.66667 12.2266 2.66667C10.6932 2.66667 9.2599 3.02222 7.92656 3.73333C6.59323 4.44444 5.47101 5.42222 4.5599 6.66667H6.89323C7.27101 6.66667 7.58767 6.79444 7.84323 7.05C8.09879 7.30556 8.22656 7.62222 8.22656 8C8.22656 8.37778 8.09879 8.69444 7.84323 8.95C7.58767 9.20556 7.27101 9.33333 6.89323 9.33333H1.5599C1.18212 9.33333 0.865451 9.20556 0.609896 8.95C0.35434 8.69444 0.226562 8.37778 0.226562 8V2.66667C0.226562 2.28889 0.35434 1.97222 0.609896 1.71667C0.865451 1.46111 1.18212 1.33333 1.5599 1.33333C1.93767 1.33333 2.25434 1.46111 2.5099 1.71667C2.76545 1.97222 2.89323 2.28889 2.89323 2.66667V4.46667C4.02656 3.04444 5.4099 1.94444 7.04323 1.16667C8.67656 0.388889 10.4043 0 12.2266 0C13.8932 0 15.4543 0.316667 16.9099 0.95C18.3655 1.58333 19.6321 2.43889 20.7099 3.51667C21.7877 4.59444 22.6432 5.86111 23.2766 7.31667C23.9099 8.77222 24.2266 10.3333 24.2266 12C24.2266 13.6667 23.9099 15.2278 23.2766 16.6833C22.6432 18.1389 21.7877 19.4056 20.7099 20.4833C19.6321 21.5611 18.3655 22.4167 16.9099 23.05C15.4543 23.6833 13.8932 24 12.2266 24ZM13.5599 11.4667L16.8932 14.8C17.1377 15.0444 17.2599 15.3556 17.2599 15.7333C17.2599 16.1111 17.1377 16.4222 16.8932 16.6667C16.6488 16.9111 16.3377 17.0333 15.9599 17.0333C15.5821 17.0333 15.271 16.9111 15.0266 16.6667L11.2932 12.9333C11.1599 12.8 11.0599 12.65 10.9932 12.4833C10.9266 12.3167 10.8932 12.1444 10.8932 11.9667V6.66667C10.8932 6.28889 11.021 5.97222 11.2766 5.71667C11.5321 5.46111 11.8488 5.33333 12.2266 5.33333C12.6043 5.33333 12.921 5.46111 13.1766 5.71667C13.4321 5.97222 13.5599 6.28889 13.5599 6.66667V11.4667Z" fill="white"/>
</svg>
