<svg width="65" height="65" viewBox="0 0 65 65" fill="none" xmlns="http://www.w3.org/2000/svg">
<rect x="0.5" y="0.5" width="64" height="64" rx="32" fill="#3355FF"/>
<path d="M45.0327 35.5L35.4993 45.0333C35.2327 45.3 34.9327 45.5 34.5993 45.6333C34.266 45.7666 33.9327 45.8333 33.5993 45.8333C33.266 45.8333 32.9327 45.7666 32.5993 45.6333C32.266 45.5 31.966 45.3 31.6993 45.0333L19.9327 33.2666C19.6882 33.0222 19.4993 32.7388 19.366 32.4166C19.2327 32.0944 19.166 31.7555 19.166 31.4V21.8333C19.166 21.1 19.4271 20.4722 19.9493 19.95C20.4716 19.4277 21.0993 19.1666 21.8327 19.1666H31.3993C31.7549 19.1666 32.0993 19.2388 32.4327 19.3833C32.766 19.5277 33.0549 19.7222 33.2993 19.9666L45.0327 31.7333C45.2993 32 45.4938 32.3 45.616 32.6333C45.7382 32.9666 45.7993 33.3 45.7993 33.6333C45.7993 33.9666 45.7382 34.2944 45.616 34.6166C45.4938 34.9388 45.2993 35.2333 45.0327 35.5ZM33.5993 43.1666L43.1327 33.6333L31.366 21.8333H21.8327V31.3666L33.5993 43.1666ZM25.166 27.1666C25.7216 27.1666 26.1938 26.9722 26.5827 26.5833C26.9716 26.1944 27.166 25.7222 27.166 25.1666C27.166 24.6111 26.9716 24.1388 26.5827 23.75C26.1938 23.3611 25.7216 23.1666 25.166 23.1666C24.6105 23.1666 24.1382 23.3611 23.7493 23.75C23.3605 24.1388 23.166 24.6111 23.166 25.1666C23.166 25.7222 23.3605 26.1944 23.7493 26.5833C24.1382 26.9722 24.6105 27.1666 25.166 27.1666Z" fill="white"/>
</svg>
