<svg width="64" height="64" viewBox="0 0 64 64" fill="none" xmlns="http://www.w3.org/2000/svg">
<rect width="64" height="64" rx="32" fill="#3355FF"/>
<path d="M32 44C30.3556 44 28.8056 43.6833 27.35 43.05C25.8944 42.4167 24.6222 41.5556 23.5333 40.4667C22.4444 39.3778 21.5833 38.1056 20.95 36.65C20.3167 35.1944 20 33.6444 20 32C20 30.2667 20.3333 28.6444 21 27.1333C21.6667 25.6222 22.6 24.3222 23.8 23.2333C24.0667 22.9889 24.3833 22.8722 24.75 22.8833C25.1167 22.8944 25.4222 23.0222 25.6667 23.2667L32.9333 30.5333C33.1778 30.7778 33.3 31.0889 33.3 31.4667C33.3 31.8444 33.1778 32.1556 32.9333 32.4C32.6889 32.6444 32.3778 32.7667 32 32.7667C31.6222 32.7667 31.3111 32.6444 31.0667 32.4L24.8 26.1333C24.1333 26.9333 23.6111 27.8278 23.2333 28.8167C22.8556 29.8056 22.6667 30.8667 22.6667 32C22.6667 34.5778 23.5778 36.7778 25.4 38.6C27.2222 40.4222 29.4222 41.3333 32 41.3333C34.5778 41.3333 36.7778 40.4222 38.6 38.6C40.4222 36.7778 41.3333 34.5778 41.3333 32C41.3333 29.6222 40.5722 27.5722 39.05 25.85C37.5278 24.1278 35.6222 23.1111 33.3333 22.8V24C33.3333 24.3778 33.2056 24.6944 32.95 24.95C32.6944 25.2056 32.3778 25.3333 32 25.3333C31.6222 25.3333 31.3056 25.2056 31.05 24.95C30.7944 24.6944 30.6667 24.3778 30.6667 24V21.3333C30.6667 20.9556 30.7944 20.6389 31.05 20.3833C31.3056 20.1278 31.6222 20 32 20C33.6444 20 35.1944 20.3167 36.65 20.95C38.1056 21.5833 39.3778 22.4444 40.4667 23.5333C41.5556 24.6222 42.4167 25.8944 43.05 27.35C43.6833 28.8056 44 30.3556 44 32C44 33.6444 43.6833 35.1944 43.05 36.65C42.4167 38.1056 41.5556 39.3778 40.4667 40.4667C39.3778 41.5556 38.1056 42.4167 36.65 43.05C35.1944 43.6833 33.6444 44 32 44ZM25.3333 33.3333C24.9556 33.3333 24.6389 33.2056 24.3833 32.95C24.1278 32.6944 24 32.3778 24 32C24 31.6222 24.1278 31.3056 24.3833 31.05C24.6389 30.7944 24.9556 30.6667 25.3333 30.6667C25.7111 30.6667 26.0278 30.7944 26.2833 31.05C26.5389 31.3056 26.6667 31.6222 26.6667 32C26.6667 32.3778 26.5389 32.6944 26.2833 32.95C26.0278 33.2056 25.7111 33.3333 25.3333 33.3333ZM32 40C31.6222 40 31.3056 39.8722 31.05 39.6167C30.7944 39.3611 30.6667 39.0444 30.6667 38.6667C30.6667 38.2889 30.7944 37.9722 31.05 37.7167C31.3056 37.4611 31.6222 37.3333 32 37.3333C32.3778 37.3333 32.6944 37.4611 32.95 37.7167C33.2056 37.9722 33.3333 38.2889 33.3333 38.6667C33.3333 39.0444 33.2056 39.3611 32.95 39.6167C32.6944 39.8722 32.3778 40 32 40ZM38.6667 33.3333C38.2889 33.3333 37.9722 33.2056 37.7167 32.95C37.4611 32.6944 37.3333 32.3778 37.3333 32C37.3333 31.6222 37.4611 31.3056 37.7167 31.05C37.9722 30.7944 38.2889 30.6667 38.6667 30.6667C39.0444 30.6667 39.3611 30.7944 39.6167 31.05C39.8722 31.3056 40 31.6222 40 32C40 32.3778 39.8722 32.6944 39.6167 32.95C39.3611 33.2056 39.0444 33.3333 38.6667 33.3333Z" fill="white"/>
</svg>
