<svg width="50" height="50" viewBox="0 0 50 50" fill="none" xmlns="http://www.w3.org/2000/svg">
<rect width="50" height="50" rx="25" fill="#FEDF22"/>
<path d="M25 36L22 33H18C17.45 33 16.9792 32.8042 16.5875 32.4125C16.1958 32.0208 16 31.55 16 31V17C16 16.45 16.1958 15.9792 16.5875 15.5875C16.9792 15.1958 17.45 15 18 15H32C32.55 15 33.0208 15.1958 33.4125 15.5875C33.8042 15.9792 34 16.45 34 17V31C34 31.55 33.8042 32.0208 33.4125 32.4125C33.0208 32.8042 32.55 33 32 33H28L25 36ZM18 29.85C18.9 28.9667 19.9458 28.2708 21.1375 27.7625C22.3292 27.2542 23.6167 27 25 27C26.3833 27 27.6708 27.2542 28.8625 27.7625C30.0542 28.2708 31.1 28.9667 32 29.85V17H18V29.85ZM25 25C25.9667 25 26.7917 24.6583 27.475 23.975C28.1583 23.2917 28.5 22.4667 28.5 21.5C28.5 20.5333 28.1583 19.7083 27.475 19.025C26.7917 18.3417 25.9667 18 25 18C24.0333 18 23.2083 18.3417 22.525 19.025C21.8417 19.7083 21.5 20.5333 21.5 21.5C21.5 22.4667 21.8417 23.2917 22.525 23.975C23.2083 24.6583 24.0333 25 25 25ZM20 31H30V30.75C29.3 30.1667 28.525 29.7292 27.675 29.4375C26.825 29.1458 25.9333 29 25 29C24.0667 29 23.175 29.1458 22.325 29.4375C21.475 29.7292 20.7 30.1667 20 30.75V31ZM25 23C24.5833 23 24.2292 22.8542 23.9375 22.5625C23.6458 22.2708 23.5 21.9167 23.5 21.5C23.5 21.0833 23.6458 20.7292 23.9375 20.4375C24.2292 20.1458 24.5833 20 25 20C25.4167 20 25.7708 20.1458 26.0625 20.4375C26.3542 20.7292 26.5 21.0833 26.5 21.5C26.5 21.9167 26.3542 22.2708 26.0625 22.5625C25.7708 22.8542 25.4167 23 25 23Z" fill="black"/>
</svg>
