<svg width="24" height="24" viewBox="0 0 24 24" fill="none" xmlns="http://www.w3.org/2000/svg">
<path d="M2.66667 19.8C3.86667 18.6222 5.26111 17.6944 6.85 17.0167C8.43889 16.3389 10.1556 16 12 16C13.8444 16 15.5611 16.3389 17.15 17.0167C18.7389 17.6944 20.1333 18.6222 21.3333 19.8V2.66667H2.66667V19.8ZM12 13.3333C13.2889 13.3333 14.3889 12.8778 15.3 11.9667C16.2111 11.0556 16.6667 9.95556 16.6667 8.66667C16.6667 7.37778 16.2111 6.27778 15.3 5.36667C14.3889 4.45556 13.2889 4 12 4C10.7111 4 9.61111 4.45556 8.7 5.36667C7.78889 6.27778 7.33333 7.37778 7.33333 8.66667C7.33333 9.95556 7.78889 11.0556 8.7 11.9667C9.61111 12.8778 10.7111 13.3333 12 13.3333ZM2.66667 24C1.93333 24 1.30556 23.7389 0.783333 23.2167C0.261111 22.6944 0 22.0667 0 21.3333V2.66667C0 1.93333 0.261111 1.30556 0.783333 0.783333C1.30556 0.261111 1.93333 0 2.66667 0H21.3333C22.0667 0 22.6944 0.261111 23.2167 0.783333C23.7389 1.30556 24 1.93333 24 2.66667V21.3333C24 22.0667 23.7389 22.6944 23.2167 23.2167C22.6944 23.7389 22.0667 24 21.3333 24H2.66667ZM4.96667 21.3333H19.0333C18.0556 20.4667 16.95 19.8056 15.7167 19.35C14.4833 18.8944 13.2444 18.6667 12 18.6667C10.7556 18.6667 9.50556 18.8944 8.25 19.35C6.99444 19.8056 5.9 20.4667 4.96667 21.3333ZM12 10.6667C11.4444 10.6667 10.9722 10.4722 10.5833 10.0833C10.1944 9.69444 10 9.22222 10 8.66667C10 8.11111 10.1944 7.63889 10.5833 7.25C10.9722 6.86111 11.4444 6.66667 12 6.66667C12.5556 6.66667 13.0278 6.86111 13.4167 7.25C13.8056 7.63889 14 8.11111 14 8.66667C14 9.22222 13.8056 9.69444 13.4167 10.0833C13.0278 10.4722 12.5556 10.6667 12 10.6667Z" fill="white"/>
</svg>
