<svg width="64" height="64" viewBox="0 0 64 64" fill="none" xmlns="http://www.w3.org/2000/svg">
<rect width="64" height="64" rx="32" fill="#3355FF"/>
<path d="M22.6667 39.8C23.8667 38.6222 25.2611 37.6944 26.85 37.0167C28.4389 36.3389 30.1556 36 32 36C33.8444 36 35.5611 36.3389 37.15 37.0167C38.7389 37.6944 40.1333 38.6222 41.3333 39.8V22.6667H22.6667V39.8ZM32 33.3333C33.2889 33.3333 34.3889 32.8778 35.3 31.9667C36.2111 31.0556 36.6667 29.9556 36.6667 28.6667C36.6667 27.3778 36.2111 26.2778 35.3 25.3667C34.3889 24.4556 33.2889 24 32 24C30.7111 24 29.6111 24.4556 28.7 25.3667C27.7889 26.2778 27.3333 27.3778 27.3333 28.6667C27.3333 29.9556 27.7889 31.0556 28.7 31.9667C29.6111 32.8778 30.7111 33.3333 32 33.3333ZM22.6667 44C21.9333 44 21.3056 43.7389 20.7833 43.2167C20.2611 42.6944 20 42.0667 20 41.3333V22.6667C20 21.9333 20.2611 21.3056 20.7833 20.7833C21.3056 20.2611 21.9333 20 22.6667 20H41.3333C42.0667 20 42.6944 20.2611 43.2167 20.7833C43.7389 21.3056 44 21.9333 44 22.6667V41.3333C44 42.0667 43.7389 42.6944 43.2167 43.2167C42.6944 43.7389 42.0667 44 41.3333 44H22.6667ZM24.9667 41.3333H39.0333C38.0556 40.4667 36.95 39.8056 35.7167 39.35C34.4833 38.8944 33.2444 38.6667 32 38.6667C30.7556 38.6667 29.5056 38.8944 28.25 39.35C26.9944 39.8056 25.9 40.4667 24.9667 41.3333ZM32 30.6667C31.4444 30.6667 30.9722 30.4722 30.5833 30.0833C30.1944 29.6944 30 29.2222 30 28.6667C30 28.1111 30.1944 27.6389 30.5833 27.25C30.9722 26.8611 31.4444 26.6667 32 26.6667C32.5556 26.6667 33.0278 26.8611 33.4167 27.25C33.8056 27.6389 34 28.1111 34 28.6667C34 29.2222 33.8056 29.6944 33.4167 30.0833C33.0278 30.4722 32.5556 30.6667 32 30.6667Z" fill="white"/>
</svg>
