<svg width="28" height="28" viewBox="0 0 28 28" fill="none" xmlns="http://www.w3.org/2000/svg">
<path d="M3.33073 27.3334C2.5974 27.3334 1.96962 27.0723 1.4474 26.5501C0.925174 26.0279 0.664062 25.4001 0.664062 24.6667V11.3334C0.664062 10.6001 0.925174 9.9723 1.4474 9.45008C1.96962 8.92786 2.5974 8.66675 3.33073 8.66675H24.6641C25.3974 8.66675 26.0252 8.92786 26.5474 9.45008C27.0696 9.9723 27.3307 10.6001 27.3307 11.3334V24.6667C27.3307 25.4001 27.0696 26.0279 26.5474 26.5501C26.0252 27.0723 25.3974 27.3334 24.6641 27.3334H3.33073ZM3.33073 24.6667H24.6641V11.3334H3.33073V24.6667ZM12.3641 22.6334L18.4974 18.5667C18.6974 18.4334 18.7974 18.2445 18.7974 18.0001C18.7974 17.7556 18.6974 17.5667 18.4974 17.4334L12.3641 13.3667C12.1418 13.2112 11.9141 13.1945 11.6807 13.3167C11.4474 13.439 11.3307 13.6334 11.3307 13.9001V22.1001C11.3307 22.3667 11.4474 22.5612 11.6807 22.6834C11.9141 22.8056 12.1418 22.789 12.3641 22.6334ZM4.66406 7.33341C4.28628 7.33341 3.96962 7.20564 3.71406 6.95008C3.45851 6.69453 3.33073 6.37786 3.33073 6.00008C3.33073 5.6223 3.45851 5.30564 3.71406 5.05008C3.96962 4.79453 4.28628 4.66675 4.66406 4.66675H23.3307C23.7085 4.66675 24.0252 4.79453 24.2807 5.05008C24.5363 5.30564 24.6641 5.6223 24.6641 6.00008C24.6641 6.37786 24.5363 6.69453 24.2807 6.95008C24.0252 7.20564 23.7085 7.33341 23.3307 7.33341H4.66406ZM8.66406 3.33341C8.28628 3.33341 7.96962 3.20564 7.71406 2.95008C7.45851 2.69453 7.33073 2.37786 7.33073 2.00008C7.33073 1.6223 7.45851 1.30564 7.71406 1.05008C7.96962 0.794526 8.28628 0.666748 8.66406 0.666748H19.3307C19.7085 0.666748 20.0252 0.794526 20.2807 1.05008C20.5363 1.30564 20.6641 1.6223 20.6641 2.00008C20.6641 2.37786 20.5363 2.69453 20.2807 2.95008C20.0252 3.20564 19.7085 3.33341 19.3307 3.33341H8.66406Z" fill="white"/>
</svg>
