<svg width="65" height="64" viewBox="0 0 65 64" fill="none" xmlns="http://www.w3.org/2000/svg">
<rect x="0.125" width="64" height="64" rx="32" fill="#3355FF"/>
<path d="M21.4557 45.3334C20.7224 45.3334 20.0946 45.0723 19.5724 44.5501C19.0502 44.0279 18.7891 43.4001 18.7891 42.6667V29.3334C18.7891 28.6001 19.0502 27.9723 19.5724 27.4501C20.0946 26.9279 20.7224 26.6667 21.4557 26.6667H42.7891C43.5224 26.6667 44.1502 26.9279 44.6724 27.4501C45.1946 27.9723 45.4557 28.6001 45.4557 29.3334V42.6667C45.4557 43.4001 45.1946 44.0279 44.6724 44.5501C44.1502 45.0723 43.5224 45.3334 42.7891 45.3334H21.4557ZM21.4557 42.6667H42.7891V29.3334H21.4557V42.6667ZM30.4891 40.6334L36.6224 36.5667C36.8224 36.4334 36.9224 36.2445 36.9224 36.0001C36.9224 35.7556 36.8224 35.5667 36.6224 35.4334L30.4891 31.3667C30.2668 31.2112 30.0391 31.1945 29.8057 31.3167C29.5724 31.439 29.4557 31.6334 29.4557 31.9001V40.1001C29.4557 40.3667 29.5724 40.5612 29.8057 40.6834C30.0391 40.8056 30.2668 40.789 30.4891 40.6334ZM22.7891 25.3334C22.4113 25.3334 22.0946 25.2056 21.8391 24.9501C21.5835 24.6945 21.4557 24.3779 21.4557 24.0001C21.4557 23.6223 21.5835 23.3056 21.8391 23.0501C22.0946 22.7945 22.4113 22.6667 22.7891 22.6667H41.4557C41.8335 22.6667 42.1502 22.7945 42.4057 23.0501C42.6613 23.3056 42.7891 23.6223 42.7891 24.0001C42.7891 24.3779 42.6613 24.6945 42.4057 24.9501C42.1502 25.2056 41.8335 25.3334 41.4557 25.3334H22.7891ZM26.7891 21.3334C26.4113 21.3334 26.0946 21.2056 25.8391 20.9501C25.5835 20.6945 25.4557 20.3779 25.4557 20.0001C25.4557 19.6223 25.5835 19.3056 25.8391 19.0501C26.0946 18.7945 26.4113 18.6667 26.7891 18.6667H37.4557C37.8335 18.6667 38.1502 18.7945 38.4057 19.0501C38.6613 19.3056 38.7891 19.6223 38.7891 20.0001C38.7891 20.3779 38.6613 20.6945 38.4057 20.9501C38.1502 21.2056 37.8335 21.3334 37.4557 21.3334H26.7891Z" fill="white"/>
</svg>
