<svg width="65" height="64" viewBox="0 0 65 64" fill="none" xmlns="http://www.w3.org/2000/svg">
<rect x="0.75" width="64" height="64" rx="32" fill="#3355FF"/>
<path d="M23.4167 44C22.6833 44 22.0556 43.7389 21.5333 43.2167C21.0111 42.6944 20.75 42.0667 20.75 41.3333V22.6667C20.75 21.9333 21.0111 21.3056 21.5333 20.7833C22.0556 20.2611 22.6833 20 23.4167 20H42.0833C42.8167 20 43.4444 20.2611 43.9667 20.7833C44.4889 21.3056 44.75 21.9333 44.75 22.6667V26H42.0833V22.6667H23.4167V41.3333H42.0833V38H44.75V41.3333C44.75 42.0667 44.4889 42.6944 43.9667 43.2167C43.4444 43.7389 42.8167 44 42.0833 44H23.4167ZM34.0833 38.6667C33.35 38.6667 32.7222 38.4056 32.2 37.8833C31.6778 37.3611 31.4167 36.7333 31.4167 36V28C31.4167 27.2667 31.6778 26.6389 32.2 26.1167C32.7222 25.5944 33.35 25.3333 34.0833 25.3333H43.4167C44.15 25.3333 44.7778 25.5944 45.3 26.1167C45.8222 26.6389 46.0833 27.2667 46.0833 28V36C46.0833 36.7333 45.8222 37.3611 45.3 37.8833C44.7778 38.4056 44.15 38.6667 43.4167 38.6667H34.0833ZM43.4167 36V28H34.0833V36H43.4167ZM38.0833 34C38.6389 34 39.1111 33.8056 39.5 33.4167C39.8889 33.0278 40.0833 32.5556 40.0833 32C40.0833 31.4444 39.8889 30.9722 39.5 30.5833C39.1111 30.1944 38.6389 30 38.0833 30C37.5278 30 37.0556 30.1944 36.6667 30.5833C36.2778 30.9722 36.0833 31.4444 36.0833 32C36.0833 32.5556 36.2778 33.0278 36.6667 33.4167C37.0556 33.8056 37.5278 34 38.0833 34Z" fill="white"/>
</svg>
