<svg width="65" height="64" viewBox="0 0 65 64" fill="none" xmlns="http://www.w3.org/2000/svg">
<rect x="0.25" width="64" height="64" rx="32" fill="#3355FF"/>
<path d="M21.5885 44C20.8552 44 20.2274 43.7389 19.7052 43.2167C19.183 42.6944 18.9219 42.0667 18.9219 41.3333V22.6667C18.9219 21.9333 19.183 21.3056 19.7052 20.7833C20.2274 20.2611 20.8552 20 21.5885 20H42.9219C43.6552 20 44.283 20.2611 44.8052 20.7833C45.3274 21.3056 45.5885 21.9333 45.5885 22.6667V41.3333C45.5885 42.0667 45.3274 42.6944 44.8052 43.2167C44.283 43.7389 43.6552 44 42.9219 44H21.5885ZM21.5885 41.3333H42.9219V22.6667H21.5885V41.3333ZM28.2552 38.6667C28.633 38.6667 28.9497 38.5389 29.2052 38.2833C29.4608 38.0278 29.5885 37.7111 29.5885 37.3333C29.5885 36.9556 29.4608 36.6389 29.2052 36.3833C28.9497 36.1278 28.633 36 28.2552 36H24.2552C23.8774 36 23.5608 36.1278 23.3052 36.3833C23.0497 36.6389 22.9219 36.9556 22.9219 37.3333C22.9219 37.7111 23.0497 38.0278 23.3052 38.2833C23.5608 38.5389 23.8774 38.6667 24.2552 38.6667H28.2552ZM35.6552 32.2333L34.6885 31.2667C34.4219 31 34.1108 30.8722 33.7552 30.8833C33.3997 30.8944 33.0885 31.0333 32.8219 31.3C32.5774 31.5667 32.4497 31.8778 32.4385 32.2333C32.4274 32.5889 32.5552 32.9 32.8219 33.1667L34.7219 35.0667C34.9885 35.3333 35.2997 35.4667 35.6552 35.4667C36.0108 35.4667 36.3219 35.3333 36.5885 35.0667L41.3219 30.3333C41.5885 30.0667 41.7219 29.7556 41.7219 29.4C41.7219 29.0444 41.5885 28.7333 41.3219 28.4667C41.0552 28.2 40.7385 28.0667 40.3719 28.0667C40.0052 28.0667 39.6885 28.2 39.4219 28.4667L35.6552 32.2333ZM28.2552 33.3333C28.633 33.3333 28.9497 33.2056 29.2052 32.95C29.4608 32.6944 29.5885 32.3778 29.5885 32C29.5885 31.6222 29.4608 31.3056 29.2052 31.05C28.9497 30.7944 28.633 30.6667 28.2552 30.6667H24.2552C23.8774 30.6667 23.5608 30.7944 23.3052 31.05C23.0497 31.3056 22.9219 31.6222 22.9219 32C22.9219 32.3778 23.0497 32.6944 23.3052 32.95C23.5608 33.2056 23.8774 33.3333 24.2552 33.3333H28.2552ZM28.2552 28C28.633 28 28.9497 27.8722 29.2052 27.6167C29.4608 27.3611 29.5885 27.0444 29.5885 26.6667C29.5885 26.2889 29.4608 25.9722 29.2052 25.7167C28.9497 25.4611 28.633 25.3333 28.2552 25.3333H24.2552C23.8774 25.3333 23.5608 25.4611 23.3052 25.7167C23.0497 25.9722 22.9219 26.2889 22.9219 26.6667C22.9219 27.0444 23.0497 27.3611 23.3052 27.6167C23.5608 27.8722 23.8774 28 24.2552 28H28.2552Z" fill="white"/>
</svg>
