<svg width="51" height="51" viewBox="0 0 51 51" fill="none" xmlns="http://www.w3.org/2000/svg">
<rect x="0.5" y="0.5" width="50" height="50" rx="25" fill="#FEDF22"/>
<path d="M17.5 34.5C16.95 34.5 16.4792 34.3042 16.0875 33.9125C15.6958 33.5208 15.5 33.05 15.5 32.5V18.5C15.5 17.95 15.6958 17.4792 16.0875 17.0875C16.4792 16.6958 16.95 16.5 17.5 16.5H33.5C34.05 16.5 34.5208 16.6958 34.9125 17.0875C35.3042 17.4792 35.5 17.95 35.5 18.5V32.5C35.5 33.05 35.3042 33.5208 34.9125 33.9125C34.5208 34.3042 34.05 34.5 33.5 34.5H17.5ZM17.5 32.5H33.5V18.5H17.5V32.5ZM22.5 30.5C22.7833 30.5 23.0208 30.4042 23.2125 30.2125C23.4042 30.0208 23.5 29.7833 23.5 29.5C23.5 29.2167 23.4042 28.9792 23.2125 28.7875C23.0208 28.5958 22.7833 28.5 22.5 28.5H19.5C19.2167 28.5 18.9792 28.5958 18.7875 28.7875C18.5958 28.9792 18.5 29.2167 18.5 29.5C18.5 29.7833 18.5958 30.0208 18.7875 30.2125C18.9792 30.4042 19.2167 30.5 19.5 30.5H22.5ZM28.05 25.675L27.325 24.95C27.125 24.75 26.8917 24.6542 26.625 24.6625C26.3583 24.6708 26.125 24.775 25.925 24.975C25.7417 25.175 25.6458 25.4083 25.6375 25.675C25.6292 25.9417 25.725 26.175 25.925 26.375L27.35 27.8C27.55 28 27.7833 28.1 28.05 28.1C28.3167 28.1 28.55 28 28.75 27.8L32.3 24.25C32.5 24.05 32.6 23.8167 32.6 23.55C32.6 23.2833 32.5 23.05 32.3 22.85C32.1 22.65 31.8625 22.55 31.5875 22.55C31.3125 22.55 31.075 22.65 30.875 22.85L28.05 25.675ZM22.5 26.5C22.7833 26.5 23.0208 26.4042 23.2125 26.2125C23.4042 26.0208 23.5 25.7833 23.5 25.5C23.5 25.2167 23.4042 24.9792 23.2125 24.7875C23.0208 24.5958 22.7833 24.5 22.5 24.5H19.5C19.2167 24.5 18.9792 24.5958 18.7875 24.7875C18.5958 24.9792 18.5 25.2167 18.5 25.5C18.5 25.7833 18.5958 26.0208 18.7875 26.2125C18.9792 26.4042 19.2167 26.5 19.5 26.5H22.5ZM22.5 22.5C22.7833 22.5 23.0208 22.4042 23.2125 22.2125C23.4042 22.0208 23.5 21.7833 23.5 21.5C23.5 21.2167 23.4042 20.9792 23.2125 20.7875C23.0208 20.5958 22.7833 20.5 22.5 20.5H19.5C19.2167 20.5 18.9792 20.5958 18.7875 20.7875C18.5958 20.9792 18.5 21.2167 18.5 21.5C18.5 21.7833 18.5958 22.0208 18.7875 22.2125C18.9792 22.4042 19.2167 22.5 19.5 22.5H22.5Z" fill="#2D2323"/>
</svg>
