<!-- @TODO - Rename to check-window.svg (instead of window-check) -->

<svg width="28" height="24" viewBox="0 0 28 24" fill="none" xmlns="http://www.w3.org/2000/svg">
<path d="M3.33464 24C2.6013 24 1.97352 23.7389 1.4513 23.2167C0.92908 22.6944 0.667969 22.0667 0.667969 21.3333V2.66667C0.667969 1.93333 0.92908 1.30556 1.4513 0.783333C1.97352 0.261111 2.6013 0 3.33464 0H24.668C25.4013 0 26.0291 0.261111 26.5513 0.783333C27.0735 1.30556 27.3346 1.93333 27.3346 2.66667V21.3333C27.3346 22.0667 27.0735 22.6944 26.5513 23.2167C26.0291 23.7389 25.4013 24 24.668 24H3.33464ZM3.33464 21.3333H24.668V2.66667H3.33464V21.3333ZM10.0013 18.6667C10.3791 18.6667 10.6957 18.5389 10.9513 18.2833C11.2069 18.0278 11.3346 17.7111 11.3346 17.3333C11.3346 16.9556 11.2069 16.6389 10.9513 16.3833C10.6957 16.1278 10.3791 16 10.0013 16H6.0013C5.62352 16 5.30686 16.1278 5.0513 16.3833C4.79575 16.6389 4.66797 16.9556 4.66797 17.3333C4.66797 17.7111 4.79575 18.0278 5.0513 18.2833C5.30686 18.5389 5.62352 18.6667 6.0013 18.6667H10.0013ZM17.4013 12.2333L16.4346 11.2667C16.168 11 15.8569 10.8722 15.5013 10.8833C15.1457 10.8944 14.8346 11.0333 14.568 11.3C14.3235 11.5667 14.1957 11.8778 14.1846 12.2333C14.1735 12.5889 14.3013 12.9 14.568 13.1667L16.468 15.0667C16.7346 15.3333 17.0457 15.4667 17.4013 15.4667C17.7569 15.4667 18.068 15.3333 18.3346 15.0667L23.068 10.3333C23.3346 10.0667 23.468 9.75556 23.468 9.4C23.468 9.04445 23.3346 8.73333 23.068 8.46667C22.8013 8.2 22.4846 8.06667 22.118 8.06667C21.7513 8.06667 21.4346 8.2 21.168 8.46667L17.4013 12.2333ZM10.0013 13.3333C10.3791 13.3333 10.6957 13.2056 10.9513 12.95C11.2069 12.6944 11.3346 12.3778 11.3346 12C11.3346 11.6222 11.2069 11.3056 10.9513 11.05C10.6957 10.7944 10.3791 10.6667 10.0013 10.6667H6.0013C5.62352 10.6667 5.30686 10.7944 5.0513 11.05C4.79575 11.3056 4.66797 11.6222 4.66797 12C4.66797 12.3778 4.79575 12.6944 5.0513 12.95C5.30686 13.2056 5.62352 13.3333 6.0013 13.3333H10.0013ZM10.0013 8C10.3791 8 10.6957 7.87222 10.9513 7.61667C11.2069 7.36111 11.3346 7.04445 11.3346 6.66667C11.3346 6.28889 11.2069 5.97222 10.9513 5.71667C10.6957 5.46111 10.3791 5.33333 10.0013 5.33333H6.0013C5.62352 5.33333 5.30686 5.46111 5.0513 5.71667C4.79575 5.97222 4.66797 6.28889 4.66797 6.66667C4.66797 7.04445 4.79575 7.36111 5.0513 7.61667C5.30686 7.87222 5.62352 8 6.0013 8H10.0013Z" fill="white"/>
</svg>
