<svg width="30" height="24" viewBox="0 0 30 24" fill="none" xmlns="http://www.w3.org/2000/svg">
<path d="M0.398438 22.6667V20.2667C0.398438 19.5333 0.587326 18.8444 0.965104 18.2C1.34288 17.5556 1.8651 17.0667 2.53177 16.7333C3.6651 16.1556 4.94288 15.6667 6.3651 15.2667C7.78733 14.8667 9.35399 14.6667 11.0651 14.6667C12.7762 14.6667 14.3429 14.8667 15.7651 15.2667C17.1873 15.6667 18.4651 16.1556 19.5984 16.7333C20.2651 17.0667 20.7873 17.5556 21.1651 18.2C21.5429 18.8444 21.7318 19.5333 21.7318 20.2667V22.6667C21.7318 23.0444 21.604 23.3611 21.3484 23.6167C21.0929 23.8722 20.7762 24 20.3984 24H1.73177C1.35399 24 1.03733 23.8722 0.781771 23.6167C0.526215 23.3611 0.398438 23.0444 0.398438 22.6667ZM3.0651 21.3333H19.0651V20.2667C19.0651 20.0222 19.004 19.8 18.8818 19.6C18.7596 19.4 18.5984 19.2444 18.3984 19.1333C17.5984 18.7333 16.5707 18.3333 15.3151 17.9333C14.0595 17.5333 12.6429 17.3333 11.0651 17.3333C9.48733 17.3333 8.07066 17.5333 6.8151 17.9333C5.55955 18.3333 4.53177 18.7333 3.73177 19.1333C3.53177 19.2444 3.37066 19.4 3.24844 19.6C3.12622 19.8 3.0651 20.0222 3.0651 20.2667V21.3333ZM11.0651 13.3333C9.59844 13.3333 8.34288 12.8111 7.29844 11.7667C6.25399 10.7222 5.73177 9.46667 5.73177 8H5.39844C5.19844 8 5.03733 7.93889 4.9151 7.81667C4.79288 7.69444 4.73177 7.53333 4.73177 7.33333C4.73177 7.13333 4.79288 6.97222 4.9151 6.85C5.03733 6.72778 5.19844 6.66667 5.39844 6.66667H5.73177C5.73177 5.66667 5.97622 4.76667 6.4651 3.96667C6.95399 3.16667 7.59844 2.53333 8.39844 2.06667V3.33333C8.39844 3.53333 8.45955 3.69444 8.58177 3.81667C8.70399 3.93889 8.8651 4 9.0651 4C9.2651 4 9.42622 3.93889 9.54844 3.81667C9.67066 3.69444 9.73177 3.53333 9.73177 3.33333V1.53333C9.93177 1.46667 10.1429 1.41667 10.3651 1.38333C10.5873 1.35 10.8207 1.33333 11.0651 1.33333C11.3095 1.33333 11.5429 1.35 11.7651 1.38333C11.9873 1.41667 12.1984 1.46667 12.3984 1.53333V3.33333C12.3984 3.53333 12.4595 3.69444 12.5818 3.81667C12.704 3.93889 12.8651 4 13.0651 4C13.2651 4 13.4262 3.93889 13.5484 3.81667C13.6707 3.69444 13.7318 3.53333 13.7318 3.33333V2.06667C14.5318 2.53333 15.1762 3.16667 15.6651 3.96667C16.154 4.76667 16.3984 5.66667 16.3984 6.66667H16.7318C16.9318 6.66667 17.0929 6.72778 17.2151 6.85C17.3373 6.97222 17.3984 7.13333 17.3984 7.33333C17.3984 7.53333 17.3373 7.69444 17.2151 7.81667C17.0929 7.93889 16.9318 8 16.7318 8H16.3984C16.3984 9.46667 15.8762 10.7222 14.8318 11.7667C13.7873 12.8111 12.5318 13.3333 11.0651 13.3333ZM11.0651 10.6667C11.7984 10.6667 12.4262 10.4056 12.9484 9.88333C13.4707 9.36111 13.7318 8.73333 13.7318 8H8.39844C8.39844 8.73333 8.65955 9.36111 9.18177 9.88333C9.70399 10.4056 10.3318 10.6667 11.0651 10.6667ZM20.9651 15.4667L20.8651 15C20.7318 14.9556 20.604 14.9056 20.4818 14.85C20.3596 14.7944 20.2429 14.7111 20.1318 14.6L19.7318 14.7333C19.5762 14.7778 19.4262 14.7778 19.2818 14.7333C19.1373 14.6889 19.0207 14.5889 18.9318 14.4333L18.7984 14.2C18.7095 14.0667 18.6818 13.9222 18.7151 13.7667C18.7484 13.6111 18.8207 13.4778 18.9318 13.3667L19.2651 13.0667V12.2667L18.9318 11.9667C18.8207 11.8556 18.7484 11.7222 18.7151 11.5667C18.6818 11.4111 18.7095 11.2667 18.7984 11.1333L18.9318 10.9C19.0207 10.7444 19.1373 10.6444 19.2818 10.6C19.4262 10.5556 19.5762 10.5556 19.7318 10.6L20.1318 10.7333C20.2207 10.6444 20.3318 10.5667 20.4651 10.5C20.5984 10.4333 20.7318 10.3778 20.8651 10.3333L20.9651 9.86667C21.0096 9.71111 21.0873 9.58333 21.1984 9.48333C21.3095 9.38333 21.4429 9.33333 21.5984 9.33333H21.8651C22.0207 9.33333 22.154 9.38333 22.2651 9.48333C22.3762 9.58333 22.454 9.71111 22.4984 9.86667L22.5984 10.3333C22.7318 10.3778 22.8651 10.4333 22.9984 10.5C23.1318 10.5667 23.2429 10.6444 23.3318 10.7333L23.7318 10.6C23.8873 10.5556 24.0373 10.5556 24.1818 10.6C24.3262 10.6444 24.4429 10.7444 24.5318 10.9L24.6651 11.1333C24.754 11.2667 24.7818 11.4111 24.7484 11.5667C24.7151 11.7222 24.6429 11.8556 24.5318 11.9667L24.1984 12.2667V13.0667L24.5318 13.3667C24.6429 13.4778 24.7151 13.6111 24.7484 13.7667C24.7818 13.9222 24.754 14.0667 24.6651 14.2L24.5318 14.4333C24.4429 14.5889 24.3262 14.6889 24.1818 14.7333C24.0373 14.7778 23.8873 14.7778 23.7318 14.7333L23.3318 14.6C23.2207 14.7111 23.104 14.7944 22.9818 14.85C22.8596 14.9056 22.7318 14.9556 22.5984 15L22.4984 15.4667C22.454 15.6222 22.3762 15.75 22.2651 15.85C22.154 15.95 22.0207 16 21.8651 16H21.5984C21.4429 16 21.3095 15.95 21.1984 15.85C21.0873 15.75 21.0096 15.6222 20.9651 15.4667ZM21.7318 13.6667C21.9984 13.6667 22.2318 13.5667 22.4318 13.3667C22.6318 13.1667 22.7318 12.9333 22.7318 12.6667C22.7318 12.4 22.6318 12.1667 22.4318 11.9667C22.2318 11.7667 21.9984 11.6667 21.7318 11.6667C21.4651 11.6667 21.2318 11.7667 21.0318 11.9667C20.8318 12.1667 20.7318 12.4 20.7318 12.6667C20.7318 12.9333 20.8318 13.1667 21.0318 13.3667C21.2318 13.5667 21.4651 13.6667 21.7318 13.6667ZM23.9984 8.6L23.8651 7.93333C23.6651 7.86667 23.4818 7.78333 23.3151 7.68333C23.1484 7.58333 22.9984 7.46667 22.8651 7.33333L22.1651 7.56667C21.9651 7.63333 21.7651 7.62778 21.5651 7.55C21.3651 7.47222 21.2095 7.34444 21.0984 7.16667L20.8984 6.83333C20.7873 6.65556 20.7484 6.46111 20.7818 6.25C20.8151 6.03889 20.9207 5.85556 21.0984 5.7L21.6651 5.2C21.6207 5.08889 21.5984 5 21.5984 4.93333V4.4C21.5984 4.33333 21.6207 4.24444 21.6651 4.13333L21.0984 3.63333C20.9207 3.47778 20.8151 3.29444 20.7818 3.08333C20.7484 2.87222 20.7873 2.67778 20.8984 2.5L21.0984 2.16667C21.2095 1.98889 21.3651 1.86111 21.5651 1.78333C21.7651 1.70556 21.9651 1.7 22.1651 1.76667L22.8651 2C22.9984 1.86667 23.1484 1.75 23.3151 1.65C23.4818 1.55 23.6651 1.46667 23.8651 1.4L23.9984 0.733333C24.0429 0.511111 24.1484 0.333333 24.3151 0.2C24.4818 0.0666667 24.6762 0 24.8984 0H25.2318C25.454 0 25.6484 0.0666667 25.8151 0.2C25.9818 0.333333 26.0873 0.511111 26.1318 0.733333L26.2651 1.4C26.4651 1.46667 26.6484 1.55 26.8151 1.65C26.9818 1.75 27.1318 1.86667 27.2651 2L27.9651 1.76667C28.1651 1.7 28.3651 1.70556 28.5651 1.78333C28.7651 1.86111 28.9207 1.98889 29.0318 2.16667L29.2318 2.5C29.3429 2.67778 29.3818 2.87222 29.3484 3.08333C29.3151 3.29444 29.2096 3.47778 29.0318 3.63333L28.4651 4.13333C28.5096 4.24444 28.5318 4.33333 28.5318 4.4V4.93333C28.5318 5 28.5096 5.08889 28.4651 5.2L29.0318 5.7C29.2096 5.85556 29.3151 6.03889 29.3484 6.25C29.3818 6.46111 29.3429 6.65556 29.2318 6.83333L29.0318 7.16667C28.9207 7.34444 28.7651 7.47222 28.5651 7.55C28.3651 7.62778 28.1651 7.63333 27.9651 7.56667L27.2651 7.33333C27.1318 7.46667 26.9818 7.58333 26.8151 7.68333C26.6484 7.78333 26.4651 7.86667 26.2651 7.93333L26.1318 8.6C26.0873 8.82222 25.9818 9 25.8151 9.13333C25.6484 9.26667 25.454 9.33333 25.2318 9.33333H24.8984C24.6762 9.33333 24.4818 9.26667 24.3151 9.13333C24.1484 9 24.0429 8.82222 23.9984 8.6ZM25.0651 6.33333C25.5318 6.33333 25.9262 6.17222 26.2484 5.85C26.5707 5.52778 26.7318 5.13333 26.7318 4.66667C26.7318 4.2 26.5707 3.80556 26.2484 3.48333C25.9262 3.16111 25.5318 3 25.0651 3C24.5984 3 24.204 3.16111 23.8818 3.48333C23.5595 3.80556 23.3984 4.2 23.3984 4.66667C23.3984 5.13333 23.5595 5.52778 23.8818 5.85C24.204 6.17222 24.5984 6.33333 25.0651 6.33333Z" fill="white"/>
</svg>
