<svg width="42" height="42" viewBox="0 0 42 42" fill="none" xmlns="http://www.w3.org/2000/svg">
<rect width="42" height="42" rx="21" fill="#FEDF22"/>
<g clip-path="url(#clip0_425_1575)">
<path fill-rule="evenodd" clip-rule="evenodd" d="M21 13C21.855 13 22.732 13.022 23.582 13.058L24.586 13.106L25.547 13.163L26.447 13.224L27.269 13.288C28.161 13.3563 29.0004 13.7369 29.6395 14.363C30.2786 14.9891 30.6764 15.8205 30.763 16.711L30.803 17.136L30.878 18.046C30.948 18.989 31 20.017 31 21C31 21.983 30.948 23.011 30.878 23.954L30.803 24.864C30.79 25.01 30.777 25.151 30.763 25.289C30.6764 26.1796 30.2784 27.0112 29.6391 27.6373C28.9999 28.2634 28.1602 28.6439 27.268 28.712L26.448 28.775L25.548 28.837L24.586 28.894L23.582 28.942C22.7218 28.9794 21.861 28.9987 21 29C20.139 28.9987 19.2782 28.9794 18.418 28.942L17.414 28.894L16.453 28.837L15.553 28.775L14.731 28.712C13.839 28.6437 12.9996 28.2631 12.3605 27.637C11.7214 27.0109 11.3236 26.1795 11.237 25.289L11.197 24.864L11.122 23.954C11.0455 22.9711 11.0048 21.9858 11 21C11 20.017 11.052 18.989 11.122 18.046L11.197 17.136C11.21 16.99 11.223 16.849 11.237 16.711C11.3235 15.8207 11.7212 14.9894 12.3601 14.3633C12.999 13.7373 13.8381 13.3565 14.73 13.288L15.551 13.224L16.451 13.163L17.413 13.106L18.417 13.058C19.2775 13.0206 20.1387 13.0013 21 13ZM19 18.575V23.425C19 23.887 19.5 24.175 19.9 23.945L24.1 21.52C24.1914 21.4674 24.2673 21.3916 24.3201 21.3003C24.3729 21.209 24.4007 21.1055 24.4007 21C24.4007 20.8945 24.3729 20.791 24.3201 20.6997C24.2673 20.6084 24.1914 20.5326 24.1 20.48L19.9 18.056C19.8088 18.0033 19.7053 17.9756 19.5999 17.9756C19.4945 17.9756 19.3911 18.0034 19.2998 18.0561C19.2086 18.1088 19.1329 18.1846 19.0802 18.2759C19.0276 18.3671 18.9999 18.4706 19 18.576V18.575Z" fill="#2D2323"/>
</g>
<defs>
<clipPath id="clip0_425_1575">
<rect width="24" height="24" fill="white" transform="translate(9 9)"/>
</clipPath>
</defs>
</svg>
