<svg width="25" height="20" viewBox="0 0 25 20" fill="none" xmlns="http://www.w3.org/2000/svg">
<path fill-rule="evenodd" clip-rule="evenodd" d="M12.25 0.125488C13.276 0.125488 14.3284 0.151888 15.3484 0.195088L16.5532 0.252688L17.7064 0.321088L18.7864 0.394288L19.7728 0.471088C20.8433 0.553022 21.8505 1.00982 22.6174 1.76114C23.3843 2.51245 23.8617 3.51014 23.9656 4.57869L24.0136 5.08869L24.1036 6.18069C24.1876 7.31229 24.25 8.54589 24.25 9.72549C24.25 10.9051 24.1876 12.1387 24.1036 13.2703L24.0136 14.3623C23.998 14.5375 23.9824 14.7067 23.9656 14.8723C23.8617 15.941 23.3841 16.9389 22.617 17.6902C21.8498 18.4415 20.8423 18.8982 19.7716 18.9799L18.7876 19.0555L17.7076 19.1299L16.5532 19.1983L15.3484 19.2559C14.3162 19.3007 13.2832 19.3239 12.25 19.3255C11.2168 19.3239 10.1838 19.3007 9.1516 19.2559L7.9468 19.1983L6.7936 19.1299L5.7136 19.0555L4.7272 18.9799C3.65674 18.898 2.64946 18.4412 1.88257 17.6898C1.11567 16.9385 0.638289 15.9408 0.5344 14.8723L0.4864 14.3623L0.3964 13.2703C0.304645 12.0909 0.255813 10.9085 0.25 9.72549C0.25 8.54589 0.3124 7.31229 0.3964 6.18069L0.4864 5.08869C0.502 4.91349 0.5176 4.74429 0.5344 4.57869C0.638249 3.51033 1.11546 2.51279 1.88211 1.7615C2.64876 1.01021 3.65575 0.553291 4.726 0.471088L5.7112 0.394288L6.7912 0.321088L7.9456 0.252688L9.1504 0.195088C10.183 0.150248 11.2164 0.127043 12.25 0.125488ZM9.85 6.81549V12.6355C9.85 13.1899 10.45 13.5355 10.93 13.2595L15.97 10.3495C16.0797 10.2864 16.1708 10.1954 16.2341 10.0859C16.2975 9.97634 16.3308 9.85203 16.3308 9.72549C16.3308 9.59895 16.2975 9.47464 16.2341 9.36509C16.1708 9.25554 16.0797 9.16462 15.97 9.10149L10.93 6.19269C10.8205 6.12948 10.6963 6.09621 10.5699 6.09623C10.4435 6.09625 10.3193 6.12956 10.2098 6.1928C10.1003 6.25605 10.0094 6.34701 9.94629 6.45653C9.88313 6.56605 9.84992 6.69026 9.85 6.81669V6.81549Z" fill="white"/>
</svg>
